<svg width="471" height="440" viewBox="0 0 471 440" fill="none" xmlns="http://www.w3.org/2000/svg">
<circle opacity="0.05" cx="251" cy="220" r="220" fill="#FFFCF4"/>
<path d="M220.05 162.603H204.61V277.54H220.05V162.603Z" fill="#FAB60B"/>
<path d="M353 220.479C353 222.944 352.856 225.348 352.671 227.772V228.223H352.63C348.667 281.178 304.394 323 250.49 323C193.957 323 148 277.029 148 220.479C148 163.93 193.957 118 250.49 118C287.884 118 320.678 138.151 338.543 168.161L327.208 179.5C312.587 152.119 283.715 133.426 250.49 133.426C202.479 133.426 163.442 172.475 163.442 220.459C163.442 268.443 202.479 307.533 250.49 307.533C295.851 307.533 333.225 272.592 337.127 228.203H257.492L300.492 271.216L289.568 282.144L227.881 220.438L238.805 209.511L289.547 158.754L300.472 169.681L257.472 212.735H352.63C352.815 215.283 352.959 217.83 352.959 220.438L353 220.479Z" fill="#FAB60B"/>
<path d="M50.125 78.625H43.375V84.25C43.375 84.5484 43.4935 84.8345 43.7045 85.0455C43.9155 85.2565 44.2016 85.375 44.5 85.375H49C49.2984 85.375 49.5845 85.2565 49.7955 85.0455C50.0065 84.8345 50.125 84.5484 50.125 84.25V78.625Z" fill="url(#paint0_linear_354_3877)"/>
<path d="M50.125 82H43.375V84.25C43.375 84.5484 43.4935 84.8345 43.7045 85.0455C43.9155 85.2565 44.2016 85.375 44.5 85.375H49C49.2984 85.375 49.5845 85.2565 49.7955 85.0455C50.0065 84.8345 50.125 84.5484 50.125 84.25V82Z" fill="url(#paint1_linear_354_3877)"/>
<path d="M18.625 78.625H11.875V84.25C11.875 84.5484 11.9935 84.8345 12.2045 85.0455C12.4155 85.2565 12.7016 85.375 13 85.375H17.5C17.7984 85.375 18.0845 85.2565 18.2955 85.0455C18.5065 84.8345 18.625 84.5484 18.625 84.25V78.625Z" fill="url(#paint2_linear_354_3877)"/>
<path d="M18.625 82H11.875V84.25C11.875 84.5484 11.9935 84.8345 12.2045 85.0455C12.4155 85.2565 12.7016 85.375 13 85.375H17.5C17.7984 85.375 18.0845 85.2565 18.2955 85.0455C18.5065 84.8345 18.625 84.5484 18.625 84.25V82Z" fill="url(#paint3_linear_354_3877)"/>
<path d="M54.625 52.75H51.25C50.3549 52.75 49.4964 53.1056 48.8635 53.7385C48.2306 54.3714 47.875 55.2299 47.875 56.125V58.375H54.625C54.9234 58.375 55.2095 58.2565 55.4205 58.0455C55.6315 57.8345 55.75 57.5484 55.75 57.25V53.875C55.75 53.5766 55.6315 53.2905 55.4205 53.0795C55.2095 52.8685 54.9234 52.75 54.625 52.75Z" fill="url(#paint4_linear_354_3877)"/>
<path d="M7.375 58.375H14.125V56.125C14.125 55.2299 13.7694 54.3714 13.1365 53.7385C12.5035 53.1056 11.6451 52.75 10.75 52.75H7.375C7.07663 52.75 6.79048 52.8685 6.5795 53.0795C6.36853 53.2905 6.25 53.5766 6.25 53.875L6.25 57.25C6.25 57.5484 6.36853 57.8345 6.5795 58.0455C6.79048 58.2565 7.07663 58.375 7.375 58.375Z" fill="url(#paint5_linear_354_3877)"/>
<path d="M16.1388 42.625H45.8613C46.4154 42.6244 46.9502 42.8283 47.3634 43.1976C47.7765 43.5669 48.0388 44.0756 48.1 44.6264L50.125 62.875H11.875L13.9 44.6264C13.9612 44.0756 14.2235 43.5669 14.6367 43.1976C15.0498 42.8283 15.5846 42.6244 16.1388 42.625Z" fill="url(#paint6_linear_354_3877)"/>
<path d="M48.8751 51.625L50.125 62.875H11.875L13.1249 51.625H48.8751Z" fill="url(#paint7_linear_354_3877)"/>
<path d="M46.7499 60.625C46.9081 60.625 47.0645 60.5917 47.2089 60.5271C47.3534 60.4626 47.4826 60.3683 47.5881 60.2505C47.6936 60.1327 47.7731 59.9939 47.8214 59.8432C47.8696 59.6926 47.8856 59.5335 47.8682 59.3763L46.4788 46.8775C46.4179 46.327 46.156 45.8182 45.7433 45.4487C45.3307 45.0792 44.7962 44.875 44.2423 44.875H18.5473C17.9936 44.8752 17.4594 45.0796 17.047 45.4491C16.6345 45.8186 16.3728 46.3271 16.3119 46.8775L14.9226 59.3763C14.9052 59.5332 14.921 59.692 14.9691 59.8424C15.0172 59.9929 15.0964 60.1315 15.2015 60.2492C15.3067 60.367 15.4355 60.4614 15.5795 60.5261C15.7235 60.5908 15.8795 60.6245 16.0374 60.625H46.7499Z" fill="url(#paint8_linear_354_3877)"/>
<path d="M46.75 59.5L45.3606 47.0013C45.3302 46.726 45.1992 46.4716 44.9929 46.2869C44.7866 46.1021 44.5193 46 44.2424 46H18.5485C18.2715 46 18.0043 46.1021 17.798 46.2869C17.5917 46.4716 17.4607 46.726 17.4303 47.0013L16.0375 59.5H46.75Z" fill="url(#paint9_linear_354_3877)"/>
<path d="M45.7499 50.5L46.75 59.5H16.0409L17.041 50.5H45.7499Z" fill="url(#paint10_linear_354_3877)"/>
<path d="M47.875 58.375H14.125C12.9315 58.375 11.7869 58.8491 10.943 59.693C10.0991 60.5369 9.625 61.6815 9.625 62.875V76.375H52.375V62.875C52.375 61.6815 51.9009 60.5369 51.057 59.693C50.2131 58.8491 49.0685 58.375 47.875 58.375Z" fill="url(#paint11_linear_354_3877)"/>
<path d="M9.625 66.25H52.375V76.375H9.625V66.25Z" fill="url(#paint12_linear_354_3877)"/>
<path d="M9.625 73H17.9298C18.1386 73.0001 18.3433 73.0584 18.521 73.1682C18.6986 73.2781 18.8421 73.4353 18.9355 73.6221L19.75 75.25H42.25L43.0645 73.6221C43.1579 73.4353 43.3014 73.2781 43.479 73.1682C43.6567 73.0584 43.8614 73.0001 44.0703 73H52.375C52.6734 73 52.9595 73.1185 53.1705 73.3295C53.3815 73.5405 53.5 73.8266 53.5 74.125V78.625C53.5 78.9234 53.3815 79.2095 53.1705 79.4205C52.9595 79.6315 52.6734 79.75 52.375 79.75H9.625C9.32664 79.75 9.04049 79.6315 8.82951 79.4205C8.61853 79.2095 8.5 78.9234 8.5 78.625V74.125C8.5 73.8266 8.61853 73.5405 8.82951 73.3295C9.04049 73.1185 9.32664 73 9.625 73Z" fill="url(#paint13_linear_354_3877)"/>
<path d="M46.3447 69.625C46.9415 69.625 47.5138 69.3879 47.9357 68.966C48.3577 68.544 48.5947 67.9717 48.5947 67.375V64C48.5947 63.4033 48.3577 62.831 47.9357 62.409C47.5138 61.9871 46.9415 61.75 46.3447 61.75H41.8447C41.0652 61.752 40.3102 62.0231 39.7076 62.5175C39.1049 63.012 38.6915 63.6994 38.5372 64.4635L37.7722 68.275C37.7389 68.4385 37.7423 68.6073 37.7822 68.7693C37.8221 68.9313 37.8976 69.0824 38.0031 69.2116C38.1087 69.3408 38.2416 69.445 38.3924 69.5165C38.5431 69.588 38.7079 69.625 38.8747 69.625H46.3447Z" fill="url(#paint14_linear_354_3877)"/>
<path d="M38.8747 68.5H46.3447C46.6431 68.5 46.9292 68.3815 47.1402 68.1705C47.3512 67.9595 47.4697 67.6734 47.4697 67.375V64C47.4697 63.7016 47.3512 63.4155 47.1402 63.2045C46.9292 62.9935 46.6431 62.875 46.3447 62.875H41.8447C41.3246 62.8751 40.8205 63.0553 40.4183 63.3851C40.0161 63.715 39.7406 64.1739 39.6386 64.684L38.8747 68.5Z" fill="url(#paint15_linear_354_3877)"/>
<path d="M23.1248 69.625C23.2916 69.625 23.4564 69.588 23.6071 69.5165C23.7579 69.445 23.8908 69.3408 23.9963 69.2116C24.1019 69.0824 24.1774 68.9313 24.2173 68.7693C24.2572 68.6073 24.2606 68.4385 24.2273 68.275L23.4634 64.4579C23.308 63.6946 22.8939 63.0083 22.2911 62.515C21.6883 62.0216 20.9337 61.7514 20.1548 61.75H15.6548C15.058 61.75 14.4857 61.9871 14.0638 62.409C13.6418 62.831 13.4048 63.4033 13.4048 64V67.375C13.4048 67.9717 13.6418 68.544 14.0638 68.966C14.4857 69.3879 15.058 69.625 15.6548 69.625H23.1248Z" fill="url(#paint16_linear_354_3877)"/>
<path d="M23.125 68.5H15.655C15.3566 68.5 15.0705 68.3815 14.8595 68.1705C14.6485 67.9595 14.53 67.6734 14.53 67.375V64C14.53 63.7016 14.6485 63.4155 14.8595 63.2045C15.0705 62.9935 15.3566 62.875 15.655 62.875H20.155C20.6752 62.8751 21.1792 63.0553 21.5814 63.3851C21.9837 63.715 22.2592 64.1739 22.3611 64.684L23.125 68.5Z" fill="url(#paint17_linear_354_3877)"/>
<path d="M26.5 68.5H35.5L36.625 62.875H25.375L26.5 68.5Z" fill="url(#paint18_linear_354_3877)"/>
<path d="M47.4697 65.125V67.375C47.4697 67.6734 47.3512 67.9595 47.1402 68.1705C46.9292 68.3815 46.6431 68.5 46.3447 68.5H38.8747L39.5497 65.125H47.4697Z" fill="url(#paint19_linear_354_3877)"/>
<path d="M36.1748 65.125L35.4998 68.5H26.4998L25.8248 65.125H36.1748Z" fill="url(#paint20_linear_354_3877)"/>
<path d="M22.45 65.125L23.125 68.5H15.655C15.3566 68.5 15.0705 68.3815 14.8595 68.1705C14.6485 67.9595 14.53 67.6734 14.53 67.375V65.125H22.45Z" fill="url(#paint21_linear_354_3877)"/>
<path d="M53.5 76.375V78.625C53.5 78.9234 53.3815 79.2095 53.1705 79.4205C52.9595 79.6315 52.6734 79.75 52.375 79.75H9.625C9.32664 79.75 9.04049 79.6315 8.82951 79.4205C8.61853 79.2095 8.5 78.9234 8.5 78.625V76.375H53.5Z" fill="url(#paint22_linear_354_3877)"/>
<path d="M48.709 183.5H42.459V187.75C42.459 188.314 42.6785 188.854 43.0692 189.253C43.4599 189.651 43.9898 189.875 44.5423 189.875H46.6257C47.1782 189.875 47.7081 189.651 48.0988 189.253C48.4895 188.854 48.709 188.314 48.709 187.75V183.5Z" fill="url(#paint23_linear_354_3877)"/>
<path d="M48.709 186.688H42.459V187.75C42.459 188.314 42.6785 188.854 43.0692 189.253C43.4599 189.651 43.9898 189.875 44.5423 189.875H46.6257C47.1782 189.875 47.7081 189.651 48.0988 189.253C48.4895 188.854 48.709 188.314 48.709 187.75V186.688Z" fill="url(#paint24_linear_354_3877)"/>
<path d="M19.542 183.5H13.292V187.75C13.292 188.314 13.5115 188.854 13.9022 189.253C14.2929 189.651 14.8228 189.875 15.3753 189.875H17.4587C18.0112 189.875 18.5411 189.651 18.9318 189.253C19.3225 188.854 19.542 188.314 19.542 187.75V183.5Z" fill="url(#paint25_linear_354_3877)"/>
<path d="M19.542 186.688H13.292V187.75C13.292 188.314 13.5115 188.854 13.9022 189.253C14.2929 189.651 14.8228 189.875 15.3753 189.875H17.4587C18.0112 189.875 18.5411 189.651 18.9318 189.253C19.3225 188.854 19.542 188.314 19.542 187.75V186.688Z" fill="url(#paint26_linear_354_3877)"/>
<path d="M9.12565 164.375H15.3757V162.25C15.3757 161.405 15.0464 160.594 14.4604 159.996C13.8743 159.398 13.0795 159.063 12.2507 159.063H9.12565C8.84938 159.063 8.58443 159.174 8.38908 159.374C8.19373 159.573 8.08398 159.843 8.08398 160.125V163.313C8.08398 163.594 8.19373 163.865 8.38908 164.064C8.58443 164.263 8.84938 164.375 9.12565 164.375Z" fill="url(#paint27_linear_354_3877)"/>
<path d="M52.8753 159.062H49.7503C48.9215 159.062 48.1267 159.398 47.5406 159.996C46.9546 160.594 46.6253 161.405 46.6253 162.25V164.375H52.8753C53.1516 164.375 53.4165 164.263 53.6119 164.064C53.8072 163.865 53.917 163.594 53.917 163.312V160.125C53.917 159.843 53.8072 159.573 53.6119 159.374C53.4165 159.174 53.1516 159.062 52.8753 159.062Z" fill="url(#paint28_linear_354_3877)"/>
<path d="M19.0125 143.125H42.9875C43.9952 143.125 44.9689 143.497 45.7281 144.173C46.4873 144.849 46.9806 145.783 47.1167 146.801L49.75 166.5V183.5C49.75 183.782 49.6403 184.052 49.4449 184.251C49.2496 184.451 48.9846 184.562 48.7083 184.562H13.2917C13.0154 184.562 12.7504 184.451 12.5551 184.251C12.3597 184.052 12.25 183.782 12.25 183.5V166.5L14.8833 146.801C15.0194 145.783 15.5127 144.849 16.2719 144.173C17.0311 143.497 18.0048 143.125 19.0125 143.125Z" fill="url(#paint29_linear_354_3877)"/>
<path d="M49.75 173.938V183.5C49.75 183.782 49.6403 184.052 49.4449 184.251C49.2496 184.451 48.9846 184.562 48.7083 184.562H13.2917C13.0154 184.562 12.7504 184.451 12.5551 184.251C12.3597 184.052 12.25 183.782 12.25 183.5V173.938H49.75Z" fill="url(#paint30_linear_354_3877)"/>
<path d="M42.9792 178.188C40.9656 178.188 39.3333 176.523 39.3333 174.469C39.3333 172.415 40.9656 170.75 42.9792 170.75C44.9927 170.75 46.625 172.415 46.625 174.469C46.625 176.523 44.9927 178.188 42.9792 178.188Z" fill="url(#paint31_linear_354_3877)"/>
<path d="M19.0212 178.188C17.0076 178.188 15.3753 176.523 15.3753 174.469C15.3753 172.415 17.0076 170.75 19.0212 170.75C21.0347 170.75 22.667 172.415 22.667 174.469C22.667 176.523 21.0347 178.188 19.0212 178.188Z" fill="url(#paint32_linear_354_3877)"/>
<path d="M46.6252 167.775C46.7739 167.775 46.9208 167.743 47.0562 167.68C47.1916 167.617 47.3122 167.526 47.41 167.411C47.5078 167.297 47.5805 167.163 47.6231 167.018C47.6658 166.872 47.6775 166.719 47.6575 166.569L45.0522 147.088C44.983 146.579 44.736 146.113 44.3566 145.776C43.9773 145.438 43.4912 145.251 42.9877 145.25H19.0127C18.5092 145.251 18.023 145.438 17.6437 145.776C17.2644 146.113 17.0174 146.579 16.9481 147.088L14.3439 166.573C14.3245 166.723 14.3367 166.876 14.3796 167.02C14.4225 167.165 14.4952 167.299 14.5928 167.412C14.6904 167.526 14.8107 167.617 14.9456 167.68C15.0805 167.742 15.227 167.775 15.3752 167.775H46.6252Z" fill="url(#paint33_linear_354_3877)"/>
<path d="M46.625 166.712L44.0208 147.232C43.9868 146.977 43.8633 146.743 43.6733 146.574C43.4833 146.405 43.2396 146.312 42.9875 146.313H19.0125C18.7606 146.312 18.5172 146.406 18.3274 146.575C18.1375 146.744 18.0142 146.977 17.9802 147.232L15.375 166.712H46.625Z" fill="url(#paint34_linear_354_3877)"/>
<path d="M45.3177 156.938L46.625 166.717H15.375L16.6823 156.938H45.3177Z" fill="url(#paint35_linear_354_3877)"/>
<path d="M42.9798 177.125C41.5416 177.125 40.3757 175.936 40.3757 174.469C40.3757 173.002 41.5416 171.812 42.9798 171.812C44.4181 171.812 45.584 173.002 45.584 174.469C45.584 175.936 44.4181 177.125 42.9798 177.125Z" fill="url(#paint36_linear_354_3877)"/>
<path d="M19.0208 177.125C17.5826 177.125 16.4167 175.936 16.4167 174.469C16.4167 173.002 17.5826 171.812 19.0208 171.812C20.4591 171.812 21.625 173.002 21.625 174.469C21.625 175.936 20.4591 177.125 19.0208 177.125Z" fill="url(#paint37_linear_354_3877)"/>
<path d="M34.125 180.312H27.875V187.75C27.875 188.314 28.0945 188.854 28.4852 189.253C28.8759 189.651 29.4058 189.875 29.9583 189.875H32.0417C32.5942 189.875 33.1241 189.651 33.5148 189.253C33.9055 188.854 34.125 188.314 34.125 187.75V180.312Z" fill="url(#paint38_linear_354_3877)"/>
<path d="M34.125 186.688H27.875V187.75C27.875 188.314 28.0945 188.854 28.4852 189.253C28.8759 189.651 29.4058 189.875 29.9583 189.875H32.0417C32.5942 189.875 33.1241 189.651 33.5148 189.253C33.9055 188.854 34.125 188.314 34.125 187.75V186.688Z" fill="url(#paint39_linear_354_3877)"/>
<path d="M26.834 181.375H35.1673C35.4436 181.375 35.7085 181.263 35.9039 181.064C36.0992 180.865 36.209 180.594 36.209 180.312V177.125C36.209 175.716 35.6603 174.365 34.6835 173.368C33.7067 172.372 32.382 171.812 31.0007 171.812C29.6193 171.812 28.2946 172.372 27.3178 173.368C26.3411 174.365 25.7923 175.716 25.7923 177.125V180.312C25.7923 180.594 25.9021 180.865 26.0974 181.064C26.2928 181.263 26.5577 181.375 26.834 181.375Z" fill="url(#paint40_linear_354_3877)"/>
<path d="M50.3747 292.375C52.4184 292.375 54.4163 291.769 56.1156 290.634C57.8149 289.498 59.1393 287.884 59.9214 285.996C60.7035 284.108 60.9082 282.03 60.5095 280.026C60.1107 278.021 59.1266 276.18 57.6814 274.735C56.2363 273.29 54.3951 272.306 52.3906 271.907C50.3861 271.508 48.3084 271.713 46.4203 272.495C44.5321 273.277 42.9183 274.602 41.7828 276.301C40.6474 278 40.0413 279.998 40.0413 282.042C40.0444 284.781 41.1341 287.408 43.0713 289.345C45.0085 291.282 47.635 292.372 50.3747 292.375ZM50.3747 274.292C51.9075 274.292 53.4059 274.746 54.6803 275.598C55.9548 276.449 56.9482 277.66 57.5347 279.076C58.1213 280.492 58.2748 282.05 57.9758 283.554C57.6767 285.057 56.9386 286.438 55.8547 287.522C54.7709 288.606 53.39 289.344 51.8866 289.643C50.3833 289.942 48.825 289.788 47.4089 289.202C45.9927 288.615 44.7824 287.622 43.9308 286.347C43.0792 285.073 42.6247 283.575 42.6247 282.042C42.6271 279.987 43.4443 278.017 44.8972 276.564C46.3501 275.111 48.32 274.294 50.3747 274.292Z" fill="url(#paint41_linear_354_3877)"/>
<path d="M50.3747 289.792C52.4294 289.789 54.3992 288.972 55.8521 287.519C57.305 286.066 58.1223 284.096 58.1247 282.042H60.708C60.708 284.782 59.6193 287.411 57.6814 289.348C55.7436 291.286 53.1152 292.375 50.3747 292.375C47.6341 292.375 45.0058 291.286 43.0679 289.348C41.13 287.411 40.0413 284.782 40.0413 282.042H42.6247C42.6271 284.096 43.4444 286.066 44.8972 287.519C46.3501 288.972 48.32 289.789 50.3747 289.792Z" fill="url(#paint42_linear_354_3877)"/>
<path d="M11.6247 292.375C13.6684 292.375 15.6663 291.769 17.3656 290.634C19.0649 289.498 20.3893 287.884 21.1714 285.996C21.9535 284.108 22.1582 282.03 21.7595 280.026C21.3607 278.021 20.3766 276.18 18.9314 274.735C17.4863 273.29 15.6451 272.306 13.6406 271.907C11.6361 271.508 9.55844 271.713 7.67027 272.495C5.7821 273.277 4.16826 274.602 3.03282 276.301C1.89737 278 1.29133 279.998 1.29133 282.042C1.29441 284.781 2.38408 287.408 4.32129 289.345C6.2585 291.282 8.88504 292.372 11.6247 292.375ZM11.6247 274.292C13.1575 274.292 14.6559 274.746 15.9303 275.598C17.2048 276.449 18.1982 277.66 18.7847 279.076C19.3713 280.492 19.5248 282.05 19.2258 283.554C18.9267 285.057 18.1886 286.438 17.1047 287.522C16.0209 288.606 14.64 289.344 13.1366 289.643C11.6333 289.942 10.075 289.788 8.65887 289.202C7.24274 288.615 6.03236 287.622 5.18078 286.347C4.3292 285.073 3.87467 283.575 3.87467 282.042C3.87706 279.987 4.69435 278.017 6.14723 276.564C7.60012 275.111 9.56997 274.294 11.6247 274.292Z" fill="url(#paint43_linear_354_3877)"/>
<path d="M8.66565 257.124C8.88008 256.481 9.29137 255.922 9.84126 255.526C10.3911 255.13 11.0517 254.917 11.7295 254.917H17.6388C18.0415 254.917 18.4386 255.011 18.7984 255.191C19.1583 255.372 19.4709 255.634 19.7113 255.957C19.9517 256.28 20.1133 256.655 20.1832 257.052C20.253 257.448 20.2292 257.856 20.1137 258.241L19.1734 261.375H42.2942L44.078 258.165C44.1583 258.013 44.2682 257.879 44.4011 257.77C44.5341 257.661 44.6874 257.58 44.8521 257.531C45.0169 257.482 45.1897 257.467 45.3605 257.485C45.5313 257.504 45.6967 257.557 45.8469 257.64C45.9971 257.724 46.1292 257.836 46.2353 257.971C46.3415 258.106 46.4196 258.261 46.4651 258.427C46.5107 258.593 46.5227 258.766 46.5005 258.936C46.4783 259.107 46.4223 259.271 46.3358 259.419L44.2304 263.208L51.5748 281.562C51.6531 281.758 51.6822 281.971 51.6595 282.181C51.6368 282.39 51.563 282.591 51.4446 282.766C51.3262 282.941 51.1668 283.084 50.9803 283.183C50.7938 283.282 50.5859 283.333 50.3749 283.333H32.2915C32.1025 283.331 31.9164 283.287 31.7464 283.204C31.7296 283.196 31.7116 283.192 31.6948 283.183C31.678 283.174 31.6741 283.177 31.6651 283.172C31.5057 283.084 31.367 282.963 31.2582 282.817L31.244 282.804L18.1168 264.897L12.8623 282.412C12.7825 282.679 12.619 282.912 12.3961 283.078C12.1732 283.244 11.9027 283.333 11.6249 283.333C11.4989 283.333 11.3736 283.315 11.2529 283.279C11.0903 283.23 10.939 283.15 10.8075 283.043C10.676 282.936 10.5669 282.804 10.4864 282.654C10.4059 282.505 10.3557 282.341 10.3384 282.173C10.3212 282.004 10.3374 281.833 10.3861 281.671L17.6388 257.5H11.7295C11.594 257.5 11.462 257.543 11.3521 257.622C11.2422 257.701 11.16 257.813 11.1172 257.942C11.0849 258.039 11.0761 258.142 11.0915 258.243C11.1069 258.344 11.1462 258.44 11.2059 258.523C11.2657 258.606 11.3444 258.674 11.4354 258.721C11.5264 258.767 11.6272 258.792 11.7295 258.792H12.9165C13.2591 258.792 13.5876 258.928 13.8299 259.17C14.0721 259.412 14.2082 259.741 14.2082 260.083C14.2082 260.426 14.0721 260.754 13.8299 260.997C13.5876 261.239 13.2591 261.375 12.9165 261.375H11.7295C11.2177 261.375 10.7133 261.254 10.2577 261.02C9.80213 260.787 9.4085 260.449 9.10927 260.034C8.81004 259.619 8.61377 259.138 8.53664 258.632C8.45951 258.127 8.50372 257.61 8.66565 257.124ZM32.1417 279.652L40.8604 263.958H20.6329L32.1417 279.652ZM42.6145 266.119L34.4874 280.75H48.4671L42.6145 266.119Z" fill="url(#paint44_linear_354_3877)"/>
<path d="M40.0417 258.792H49.0833C49.3866 258.825 49.6909 258.739 49.932 258.552C50.173 258.365 50.3319 258.091 50.375 257.789V255.919C50.375 255.316 49.6943 254.85 48.9232 254.924L43.4362 255.457C42.6029 255.45 41.7965 255.751 41.1706 256.301C40.5446 256.851 40.1428 257.612 40.0417 258.439V258.792Z" fill="url(#paint45_linear_354_3877)"/>
<path d="M32.291 285.917C30.1509 285.917 28.416 284.182 28.416 282.042C28.416 279.902 30.1509 278.167 32.291 278.167C34.4311 278.167 36.166 279.902 36.166 282.042C36.166 284.182 34.4311 285.917 32.291 285.917Z" fill="url(#paint46_linear_354_3877)"/>
<path d="M11.6247 289.792C13.6794 289.789 15.6492 288.972 17.1021 287.519C18.555 286.066 19.3723 284.096 19.3747 282.042H21.958C21.958 284.782 20.8693 287.411 18.9314 289.348C16.9936 291.286 14.3652 292.375 11.6247 292.375C8.8841 292.375 6.25578 291.286 4.31791 289.348C2.38003 287.411 1.29134 284.782 1.29134 282.042H3.87468C3.87707 284.096 4.69435 286.066 6.14724 287.519C7.60013 288.972 9.56998 289.789 11.6247 289.792Z" fill="url(#paint47_linear_354_3877)"/>
<path d="M35.0312 284.781C34.3045 285.508 33.3188 285.916 32.291 285.916C31.2632 285.916 30.2775 285.508 29.5507 284.781C28.8239 284.055 28.4157 283.069 28.4157 282.041C28.4157 281.013 28.8239 280.028 29.5507 279.301L35.0312 284.781Z" fill="url(#paint48_linear_354_3877)"/>
<path d="M47.667 396.708H41.417V400.875C41.417 401.151 41.5267 401.416 41.7221 401.612C41.9174 401.807 42.1824 401.917 42.4587 401.917H46.6253C46.9016 401.917 47.1665 401.807 47.3619 401.612C47.5572 401.416 47.667 401.151 47.667 400.875V396.708Z" fill="url(#paint49_linear_354_3877)"/>
<path d="M47.667 398.792H41.417V400.875C41.417 401.151 41.5267 401.416 41.7221 401.612C41.9174 401.807 42.1824 401.917 42.4587 401.917H46.6253C46.9016 401.917 47.1665 401.807 47.3619 401.612C47.5572 401.416 47.667 401.151 47.667 400.875V398.792Z" fill="url(#paint50_linear_354_3877)"/>
<path d="M20.584 396.708H14.334V400.875C14.334 401.151 14.4437 401.416 14.6391 401.612C14.8344 401.807 15.0994 401.917 15.3757 401.917H19.5423C19.8186 401.917 20.0835 401.807 20.2789 401.612C20.4742 401.416 20.584 401.151 20.584 400.875V396.708Z" fill="url(#paint51_linear_354_3877)"/>
<path d="M20.584 398.792H14.334V400.875C14.334 401.151 14.4437 401.416 14.6391 401.612C14.8344 401.807 15.0994 401.917 15.3757 401.917H19.5423C19.8186 401.917 20.0835 401.807 20.2789 401.612C20.4742 401.416 20.584 401.151 20.584 400.875V398.792Z" fill="url(#paint52_linear_354_3877)"/>
<path d="M52.8753 368.583H49.7503C48.9215 368.583 48.1267 368.913 47.5406 369.499C46.9546 370.085 46.6253 370.88 46.6253 371.708V373.792H52.8753C53.1516 373.792 53.4165 373.682 53.6119 373.487C53.8072 373.291 53.917 373.026 53.917 372.75V369.625C53.917 369.349 53.8072 369.084 53.6119 368.888C53.4165 368.693 53.1516 368.583 52.8753 368.583Z" fill="url(#paint53_linear_354_3877)"/>
<path d="M9.12565 373.792H15.3757V371.708C15.3757 370.88 15.0464 370.085 14.4604 369.499C13.8743 368.913 13.0795 368.583 12.2507 368.583H9.12565C8.84938 368.583 8.58443 368.693 8.38908 368.889C8.19373 369.084 8.08398 369.349 8.08398 369.625V372.75C8.08398 373.026 8.19373 373.291 8.38908 373.487C8.58443 373.682 8.84938 373.792 9.12565 373.792Z" fill="url(#paint54_linear_354_3877)"/>
<path d="M17.9712 356.083H44.0295C45.0372 356.083 46.0109 356.448 46.7701 357.111C47.5293 357.774 48.0226 358.689 48.1587 359.688L50.792 379V395.667H11.2087V379L13.842 359.688C13.978 358.689 14.4714 357.774 15.2306 357.111C15.9898 356.448 16.9634 356.083 17.9712 356.083Z" fill="url(#paint55_linear_354_3877)"/>
<path d="M11.2087 384.208H50.792V395.667H11.2087V384.208Z" fill="url(#paint56_linear_354_3877)"/>
<path d="M35.167 394.625H50.792V379C46.648 379 42.6737 380.646 39.7434 383.576C36.8132 386.507 35.167 390.481 35.167 394.625Z" fill="url(#paint57_linear_354_3877)"/>
<path d="M50.792 387.333V394.625H35.167C35.1652 392.083 35.7869 389.579 36.9774 387.333H50.792Z" fill="url(#paint58_linear_354_3877)"/>
<path d="M44.542 390.458C42.8161 390.458 41.417 389.059 41.417 387.333C41.417 385.607 42.8161 384.208 44.542 384.208C46.2679 384.208 47.667 385.607 47.667 387.333C47.667 389.059 46.2679 390.458 44.542 390.458Z" fill="url(#paint59_linear_354_3877)"/>
<path d="M44.5417 389.417C43.3911 389.417 42.4583 388.484 42.4583 387.333C42.4583 386.183 43.3911 385.25 44.5417 385.25C45.6923 385.25 46.625 386.183 46.625 387.333C46.625 388.484 45.6923 389.417 44.5417 389.417Z" fill="url(#paint60_linear_354_3877)"/>
<path d="M26.834 394.625H11.209V379C15.353 379 19.3273 380.646 22.2575 383.576C25.1878 386.507 26.834 390.481 26.834 394.625Z" fill="url(#paint61_linear_354_3877)"/>
<path d="M25.0236 387.333C26.2141 389.579 26.8357 392.083 26.834 394.625H11.209V387.333H25.0236Z" fill="url(#paint62_linear_354_3877)"/>
<path d="M17.459 390.458C15.7331 390.458 14.334 389.059 14.334 387.333C14.334 385.607 15.7331 384.208 17.459 384.208C19.1849 384.208 20.584 385.607 20.584 387.333C20.584 389.059 19.1849 390.458 17.459 390.458Z" fill="url(#paint63_linear_354_3877)"/>
<path d="M17.4587 389.417C16.3081 389.417 15.3753 388.484 15.3753 387.333C15.3753 386.183 16.3081 385.25 17.4587 385.25C18.6093 385.25 19.542 386.183 19.542 387.333C19.542 388.484 18.6093 389.417 17.4587 389.417Z" fill="url(#paint64_linear_354_3877)"/>
<path d="M46.7783 373.792C46.9271 373.792 47.0742 373.76 47.2097 373.698C47.3451 373.637 47.4658 373.547 47.5636 373.435C47.6614 373.323 47.7341 373.191 47.7767 373.048C47.8193 372.906 47.8309 372.756 47.8106 372.608L46.0763 359.995C46.0108 359.492 45.7651 359.029 45.3847 358.693C45.0044 358.357 44.5151 358.17 44.0075 358.167H17.9929C17.4874 358.168 16.9995 358.353 16.6195 358.686C16.2395 359.019 15.9933 359.479 15.9263 359.98L14.1898 372.608C14.1696 372.756 14.1811 372.906 14.2238 373.048C14.2664 373.191 14.339 373.323 14.4368 373.435C14.5346 373.547 14.6553 373.637 14.7908 373.698C14.9262 373.76 15.0733 373.792 15.2221 373.792H46.7783Z" fill="url(#paint65_linear_354_3877)"/>
<path d="M15.2221 372.75L16.9596 360.116C16.9922 359.865 17.1151 359.634 17.3052 359.467C17.4954 359.3 17.7398 359.208 17.9929 359.208H44.0075C44.2637 359.21 44.5106 359.305 44.7015 359.476C44.8924 359.647 45.0142 359.882 45.0439 360.136L46.7783 372.75H15.2221Z" fill="url(#paint66_linear_354_3877)"/>
<path d="M31.0006 375.875C32.0308 375.875 33.0377 376.18 33.8942 376.753C34.7507 377.325 35.4183 378.138 35.8125 379.09C36.2067 380.042 36.3099 381.089 36.1089 382.099C35.9079 383.11 35.4119 384.038 34.6835 384.766C33.9551 385.495 33.0271 385.991 32.0167 386.192C31.0064 386.393 29.9592 386.289 29.0075 385.895C28.0558 385.501 27.2424 384.833 26.6701 383.977C26.0978 383.12 25.7923 382.113 25.7923 381.083C25.794 379.703 26.3432 378.379 27.3196 377.402C28.296 376.426 29.6198 375.877 31.0006 375.875ZM32.0423 378.15V380.65L33.8131 382.421C34.005 382.028 34.1111 381.599 34.1245 381.162C34.1378 380.725 34.0582 380.29 33.8907 379.886C33.7232 379.482 33.4719 379.119 33.1532 378.819C32.8345 378.52 32.4559 378.292 32.0423 378.15ZM32.3392 383.896L31.0006 382.556L29.6621 383.896C30.0785 384.102 30.5367 384.209 31.0012 384.209C31.4657 384.209 31.9239 384.102 32.3402 383.896H32.3392ZM28.1881 382.422L29.959 380.651V378.151C29.5454 378.293 29.1668 378.521 28.8481 378.82C28.5294 379.12 28.2781 379.483 28.1106 379.887C27.9431 380.291 27.8635 380.726 27.8768 381.163C27.8902 381.6 27.9963 382.029 28.1881 382.422Z" fill="url(#paint67_linear_354_3877)"/>
<path d="M11.209 393.583H50.7923C51.3676 393.583 51.834 394.05 51.834 394.625V396.708C51.834 397.284 51.3676 397.75 50.7923 397.75H11.209C10.6337 397.75 10.1673 397.284 10.1673 396.708V394.625C10.1673 394.05 10.6337 393.583 11.209 393.583Z" fill="url(#paint68_linear_354_3877)"/>
<path d="M51.834 396.708C51.834 396.985 51.7242 397.25 51.5289 397.445C51.3335 397.64 51.0686 397.75 50.7923 397.75H11.209C10.9327 397.75 10.6678 397.64 10.4724 397.445C10.2771 397.25 10.1673 396.985 10.1673 396.708V394.625H51.834V396.708Z" fill="url(#paint69_linear_354_3877)"/>
<path d="M45.7752 365.458L46.7783 372.75H15.2221L16.2241 365.458H45.7752Z" fill="url(#paint70_linear_354_3877)"/>
<defs>
<linearGradient id="paint0_linear_354_3877" x1="46.75" y1="79.0469" x2="46.75" y2="85.2906" gradientUnits="userSpaceOnUse">
<stop stop-color="#3F4C56"/>
<stop offset="1" stop-color="#27333E"/>
</linearGradient>
<linearGradient id="paint1_linear_354_3877" x1="46.75" y1="82.2115" x2="46.75" y2="85.3322" gradientUnits="userSpaceOnUse">
<stop stop-color="#3F4C56" stop-opacity="0"/>
<stop offset="1" stop-color="#141414"/>
</linearGradient>
<linearGradient id="paint2_linear_354_3877" x1="15.25" y1="79.0469" x2="15.25" y2="85.2906" gradientUnits="userSpaceOnUse">
<stop stop-color="#3F4C56"/>
<stop offset="1" stop-color="#27333E"/>
</linearGradient>
<linearGradient id="paint3_linear_354_3877" x1="15.25" y1="82.2115" x2="15.25" y2="85.3322" gradientUnits="userSpaceOnUse">
<stop stop-color="#3F4C56" stop-opacity="0"/>
<stop offset="1" stop-color="#141414"/>
</linearGradient>
<linearGradient id="paint4_linear_354_3877" x1="55.75" y1="55.5625" x2="47.875" y2="55.5625" gradientUnits="userSpaceOnUse">
<stop stop-color="#3F4C56"/>
<stop offset="1" stop-color="#27333E"/>
</linearGradient>
<linearGradient id="paint5_linear_354_3877" x1="14.125" y1="55.5625" x2="6.25" y2="55.5625" gradientUnits="userSpaceOnUse">
<stop stop-color="#27333E"/>
<stop offset="1" stop-color="#3F4C56"/>
</linearGradient>
<linearGradient id="paint6_linear_354_3877" x1="31" y1="42.5316" x2="31" y2="61.6713" gradientUnits="userSpaceOnUse">
<stop stop-color="#FF4343"/>
<stop offset="1" stop-color="#E40000"/>
</linearGradient>
<linearGradient id="paint7_linear_354_3877" x1="31" y1="52.4867" x2="31" y2="60.625" gradientUnits="userSpaceOnUse">
<stop stop-color="#FF4343" stop-opacity="0"/>
<stop offset="1" stop-color="#AF0000"/>
</linearGradient>
<linearGradient id="paint8_linear_354_3877" x1="31.3959" y1="44.7659" x2="31.3959" y2="60.5159" gradientUnits="userSpaceOnUse">
<stop stop-color="#AF0000"/>
<stop offset="1" stop-color="#FF4343" stop-opacity="0"/>
</linearGradient>
<linearGradient id="paint9_linear_354_3877" x1="31.396" y1="45.9066" x2="31.396" y2="59.4066" gradientUnits="userSpaceOnUse">
<stop stop-color="#EAECF7"/>
<stop offset="1" stop-color="#CDD3F1"/>
</linearGradient>
<linearGradient id="paint10_linear_354_3877" x1="31.396" y1="51.7499" x2="31.396" y2="59.7813" gradientUnits="userSpaceOnUse">
<stop stop-color="#E2E5F4" stop-opacity="0"/>
<stop offset="1" stop-color="#9AA6E2"/>
</linearGradient>
<linearGradient id="paint11_linear_354_3877" x1="31" y1="58.5865" x2="31" y2="76.4616" gradientUnits="userSpaceOnUse">
<stop stop-color="#FF4343"/>
<stop offset="1" stop-color="#E40000"/>
</linearGradient>
<linearGradient id="paint12_linear_354_3877" x1="31" y1="66.3681" x2="31" y2="76.4234" gradientUnits="userSpaceOnUse">
<stop stop-color="#FF4343" stop-opacity="0"/>
<stop offset="1" stop-color="#AF0000"/>
</linearGradient>
<linearGradient id="paint13_linear_354_3877" x1="31" y1="72.5781" x2="31" y2="79.8963" gradientUnits="userSpaceOnUse">
<stop stop-color="#FFCA4F"/>
<stop offset="1" stop-color="#F7AE30"/>
</linearGradient>
<linearGradient id="paint14_linear_354_3877" x1="43.1722" y1="61.75" x2="43.1722" y2="69.364" gradientUnits="userSpaceOnUse">
<stop stop-color="#AF0000"/>
<stop offset="1" stop-color="#FF4343" stop-opacity="0"/>
</linearGradient>
<linearGradient id="paint15_linear_354_3877" x1="43.1722" y1="62.875" x2="43.1722" y2="68.3132" gradientUnits="userSpaceOnUse">
<stop stop-color="#EAECF7"/>
<stop offset="1" stop-color="#CDD3F1"/>
</linearGradient>
<linearGradient id="paint16_linear_354_3877" x1="18.8273" y1="61.75" x2="18.8273" y2="69.364" gradientUnits="userSpaceOnUse">
<stop stop-color="#AF0000"/>
<stop offset="1" stop-color="#FF4343" stop-opacity="0"/>
</linearGradient>
<linearGradient id="paint17_linear_354_3877" x1="18.8275" y1="62.875" x2="18.8275" y2="68.3132" gradientUnits="userSpaceOnUse">
<stop stop-color="#EAECF7"/>
<stop offset="1" stop-color="#CDD3F1"/>
</linearGradient>
<linearGradient id="paint18_linear_354_3877" x1="31" y1="63.0156" x2="31" y2="68.5022" gradientUnits="userSpaceOnUse">
<stop stop-color="#FFCA4F"/>
<stop offset="1" stop-color="#F7AE30"/>
</linearGradient>
<linearGradient id="paint19_linear_354_3877" x1="43.1722" y1="65.6875" x2="43.1722" y2="68.95" gradientUnits="userSpaceOnUse">
<stop stop-color="#E2E5F4" stop-opacity="0"/>
<stop offset="1" stop-color="#9AA6E2"/>
</linearGradient>
<linearGradient id="paint20_linear_354_3877" x1="30.9998" y1="65.2094" x2="30.9998" y2="68.5011" gradientUnits="userSpaceOnUse">
<stop stop-color="#FFCA4F" stop-opacity="0"/>
<stop offset="1" stop-color="#F4901F"/>
</linearGradient>
<linearGradient id="paint21_linear_354_3877" x1="18.8275" y1="65.6178" x2="18.8275" y2="68.8803" gradientUnits="userSpaceOnUse">
<stop stop-color="#E2E5F4" stop-opacity="0"/>
<stop offset="1" stop-color="#9AA6E2"/>
</linearGradient>
<linearGradient id="paint22_linear_354_3877" x1="58" y1="76.1635" x2="31" y2="79.8231" gradientUnits="userSpaceOnUse">
<stop stop-color="#FFCA4F" stop-opacity="0"/>
<stop offset="1" stop-color="#F4901F"/>
</linearGradient>
<linearGradient id="paint23_linear_354_3877" x1="45.584" y1="183.898" x2="45.584" y2="189.795" gradientUnits="userSpaceOnUse">
<stop stop-color="#3F4C56"/>
<stop offset="1" stop-color="#27333E"/>
</linearGradient>
<linearGradient id="paint24_linear_354_3877" x1="45.584" y1="186.887" x2="45.584" y2="189.835" gradientUnits="userSpaceOnUse">
<stop stop-color="#3F4C56" stop-opacity="0"/>
<stop offset="1" stop-color="#141414"/>
</linearGradient>
<linearGradient id="paint25_linear_354_3877" x1="16.417" y1="183.898" x2="16.417" y2="189.795" gradientUnits="userSpaceOnUse">
<stop stop-color="#3F4C56"/>
<stop offset="1" stop-color="#27333E"/>
</linearGradient>
<linearGradient id="paint26_linear_354_3877" x1="16.417" y1="186.886" x2="16.417" y2="189.835" gradientUnits="userSpaceOnUse">
<stop stop-color="#3F4C56" stop-opacity="0"/>
<stop offset="1" stop-color="#141414"/>
</linearGradient>
<linearGradient id="paint27_linear_354_3877" x1="15.3757" y1="161.719" x2="8.08398" y2="161.719" gradientUnits="userSpaceOnUse">
<stop stop-color="#27333E"/>
<stop offset="1" stop-color="#3F4C56"/>
</linearGradient>
<linearGradient id="paint28_linear_354_3877" x1="53.917" y1="161.719" x2="46.6253" y2="161.719" gradientUnits="userSpaceOnUse">
<stop stop-color="#3F4C56"/>
<stop offset="1" stop-color="#27333E"/>
</linearGradient>
<linearGradient id="paint29_linear_354_3877" x1="31" y1="143.656" x2="31" y2="184.981" gradientUnits="userSpaceOnUse">
<stop stop-color="#FFCA4F"/>
<stop offset="1" stop-color="#F7AE30"/>
</linearGradient>
<linearGradient id="paint30_linear_354_3877" x1="31" y1="174.073" x2="31" y2="184.67" gradientUnits="userSpaceOnUse">
<stop stop-color="#FFCA4F" stop-opacity="0"/>
<stop offset="1" stop-color="#F4901F"/>
</linearGradient>
<linearGradient id="paint31_linear_354_3877" x1="45.5563" y1="171.663" x2="40.0677" y2="177.408" gradientUnits="userSpaceOnUse">
<stop stop-color="#F4901F"/>
<stop offset="1" stop-color="#FFCA4F" stop-opacity="0"/>
</linearGradient>
<linearGradient id="paint32_linear_354_3877" x1="21.4087" y1="171.945" x2="16.3262" y2="177.109" gradientUnits="userSpaceOnUse">
<stop stop-color="#F4901F"/>
<stop offset="1" stop-color="#FFCA4F" stop-opacity="0"/>
</linearGradient>
<linearGradient id="paint33_linear_354_3877" x1="31.0002" y1="145.739" x2="31.0002" y2="167.75" gradientUnits="userSpaceOnUse">
<stop stop-color="#F4901F"/>
<stop offset="1" stop-color="#FFCA4F" stop-opacity="0"/>
</linearGradient>
<linearGradient id="paint34_linear_354_3877" x1="31" y1="146.756" x2="31" y2="166.69" gradientUnits="userSpaceOnUse">
<stop stop-color="#EAECF7"/>
<stop offset="1" stop-color="#CDD3F1"/>
</linearGradient>
<linearGradient id="paint35_linear_354_3877" x1="31" y1="159.939" x2="31" y2="169.493" gradientUnits="userSpaceOnUse">
<stop stop-color="#E2E5F4" stop-opacity="0"/>
<stop offset="1" stop-color="#9AA6E2"/>
</linearGradient>
<linearGradient id="paint36_linear_354_3877" x1="44.8215" y1="172.463" x2="40.8987" y2="176.569" gradientUnits="userSpaceOnUse">
<stop stop-color="#EAECF7"/>
<stop offset="1" stop-color="#CDD3F1"/>
</linearGradient>
<linearGradient id="paint37_linear_354_3877" x1="20.7271" y1="172.665" x2="17.0947" y2="176.356" gradientUnits="userSpaceOnUse">
<stop stop-color="#EAECF7"/>
<stop offset="1" stop-color="#CDD3F1"/>
</linearGradient>
<linearGradient id="paint38_linear_354_3877" x1="31" y1="180.911" x2="31" y2="189.756" gradientUnits="userSpaceOnUse">
<stop stop-color="#3F4C56"/>
<stop offset="1" stop-color="#27333E"/>
</linearGradient>
<linearGradient id="paint39_linear_354_3877" x1="31" y1="186.887" x2="31" y2="189.835" gradientUnits="userSpaceOnUse">
<stop stop-color="#3F4C56" stop-opacity="0"/>
<stop offset="1" stop-color="#141414"/>
</linearGradient>
<linearGradient id="paint40_linear_354_3877" x1="31.0007" y1="172.033" x2="31.0007" y2="181.176" gradientUnits="userSpaceOnUse">
<stop stop-color="#FFD980"/>
<stop offset="1" stop-color="#FFCA4F"/>
</linearGradient>
<linearGradient id="paint41_linear_354_3877" x1="50.3747" y1="271.79" x2="50.3747" y2="292.345" gradientUnits="userSpaceOnUse">
<stop stop-color="#9AA6E2"/>
<stop offset="1" stop-color="#7283D6"/>
</linearGradient>
<linearGradient id="paint42_linear_354_3877" x1="50.3747" y1="282.082" x2="50.3747" y2="292.361" gradientUnits="userSpaceOnUse">
<stop stop-color="#7283D6" stop-opacity="0"/>
<stop offset="1" stop-color="#4D62CB"/>
</linearGradient>
<linearGradient id="paint43_linear_354_3877" x1="11.6247" y1="271.951" x2="11.6247" y2="292.496" gradientUnits="userSpaceOnUse">
<stop stop-color="#9AA6E2"/>
<stop offset="1" stop-color="#7283D6"/>
</linearGradient>
<linearGradient id="paint44_linear_354_3877" x1="30.0841" y1="255.67" x2="30.0841" y2="283.805" gradientUnits="userSpaceOnUse">
<stop stop-color="#3F4C56"/>
<stop offset="1" stop-color="#27333E"/>
</linearGradient>
<linearGradient id="paint45_linear_354_3877" x1="45.2083" y1="254.755" x2="45.2083" y2="258.885" gradientUnits="userSpaceOnUse">
<stop stop-color="#E28B5A"/>
<stop offset="1" stop-color="#B35E3E"/>
</linearGradient>
<linearGradient id="paint46_linear_354_3877" x1="32.291" y1="278.167" x2="32.291" y2="285.95" gradientUnits="userSpaceOnUse">
<stop stop-color="#9AA6E2"/>
<stop offset="1" stop-color="#7283D6"/>
</linearGradient>
<linearGradient id="paint47_linear_354_3877" x1="11.6247" y1="282.163" x2="11.6247" y2="292.436" gradientUnits="userSpaceOnUse">
<stop stop-color="#7283D6" stop-opacity="0"/>
<stop offset="1" stop-color="#4D62CB"/>
</linearGradient>
<linearGradient id="paint48_linear_354_3877" x1="32.0927" y1="282.219" x2="28.2487" y2="285.487" gradientUnits="userSpaceOnUse">
<stop stop-color="#7283D6" stop-opacity="0"/>
<stop offset="1" stop-color="#4D62CB"/>
</linearGradient>
<linearGradient id="paint49_linear_354_3877" x1="44.542" y1="397.034" x2="44.542" y2="401.852" gradientUnits="userSpaceOnUse">
<stop stop-color="#3F4C56"/>
<stop offset="1" stop-color="#27333E"/>
</linearGradient>
<linearGradient id="paint50_linear_354_3877" x1="44.542" y1="398.988" x2="44.542" y2="401.877" gradientUnits="userSpaceOnUse">
<stop stop-color="#3F4C56" stop-opacity="0"/>
<stop offset="1" stop-color="#141414"/>
</linearGradient>
<linearGradient id="paint51_linear_354_3877" x1="17.459" y1="397.034" x2="17.459" y2="401.852" gradientUnits="userSpaceOnUse">
<stop stop-color="#3F4C56"/>
<stop offset="1" stop-color="#27333E"/>
</linearGradient>
<linearGradient id="paint52_linear_354_3877" x1="17.459" y1="398.988" x2="17.459" y2="401.877" gradientUnits="userSpaceOnUse">
<stop stop-color="#3F4C56" stop-opacity="0"/>
<stop offset="1" stop-color="#141414"/>
</linearGradient>
<linearGradient id="paint53_linear_354_3877" x1="53.917" y1="371.188" x2="46.6253" y2="371.188" gradientUnits="userSpaceOnUse">
<stop stop-color="#3F4C56"/>
<stop offset="1" stop-color="#27333E"/>
</linearGradient>
<linearGradient id="paint54_linear_354_3877" x1="15.3757" y1="371.188" x2="8.08398" y2="371.188" gradientUnits="userSpaceOnUse">
<stop stop-color="#27333E"/>
<stop offset="1" stop-color="#3F4C56"/>
</linearGradient>
<linearGradient id="paint55_linear_354_3877" x1="31.0003" y1="356.17" x2="31.0003" y2="397.36" gradientUnits="userSpaceOnUse">
<stop stop-color="#EAECF7"/>
<stop offset="1" stop-color="#CDD3F1"/>
</linearGradient>
<linearGradient id="paint56_linear_354_3877" x1="31.0003" y1="384.233" x2="31.0003" y2="396.157" gradientUnits="userSpaceOnUse">
<stop stop-color="#E2E5F4" stop-opacity="0"/>
<stop offset="1" stop-color="#9AA6E2"/>
</linearGradient>
<linearGradient id="paint57_linear_354_3877" x1="37.2545" y1="380.746" x2="50.341" y2="394.614" gradientUnits="userSpaceOnUse">
<stop stop-color="#FF4343"/>
<stop offset="1" stop-color="#E40000"/>
</linearGradient>
<linearGradient id="paint58_linear_354_3877" x1="42.9795" y1="393.746" x2="42.9795" y2="387.914" gradientUnits="userSpaceOnUse">
<stop stop-color="#AF0000"/>
<stop offset="1" stop-color="#FF4343" stop-opacity="0"/>
</linearGradient>
<linearGradient id="paint59_linear_354_3877" x1="46.5982" y1="385.348" x2="42.3524" y2="389.448" gradientUnits="userSpaceOnUse">
<stop stop-color="#AF0000"/>
<stop offset="1" stop-color="#FF4343" stop-opacity="0"/>
</linearGradient>
<linearGradient id="paint60_linear_354_3877" x1="45.9135" y1="386.009" x2="43.0812" y2="388.744" gradientUnits="userSpaceOnUse">
<stop stop-color="#EAECF7"/>
<stop offset="1" stop-color="#CDD3F1"/>
</linearGradient>
<linearGradient id="paint61_linear_354_3877" x1="24.3173" y1="381.353" x2="11.6871" y2="394.374" gradientUnits="userSpaceOnUse">
<stop stop-color="#FF4343"/>
<stop offset="1" stop-color="#E40000"/>
</linearGradient>
<linearGradient id="paint62_linear_354_3877" x1="19.0215" y1="394.451" x2="19.0215" y2="388.07" gradientUnits="userSpaceOnUse">
<stop stop-color="#AF0000"/>
<stop offset="1" stop-color="#FF4343" stop-opacity="0"/>
</linearGradient>
<linearGradient id="paint63_linear_354_3877" x1="20.0486" y1="384.846" x2="15.0954" y2="389.604" gradientUnits="userSpaceOnUse">
<stop stop-color="#AF0000"/>
<stop offset="1" stop-color="#FF4343" stop-opacity="0"/>
</linearGradient>
<linearGradient id="paint64_linear_354_3877" x1="19.1857" y1="385.674" x2="15.8816" y2="388.848" gradientUnits="userSpaceOnUse">
<stop stop-color="#EAECF7"/>
<stop offset="1" stop-color="#CDD3F1"/>
</linearGradient>
<linearGradient id="paint65_linear_354_3877" x1="31.0002" y1="353.196" x2="31.0002" y2="368.526" gradientUnits="userSpaceOnUse">
<stop stop-color="#9AA6E2"/>
<stop offset="1" stop-color="#E2E5F4" stop-opacity="0"/>
</linearGradient>
<linearGradient id="paint66_linear_354_3877" x1="31.0002" y1="359.339" x2="31.0002" y2="372.626" gradientUnits="userSpaceOnUse">
<stop stop-color="#9AA6E2"/>
<stop offset="1" stop-color="#7283D6"/>
</linearGradient>
<linearGradient id="paint67_linear_354_3877" x1="31.0006" y1="375.81" x2="31.0006" y2="385.773" gradientUnits="userSpaceOnUse">
<stop stop-color="#3F4C56"/>
<stop offset="1" stop-color="#27333E"/>
</linearGradient>
<linearGradient id="paint68_linear_354_3877" x1="31.0007" y1="393.757" x2="31.0007" y2="397.946" gradientUnits="userSpaceOnUse">
<stop stop-color="#9AA6E2"/>
<stop offset="1" stop-color="#7283D6"/>
</linearGradient>
<linearGradient id="paint69_linear_354_3877" x1="31.0007" y1="394.755" x2="31.0007" y2="397.897" gradientUnits="userSpaceOnUse">
<stop stop-color="#7283D6" stop-opacity="0"/>
<stop offset="1" stop-color="#4D62CB"/>
</linearGradient>
<linearGradient id="paint70_linear_354_3877" x1="56.0002" y1="365.528" x2="31.0002" y2="372.683" gradientUnits="userSpaceOnUse">
<stop stop-color="#7283D6" stop-opacity="0"/>
<stop offset="1" stop-color="#4D62CB"/>
</linearGradient>
</defs>
</svg>
