<svg width="548" height="548" viewBox="0 0 548 548" fill="none" xmlns="http://www.w3.org/2000/svg">
<circle opacity="0.04" cx="274" cy="274" r="274" fill="#FFFCF4"/>
<circle opacity="0.04" cx="269" cy="272" r="220" fill="#FFFCF4"/>
<path d="M245.427 221.121H231.192V327.088H245.427V221.121Z" fill="#FAB60B"/>
<path d="M368 274.481C368 276.754 367.867 278.969 367.697 281.204V281.621H367.659C364.005 330.442 323.188 369 273.491 369C221.37 369 179 326.617 179 274.481C179 222.345 221.37 180 273.491 180C307.966 180 338.201 198.578 354.672 226.246L344.221 236.7C330.741 211.456 304.123 194.222 273.491 194.222C229.227 194.222 193.237 230.223 193.237 274.462C193.237 318.701 229.227 354.74 273.491 354.74C315.312 354.74 349.768 322.526 353.365 281.602H279.946L319.59 321.258L309.518 331.333L252.646 274.443L262.718 264.368L309.5 217.573L319.571 227.648L279.927 267.341H367.659C367.83 269.69 367.962 272.038 367.962 274.443L368 274.481Z" fill="#FAB60B"/>
<path d="M199.187 76.5541C198.724 75.5892 198.09 74.7158 197.317 73.976C195.631 72.3415 193.374 71.4299 191.026 71.4353H187.774L183.77 63.5934C183.577 63.2119 183.281 62.8916 182.916 62.6682C182.551 62.4449 182.131 62.3272 181.704 62.3284H170.704C170.276 62.3273 169.856 62.4449 169.491 62.6683C169.126 62.8916 168.831 63.2119 168.637 63.5934L164.632 71.4353H163.947C162.876 71.4365 161.849 71.8625 161.092 72.6197C160.335 73.3769 159.909 74.4035 159.908 75.4744V81.8132C159.909 82.4283 160.153 83.0181 160.588 83.4531C161.023 83.888 161.613 84.1327 162.228 84.1335H164.197C164.503 85.1559 165.13 86.0525 165.986 86.6899C166.842 87.3273 167.88 87.6716 168.947 87.6716C170.015 87.6716 171.053 87.3273 171.909 86.6899C172.765 86.0525 173.392 85.1559 173.698 84.1335H183.644C183.949 85.1559 184.577 86.0525 185.432 86.6899C186.288 87.3273 187.327 87.6716 188.394 87.6716C189.461 87.6716 190.5 87.3273 191.356 86.6899C192.211 86.0525 192.839 85.1559 193.144 84.1335H197.772C198.387 84.1327 198.977 83.888 199.412 83.4531C199.847 83.0181 200.091 82.4283 200.092 81.8132V80.5C200.096 79.1328 199.787 77.7828 199.187 76.5541ZM196.643 75.0121C197.006 75.379 197.329 75.7821 197.609 76.2152H194.819C194.604 76.2148 194.397 76.1292 194.245 75.977C194.093 75.8248 194.007 75.6184 194.007 75.4032V75.0121H196.643ZM180.914 65.9378L183.721 71.4353H176.803V65.9378H180.914ZM175.6 71.4353H168.685L171.492 65.9378H175.6V71.4353ZM169.708 64.1406C169.801 63.9569 169.943 63.8027 170.119 63.6951C170.295 63.5875 170.497 63.5309 170.703 63.5315H181.703C181.909 63.5309 182.111 63.5876 182.286 63.6951C182.462 63.8027 182.605 63.9569 182.698 64.1406L186.423 71.4353H185.072L181.818 65.0626C181.768 64.9639 181.691 64.881 181.597 64.8231C181.502 64.7653 181.393 64.7346 181.283 64.7346H171.124C171.013 64.7346 170.904 64.7653 170.81 64.8231C170.715 64.881 170.638 64.9639 170.588 65.0626L167.334 71.4353H165.983L169.708 64.1406ZM162.228 82.9303C161.932 82.93 161.648 82.8122 161.439 82.6027C161.229 82.3933 161.111 82.1093 161.111 81.8132V75.4744C161.112 74.7225 161.411 74.0017 161.942 73.47C162.474 72.9383 163.195 72.6393 163.947 72.6385H164.637V80.2659C164.172 81.0741 163.95 81.9992 163.998 82.9303H162.228ZM168.947 86.4686C168.074 86.4671 167.228 86.1617 166.555 85.6046C165.882 85.0474 165.423 84.2734 165.259 83.4154V83.4088C165.115 82.6494 165.21 81.8643 165.529 81.1605C165.848 80.4567 166.377 79.8685 167.042 79.4761C167.708 79.0837 168.479 78.9062 169.249 78.9679C170.02 79.0295 170.752 79.3273 171.347 79.8206C171.942 80.3138 172.37 80.9786 172.574 81.7242C172.777 82.4698 172.745 83.26 172.483 83.9869C172.221 84.7139 171.74 85.3422 171.108 85.7863C170.475 86.2303 169.721 86.4685 168.948 86.4682L168.947 86.4686ZM168.947 77.7507C167.816 77.7502 166.719 78.1386 165.84 78.8507V72.6392H175.6V82.9303H173.897C173.9 82.8571 173.908 82.7853 173.908 82.7114C173.906 81.3961 173.383 80.1351 172.454 79.2049C171.524 78.2748 170.263 77.7516 168.947 77.75V77.7507ZM176.803 82.9303V72.6395H186.806V78.0168C185.825 78.3495 184.972 78.981 184.367 79.8229C183.762 80.6648 183.436 81.6748 183.434 82.7114C183.434 82.7853 183.442 82.8571 183.445 82.9303H176.803ZM188.395 86.4686C187.652 86.4686 186.925 86.2482 186.307 85.8353C185.689 85.4224 185.208 84.8355 184.923 84.1489C184.639 83.4623 184.564 82.7067 184.709 81.9778C184.854 81.2489 185.212 80.5794 185.738 80.0539C186.263 79.5284 186.933 79.1706 187.662 79.0257C188.391 78.8807 189.146 78.9552 189.833 79.2396C190.52 79.5241 191.106 80.0057 191.519 80.6237C191.932 81.2417 192.152 81.9682 192.152 82.7114C192.151 83.7075 191.755 84.6625 191.05 85.3668C190.346 86.0712 189.391 86.4674 188.395 86.4686ZM198.889 81.8132C198.889 82.1093 198.771 82.3933 198.561 82.6027C198.352 82.8122 198.068 82.93 197.772 82.9303H193.344C193.347 82.8571 193.355 82.7853 193.355 82.7114C193.354 81.3961 192.831 80.135 191.901 79.2049C190.971 78.2748 189.71 77.7516 188.395 77.75C188.264 77.75 188.136 77.7597 188.008 77.7696V72.6385H191.028C192.482 72.6372 193.907 73.0419 195.143 73.8072H193.406C193.327 73.8072 193.249 73.8227 193.176 73.8529C193.103 73.8831 193.037 73.9274 192.981 73.9833C192.925 74.0392 192.881 74.1055 192.85 74.1785C192.82 74.2515 192.805 74.3298 192.805 74.4088V75.4015C192.805 75.9357 193.018 76.4479 193.395 76.8257C193.773 77.2034 194.285 77.416 194.819 77.4166H198.257C198.676 78.3903 198.892 79.4398 198.889 80.5V81.8132Z" fill="#505056"/>
<path d="M168.947 80.2937C168.469 80.2936 168.002 80.4354 167.604 80.701C167.206 80.9667 166.896 81.3443 166.713 81.7861C166.53 82.2279 166.482 82.7141 166.576 83.1831C166.669 83.6522 166.899 84.0831 167.237 84.4213C167.575 84.7594 168.006 84.9898 168.475 85.0831C168.944 85.1764 169.43 85.1286 169.872 84.9456C170.314 84.7626 170.692 84.4526 170.958 84.055C171.223 83.6574 171.365 83.1899 171.365 82.7116C171.364 82.0706 171.109 81.4561 170.656 81.0028C170.203 80.5495 169.588 80.2945 168.947 80.2937ZM168.947 83.9261C168.707 83.9262 168.472 83.855 168.272 83.7215C168.073 83.5881 167.917 83.3983 167.825 83.1763C167.733 82.9543 167.709 82.7101 167.756 82.4744C167.802 82.2387 167.918 82.0222 168.088 81.8523C168.258 81.6824 168.475 81.5667 168.71 81.5198C168.946 81.4729 169.19 81.497 169.412 81.589C169.634 81.681 169.824 81.8368 169.957 82.0366C170.091 82.2364 170.162 82.4713 170.162 82.7116C170.161 83.0336 170.033 83.3422 169.806 83.5698C169.578 83.7974 169.269 83.9257 168.947 83.9261Z" fill="#505056"/>
<path d="M188.395 80.2937C187.916 80.2936 187.449 80.4354 187.051 80.701C186.654 80.9667 186.344 81.3443 186.161 81.7861C185.978 82.2279 185.93 82.7141 186.023 83.1831C186.116 83.6522 186.346 84.0831 186.685 84.4213C187.023 84.7594 187.453 84.9898 187.923 85.0831C188.392 85.1764 188.878 85.1286 189.32 84.9456C189.761 84.7626 190.139 84.4526 190.405 84.055C190.67 83.6574 190.812 83.1899 190.812 82.7116C190.812 82.0706 190.557 81.456 190.104 81.0027C189.65 80.5494 189.036 80.2944 188.395 80.2937ZM188.395 83.9261C188.154 83.9262 187.92 83.855 187.72 83.7215C187.52 83.5881 187.364 83.3983 187.272 83.1763C187.18 82.9543 187.156 82.7101 187.203 82.4744C187.25 82.2387 187.365 82.0222 187.535 81.8523C187.705 81.6824 187.922 81.5667 188.157 81.5198C188.393 81.4729 188.637 81.497 188.859 81.589C189.081 81.681 189.271 81.8368 189.405 82.0366C189.538 82.2364 189.609 82.4713 189.609 82.7116C189.609 83.0336 189.481 83.3422 189.253 83.5698C189.025 83.7974 188.717 83.9257 188.395 83.9261Z" fill="#505056"/>
<path d="M180.825 75.0127H178.808C178.648 75.0127 178.495 75.0761 178.382 75.1889C178.27 75.3017 178.206 75.4547 178.206 75.6143C178.206 75.7738 178.27 75.9268 178.382 76.0396C178.495 76.1524 178.648 76.2158 178.808 76.2158H180.825C180.985 76.2158 181.138 76.1524 181.25 76.0396C181.363 75.9268 181.427 75.7738 181.427 75.6143C181.427 75.4547 181.363 75.3017 181.25 75.1889C181.138 75.0761 180.985 75.0127 180.825 75.0127Z" fill="#505056"/>
<path d="M361.085 79.3872C361.102 79.3092 361.103 79.2286 361.089 79.15C361.074 79.0715 361.045 78.9966 361.001 78.9297C360.374 77.9262 359.51 77.0914 358.486 76.498C357.462 75.9045 356.309 75.5704 355.126 75.5249L350.478 68.2384H352.423C352.582 68.2384 352.735 68.175 352.848 68.0622C352.961 67.9494 353.024 67.7964 353.024 67.6368V64.6187C353.025 64.3639 352.966 64.1125 352.852 63.8846C352.737 63.6568 352.572 63.4589 352.367 63.3067C352.163 63.1545 351.926 63.0522 351.675 63.0082C351.424 62.9641 351.166 62.9794 350.922 63.0529L347.113 64.2028L346.339 63.2361V62.0674C346.339 61.6345 346.166 61.2195 345.86 60.9134C345.554 60.6073 345.139 60.4351 344.706 60.4346H342.328C341.895 60.4351 341.48 60.6073 341.174 60.9134C340.868 61.2195 340.696 61.6345 340.695 62.0674V62.4111C340.696 62.844 340.868 63.259 341.174 63.5651C341.48 63.8712 341.895 64.0434 342.328 64.0439H345.445L345.872 64.5774C345.749 64.6153 345.642 64.6914 345.566 64.7947C345.489 64.8981 345.448 65.0231 345.448 65.1515V67.2312L344.076 67.7812C343.946 67.8334 343.839 67.9291 343.772 68.0518C343.705 68.1745 343.683 68.3166 343.71 68.4538C343.736 68.5909 343.81 68.7146 343.918 68.8035C344.025 68.8925 344.161 68.9412 344.3 68.9414C344.503 68.9414 344.478 68.9008 346.166 68.2398H346.402C347.891 73.2241 347.845 77.3268 346.251 79.8159C346.15 79.9709 346.012 80.0979 345.848 80.185C345.685 80.2722 345.502 80.3166 345.317 80.3143H343.155C342.931 80.3159 342.713 80.2495 342.528 80.1239C339.945 78.3924 339.795 75.6964 342.042 71.3834C342.094 71.2735 342.116 71.152 342.105 71.031C342.086 70.1723 341.731 69.3554 341.117 68.7546C340.503 68.1539 339.679 67.8169 338.82 67.8156H328.117C327.957 67.8157 327.804 67.8791 327.691 67.9919C327.578 68.1047 327.515 68.2576 327.515 68.4171C327.515 68.8979 327.621 69.3727 327.824 69.8082C328.028 70.2436 328.325 70.629 328.694 70.9372C326.435 71.6004 324.454 72.9802 323.048 74.8683C321.642 76.7564 320.889 79.0505 320.901 81.4043L320.915 83.6731C320.916 83.832 320.979 83.984 321.092 84.096C321.205 84.208 321.357 84.2709 321.516 84.2709H324.908C325.051 85.7282 325.731 87.0801 326.816 88.0637C327.901 89.0472 329.313 89.592 330.777 89.592C332.241 89.592 333.653 89.0472 334.738 88.0637C335.823 87.0801 336.503 85.7282 336.646 84.2709H349.242C349.329 85.1681 349.621 86.0334 350.094 86.8003C350.568 87.5673 351.211 88.2155 351.974 88.6951C352.737 89.1747 353.6 89.473 354.497 89.5671C355.393 89.6611 356.299 89.5484 357.146 89.2377C357.992 88.9269 358.755 88.4263 359.378 87.7743C360 87.1224 360.465 86.3364 360.736 85.4768C361.008 84.6172 361.078 83.7068 360.943 82.8157C360.808 81.9245 360.47 81.0762 359.955 80.336C360.305 80.1009 360.62 79.8929 360.818 79.7681C360.885 79.7256 360.944 79.67 360.99 79.6046C361.036 79.5392 361.068 79.4653 361.085 79.3872ZM359.642 79.0981C358.669 79.744 358.59 79.8403 358.391 79.8808C358.279 79.9068 358.163 79.9096 358.049 79.8891C357.936 79.8685 357.828 79.825 357.732 79.7612C356.927 79.2033 355.988 78.8669 355.012 78.7857C352.853 78.6626 350.965 80.0809 350.501 82.5542C350.478 82.6653 350.426 82.7686 350.352 82.8542C350.277 82.9399 350.182 83.0051 350.075 83.0437C349.869 83.0735 349.66 83.0809 349.452 83.0657C349.479 81.1273 350.051 79.511 351.123 78.3659C351.598 77.8599 352.168 77.4541 352.802 77.1726C353.436 76.8911 354.12 76.7396 354.813 76.7269C355.747 76.7155 356.671 76.9242 357.51 77.3362C358.349 77.7481 359.079 78.3517 359.642 79.0981ZM350.353 64.4812L351.27 64.2062C351.334 64.1866 351.401 64.1823 351.467 64.1938C351.533 64.2053 351.595 64.2321 351.648 64.2722C351.702 64.3123 351.746 64.3646 351.776 64.4248C351.806 64.485 351.822 64.5514 351.821 64.6187V67.0353H350.353V64.4812ZM349.135 67.0353H346.651V65.5991L349.15 64.8463L349.135 67.0353ZM345.136 62.8415H342.328C342.214 62.8413 342.105 62.796 342.024 62.7154C341.944 62.6349 341.898 62.5257 341.898 62.4118V62.0681C341.898 61.9542 341.944 61.845 342.024 61.7645C342.105 61.6839 342.214 61.6386 342.328 61.6384H344.706C344.82 61.6385 344.929 61.6838 345.01 61.7643C345.091 61.8449 345.136 61.9541 345.136 62.0681V62.8415ZM338.82 69.0187C339.268 69.0193 339.704 69.1639 340.064 69.4312C340.423 69.6985 340.688 70.0744 340.817 70.5034H330.804C330.356 70.5028 329.92 70.3582 329.56 70.0908C329.201 69.8235 328.937 69.4476 328.807 69.0187H338.82ZM322.104 81.3971C322.097 80.1273 322.341 78.8685 322.822 77.6933C323.303 76.518 324.012 75.4495 324.907 74.549C325.803 73.6485 326.867 72.9338 328.04 72.446C329.212 71.9583 330.469 71.7071 331.739 71.7068H340.537C339.112 74.7115 338.088 78.5956 341.853 81.1204C342.237 81.3811 342.691 81.5195 343.155 81.5174H345.317C345.705 81.5199 346.086 81.4246 346.426 81.2403C346.767 81.056 347.055 80.7887 347.265 80.4632C349.036 77.6939 349.166 73.4771 347.656 68.2384H349.051L353.768 75.6331C352.418 75.8722 351.181 76.5426 350.244 77.5437C348.959 78.9153 348.285 80.8189 348.256 83.0691H339.147C338.996 80.9764 338.057 79.0185 336.521 77.5894C334.985 76.1603 332.964 75.3658 330.866 75.3658C328.768 75.3658 326.748 76.1603 325.211 77.5894C323.675 79.0185 322.737 80.9764 322.585 83.0691H322.114L322.104 81.3971ZM324.912 83.0678H323.789C323.94 81.2945 324.751 79.6423 326.061 78.4383C327.372 77.2342 329.087 76.5661 330.866 76.5661C332.646 76.5661 334.361 77.2342 335.671 78.4383C336.982 79.6423 337.793 81.2945 337.943 83.0678H336.735C336.585 81.615 335.902 80.2694 334.818 79.2905C333.735 78.3116 332.327 77.7689 330.866 77.7671C329.395 77.762 327.974 78.3001 326.875 79.2783C325.776 80.2565 325.078 81.606 324.912 83.0678ZM330.777 88.3883C329.578 88.3856 328.426 87.9252 327.556 87.1013C326.686 86.2774 326.163 85.1521 326.095 83.9557C325.834 81.5439 327.879 78.9971 330.777 78.9971C332.022 78.9971 333.217 79.4918 334.097 80.3724C334.978 81.253 335.472 82.4473 335.472 83.6927C335.472 84.9381 334.978 86.1324 334.097 87.013C333.217 87.8936 332.022 88.3883 330.777 88.3883ZM355.111 88.3883C353.953 88.3862 352.836 87.9568 351.975 87.1824C351.113 86.4081 350.568 85.3431 350.442 84.1915C350.456 84.1867 350.469 84.1798 350.482 84.175C350.807 84.0772 351.098 83.8927 351.326 83.6414C351.553 83.3901 351.708 83.0814 351.773 82.7488C352.073 81.1493 353.226 79.9183 354.852 80.0135C355.618 80.0827 356.352 80.3514 356.981 80.7928C357.267 80.9801 357.595 81.0939 357.935 81.1238C358.276 81.1538 358.618 81.0992 358.932 80.9647C359.434 81.6668 359.732 82.4934 359.795 83.354C359.857 84.2145 359.681 85.0756 359.287 85.8427C358.892 86.6099 358.293 87.2535 357.557 87.7028C356.82 88.1521 355.974 88.3897 355.111 88.3897V88.3883Z" fill="#505056"/>
<path d="M354.946 81.2417C354.468 81.2743 354.009 81.446 353.628 81.7356C353.246 82.0252 352.957 82.4201 352.796 82.8717C352.636 83.3233 352.611 83.812 352.724 84.2776C352.838 84.7432 353.085 85.1655 353.436 85.4925C353.786 85.8195 354.224 86.037 354.697 86.1182C355.169 86.1994 355.655 86.1407 356.094 85.9495C356.534 85.7583 356.908 85.4428 357.17 85.0418C357.433 84.6409 357.573 84.1719 357.572 83.6927C357.572 82.121 356.11 81.0674 354.946 81.2417ZM356.369 83.6909C356.369 83.9392 356.296 84.1819 356.158 84.3883C356.02 84.5947 355.824 84.7556 355.594 84.8507C355.365 84.9457 355.113 84.9706 354.869 84.9222C354.626 84.8739 354.402 84.7543 354.227 84.5788C354.051 84.4033 353.932 84.1797 353.883 83.9363C353.835 83.6928 353.859 83.4404 353.954 83.2111C354.049 82.9817 354.21 82.7857 354.417 82.6478C354.623 82.5099 354.866 82.4362 355.114 82.4362C355.279 82.4362 355.442 82.4686 355.594 82.5317C355.746 82.5947 355.885 82.6871 356.001 82.8036C356.118 82.9201 356.21 83.0585 356.273 83.2107C356.337 83.363 356.369 83.5261 356.369 83.6909Z" fill="#505056"/>
<path d="M330.777 81.2314C330.29 81.2314 329.814 81.3757 329.41 81.646C329.005 81.9162 328.69 82.3004 328.503 82.7499C328.317 83.1994 328.268 83.694 328.363 84.1713C328.457 84.6487 328.691 85.0872 329.035 85.4316C329.379 85.776 329.817 86.0107 330.294 86.1062C330.771 86.2016 331.266 86.1534 331.716 85.9678C332.166 85.7821 332.55 85.4673 332.821 85.0631C333.092 84.6589 333.237 84.1834 333.238 83.6968V83.6917C333.237 83.0393 332.977 82.414 332.516 81.9528C332.055 81.4916 331.429 81.2322 330.777 81.2314ZM332.035 83.6948C332.035 83.9435 331.96 84.1865 331.822 84.3932C331.683 84.5998 331.487 84.7607 331.257 84.8556C331.027 84.9506 330.774 84.9752 330.53 84.9264C330.286 84.8776 330.062 84.7576 329.886 84.5816C329.711 84.4056 329.591 84.1814 329.543 83.9374C329.494 83.6934 329.519 83.4405 329.615 83.2108C329.71 82.981 329.871 82.7846 330.078 82.6465C330.285 82.5083 330.528 82.4346 330.777 82.4346C331.111 82.4355 331.43 82.5686 331.666 82.8048C331.902 83.041 332.035 83.361 332.035 83.6948Z" fill="#505056"/>
<path d="M91.4941 391.916H91.0644V386.317C91.0645 386.214 91.038 386.112 90.9874 386.023L86.8009 378.553C86.7486 378.459 86.6724 378.382 86.5801 378.328C86.4878 378.274 86.3829 378.245 86.2759 378.245H79.9406V373.88C79.9398 373.265 79.6951 372.675 79.2601 372.24C78.8252 371.805 78.2355 371.56 77.6203 371.559H56.7753C56.1602 371.56 55.5704 371.805 55.1354 372.24C54.7004 372.675 54.4557 373.264 54.455 373.88V377.133H52.5052C52.3457 377.133 52.1927 377.196 52.0799 377.309C51.9671 377.422 51.9037 377.575 51.9037 377.734C51.9037 377.894 51.9671 378.047 52.0799 378.159C52.1927 378.272 52.3457 378.336 52.5052 378.336H54.455V381.739H52.5052C52.3457 381.739 52.1927 381.802 52.0799 381.915C51.9671 382.028 51.9037 382.181 51.9037 382.34C51.9037 382.5 51.9671 382.653 52.0799 382.766C52.1927 382.879 52.3457 382.942 52.5052 382.942H54.455V386.345H52.5052C52.3457 386.345 52.1927 386.408 52.0799 386.521C51.9671 386.634 51.9037 386.787 51.9037 386.947C51.9037 387.106 51.9671 387.259 52.0799 387.372C52.1927 387.485 52.3457 387.548 52.5052 387.548H54.455V390.799C54.4558 391.337 54.6434 391.858 54.9857 392.274C55.328 392.689 55.8038 392.972 56.3319 393.076V393.893C56.3324 394.326 56.5046 394.741 56.8107 395.047C57.1168 395.353 57.5318 395.525 57.9647 395.526H59.0956C59.3245 396.363 59.8224 397.102 60.5126 397.629C61.2027 398.156 62.0469 398.441 62.9152 398.441C63.7835 398.441 64.6277 398.156 65.3179 397.629C66.008 397.102 66.5059 396.363 66.7348 395.526H67.7062C67.935 396.363 68.4329 397.103 69.1231 397.63C69.8133 398.157 70.6576 398.442 71.526 398.442C72.3944 398.442 73.2387 398.157 73.9289 397.63C74.6191 397.103 75.1169 396.363 75.3457 395.526H81.6938C81.9227 396.363 82.4206 397.102 83.1108 397.629C83.801 398.156 84.6453 398.442 85.5137 398.442C86.382 398.442 87.2263 398.156 87.9166 397.629C88.6068 397.102 89.1047 396.363 89.3336 395.526H90.4645C90.8974 395.525 91.3124 395.353 91.6185 395.047C91.9246 394.741 92.0968 394.326 92.0974 393.893V392.518C92.0974 392.439 92.0818 392.36 92.0515 392.287C92.0212 392.214 91.9767 392.148 91.9207 392.092C91.8646 392.036 91.7981 391.992 91.7249 391.961C91.6517 391.931 91.5732 391.916 91.4941 391.916ZM85.9253 379.448L89.8613 386.474V391.916H88.5344C88.1633 391.476 87.7005 391.122 87.1784 390.879C86.6563 390.636 86.0874 390.511 85.5116 390.511C84.9358 390.511 84.367 390.636 83.8448 390.879C83.3227 391.122 82.8599 391.476 82.4889 391.916H79.9406V379.448H85.9253ZM81.5563 394.322H75.4832C75.4679 393.911 75.3881 393.506 75.2467 393.119H81.791C81.6506 393.506 81.5714 393.912 81.5563 394.322ZM55.6581 390.799V387.546H62.3386C62.4981 387.546 62.6511 387.483 62.7639 387.37C62.8767 387.257 62.9401 387.104 62.9401 386.945C62.9401 386.785 62.8767 386.632 62.7639 386.52C62.6511 386.407 62.4981 386.343 62.3386 386.343H55.6581V382.94H64.9762C65.1357 382.94 65.2887 382.877 65.4015 382.764C65.5143 382.651 65.5777 382.498 65.5777 382.339C65.5777 382.179 65.5143 382.026 65.4015 381.913C65.2887 381.8 65.1357 381.737 64.9762 381.737H55.6581V378.334H59.5518C59.7113 378.334 59.8643 378.271 59.9772 378.158C60.09 378.045 60.1533 377.892 60.1533 377.732C60.1533 377.573 60.09 377.42 59.9772 377.307C59.8643 377.194 59.7113 377.131 59.5518 377.131H55.6581V373.88C55.6585 373.583 55.7763 373.3 55.9857 373.09C56.1952 372.881 56.4791 372.763 56.7753 372.762H77.6203C77.9165 372.763 78.2005 372.881 78.4099 373.09C78.6193 373.3 78.7371 373.583 78.7375 373.88V391.916H74.5486C74.1775 391.476 73.7147 391.122 73.1926 390.879C72.6706 390.637 72.1017 390.511 71.526 390.511C70.9502 390.511 70.3814 390.637 69.8593 390.879C69.3372 391.122 68.8745 391.476 68.5034 391.916H65.9376C65.5666 391.476 65.1038 391.122 64.5818 390.88C64.0597 390.637 63.4909 390.511 62.9152 390.511C62.3395 390.511 61.7707 390.637 61.2487 390.88C60.7266 391.122 60.2639 391.476 59.8928 391.916H56.7753C56.4791 391.916 56.1952 391.798 55.9857 391.589C55.7763 391.379 55.6585 391.095 55.6581 390.799ZM67.5687 394.322H66.8726C66.857 393.912 66.7772 393.506 66.6361 393.119H67.8049C67.6636 393.506 67.5839 393.912 67.5687 394.322ZM57.535 393.893V393.119H59.1946C59.0533 393.506 58.9735 393.911 58.9581 394.322H57.9647C57.8507 394.322 57.7414 394.277 57.6609 394.197C57.5803 394.116 57.535 394.007 57.535 393.893ZM62.915 397.237C62.3688 397.237 61.8347 397.075 61.3805 396.772C60.9263 396.468 60.5723 396.037 60.3632 395.532C60.1542 395.028 60.0995 394.472 60.2061 393.937C60.3126 393.401 60.5757 392.909 60.962 392.522C61.3483 392.136 61.8404 391.873 62.3762 391.766C62.912 391.66 63.4673 391.715 63.972 391.924C64.4767 392.133 64.9081 392.487 65.2116 392.941C65.5151 393.395 65.6771 393.929 65.6771 394.475C65.6762 395.208 65.385 395.91 64.8672 396.428C64.3494 396.945 63.6473 397.237 62.915 397.237ZM71.526 397.237C70.9797 397.237 70.4457 397.075 69.9915 396.772C69.5373 396.468 69.1832 396.037 68.9742 395.532C68.7651 395.028 68.7104 394.472 68.817 393.937C68.9236 393.401 69.1866 392.909 69.5729 392.522C69.9592 392.136 70.4513 391.873 70.9871 391.766C71.5229 391.66 72.0783 391.715 72.583 391.924C73.0877 392.133 73.519 392.487 73.8225 392.941C74.126 393.395 74.288 393.929 74.288 394.475C74.2873 395.208 73.996 395.91 73.4782 396.428C72.9604 396.945 72.2583 397.237 71.526 397.237ZM85.5121 397.237C84.9659 397.237 84.4318 397.075 83.9776 396.772C83.5234 396.468 83.1694 396.037 82.9604 395.532C82.7513 395.028 82.6966 394.472 82.8032 393.937C82.9097 393.401 83.1728 392.909 83.5591 392.522C83.9454 392.136 84.4375 391.873 84.9733 391.766C85.5091 391.66 86.0644 391.715 86.5691 391.924C87.0738 392.133 87.5052 392.487 87.8087 392.941C88.1122 393.395 88.2742 393.929 88.2742 394.475C88.2733 395.208 87.9821 395.91 87.4643 396.428C86.9465 396.945 86.2444 397.237 85.5121 397.237ZM90.8925 393.893C90.8924 394.007 90.8471 394.116 90.7666 394.196C90.686 394.277 90.5768 394.322 90.4628 394.322H89.4694C89.4539 393.912 89.3741 393.506 89.2329 393.119H90.8925V393.893Z" fill="#505056"/>
<path d="M81.7435 386.916H87.7042C87.8091 386.916 87.9121 386.889 88.0031 386.837C88.0941 386.785 88.1699 386.709 88.2229 386.619C88.2759 386.528 88.3044 386.426 88.3054 386.321C88.3064 386.216 88.28 386.113 88.2287 386.021L85.3928 380.961C85.3408 380.867 85.2648 380.789 85.1725 380.735C85.0803 380.681 84.9753 380.652 84.8682 380.652H81.7435C81.584 380.652 81.431 380.715 81.3182 380.828C81.2054 380.941 81.142 381.094 81.142 381.253V386.313C81.1417 386.392 81.1571 386.471 81.1872 386.544C81.2173 386.617 81.2616 386.684 81.3175 386.74C81.3733 386.796 81.4398 386.84 81.5129 386.871C81.586 386.901 81.6644 386.917 81.7435 386.916ZM82.3451 381.856H84.5155L86.677 385.713H82.3468L82.3451 381.856Z" fill="#505056"/>
<path d="M81.7435 389.043H82.8697C83.0292 389.043 83.1822 388.979 83.295 388.867C83.4078 388.754 83.4712 388.601 83.4712 388.441C83.4712 388.282 83.4078 388.129 83.295 388.016C83.1822 387.903 83.0292 387.84 82.8697 387.84H81.7435C81.584 387.84 81.431 387.903 81.3182 388.016C81.2053 388.129 81.142 388.282 81.142 388.441C81.142 388.601 81.2053 388.754 81.3182 388.867C81.431 388.979 81.584 389.043 81.7435 389.043Z" fill="#505056"/>
<path d="M62.915 392.917C62.6067 392.917 62.3053 393.009 62.0489 393.18C61.7925 393.351 61.5927 393.595 61.4747 393.88C61.3568 394.165 61.3259 394.478 61.386 394.781C61.4462 395.083 61.5947 395.361 61.8127 395.579C62.0307 395.797 62.3085 395.945 62.6109 396.005C62.9133 396.065 63.2267 396.035 63.5116 395.917C63.7964 395.799 64.0399 395.599 64.2112 395.342C64.3825 395.086 64.4739 394.785 64.4739 394.476C64.4735 394.063 64.3092 393.667 64.0169 393.374C63.7246 393.082 63.3283 392.918 62.915 392.917ZM62.915 394.832C62.8446 394.832 62.7758 394.811 62.7173 394.772C62.6588 394.733 62.6132 394.678 62.5863 394.613C62.5594 394.548 62.5523 394.476 62.566 394.407C62.5798 394.338 62.6137 394.275 62.6634 394.225C62.7132 394.175 62.7766 394.141 62.8456 394.127C62.9146 394.114 62.9861 394.121 63.0511 394.148C63.1161 394.175 63.1717 394.22 63.2108 394.279C63.2499 394.337 63.2708 394.406 63.2708 394.476C63.2704 394.571 63.2328 394.661 63.1661 394.727C63.0994 394.794 63.0091 394.831 62.915 394.831V394.832Z" fill="#505056"/>
<path d="M71.5259 392.917C71.2176 392.917 70.9162 393.009 70.6597 393.18C70.4033 393.351 70.2035 393.595 70.0854 393.88C69.9674 394.164 69.9365 394.478 69.9966 394.78C70.0567 395.083 70.2051 395.361 70.4231 395.579C70.6412 395.797 70.9189 395.945 71.2213 396.005C71.5237 396.065 71.8372 396.035 72.1221 395.917C72.4069 395.799 72.6504 395.599 72.8217 395.343C72.9931 395.086 73.0845 394.785 73.0845 394.476C73.084 394.063 72.9197 393.667 72.6275 393.375C72.3353 393.082 71.9392 392.918 71.5259 392.917ZM71.5259 394.832C71.4555 394.832 71.3867 394.811 71.3282 394.772C71.2696 394.733 71.224 394.678 71.197 394.613C71.17 394.548 71.1629 394.476 71.1766 394.407C71.1903 394.338 71.2241 394.275 71.2739 394.225C71.3236 394.175 71.387 394.141 71.456 394.127C71.5251 394.114 71.5966 394.121 71.6617 394.148C71.7267 394.175 71.7823 394.22 71.8214 394.279C71.8605 394.337 71.8814 394.406 71.8814 394.476C71.881 394.57 71.8434 394.661 71.7768 394.727C71.7102 394.794 71.62 394.831 71.5259 394.831V394.832Z" fill="#505056"/>
<path d="M85.5121 392.917C85.2038 392.917 84.9024 393.009 84.646 393.18C84.3895 393.351 84.1897 393.595 84.0716 393.88C83.9536 394.164 83.9227 394.478 83.9828 394.78C84.0429 395.083 84.1913 395.361 84.4094 395.579C84.6274 395.797 84.9051 395.945 85.2075 396.005C85.5099 396.065 85.8234 396.035 86.1083 395.917C86.3931 395.799 86.6366 395.599 86.8079 395.343C86.9793 395.086 87.0707 394.785 87.0707 394.476C87.0702 394.063 86.9059 393.667 86.6137 393.375C86.3215 393.082 85.9254 392.918 85.5121 392.917ZM85.5121 394.832C85.4417 394.832 85.3729 394.811 85.3144 394.772C85.2558 394.733 85.2102 394.678 85.1832 394.613C85.1562 394.548 85.1491 394.476 85.1628 394.407C85.1765 394.338 85.2103 394.275 85.2601 394.225C85.3098 394.175 85.3732 394.141 85.4423 394.127C85.5113 394.114 85.5828 394.121 85.6479 394.148C85.7129 394.175 85.7685 394.22 85.8076 394.279C85.8467 394.337 85.8676 394.406 85.8676 394.476C85.8671 394.57 85.8295 394.661 85.7629 394.727C85.6963 394.793 85.6062 394.831 85.5121 394.831V394.832Z" fill="#505056"/>
<path d="M92.0533 223.303L90.6608 217.15C90.5431 216.633 90.3048 216.151 89.9654 215.743H90.2658C90.7445 215.743 91.2035 215.553 91.5419 215.215C91.8804 214.876 92.0705 214.417 92.0705 213.938C92.0705 213.46 91.8804 213.001 91.5419 212.662C91.2035 212.324 90.7445 212.134 90.2658 212.134H54.8957C54.1005 212.135 53.3379 212.45 52.7745 213.012C52.2111 213.573 51.8926 214.334 51.8885 215.129C51.8885 215.134 51.8885 215.138 51.8885 215.142V231.514C51.8893 232.129 52.134 232.719 52.569 233.154C53.0039 233.589 53.5937 233.834 54.2089 233.834H56.7505C56.8958 234.949 57.4416 235.972 58.2861 236.714C59.1305 237.455 60.2159 237.864 61.3396 237.864C62.4634 237.864 63.5487 237.455 64.3932 236.714C65.2376 235.972 65.7834 234.949 65.9287 233.834H78.0304C78.1757 234.949 78.7215 235.972 79.5659 236.714C80.4103 237.455 81.4957 237.864 82.6195 237.864C83.7432 237.864 84.8286 237.455 85.673 236.714C86.5174 235.972 87.0632 234.949 87.2085 233.834H89.7918C90.407 233.834 90.9967 233.589 91.4317 233.154C91.8667 232.719 92.1114 232.129 92.1121 231.514V223.818C92.1127 223.644 92.093 223.472 92.0533 223.303ZM54.8957 213.335H90.2675C90.4271 213.335 90.5801 213.398 90.6929 213.511C90.8057 213.624 90.8691 213.777 90.8691 213.936C90.8691 214.096 90.8057 214.249 90.6929 214.361C90.5801 214.474 90.4271 214.538 90.2675 214.538H53.1941C53.3191 214.186 53.5497 213.882 53.8543 213.667C54.159 213.452 54.5227 213.336 54.8957 213.336V213.335ZM61.3386 236.664C60.4299 236.663 59.5587 236.302 58.9159 235.66C58.2731 235.017 57.911 234.147 57.909 233.238V233.233V233.229C57.909 232.32 58.2703 231.447 58.9134 230.804C59.5565 230.161 60.4287 229.8 61.3382 229.8C62.2477 229.8 63.12 230.161 63.7631 230.804C64.4062 231.447 64.7675 232.32 64.7675 233.229V233.238C64.7656 234.147 64.4036 235.017 63.7609 235.659C63.1182 236.302 62.2471 236.663 61.3386 236.664ZM82.6198 236.664C81.7115 236.663 80.8407 236.302 80.198 235.66C79.5552 235.019 79.193 234.148 79.1905 233.24V233.233V233.227C79.2002 232.323 79.566 231.46 80.2086 230.824C80.8512 230.189 81.7185 229.833 82.6222 229.834C83.5258 229.834 84.3927 230.191 85.0345 230.828C85.6762 231.464 86.041 232.327 86.0494 233.231V233.236C86.048 234.145 85.6862 235.016 85.0433 235.659C84.4004 236.301 83.5289 236.663 82.6198 236.664ZM90.9097 231.514C90.9093 231.81 90.7915 232.094 90.5821 232.304C90.3726 232.513 90.0887 232.631 89.7925 232.631H87.2085C87.0638 231.516 86.5183 230.492 85.6738 229.751C84.8293 229.009 83.7436 228.599 82.6195 228.599C81.4953 228.599 80.4096 229.009 79.5651 229.751C78.7206 230.492 78.1751 231.516 78.0304 232.631H65.9273C65.7826 231.516 65.2371 230.492 64.3926 229.751C63.5481 229.009 62.4624 228.599 61.3382 228.599C60.2141 228.599 59.1284 229.009 58.2839 229.751C57.4394 230.492 56.8939 231.516 56.7492 232.631H54.2054C53.9092 232.631 53.6253 232.513 53.4159 232.304C53.2064 232.094 53.0886 231.81 53.0882 231.514V215.743H87.391C87.8785 215.741 88.3519 215.906 88.7328 216.21C89.1137 216.515 89.3793 216.94 89.4855 217.416L90.8801 223.578C90.8988 223.657 90.908 223.738 90.9076 223.819L90.9097 231.514Z" fill="#505056"/>
<path d="M61.3386 231.008C60.8982 231.008 60.4676 231.138 60.1014 231.383C59.7351 231.628 59.4497 231.975 59.2811 232.382C59.1125 232.789 59.0683 233.237 59.1542 233.669C59.2401 234.101 59.4521 234.498 59.7635 234.809C60.075 235.121 60.4717 235.333 60.9037 235.419C61.3357 235.505 61.7834 235.46 62.1903 235.292C62.5973 235.123 62.9451 234.838 63.1898 234.472C63.4345 234.106 63.5651 233.675 63.5651 233.235C63.5644 232.644 63.3297 232.078 62.9123 231.661C62.4949 231.243 61.9289 231.009 61.3386 231.008ZM61.3386 234.258C61.1361 234.258 60.9381 234.198 60.7697 234.086C60.6014 233.973 60.4701 233.813 60.3926 233.626C60.315 233.439 60.2947 233.233 60.3342 233.035C60.3737 232.836 60.4712 232.654 60.6144 232.51C60.7576 232.367 60.94 232.27 61.1386 232.23C61.3372 232.191 61.5431 232.211 61.7302 232.289C61.9172 232.366 62.0771 232.497 62.1896 232.666C62.302 232.834 62.362 233.032 62.362 233.235C62.3617 233.506 62.2538 233.766 62.0619 233.958C61.8701 234.15 61.6099 234.258 61.3386 234.258Z" fill="#505056"/>
<path d="M82.6199 231.008C82.1794 231.008 81.7489 231.138 81.3826 231.383C81.0164 231.628 80.7309 231.975 80.5623 232.382C80.3937 232.789 80.3496 233.237 80.4354 233.669C80.5213 234.101 80.7334 234.498 81.0448 234.809C81.3562 235.121 81.753 235.333 82.185 235.419C82.6169 235.505 83.0647 235.46 83.4716 235.292C83.8785 235.123 84.2263 234.838 84.471 234.472C84.7157 234.106 84.8463 233.675 84.8463 233.235C84.8458 232.644 84.611 232.078 84.1936 231.661C83.7762 231.243 83.2102 231.008 82.6199 231.008ZM82.6199 234.258C82.4174 234.258 82.2194 234.198 82.051 234.086C81.8826 233.973 81.7513 233.813 81.6738 233.626C81.5963 233.439 81.576 233.233 81.6155 233.035C81.655 232.836 81.7525 232.654 81.8957 232.51C82.0388 232.367 82.2213 232.27 82.4199 232.23C82.6185 232.191 82.8244 232.211 83.0114 232.289C83.1985 232.366 83.3584 232.497 83.4708 232.666C83.5833 232.834 83.6433 233.032 83.6432 233.235C83.6429 233.506 83.535 233.766 83.3432 233.958C83.1513 234.15 82.8912 234.258 82.6199 234.258Z" fill="#505056"/>
<path d="M88.314 217.688C88.2695 217.478 88.1534 217.289 87.9856 217.153C87.8177 217.018 87.6083 216.945 87.3928 216.946H54.8947C54.7351 216.946 54.5822 217.01 54.4694 217.123C54.3566 217.235 54.2932 217.388 54.2931 217.548V223.893C54.2932 224.053 54.3566 224.206 54.4694 224.319C54.5822 224.432 54.7351 224.495 54.8947 224.495H89.105C89.1953 224.495 89.2844 224.475 89.3657 224.435C89.447 224.396 89.5185 224.339 89.5748 224.269C89.6311 224.198 89.6709 224.116 89.6912 224.028C89.7114 223.94 89.7116 223.849 89.6918 223.76L88.314 217.688ZM68.624 218.149H73.9845V223.292H68.624V218.149ZM67.4209 223.292H62.0601V218.149H67.4226L67.4209 223.292ZM75.1876 218.149H80.548V223.292H75.1876V218.149ZM55.4962 218.149H60.8587V223.292H55.4962V218.149ZM81.7512 223.292V218.149H87.1852L88.3515 223.292H81.7512Z" fill="#505056"/>
<path d="M82.0718 225.791H81.1495C80.99 225.791 80.837 225.854 80.7242 225.967C80.6114 226.08 80.548 226.233 80.548 226.392C80.548 226.552 80.6114 226.705 80.7242 226.817C80.837 226.93 80.99 226.994 81.1495 226.994H82.0718C82.2314 226.994 82.3844 226.93 82.4972 226.817C82.61 226.705 82.6734 226.552 82.6734 226.392C82.6734 226.233 82.61 226.08 82.4972 225.967C82.3844 225.854 82.2314 225.791 82.0718 225.791Z" fill="#505056"/>
<path d="M480.866 221.181C480.597 221.181 480.331 221.198 480.068 221.224C479.814 220.566 480.986 223.608 477.594 214.798H480.866C481.345 214.798 481.804 214.607 482.142 214.269C482.481 213.931 482.671 213.472 482.671 212.993C482.671 212.514 482.481 212.055 482.142 211.717C481.804 211.378 481.345 211.188 480.866 211.188C475.46 211.206 474.999 211.157 474.629 211.219C474.378 211.266 474.141 211.366 473.932 211.512C473.723 211.658 473.547 211.847 473.417 212.066C473.286 212.285 473.204 212.53 473.175 212.783C473.146 213.036 473.171 213.293 473.249 213.536C473.275 213.639 473.183 213.38 474.59 217.039H466.259L464.909 214.059L465.983 214.209C466.218 214.242 466.457 214.228 466.686 214.169C466.916 214.11 467.131 214.005 467.321 213.863C467.51 213.72 467.669 213.541 467.789 213.337C467.91 213.133 467.988 212.907 468.021 212.672C468.054 212.437 468.041 212.199 467.981 211.969C467.922 211.74 467.818 211.524 467.675 211.335C467.532 211.146 467.354 210.986 467.149 210.866C466.945 210.746 466.719 210.667 466.484 210.634L460.303 209.768C460.068 209.735 459.83 209.748 459.6 209.808C459.371 209.867 459.155 209.971 458.966 210.114C458.777 210.256 458.617 210.435 458.497 210.639C458.377 210.844 458.298 211.07 458.265 211.304C458.232 211.539 458.246 211.778 458.305 212.007C458.364 212.237 458.468 212.452 458.611 212.642C458.754 212.831 458.932 212.99 459.137 213.11C459.341 213.231 459.567 213.31 459.802 213.343L460.693 213.468C460.801 213.766 461.208 214.618 462.421 217.315C462.175 217.469 461.969 217.678 461.819 217.927L459.659 221.584C458.844 221.318 457.992 221.182 457.134 221.181C455.584 221.18 454.066 221.618 452.754 222.442C451.442 223.267 450.389 224.445 449.717 225.842C449.046 227.238 448.782 228.796 448.957 230.336C449.132 231.875 449.738 233.335 450.706 234.545C451.674 235.755 452.964 236.667 454.428 237.176C455.892 237.685 457.469 237.771 458.979 237.422C460.489 237.074 461.87 236.306 462.963 235.208C464.056 234.109 464.816 232.724 465.156 231.212H468.158C468.436 231.209 468.709 231.144 468.958 231.02C469.207 230.896 469.424 230.716 469.593 230.496L476.345 221.6L476.635 222.354C474.929 223.378 473.653 224.985 473.042 226.878C472.43 228.771 472.526 230.822 473.311 232.65C474.095 234.478 475.516 235.959 477.31 236.82C479.103 237.681 481.148 237.862 483.065 237.331C484.982 236.799 486.641 235.591 487.736 233.93C488.83 232.269 489.285 230.267 489.017 228.296C488.749 226.325 487.775 224.518 486.276 223.21C484.778 221.901 482.856 221.181 480.866 221.181ZM478.366 226.845L479.146 228.871C479.323 229.316 479.669 229.672 480.109 229.861C480.548 230.051 481.045 230.058 481.489 229.881C481.934 229.704 482.29 229.358 482.479 228.918C482.669 228.479 482.676 227.982 482.499 227.538L481.899 225.98C482.535 226.172 483.104 226.537 483.544 227.035C483.984 227.532 484.278 228.142 484.391 228.796C484.505 229.45 484.434 230.123 484.188 230.74C483.941 231.356 483.528 231.892 482.995 232.288C482.462 232.683 481.829 232.923 481.167 232.979C480.506 233.036 479.842 232.908 479.249 232.609C478.656 232.311 478.157 231.853 477.809 231.287C477.461 230.722 477.277 230.071 477.278 229.407C477.277 228.929 477.374 228.455 477.561 228.015C477.748 227.575 478.021 227.177 478.366 226.845ZM474.415 213.24C474.378 213.149 474.362 213.051 474.369 212.953C474.376 212.855 474.405 212.759 474.455 212.675C474.501 212.605 474.56 212.545 474.629 212.498C474.698 212.452 474.776 212.419 474.858 212.403L480.866 212.391C481.026 212.391 481.179 212.455 481.292 212.568C481.404 212.68 481.468 212.833 481.468 212.993C481.468 213.152 481.404 213.305 481.292 213.418C481.179 213.531 481.026 213.594 480.866 213.594H476.717C476.62 213.594 476.523 213.618 476.437 213.664C476.35 213.709 476.276 213.775 476.221 213.856C476.166 213.936 476.131 214.029 476.12 214.126C476.108 214.223 476.121 214.321 476.156 214.413L477.168 217.039H475.879L474.415 213.24ZM459.458 211.471C459.48 211.313 459.564 211.171 459.692 211.074C459.819 210.978 459.979 210.937 460.137 210.959L466.319 211.826C466.397 211.837 466.472 211.863 466.54 211.904C466.609 211.944 466.668 211.997 466.716 212.06C466.763 212.123 466.798 212.195 466.818 212.271C466.838 212.348 466.842 212.427 466.831 212.506C466.82 212.584 466.794 212.659 466.754 212.727C466.714 212.795 466.661 212.855 466.598 212.903C466.534 212.95 466.463 212.985 466.386 213.005C466.31 213.024 466.23 213.029 466.152 213.018L461.286 212.335C461.278 212.335 461.27 212.333 461.261 212.332L459.97 212.15C459.892 212.139 459.816 212.113 459.748 212.073C459.68 212.033 459.621 211.98 459.573 211.917C459.526 211.854 459.491 211.782 459.471 211.706C459.451 211.629 459.447 211.549 459.458 211.471ZM463.5 213.863L464.94 217.041H463.619L462.091 213.663L463.5 213.863ZM457.134 236.43C456.131 236.43 455.139 236.215 454.226 235.8C453.313 235.384 452.499 234.778 451.84 234.022C451.181 233.266 450.691 232.377 450.404 231.416C450.117 230.455 450.04 229.443 450.176 228.449C450.313 227.455 450.661 226.503 451.197 225.655C451.733 224.807 452.445 224.083 453.284 223.533C454.123 222.983 455.07 222.62 456.061 222.467C457.053 222.313 458.065 222.374 459.031 222.645L457.833 224.674C457.601 224.638 457.367 224.619 457.132 224.618C456.264 224.618 455.413 224.855 454.668 225.302C453.924 225.75 453.316 226.391 452.908 227.157C452.501 227.924 452.309 228.787 452.354 229.654C452.399 230.521 452.679 231.36 453.164 232.08C453.648 232.8 454.32 233.375 455.106 233.743C455.893 234.111 456.764 234.258 457.628 234.169C458.491 234.08 459.315 233.758 460.009 233.237C460.704 232.716 461.244 232.016 461.571 231.212H463.923C463.532 232.712 462.652 234.04 461.423 234.985C460.194 235.929 458.684 236.438 457.134 236.43ZM455.569 230.299C455.727 230.576 455.954 230.806 456.229 230.966C456.503 231.126 456.816 231.211 457.134 231.212H460.233C459.916 231.755 459.462 232.206 458.917 232.518C458.371 232.831 457.753 232.995 457.124 232.993C456.495 232.991 455.878 232.824 455.334 232.508C454.79 232.193 454.339 231.74 454.026 231.195C453.712 230.649 453.548 230.031 453.548 229.403C453.549 228.774 453.716 228.156 454.03 227.612C454.345 227.067 454.798 226.616 455.342 226.301C455.887 225.987 456.505 225.822 457.134 225.822C457.141 225.822 457.148 225.822 457.156 225.822L455.581 228.487C455.419 228.761 455.332 229.073 455.33 229.391C455.328 229.71 455.411 230.023 455.569 230.299ZM476.039 220.013C476.039 220.013 468.643 229.758 468.645 229.756C468.586 229.83 468.513 229.891 468.429 229.935C468.345 229.979 468.252 230.004 468.158 230.009H457.134C457.027 230.008 456.923 229.979 456.832 229.924C456.74 229.87 456.665 229.792 456.613 229.699C456.56 229.608 456.533 229.504 456.534 229.399C456.535 229.293 456.563 229.19 456.617 229.099L460.431 222.643L462.835 218.572C462.885 218.476 462.959 218.395 463.051 218.337C463.142 218.28 463.248 218.248 463.356 218.246C464.593 218.246 458.87 218.246 475.466 218.243H477.632L481.378 227.974L481.381 227.981C481.44 228.129 481.438 228.294 481.375 228.44C481.313 228.587 481.195 228.703 481.048 228.762C480.9 228.819 480.736 228.817 480.59 228.755C480.445 228.693 480.329 228.577 480.267 228.431L477.078 220.16C477.04 220.06 476.975 219.972 476.891 219.906C476.807 219.839 476.707 219.796 476.601 219.781C476.495 219.766 476.387 219.78 476.288 219.82C476.189 219.861 476.102 219.928 476.038 220.013H476.039ZM480.866 236.43C479.348 236.431 477.87 235.94 476.654 235.031C475.439 234.121 474.551 232.842 474.124 231.385C473.697 229.928 473.754 228.372 474.286 226.95C474.818 225.528 475.797 224.317 477.076 223.499L477.903 225.647C477.266 226.15 476.767 226.805 476.453 227.553C476.139 228.301 476.02 229.117 476.107 229.923C476.195 230.73 476.485 231.501 476.953 232.164C477.42 232.828 478.048 233.361 478.778 233.715C479.508 234.069 480.316 234.232 481.126 234.188C481.936 234.144 482.721 233.895 483.409 233.465C484.096 233.034 484.663 232.436 485.056 231.726C485.449 231.016 485.655 230.218 485.655 229.407C485.648 228.23 485.211 227.096 484.424 226.219C483.638 225.343 482.558 224.785 481.388 224.652L480.52 222.397C480.635 222.391 480.75 222.384 480.866 222.384C482.729 222.384 484.515 223.124 485.832 224.441C487.149 225.758 487.889 227.544 487.889 229.407C487.889 231.27 487.149 233.056 485.832 234.373C484.515 235.69 482.729 236.43 480.866 236.43Z" fill="#505056"/>
<path d="M463.78 221.201C463.734 221.101 463.662 221.015 463.571 220.953C463.481 220.891 463.374 220.855 463.264 220.849C463.155 220.843 463.045 220.867 462.948 220.919C462.851 220.971 462.77 221.049 462.714 221.144L458.726 227.898C458.673 227.989 458.644 228.093 458.643 228.199C458.642 228.305 458.67 228.41 458.722 228.502C458.775 228.594 458.851 228.671 458.943 228.724C459.034 228.777 459.138 228.805 459.244 228.805H466.291C466.392 228.805 466.491 228.78 466.579 228.732C466.667 228.684 466.742 228.615 466.796 228.53C466.851 228.446 466.883 228.349 466.891 228.249C466.898 228.148 466.881 228.048 466.839 227.956L463.78 221.201ZM461.568 227.602C461.407 227.214 461.197 226.847 460.942 226.513L462.14 224.482C462.996 225.349 463.61 226.425 463.922 227.603L461.568 227.602ZM465.156 227.602C464.797 226 463.965 224.542 462.768 223.419L463.162 222.752L465.358 227.602L465.156 227.602Z" fill="#505056"/>
<path d="M473.747 219.445H465.239C465.139 219.445 465.04 219.47 464.952 219.518C464.863 219.566 464.788 219.636 464.734 219.72C464.679 219.805 464.647 219.902 464.639 220.002C464.632 220.102 464.65 220.203 464.691 220.294L467.871 227.318C467.914 227.413 467.981 227.495 468.066 227.556C468.15 227.617 468.249 227.656 468.352 227.667C468.375 227.67 468.398 227.671 468.421 227.671C468.514 227.671 468.605 227.65 468.689 227.608C468.772 227.567 468.844 227.507 468.9 227.433L474.228 220.41C474.296 220.321 474.338 220.214 474.348 220.103C474.359 219.991 474.338 219.879 474.288 219.778C474.238 219.678 474.16 219.593 474.065 219.535C473.969 219.476 473.859 219.445 473.747 219.445ZM468.55 225.902L466.172 220.648H472.536L468.55 225.902Z" fill="#505056"/>
<path d="M166.628 480.909C165.253 480.909 164.119 482.044 164.119 483.419C164.119 484.794 165.253 485.928 166.628 485.928C168.003 485.928 169.138 484.794 169.138 483.419C169.138 482.009 168.003 480.909 166.628 480.909ZM166.628 484.725C165.906 484.725 165.322 484.14 165.322 483.419C165.322 482.697 165.906 482.112 166.628 482.112C167.35 482.112 167.934 482.697 167.934 483.419C167.934 484.14 167.35 484.725 166.628 484.725Z" fill="#505056"/>
<path d="M195.091 478.503C195.262 477.128 195.091 476.028 194.747 474.825C193.991 472.006 192.409 468.912 191.206 466.781C190.484 465.475 189.9 464.512 189.659 464.203C189.556 461.659 187.459 459.666 184.95 459.666H164.187C161.953 459.666 160.166 461.487 160.131 463.722V480.428C160.131 481.322 160.853 482.044 161.781 482.078H161.919C161.162 484.691 162.675 487.406 165.287 488.162C167.9 488.919 170.616 487.406 171.372 484.794C171.612 483.9 171.612 482.972 171.372 482.078H172.094C172.369 483.487 173.606 484.484 175.05 484.484H190.209C190.794 487.131 193.406 488.816 196.053 488.197C198.7 487.578 200.384 485 199.766 482.353C199.25 480.153 197.359 478.572 195.091 478.503ZM190.759 480.875H187.837C188.834 479.191 189.178 476.853 188.869 473.587C188.628 470.941 187.975 467.916 187.356 464.994H188.766C188.937 465.303 189.281 465.819 189.659 466.472H189.109C188.731 466.472 188.422 466.85 188.525 467.228L190.484 475.134C190.553 475.409 190.794 475.581 191.069 475.581H193.681C193.716 475.719 193.75 475.891 193.784 476.028C193.956 476.887 193.991 477.747 193.853 478.606C192.581 478.916 191.447 479.741 190.759 480.875ZM184.434 480.875V479.191C184.434 477.712 183.231 476.544 181.753 476.509H179.484V464.994H186.153C186.737 467.641 187.322 470.356 187.597 472.797L185.431 472.109C185.122 472.006 184.778 472.178 184.675 472.487C184.572 472.797 184.744 473.141 185.053 473.244C185.053 473.244 185.053 473.244 185.087 473.244L187.734 474.069C187.975 477.3 187.562 479.466 186.359 480.841L184.434 480.875ZM173.194 480.875V477.025C173.194 474.791 171.372 473.003 169.137 472.969H168.175V464.994H175.359V480.875H173.194ZM176.597 480.875V464.994H178.281V477.128C178.281 477.472 178.556 477.747 178.9 477.747H181.787C182.578 477.747 183.231 478.4 183.266 479.225V480.875H176.597ZM193.372 474.412H191.55L189.866 467.709H190.347C191.653 470.15 192.547 471.937 193.372 474.412ZM164.187 460.869H184.984C186.703 460.869 188.147 462.106 188.456 463.791H167.625C167.281 463.791 167.041 464.066 167.006 464.375V472.969H161.334V463.687C161.334 462.141 162.606 460.869 164.187 460.869ZM166.628 487.131C164.566 487.131 162.916 485.481 162.916 483.419C162.916 481.356 164.566 479.706 166.628 479.706C168.691 479.706 170.341 481.356 170.341 483.419C170.341 485.447 168.656 487.131 166.628 487.131ZM166.628 478.503C164.909 478.503 163.328 479.397 162.434 480.875H161.781C161.541 480.875 161.369 480.669 161.334 480.462V474.206H169.172C170.753 474.206 171.991 475.478 172.025 477.059V480.875H170.856C169.928 479.397 168.347 478.503 166.628 478.503ZM173.297 482.078H190.244C190.141 482.456 190.072 482.869 190.072 483.281H175.016C174.225 483.281 173.537 482.8 173.297 482.078ZM194.953 487.131C192.891 487.131 191.241 485.481 191.241 483.419C191.241 481.356 192.891 479.706 194.953 479.706C197.016 479.706 198.666 481.356 198.666 483.419C198.666 485.447 197.016 487.131 194.953 487.131Z" fill="#505056"/>
<path d="M194.953 480.909C193.578 480.909 192.444 482.044 192.444 483.419C192.444 484.794 193.578 485.928 194.953 485.928C196.328 485.928 197.462 484.794 197.462 483.419C197.462 482.009 196.328 480.909 194.953 480.909ZM194.953 484.725C194.231 484.725 193.647 484.14 193.647 483.419C193.647 482.697 194.231 482.112 194.953 482.112C195.675 482.112 196.259 482.697 196.259 483.419C196.259 484.14 195.675 484.725 194.953 484.725Z" fill="#505056"/>
<path d="M475.435 385.215H483.094C483.208 385.215 483.32 385.183 483.416 385.122C483.512 385.061 483.589 384.973 483.638 384.87C483.687 384.767 483.705 384.652 483.691 384.539C483.677 384.426 483.631 384.319 483.558 384.231L478.948 378.637C478.892 378.569 478.821 378.514 478.741 378.476C478.661 378.438 478.573 378.418 478.484 378.418H475.435C475.356 378.418 475.278 378.434 475.205 378.464C475.132 378.494 475.066 378.539 475.01 378.595C474.954 378.65 474.91 378.717 474.879 378.79C474.849 378.863 474.834 378.941 474.834 379.02V384.614C474.834 384.773 474.897 384.926 475.01 385.039C475.123 385.152 475.276 385.215 475.435 385.215ZM476.037 379.622H478.202L481.818 384.012H476.037V379.622Z" fill="#505056"/>
<path d="M458.219 381.224H460.57V383.576C460.57 383.735 460.634 383.888 460.746 384.001C460.859 384.114 461.012 384.177 461.172 384.177H463.578C463.737 384.177 463.89 384.114 464.003 384.001C464.116 383.888 464.179 383.735 464.179 383.576V381.224H466.531C466.691 381.224 466.844 381.161 466.956 381.048C467.069 380.935 467.133 380.782 467.133 380.623V378.216C467.133 378.057 467.069 377.904 466.956 377.791C466.844 377.678 466.691 377.615 466.531 377.615H464.179V375.263C464.179 375.104 464.116 374.951 464.003 374.838C463.89 374.725 463.737 374.662 463.578 374.662H461.172C461.012 374.662 460.859 374.725 460.746 374.838C460.634 374.951 460.57 375.104 460.57 375.263V377.615H458.219C458.059 377.615 457.906 377.678 457.794 377.791C457.681 377.904 457.617 378.057 457.617 378.216V380.623C457.617 380.782 457.681 380.935 457.794 381.048C457.906 381.161 458.059 381.224 458.219 381.224ZM458.82 378.818H461.172C461.331 378.818 461.484 378.755 461.597 378.642C461.71 378.529 461.773 378.376 461.773 378.216V375.865H462.976V378.216C462.976 378.376 463.04 378.529 463.153 378.642C463.265 378.754 463.418 378.818 463.578 378.818H465.93V380.021H463.578C463.418 380.021 463.265 380.085 463.153 380.197C463.04 380.31 462.976 380.463 462.976 380.623V382.974H461.773V380.623C461.773 380.463 461.71 380.31 461.597 380.197C461.484 380.084 461.331 380.021 461.172 380.021H458.82V378.818Z" fill="#505056"/>
<path d="M487.133 391.917V385.595C487.132 384.948 486.897 384.323 486.471 383.837L480.476 377C480.094 376.564 479.581 376.265 479.013 376.147V374.794C479.013 374.316 478.823 373.857 478.485 373.518C478.146 373.18 477.687 372.99 477.209 372.99C476.73 372.99 476.271 373.18 475.933 373.518C475.594 373.857 475.404 374.316 475.404 374.794V376.09H473.947V373.618C473.946 373.003 473.701 372.413 473.266 371.979C472.831 371.544 472.241 371.299 471.626 371.298H453.126C452.51 371.299 451.921 371.544 451.486 371.979C451.051 372.413 450.806 373.003 450.805 373.618V391.922C450.39 391.945 449.999 392.126 449.713 392.428C449.426 392.73 449.266 393.13 449.265 393.546V394.921C449.265 395.08 449.329 395.233 449.441 395.346C449.554 395.459 449.707 395.522 449.867 395.522H454.581C454.943 396.458 455.58 397.262 456.407 397.83C457.235 398.397 458.215 398.701 459.218 398.701C460.221 398.701 461.201 398.397 462.029 397.83C462.856 397.262 463.493 396.458 463.854 395.522H475.297C475.659 396.458 476.297 397.263 477.125 397.83C477.953 398.397 478.934 398.701 479.937 398.701C480.941 398.701 481.922 398.397 482.75 397.83C483.578 397.263 484.215 396.458 484.578 395.522H488.119C488.278 395.522 488.431 395.459 488.544 395.346C488.657 395.233 488.72 395.08 488.72 394.921V393.546C488.719 393.121 488.553 392.713 488.257 392.409C487.96 392.105 487.557 391.929 487.133 391.917ZM484.575 391.913C484.281 391.154 483.805 390.48 483.189 389.949H485.93V391.913H484.575ZM475.297 391.913H473.947V389.95H476.684C476.068 390.48 475.591 391.154 475.297 391.913ZM463.851 391.913C463.553 391.155 463.075 390.481 462.457 389.95H472.743V391.913H463.851ZM452.008 388.747V387.544H472.743V388.747H452.008ZM454.584 391.913H452.008V389.95H455.978C455.361 390.481 454.882 391.155 454.584 391.913V391.913ZM485.93 388.747H473.947V387.544H485.93V388.747ZM476.607 374.794C476.607 374.635 476.671 374.482 476.783 374.369C476.896 374.256 477.049 374.193 477.209 374.193C477.368 374.193 477.521 374.256 477.634 374.369C477.747 374.482 477.81 374.635 477.81 374.794V376.09H476.607V374.794ZM475.992 377.293C475.997 377.293 476.001 377.293 476.006 377.293H478.412C478.416 377.293 478.42 377.293 478.425 377.293H478.47C478.679 377.294 478.884 377.338 479.074 377.425C479.264 377.511 479.433 377.636 479.57 377.793L485.566 384.629C485.8 384.896 485.929 385.239 485.93 385.595V386.341H473.947V377.293H475.992ZM453.126 372.501H471.626C471.922 372.502 472.206 372.619 472.416 372.829C472.625 373.038 472.743 373.322 472.743 373.618V386.341H452.008V373.618C452.009 373.322 452.127 373.038 452.336 372.829C452.545 372.619 452.829 372.502 453.126 372.501ZM450.468 394.319V393.546C450.468 393.432 450.514 393.322 450.594 393.242C450.675 393.161 450.784 393.116 450.898 393.116H454.28C454.226 393.515 454.226 393.92 454.28 394.319H450.468ZM459.218 397.497C458.228 397.487 457.282 397.089 456.584 396.389C455.885 395.688 455.489 394.741 455.482 393.751C455.474 392.762 455.856 391.809 456.544 391.098C457.232 390.387 458.172 389.975 459.161 389.95H459.274C460.268 389.969 461.214 390.378 461.907 391.09C462.601 391.802 462.985 392.758 462.978 393.752C462.97 394.746 462.571 395.696 461.868 396.397C461.164 397.099 460.212 397.494 459.218 397.498V397.497ZM464.156 393.116H474.996C474.944 393.515 474.944 393.92 474.996 394.319H464.157C464.21 393.92 464.209 393.515 464.156 393.116ZM479.938 397.499C478.946 397.498 477.994 397.107 477.288 396.409C476.582 395.712 476.179 394.765 476.167 393.773C476.154 392.781 476.532 391.824 477.219 391.108C477.906 390.393 478.848 389.977 479.839 389.95H479.851C479.886 389.962 482.742 389.802 483.567 392.681C483.727 393.243 483.755 393.834 483.648 394.409C483.541 394.984 483.303 395.526 482.951 395.992C482.599 396.459 482.144 396.838 481.622 397.1C481.099 397.361 480.523 397.498 479.938 397.499ZM487.518 394.319H484.878C484.929 393.92 484.929 393.515 484.878 393.116H487.089C487.203 393.116 487.312 393.161 487.393 393.242C487.473 393.322 487.518 393.432 487.518 393.546L487.518 394.319Z" fill="#505056"/>
<path d="M459.218 391.149C458.709 391.149 458.212 391.3 457.789 391.583C457.366 391.865 457.036 392.267 456.841 392.737C456.646 393.207 456.595 393.725 456.695 394.224C456.794 394.723 457.039 395.181 457.399 395.541C457.758 395.901 458.217 396.146 458.716 396.245C459.215 396.345 459.732 396.294 460.202 396.099C460.672 395.904 461.074 395.574 461.357 395.151C461.64 394.728 461.791 394.231 461.791 393.722C461.79 393.04 461.518 392.386 461.036 391.904C460.554 391.422 459.9 391.15 459.218 391.149ZM459.218 395.091C458.947 395.091 458.683 395.011 458.457 394.861C458.232 394.71 458.056 394.496 457.953 394.246C457.849 393.996 457.822 393.72 457.875 393.455C457.928 393.189 458.058 392.945 458.25 392.753C458.441 392.562 458.685 392.431 458.951 392.378C459.216 392.326 459.492 392.353 459.742 392.457C459.992 392.56 460.206 392.736 460.357 392.961C460.507 393.186 460.587 393.451 460.587 393.722C460.587 394.085 460.442 394.433 460.186 394.69C459.929 394.946 459.581 395.091 459.218 395.091Z" fill="#505056"/>
<path d="M479.938 391.15C479.429 391.149 478.931 391.3 478.508 391.583C478.085 391.865 477.755 392.267 477.56 392.737C477.365 393.207 477.314 393.725 477.413 394.224C477.512 394.723 477.757 395.182 478.117 395.542C478.477 395.902 478.936 396.147 479.435 396.246C479.934 396.345 480.452 396.294 480.922 396.099C481.392 395.904 481.794 395.574 482.076 395.151C482.359 394.728 482.51 394.23 482.509 393.721C482.508 393.04 482.236 392.387 481.754 391.905C481.272 391.423 480.619 391.151 479.938 391.15ZM479.938 395.092C479.667 395.093 479.402 395.013 479.177 394.863C478.951 394.712 478.775 394.499 478.671 394.248C478.567 393.998 478.54 393.723 478.593 393.457C478.645 393.191 478.775 392.947 478.967 392.755C479.158 392.563 479.402 392.433 479.667 392.379C479.933 392.326 480.209 392.353 480.459 392.456C480.709 392.56 480.924 392.735 481.074 392.96C481.225 393.185 481.306 393.45 481.306 393.721C481.304 394.083 481.159 394.43 480.903 394.687C480.647 394.943 480.301 395.089 479.938 395.092Z" fill="#505056"/>
<path d="M358.622 469.402L353.825 468.078L351.722 461.684C351.614 461.358 351.406 461.075 351.127 460.874C350.849 460.673 350.515 460.564 350.171 460.564H343.637C343.204 460.565 342.789 460.737 342.483 461.043C342.176 461.349 342.004 461.764 342.004 462.197V469.469H321.52C321.36 469.469 321.207 469.533 321.094 469.645C320.981 469.758 320.918 469.911 320.918 470.071V472.477C320.918 472.637 320.981 472.79 321.094 472.902C321.207 473.015 321.36 473.079 321.52 473.079H322.128V482.697C322.129 483.13 322.301 483.545 322.607 483.851C322.913 484.157 323.328 484.329 323.761 484.33H324.772C325.133 485.246 325.762 486.033 326.576 486.587C327.391 487.142 328.353 487.438 329.338 487.438C330.323 487.438 331.286 487.142 332.1 486.587C332.914 486.033 333.543 485.246 333.904 484.33H348.116C348.477 485.246 349.105 486.033 349.92 486.587C350.734 487.142 351.696 487.438 352.681 487.438C353.667 487.438 354.629 487.142 355.443 486.587C356.258 486.033 356.886 485.246 357.247 484.33H359.449C359.882 484.329 360.297 484.157 360.603 483.851C360.909 483.545 361.081 483.13 361.082 482.697V472.632C361.08 471.899 360.839 471.187 360.395 470.603C359.951 470.02 359.328 469.598 358.622 469.402ZM343.207 462.196C343.207 462.082 343.252 461.972 343.333 461.892C343.413 461.811 343.523 461.766 343.637 461.766H350.171C350.262 461.766 350.35 461.794 350.423 461.847C350.496 461.9 350.551 461.975 350.579 462.06L352.783 468.76C352.814 468.854 352.868 468.94 352.94 469.008C353.012 469.076 353.099 469.126 353.195 469.152L358.302 470.562C358.753 470.688 359.151 470.958 359.435 471.33C359.72 471.702 359.875 472.157 359.878 472.625H356.994C356.915 472.625 356.837 472.64 356.764 472.671C356.691 472.701 356.624 472.745 356.568 472.801C356.513 472.857 356.468 472.923 356.438 472.996C356.408 473.069 356.392 473.147 356.392 473.226V474.945C356.393 475.56 356.638 476.15 357.073 476.585C357.508 477.02 358.098 477.265 358.713 477.266H359.879V480.72H357.248C356.887 479.803 356.259 479.016 355.444 478.461C354.63 477.907 353.667 477.61 352.681 477.61C351.696 477.61 350.733 477.907 349.919 478.461C349.104 479.016 348.476 479.803 348.115 480.72H343.207V462.196ZM359.879 473.827V476.062H358.713C358.417 476.062 358.133 475.944 357.924 475.735C357.714 475.525 357.597 475.241 357.596 474.945V473.828L359.879 473.827ZM322.121 470.672H342.004V471.876H322.121V470.672ZM342.004 473.079V480.717H333.903C333.542 479.801 332.913 479.014 332.099 478.46C331.285 477.906 330.323 477.61 329.338 477.61C328.353 477.61 327.391 477.906 326.577 478.46C325.763 479.014 325.134 479.801 324.773 480.717H323.331V473.079H342.004ZM323.761 483.126C323.647 483.126 323.538 483.081 323.457 483C323.377 482.92 323.331 482.811 323.331 482.697V481.923H324.466C324.411 482.323 324.411 482.727 324.466 483.126H323.761ZM329.338 486.235C328.604 486.235 327.886 486.017 327.275 485.609C326.665 485.201 326.189 484.622 325.908 483.943C325.627 483.265 325.553 482.518 325.697 481.798C325.84 481.078 326.194 480.417 326.713 479.897C327.232 479.378 327.893 479.025 328.614 478.881C329.334 478.738 330.08 478.812 330.759 479.093C331.437 479.374 332.017 479.849 332.425 480.46C332.833 481.07 333.05 481.788 333.05 482.523C333.05 483.507 332.658 484.451 331.962 485.147C331.266 485.843 330.322 486.234 329.338 486.235ZM334.211 483.126C334.266 482.727 334.266 482.323 334.211 481.923H347.808C347.754 482.323 347.754 482.727 347.808 483.126H334.211ZM352.681 486.235C351.947 486.235 351.229 486.017 350.619 485.609C350.008 485.201 349.532 484.622 349.251 483.943C348.97 483.265 348.897 482.518 349.04 481.798C349.183 481.078 349.537 480.417 350.056 479.897C350.575 479.378 351.237 479.025 351.957 478.881C352.677 478.738 353.424 478.812 354.102 479.093C354.78 479.374 355.36 479.849 355.768 480.46C356.176 481.07 356.394 481.788 356.394 482.523C356.393 483.507 356.002 484.451 355.306 485.147C354.61 485.843 353.666 486.234 352.681 486.235ZM359.879 482.697C359.879 482.811 359.833 482.92 359.753 483C359.672 483.081 359.563 483.126 359.449 483.126H357.555C357.609 482.727 357.609 482.323 357.555 481.923H359.878L359.879 482.697Z" fill="#505056"/>
<path d="M345.011 469.173H350.82C350.915 469.173 351.009 469.15 351.094 469.107C351.179 469.063 351.252 469.001 351.308 468.923C351.364 468.846 351.4 468.757 351.415 468.663C351.43 468.569 351.421 468.472 351.392 468.382L349.745 463.381C349.705 463.261 349.629 463.157 349.526 463.083C349.423 463.009 349.3 462.969 349.174 462.969H345.011C344.851 462.969 344.698 463.032 344.585 463.145C344.473 463.258 344.409 463.411 344.409 463.571V468.572C344.41 468.731 344.473 468.884 344.586 468.997C344.699 469.109 344.851 469.173 345.011 469.173ZM345.612 464.171H348.738L349.989 467.97H345.612V464.171Z" fill="#505056"/>
<path d="M345.011 474.281C345.09 474.281 345.168 474.265 345.241 474.235C345.314 474.205 345.38 474.16 345.436 474.105C345.492 474.049 345.537 473.982 345.567 473.909C345.597 473.836 345.612 473.758 345.612 473.679V471.5C345.612 471.34 345.549 471.187 345.436 471.074C345.323 470.962 345.17 470.898 345.011 470.898C344.851 470.898 344.698 470.962 344.585 471.074C344.473 471.187 344.409 471.34 344.409 471.5V473.679C344.409 473.839 344.473 473.992 344.585 474.104C344.698 474.217 344.851 474.281 345.011 474.281Z" fill="#505056"/>
<path d="M329.338 480.016C328.842 480.016 328.356 480.163 327.944 480.439C327.531 480.714 327.209 481.106 327.02 481.565C326.83 482.023 326.78 482.528 326.877 483.015C326.974 483.501 327.213 483.948 327.563 484.299C327.914 484.65 328.362 484.889 328.848 484.986C329.335 485.083 329.84 485.033 330.298 484.843C330.757 484.653 331.149 484.332 331.424 483.919C331.7 483.506 331.847 483.021 331.847 482.525C331.847 481.859 331.583 481.221 331.112 480.751C330.642 480.28 330.003 480.016 329.338 480.016ZM329.338 483.828C329.08 483.828 328.827 483.752 328.612 483.608C328.397 483.464 328.23 483.26 328.131 483.022C328.032 482.783 328.006 482.52 328.057 482.267C328.107 482.014 328.232 481.781 328.414 481.598C328.597 481.416 328.83 481.291 329.083 481.241C329.336 481.19 329.599 481.216 329.838 481.315C330.076 481.414 330.28 481.581 330.424 481.796C330.568 482.011 330.644 482.264 330.644 482.522C330.644 482.694 330.61 482.863 330.545 483.022C330.479 483.181 330.383 483.325 330.262 483.446C330.14 483.567 329.996 483.664 329.838 483.729C329.679 483.795 329.509 483.829 329.338 483.829V483.828Z" fill="#505056"/>
<path d="M352.681 480.016C352.185 480.016 351.7 480.163 351.287 480.439C350.874 480.714 350.553 481.106 350.363 481.565C350.173 482.023 350.123 482.528 350.22 483.015C350.317 483.501 350.556 483.948 350.907 484.299C351.258 484.65 351.705 484.889 352.192 484.986C352.678 485.083 353.183 485.033 353.642 484.843C354.1 484.653 354.492 484.332 354.768 483.919C355.043 483.506 355.191 483.021 355.191 482.525C355.191 481.859 354.926 481.221 354.456 480.751C353.985 480.28 353.347 480.016 352.681 480.016ZM352.681 483.828C352.423 483.828 352.17 483.752 351.956 483.608C351.741 483.464 351.573 483.26 351.474 483.022C351.376 482.783 351.35 482.52 351.4 482.267C351.451 482.014 351.575 481.781 351.758 481.598C351.94 481.416 352.173 481.291 352.426 481.241C352.68 481.19 352.942 481.216 353.181 481.315C353.42 481.414 353.624 481.581 353.767 481.796C353.911 482.011 353.988 482.264 353.988 482.522C353.988 482.694 353.954 482.863 353.888 483.022C353.823 483.181 353.726 483.325 353.605 483.446C353.484 483.567 353.34 483.664 353.181 483.729C353.023 483.795 352.853 483.829 352.681 483.829V483.828Z" fill="#505056"/>
</svg>
