<svg width="541" height="508" viewBox="0 0 541 508" fill="none" xmlns="http://www.w3.org/2000/svg">
<circle opacity="0.04" cx="274" cy="254" r="254" fill="#FFFCF4"/>
<circle opacity="0.04" cx="269.365" cy="252.146" r="203.942" fill="#FFFCF4"/>
<path d="M247.512 204.981H234.317V303.213H247.512V204.981Z" fill="#FAB60B"/>
<path d="M361.139 254.446C361.139 256.553 361.016 258.607 360.858 260.678V261.064H360.823C357.436 306.323 319.597 342.066 273.528 342.066C225.212 342.066 185.934 302.776 185.934 254.446C185.934 206.116 225.212 166.861 273.528 166.861C305.487 166.861 333.515 184.083 348.783 209.732L339.096 219.423C326.6 196.021 301.924 180.046 273.528 180.046C232.495 180.046 199.132 213.419 199.132 254.428C199.132 295.438 232.495 328.846 273.528 328.846C312.296 328.846 344.238 298.984 347.572 261.047H279.512L316.263 297.808L306.926 307.148L254.205 254.411L263.542 245.071L306.908 201.692L316.245 211.031L279.495 247.828H360.823C360.981 250.004 361.104 252.181 361.104 254.411L361.139 254.446Z" fill="#FAB60B"/>
<path d="M158.181 38.8348C157.751 37.9404 157.164 37.1307 156.447 36.4449C154.884 34.9297 152.792 34.0846 150.615 34.0897H147.601L143.889 26.8201C143.71 26.4665 143.436 26.1695 143.097 25.9625C142.759 25.7554 142.37 25.6464 141.973 25.6475H131.776C131.38 25.6464 130.991 25.7555 130.652 25.9625C130.314 26.1696 130.04 26.4665 129.861 26.8201L126.148 34.0897H125.513C124.52 34.0908 123.568 34.4856 122.866 35.1876C122.164 35.8895 121.77 36.8412 121.769 37.8339V43.71C121.769 44.2803 121.996 44.827 122.399 45.2302C122.803 45.6334 123.349 45.8603 123.92 45.8609H125.745C126.028 46.8088 126.61 47.6399 127.403 48.2308C128.196 48.8217 129.159 49.1409 130.148 49.1409C131.138 49.1409 132.1 48.8217 132.894 48.2308C133.687 47.6399 134.269 46.8088 134.552 45.8609H143.772C144.055 46.8088 144.637 47.6399 145.43 48.2308C146.223 48.8217 147.186 49.1409 148.175 49.1409C149.165 49.1409 150.128 48.8217 150.921 48.2308C151.714 47.6399 152.296 46.8088 152.579 45.8609H156.869C157.439 45.8603 157.986 45.6334 158.389 45.2302C158.792 44.827 159.019 44.2803 159.02 43.71V42.4927C159.024 41.2253 158.737 39.9739 158.181 38.8348ZM155.823 37.4053C156.159 37.7454 156.459 38.1192 156.718 38.5206H154.131C153.932 38.5203 153.741 38.4409 153.599 38.2998C153.458 38.1587 153.379 37.9675 153.379 37.768V37.4053H155.823ZM141.242 28.9934L143.844 34.0897H137.431V28.9934H141.242ZM136.315 34.0897H129.905L132.507 28.9934H136.315V34.0897ZM130.853 27.3274C130.94 27.1571 131.071 27.0141 131.234 26.9144C131.397 26.8147 131.584 26.7622 131.775 26.7628H141.972C142.163 26.7622 142.351 26.8147 142.514 26.9144C142.677 27.0141 142.809 27.1571 142.895 27.3274L146.349 34.0897H145.096L142.08 28.1821C142.033 28.0906 141.962 28.0138 141.874 27.9601C141.787 27.9065 141.686 27.8781 141.583 27.8781H132.166C132.063 27.8781 131.962 27.9065 131.875 27.9601C131.787 28.0138 131.716 28.0906 131.669 28.1821L128.653 34.0897H127.4L130.853 27.3274ZM123.92 44.7456C123.645 44.7453 123.382 44.6361 123.188 44.4419C122.993 44.2478 122.884 43.9846 122.884 43.71V37.8339C122.885 37.1369 123.162 36.4687 123.655 35.9758C124.148 35.483 124.816 35.2058 125.513 35.205H126.153V42.2757C125.722 43.0249 125.516 43.8825 125.56 44.7456H123.92ZM130.148 48.0256C129.338 48.0243 128.554 47.7411 127.93 47.2247C127.306 46.7082 126.881 45.9907 126.729 45.1953V45.1892C126.596 44.4852 126.683 43.7574 126.979 43.105C127.275 42.4526 127.765 41.9073 128.382 41.5435C129 41.1798 129.714 41.0153 130.428 41.0724C131.142 41.1295 131.821 41.4056 132.373 41.8628C132.924 42.3201 133.321 42.9364 133.51 43.6275C133.698 44.3187 133.669 45.0512 133.426 45.7251C133.182 46.399 132.737 46.9815 132.151 47.3931C131.565 47.8047 130.866 48.0255 130.149 48.0253L130.148 48.0256ZM130.148 39.9441C129.1 39.9436 128.083 40.3037 127.268 40.9638V35.2056H136.315V44.7456H134.736C134.739 44.6778 134.747 44.6112 134.747 44.5427C134.745 43.3234 134.261 42.1544 133.399 41.2922C132.536 40.4299 131.368 39.9449 130.148 39.9435V39.9441ZM137.431 44.7456V35.206H146.704V40.1907C145.794 40.4992 145.003 41.0846 144.442 41.865C143.882 42.6455 143.579 43.5818 143.578 44.5427C143.578 44.6112 143.585 44.6778 143.588 44.7456H137.431ZM148.176 48.0256C147.487 48.0256 146.814 47.8213 146.241 47.4385C145.668 47.0558 145.222 46.5118 144.958 45.8752C144.694 45.2387 144.625 44.5384 144.76 43.8627C144.894 43.187 145.226 42.5663 145.713 42.0792C146.2 41.5921 146.821 41.2603 147.497 41.126C148.172 40.9916 148.873 41.0606 149.509 41.3243C150.146 41.588 150.69 42.0345 151.073 42.6074C151.455 43.1802 151.659 43.8537 151.659 44.5427C151.658 45.4661 151.291 46.3513 150.638 47.0043C149.985 47.6572 149.1 48.0245 148.176 48.0256ZM157.904 43.71C157.904 43.9846 157.795 44.2478 157.601 44.4419C157.407 44.6361 157.143 44.7453 156.869 44.7456H152.764C152.767 44.6778 152.775 44.6112 152.775 44.5427C152.773 43.3234 152.289 42.1544 151.426 41.2922C150.564 40.4299 149.395 39.9449 148.176 39.9435C148.055 39.9435 147.936 39.9524 147.818 39.9616V35.205H150.617C151.965 35.2038 153.286 35.579 154.432 36.2884H152.822C152.749 36.2884 152.676 36.3028 152.608 36.3308C152.541 36.3588 152.479 36.3999 152.427 36.4517C152.376 36.5035 152.335 36.565 152.307 36.6326C152.279 36.7003 152.264 36.7728 152.264 36.8461V37.7664C152.265 38.2616 152.462 38.7364 152.812 39.0866C153.162 39.4368 153.637 39.6338 154.132 39.6344H157.318C157.707 40.537 157.907 41.5099 157.904 42.4927V43.71Z" fill="#505056"/>
<path d="M130.148 42.3015C129.705 42.3015 129.272 42.4329 128.903 42.6791C128.534 42.9254 128.247 43.2754 128.077 43.685C127.908 44.0945 127.863 44.5452 127.95 44.98C128.036 45.4149 128.25 45.8143 128.563 46.1278C128.876 46.4413 129.276 46.6548 129.711 46.7413C130.145 46.8278 130.596 46.7835 131.006 46.6138C131.415 46.4442 131.765 46.1569 132.012 45.7883C132.258 45.4197 132.39 44.9863 132.39 44.543C132.389 43.9488 132.153 43.3791 131.732 42.9589C131.312 42.5387 130.743 42.3023 130.148 42.3015ZM130.148 45.6688C129.926 45.6688 129.708 45.6028 129.523 45.4791C129.337 45.3554 129.193 45.1795 129.108 44.9737C129.022 44.768 129 44.5415 129.044 44.323C129.087 44.1045 129.194 43.9039 129.352 43.7463C129.509 43.5888 129.71 43.4816 129.928 43.4381C130.147 43.3947 130.373 43.417 130.579 43.5023C130.785 43.5876 130.961 43.7319 131.085 43.9172C131.208 44.1024 131.274 44.3202 131.274 44.543C131.274 44.8414 131.155 45.1275 130.944 45.3385C130.733 45.5494 130.447 45.6684 130.148 45.6688Z" fill="#505056"/>
<path d="M148.176 42.3015C147.733 42.3015 147.299 42.4329 146.931 42.6791C146.562 42.9254 146.275 43.2754 146.105 43.685C145.935 44.0945 145.891 44.5452 145.977 44.98C146.064 45.4149 146.277 45.8143 146.591 46.1278C146.904 46.4413 147.304 46.6548 147.738 46.7413C148.173 46.8278 148.624 46.7835 149.033 46.6138C149.443 46.4442 149.793 46.1569 150.039 45.7883C150.286 45.4197 150.417 44.9863 150.417 44.543C150.417 43.9487 150.18 43.379 149.76 42.9588C149.34 42.5386 148.77 42.3022 148.176 42.3015ZM148.176 45.6688C147.953 45.6688 147.736 45.6028 147.55 45.4791C147.365 45.3554 147.221 45.1795 147.135 44.9737C147.05 44.768 147.028 44.5415 147.071 44.323C147.115 44.1045 147.222 43.9039 147.379 43.7463C147.537 43.5888 147.738 43.4816 147.956 43.4381C148.175 43.3947 148.401 43.417 148.607 43.5023C148.813 43.5876 148.989 43.7319 149.112 43.9172C149.236 44.1024 149.302 44.3202 149.302 44.543C149.301 44.8414 149.183 45.1275 148.972 45.3385C148.761 45.5494 148.475 45.6684 148.176 45.6688Z" fill="#505056"/>
<path d="M141.159 37.406H139.289C139.141 37.406 138.999 37.4648 138.895 37.5693C138.79 37.6739 138.731 37.8158 138.731 37.9637C138.731 38.1116 138.79 38.2534 138.895 38.358C138.999 38.4626 139.141 38.5213 139.289 38.5213H141.159C141.307 38.5213 141.449 38.4626 141.553 38.358C141.658 38.2534 141.717 38.1116 141.717 37.9637C141.717 37.8158 141.658 37.6739 141.553 37.5693C141.449 37.4648 141.307 37.406 141.159 37.406Z" fill="#505056"/>
<path d="M423.013 41.4611C423.029 41.3887 423.03 41.314 423.017 41.2412C423.003 41.1684 422.976 41.099 422.935 41.037C422.354 40.1067 421.553 39.3329 420.604 38.7827C419.655 38.2326 418.585 37.9229 417.489 37.8806L413.18 31.126H414.983C415.131 31.126 415.273 31.0673 415.378 30.9627C415.482 30.8581 415.541 30.7163 415.541 30.5684V27.7706C415.541 27.5343 415.487 27.3013 415.381 27.0901C415.275 26.8789 415.121 26.6954 414.932 26.5543C414.742 26.4132 414.522 26.3184 414.29 26.2776C414.057 26.2367 413.818 26.2509 413.592 26.3191L410.061 27.385L409.344 26.4889V25.4055C409.343 25.0042 409.183 24.6195 408.9 24.3357C408.616 24.052 408.231 23.8924 407.83 23.8918H405.625C405.224 23.8924 404.839 24.052 404.555 24.3358C404.272 24.6195 404.112 25.0042 404.112 25.4055V25.7241C404.112 26.1254 404.272 26.5101 404.555 26.7939C404.839 27.0776 405.224 27.2373 405.625 27.2378H408.514L408.911 27.7323C408.797 27.7674 408.697 27.838 408.627 27.9338C408.556 28.0295 408.518 28.1454 408.518 28.2645V30.1924L407.246 30.7022C407.125 30.7506 407.026 30.8393 406.964 30.9531C406.902 31.0668 406.882 31.1986 406.906 31.3257C406.931 31.4529 406.999 31.5675 407.099 31.6499C407.199 31.7324 407.324 31.7776 407.454 31.7777C407.642 31.7777 407.618 31.7401 409.183 31.1273H409.402C410.783 35.7479 410.74 39.5511 409.262 41.8585C409.168 42.0022 409.04 42.1199 408.889 42.2007C408.737 42.2814 408.568 42.3227 408.397 42.3205H406.392C406.185 42.322 405.982 42.2604 405.81 42.144C403.417 40.5389 403.278 38.0397 405.36 34.0414C405.408 33.9397 405.429 33.827 405.419 33.7148C405.401 32.9188 405.072 32.1615 404.503 31.6046C403.934 31.0477 403.169 30.7353 402.373 30.7341H392.451C392.303 30.7342 392.162 30.7929 392.057 30.8975C391.952 31.0021 391.894 31.1439 391.894 31.2917C391.894 31.7374 391.991 32.1776 392.18 32.5813C392.369 32.9849 392.644 33.3422 392.986 33.6278C390.893 34.2427 389.056 35.5217 387.752 37.272C386.449 39.0223 385.751 41.1489 385.762 43.331L385.775 45.4341C385.776 45.5814 385.835 45.7224 385.94 45.8262C386.044 45.93 386.185 45.9883 386.333 45.9883H389.477C389.609 47.3392 390.24 48.5925 391.245 49.5042C392.251 50.416 393.56 50.921 394.917 50.921C396.275 50.921 397.584 50.416 398.589 49.5042C399.595 48.5925 400.225 47.3392 400.358 45.9883H412.035C412.115 46.82 412.386 47.6221 412.825 48.3331C413.264 49.0441 413.86 49.645 414.567 50.0896C415.275 50.5342 416.075 50.8107 416.906 50.8979C417.737 50.9851 418.577 50.8806 419.361 50.5925C420.146 50.3044 420.854 49.8404 421.431 49.236C422.008 48.6316 422.439 47.903 422.69 47.1062C422.942 46.3093 423.007 45.4654 422.882 44.6393C422.756 43.8132 422.443 43.0268 421.966 42.3406C422.29 42.1226 422.582 41.9298 422.766 41.8142C422.828 41.7747 422.882 41.7232 422.925 41.6626C422.968 41.602 422.998 41.5335 423.013 41.4611ZM421.675 41.1931C420.774 41.7919 420.701 41.8811 420.516 41.9187C420.412 41.9428 420.304 41.9454 420.199 41.9263C420.094 41.9072 419.994 41.8669 419.905 41.8078C419.158 41.2906 418.288 40.9787 417.383 40.9034C415.382 40.7894 413.631 42.1041 413.202 44.3969C413.18 44.4999 413.132 44.5956 413.063 44.675C412.994 44.7544 412.906 44.8149 412.807 44.8507C412.616 44.8783 412.422 44.8852 412.23 44.8711C412.254 43.0741 412.784 41.5758 413.779 40.5144C414.218 40.0453 414.747 39.6691 415.335 39.4081C415.922 39.1472 416.556 39.0067 417.199 38.995C418.065 38.9844 418.922 39.1779 419.699 39.5597C420.477 39.9416 421.154 40.5011 421.675 41.1931ZM413.065 27.6431L413.914 27.3882C413.974 27.37 414.036 27.3661 414.097 27.3767C414.158 27.3873 414.216 27.4122 414.265 27.4494C414.315 27.4866 414.356 27.535 414.384 27.5908C414.411 27.6466 414.426 27.7082 414.426 27.7706V30.0107H413.065V27.6431ZM411.936 30.0107H409.633V28.6794L411.949 27.9815L411.936 30.0107ZM408.228 26.1231H405.625C405.519 26.1229 405.418 26.0809 405.344 26.0062C405.269 25.9315 405.227 25.8303 405.227 25.7248V25.4061C405.227 25.3006 405.269 25.1993 405.344 25.1247C405.418 25.05 405.519 25.008 405.625 25.0078H407.83C407.936 25.0079 408.037 25.0499 408.112 25.1245C408.186 25.1992 408.228 25.3005 408.228 25.4061V26.1231ZM402.373 31.8494C402.789 31.8499 403.193 31.984 403.526 32.2318C403.86 32.4796 404.105 32.828 404.225 33.2257H394.943C394.527 33.2252 394.123 33.0911 393.79 32.8433C393.456 32.5955 393.211 32.247 393.091 31.8494H402.373ZM386.878 43.3243C386.871 42.1471 387.097 40.9803 387.543 39.8908C387.989 38.8013 388.646 37.8108 389.476 36.976C390.306 36.1412 391.293 35.4787 392.38 35.0266C393.467 34.5744 394.632 34.3415 395.81 34.3413H403.965C402.644 37.1267 401.695 40.7272 405.185 43.0678C405.541 43.3094 405.962 43.4377 406.392 43.4358H408.397C408.755 43.4381 409.109 43.3498 409.425 43.1789C409.74 43.0081 410.008 42.7603 410.202 42.4585C411.844 39.8914 411.964 35.9824 410.565 31.126H411.857L416.23 37.981C414.978 38.2027 413.832 38.8241 412.964 39.7521C411.772 41.0236 411.147 42.7883 411.12 44.8742H402.677C402.536 42.9342 401.666 41.1193 400.242 39.7945C398.818 38.4697 396.945 37.7332 395 37.7332C393.055 37.7332 391.182 38.4697 389.758 39.7945C388.334 41.1193 387.464 42.9342 387.324 44.8742H386.887L386.878 43.3243ZM389.481 44.873H388.44C388.579 43.2291 389.331 41.6976 390.546 40.5814C391.761 39.4653 393.35 38.8459 395 38.8459C396.65 38.8459 398.24 39.4653 399.454 40.5814C400.669 41.6976 401.421 43.2291 401.56 44.873H400.441C400.302 43.5263 399.669 42.2789 398.664 41.3714C397.659 40.464 396.354 39.9609 395 39.9593C393.636 39.9545 392.319 40.4534 391.3 41.3602C390.282 42.267 389.634 43.5179 389.481 44.873ZM394.917 49.8052C393.806 49.8027 392.738 49.3759 391.932 48.6121C391.125 47.8483 390.64 46.8052 390.577 45.6961C390.335 43.4604 392.231 41.0994 394.917 41.0994C396.072 41.0994 397.179 41.558 397.995 42.3743C398.812 43.1907 399.27 44.2978 399.27 45.4523C399.27 46.6068 398.812 47.7139 397.995 48.5302C397.179 49.3466 396.072 49.8052 394.917 49.8052ZM417.475 49.8052C416.402 49.8032 415.366 49.4052 414.568 48.6873C413.769 47.9695 413.263 46.9822 413.147 45.9147C413.16 45.9102 413.172 45.9038 413.184 45.8994C413.485 45.8087 413.755 45.6377 413.966 45.4047C414.177 45.1717 414.321 44.8857 414.381 44.5773C414.659 43.0945 415.728 41.9534 417.236 42.0417C417.945 42.1058 418.626 42.3549 419.209 42.7641C419.474 42.9377 419.778 43.0432 420.093 43.071C420.409 43.0988 420.726 43.0481 421.018 42.9234C421.483 43.5742 421.759 44.3406 421.817 45.1383C421.875 45.936 421.712 46.7342 421.346 47.4454C420.98 48.1566 420.425 48.7531 419.742 49.1697C419.06 49.5862 418.275 49.8065 417.475 49.8064V49.8052Z" fill="#505056"/>
<path d="M417.322 43.1803C416.879 43.2105 416.454 43.3697 416.1 43.6381C415.746 43.9066 415.478 44.2726 415.33 44.6913C415.181 45.1099 415.158 45.5629 415.263 45.9946C415.368 46.4262 415.597 46.8176 415.922 47.1208C416.247 47.4239 416.653 47.6255 417.091 47.7008C417.529 47.7761 417.979 47.7217 418.387 47.5445C418.794 47.3672 419.141 47.0747 419.384 46.703C419.628 46.3313 419.757 45.8966 419.757 45.4523C419.757 43.9954 418.402 43.0187 417.322 43.1803ZM418.641 45.4507C418.641 45.6808 418.573 45.9058 418.446 46.0972C418.318 46.2885 418.136 46.4377 417.923 46.5258C417.711 46.6139 417.477 46.637 417.251 46.5922C417.026 46.5473 416.818 46.4365 416.655 46.2738C416.493 46.1111 416.382 45.9038 416.337 45.6781C416.292 45.4524 416.315 45.2185 416.403 45.0059C416.491 44.7933 416.64 44.6116 416.832 44.4837C417.023 44.3559 417.248 44.2876 417.478 44.2876C417.631 44.2876 417.782 44.3176 417.923 44.3761C418.064 44.4345 418.193 44.5202 418.301 44.6282C418.409 44.7362 418.494 44.8644 418.553 45.0056C418.611 45.1467 418.641 45.298 418.641 45.4507Z" fill="#505056"/>
<path d="M394.917 43.1707C394.466 43.1707 394.025 43.3044 393.65 43.5549C393.275 43.8054 392.983 44.1616 392.81 44.5782C392.637 44.9949 392.592 45.4535 392.679 45.896C392.767 46.3384 392.984 46.745 393.303 47.0642C393.621 47.3835 394.028 47.6011 394.47 47.6895C394.912 47.778 395.371 47.7334 395.788 47.5613C396.205 47.3892 396.561 47.0973 396.813 46.7226C397.064 46.3479 397.198 45.9072 397.199 45.4561V45.4513C397.198 44.8466 396.957 44.2669 396.53 43.8393C396.102 43.4118 395.522 43.1713 394.917 43.1707ZM396.084 45.4542C396.083 45.6848 396.015 45.9101 395.886 46.1016C395.758 46.2931 395.575 46.4423 395.362 46.5303C395.149 46.6183 394.915 46.6411 394.689 46.5959C394.463 46.5507 394.255 46.4395 394.092 46.2763C393.929 46.1131 393.818 45.9053 393.773 45.6791C393.728 45.4529 393.752 45.2185 393.84 45.0055C393.928 44.7925 394.078 44.6105 394.27 44.4824C394.461 44.3543 394.687 44.286 394.917 44.286C395.227 44.2868 395.523 44.4102 395.742 44.6292C395.96 44.8481 396.083 45.1448 396.084 45.4542Z" fill="#505056"/>
<path d="M38.9838 252.821L37.6929 247.117C37.5838 246.638 37.3629 246.191 37.0482 245.813H37.3267C37.7704 245.813 38.196 245.637 38.5097 245.323C38.8235 245.009 38.9997 244.584 38.9997 244.14C38.9997 243.696 38.8235 243.271 38.5097 242.957C38.196 242.643 37.7704 242.467 37.3267 242.467H4.53836C3.80119 242.468 3.09432 242.76 2.57205 243.281C2.04977 243.801 1.75452 244.507 1.75073 245.244C1.75073 245.248 1.75073 245.252 1.75073 245.256V260.433C1.75141 261.003 1.97824 261.55 2.38148 261.953C2.78471 262.356 3.33142 262.583 3.90168 262.584H6.25784C6.39253 263.617 6.89848 264.565 7.68127 265.253C8.46406 265.94 9.4702 266.319 10.5119 266.319C11.5537 266.319 12.5598 265.94 13.3426 265.253C14.1254 264.565 14.6313 263.617 14.766 262.584H25.9844C26.1191 263.617 26.625 264.565 27.4078 265.253C28.1906 265.94 29.1968 266.319 30.2385 266.319C31.2802 266.319 32.2864 265.94 33.0692 265.253C33.852 264.565 34.3579 263.617 34.4926 262.584H36.8873C37.4576 262.583 38.0043 262.356 38.4075 261.953C38.8108 261.55 39.0376 261.003 39.0383 260.433V253.298C39.0389 253.137 39.0206 252.977 38.9838 252.821ZM4.53836 243.58H37.3283C37.4762 243.58 37.6181 243.639 37.7227 243.743C37.8272 243.848 37.886 243.99 37.886 244.138C37.886 244.286 37.8272 244.428 37.7227 244.532C37.6181 244.637 37.4762 244.695 37.3283 244.695H2.961C3.07686 244.37 3.29064 244.088 3.57304 243.888C3.85544 243.689 4.19263 243.582 4.53836 243.581V243.58ZM10.511 265.207C9.66865 265.206 8.86106 264.871 8.26515 264.276C7.66923 263.68 7.33358 262.873 7.33172 262.031V262.026V262.022C7.33172 261.179 7.66665 260.371 8.26281 259.775C8.85898 259.178 9.66755 258.844 10.5107 258.844C11.3538 258.844 12.1623 259.178 12.7585 259.775C13.3547 260.371 13.6896 261.179 13.6896 262.022V262.031C13.6878 262.873 13.3523 263.68 12.7565 264.276C12.1607 264.871 11.3532 265.206 10.511 265.207ZM30.2388 265.207C29.3969 265.206 28.5896 264.871 27.9938 264.276C27.398 263.681 27.0622 262.875 27.0599 262.033V262.026V262.02C27.0688 261.183 27.4079 260.382 28.0036 259.793C28.5993 259.204 29.4033 258.874 30.241 258.875C31.0787 258.875 31.8823 259.207 32.4772 259.796C33.0722 260.386 33.4103 261.187 33.4181 262.024V262.029C33.4168 262.871 33.0814 263.679 32.4854 264.275C31.8895 264.871 31.0815 265.206 30.2388 265.207ZM37.9236 260.433C37.9233 260.707 37.814 260.97 37.6199 261.165C37.4257 261.359 37.1625 261.468 36.888 261.468H34.4926C34.3585 260.435 33.8527 259.486 33.0699 258.798C32.287 258.11 31.2806 257.731 30.2385 257.731C29.1964 257.731 28.19 258.11 27.4071 258.798C26.6243 259.486 26.1186 260.435 25.9844 261.468H14.7648C14.6306 260.435 14.1249 259.486 13.342 258.798C12.5592 258.11 11.5527 257.731 10.5107 257.731C9.46858 257.731 8.46213 258.11 7.67928 258.798C6.89643 259.486 6.39071 260.435 6.25657 261.468H3.89849C3.62393 261.468 3.3607 261.359 3.16656 261.165C2.97241 260.97 2.86319 260.707 2.86285 260.433V245.813H34.6618C35.1137 245.811 35.5525 245.964 35.9056 246.246C36.2587 246.528 36.5049 246.922 36.6034 247.363L37.8962 253.076C37.9135 253.149 37.9221 253.224 37.9217 253.299L37.9236 260.433Z" fill="#505056"/>
<path d="M10.511 259.963C10.1027 259.963 9.70358 260.084 9.36407 260.311C9.02456 260.538 8.75993 260.86 8.60364 261.237C8.44735 261.615 8.40642 262.03 8.48604 262.43C8.56565 262.831 8.76223 263.198 9.05091 263.487C9.33959 263.776 9.70741 263.973 10.1078 264.052C10.5083 264.132 10.9234 264.091 11.3006 263.935C11.6778 263.779 12.0002 263.514 12.227 263.175C12.4539 262.835 12.575 262.436 12.575 262.028C12.5744 261.48 12.3567 260.956 11.9698 260.569C11.5829 260.182 11.0582 259.964 10.511 259.963ZM10.511 262.976C10.3233 262.976 10.1398 262.921 9.98367 262.817C9.82756 262.712 9.70588 262.564 9.63401 262.391C9.56215 262.217 9.54333 262.026 9.57994 261.842C9.61654 261.658 9.70693 261.489 9.83966 261.356C9.9724 261.224 10.1415 261.133 10.3256 261.097C10.5097 261.06 10.7006 261.079 10.874 261.151C11.0474 261.223 11.1956 261.344 11.2999 261.5C11.4041 261.656 11.4597 261.84 11.4596 262.028C11.4594 262.279 11.3594 262.52 11.1815 262.698C11.0037 262.876 10.7625 262.976 10.511 262.976Z" fill="#505056"/>
<path d="M30.2388 259.963C29.8305 259.963 29.4314 260.084 29.0919 260.311C28.7523 260.538 28.4877 260.86 28.3314 261.237C28.1751 261.615 28.1342 262.03 28.2138 262.43C28.2934 262.831 28.49 263.198 28.7787 263.487C29.0674 263.776 29.4352 263.973 29.8356 264.052C30.2361 264.132 30.6511 264.091 31.0284 263.935C31.4056 263.779 31.728 263.514 31.9548 263.175C32.1817 262.835 32.3027 262.436 32.3027 262.028C32.3022 261.48 32.0846 260.956 31.6977 260.569C31.3107 260.182 30.7861 259.964 30.2388 259.963ZM30.2388 262.976C30.0511 262.976 29.8676 262.921 29.7114 262.817C29.5553 262.712 29.4337 262.564 29.3618 262.391C29.2899 262.217 29.2711 262.026 29.3077 261.842C29.3443 261.658 29.4347 261.489 29.5674 261.356C29.7002 261.224 29.8693 261.133 30.0534 261.097C30.2375 261.06 30.4284 261.079 30.6018 261.151C30.7752 261.223 30.9234 261.344 31.0276 261.5C31.1319 261.656 31.1875 261.84 31.1874 262.028C31.1872 262.279 31.0872 262.52 30.9093 262.698C30.7314 262.876 30.4903 262.976 30.2388 262.976Z" fill="#505056"/>
<path d="M35.5174 247.616C35.4761 247.421 35.3685 247.245 35.2129 247.12C35.0573 246.995 34.8632 246.927 34.6634 246.928H4.53739C4.38952 246.928 4.24772 246.987 4.14316 247.092C4.0386 247.196 3.97982 247.338 3.97974 247.486V253.368C3.97982 253.516 4.0386 253.658 4.14316 253.763C4.24772 253.867 4.38952 253.926 4.53739 253.926H36.2506C36.3343 253.926 36.4169 253.907 36.4923 253.871C36.5677 253.834 36.6339 253.782 36.6861 253.716C36.7384 253.651 36.7752 253.574 36.794 253.493C36.8128 253.411 36.813 253.327 36.7946 253.245L35.5174 247.616ZM17.2646 248.044H22.2338V252.811H17.2646V248.044ZM16.1493 252.811H11.1798V248.044H16.1509L16.1493 252.811ZM23.3491 248.044H28.3183V252.811H23.3491V248.044ZM5.09504 248.044H10.0661V252.811H5.09504V248.044ZM29.4336 252.811V248.044H34.4709L35.5521 252.811H29.4336Z" fill="#505056"/>
<path d="M29.7309 255.127H28.8759C28.728 255.127 28.5862 255.186 28.4816 255.29C28.377 255.395 28.3182 255.537 28.3182 255.685C28.3182 255.833 28.377 255.974 28.4816 256.079C28.5862 256.184 28.728 256.242 28.8759 256.242H29.7309C29.8788 256.242 30.0206 256.184 30.1252 256.079C30.2298 255.974 30.2885 255.833 30.2885 255.685C30.2885 255.537 30.2298 255.395 30.1252 255.29C30.0206 255.186 29.8788 255.127 29.7309 255.127Z" fill="#505056"/>
<path d="M507.998 260.799C506.724 260.799 505.672 261.851 505.672 263.126C505.672 264.4 506.724 265.452 507.998 265.452C509.273 265.452 510.325 264.4 510.325 263.126C510.325 261.819 509.273 260.799 507.998 260.799ZM507.998 264.336C507.329 264.336 506.787 263.795 506.787 263.126C506.787 262.456 507.329 261.915 507.998 261.915C508.668 261.915 509.209 262.456 509.209 263.126C509.209 263.795 508.668 264.336 507.998 264.336Z" fill="#505056"/>
<path d="M534.383 258.569C534.543 257.294 534.383 256.274 534.065 255.159C533.364 252.546 531.898 249.678 530.782 247.702C530.113 246.492 529.572 245.599 529.348 245.312C529.253 242.954 527.309 241.106 524.983 241.106H505.736C503.665 241.106 502.008 242.795 501.976 244.866V260.353C501.976 261.182 502.645 261.851 503.505 261.883H503.633C502.932 264.305 504.334 266.822 506.756 267.523C509.177 268.224 511.695 266.822 512.396 264.4C512.619 263.572 512.619 262.711 512.396 261.883H513.065C513.32 263.189 514.467 264.113 515.805 264.113H529.858C530.4 266.567 532.822 268.128 535.276 267.555C537.729 266.981 539.291 264.591 538.717 262.138C538.239 260.098 536.486 258.632 534.383 258.569ZM530.368 260.767H527.66C528.584 259.206 528.902 257.039 528.616 254.012C528.393 251.558 527.787 248.754 527.213 246.045H528.52C528.679 246.332 528.998 246.81 529.348 247.416H528.839C528.488 247.416 528.201 247.766 528.297 248.117L530.113 255.446C530.177 255.701 530.4 255.86 530.655 255.86H533.077C533.109 255.988 533.141 256.147 533.172 256.274C533.332 257.071 533.364 257.868 533.236 258.664C532.057 258.951 531.006 259.716 530.368 260.767ZM524.505 260.767V259.206C524.505 257.836 523.39 256.752 522.019 256.72H519.916V246.045H526.098C526.64 248.499 527.182 251.016 527.437 253.279L525.429 252.642C525.142 252.546 524.824 252.705 524.728 252.992C524.632 253.279 524.792 253.598 525.078 253.693C525.078 253.693 525.078 253.693 525.11 253.693L527.564 254.458C527.787 257.453 527.405 259.461 526.289 260.736L524.505 260.767ZM514.085 260.767V257.198C514.085 255.127 512.396 253.47 510.325 253.438H509.432V246.045H516.092V260.767H514.085ZM517.239 260.767V246.045H518.801V257.294C518.801 257.613 519.056 257.868 519.374 257.868H522.051C522.784 257.868 523.39 258.473 523.421 259.238V260.767H517.239ZM532.79 254.777H531.101L529.54 248.563H529.986C531.197 250.825 532.025 252.482 532.79 254.777ZM505.736 242.222H525.015C526.608 242.222 527.946 243.369 528.233 244.93H508.922C508.604 244.93 508.381 245.185 508.349 245.472V253.438H503.091V244.835C503.091 243.401 504.27 242.222 505.736 242.222ZM507.998 266.567C506.086 266.567 504.557 265.037 504.557 263.126C504.557 261.214 506.086 259.684 507.998 259.684C509.91 259.684 511.44 261.214 511.44 263.126C511.44 265.006 509.878 266.567 507.998 266.567ZM507.998 258.569C506.405 258.569 504.939 259.397 504.111 260.767H503.505C503.282 260.767 503.123 260.576 503.091 260.385V254.585H510.356C511.822 254.585 512.969 255.765 513.001 257.23V260.767H511.918C511.057 259.397 509.592 258.569 507.998 258.569ZM514.18 261.883H529.89C529.795 262.233 529.731 262.616 529.731 262.998H515.774C515.041 262.998 514.403 262.552 514.18 261.883ZM534.256 266.567C532.344 266.567 530.814 265.037 530.814 263.126C530.814 261.214 532.344 259.684 534.256 259.684C536.168 259.684 537.697 261.214 537.697 263.126C537.697 265.006 536.168 266.567 534.256 266.567Z" fill="#505056"/>
<path d="M534.256 260.799C532.981 260.799 531.93 261.851 531.93 263.126C531.93 264.4 532.981 265.452 534.256 265.452C535.531 265.452 536.582 264.4 536.582 263.126C536.582 261.819 535.531 260.799 534.256 260.799ZM534.256 264.336C533.587 264.336 533.045 263.795 533.045 263.126C533.045 262.456 533.587 261.915 534.256 261.915C534.925 261.915 535.467 262.456 535.467 263.126C535.467 263.795 534.925 264.336 534.256 264.336Z" fill="#505056"/>
<path d="M146.36 471.593H153.459C153.565 471.594 153.669 471.563 153.758 471.507C153.847 471.45 153.919 471.369 153.964 471.274C154.009 471.178 154.026 471.072 154.013 470.967C154 470.862 153.957 470.763 153.89 470.681L149.616 465.496C149.564 465.432 149.499 465.381 149.424 465.346C149.35 465.311 149.269 465.293 149.186 465.293H146.36C146.287 465.293 146.214 465.307 146.146 465.335C146.079 465.363 146.017 465.404 145.965 465.456C145.914 465.508 145.872 465.569 145.844 465.637C145.816 465.705 145.802 465.777 145.802 465.851V471.036C145.802 471.184 145.861 471.326 145.965 471.43C146.07 471.535 146.212 471.593 146.36 471.593ZM146.917 466.408H148.925L152.277 470.478H146.917V466.408Z" fill="#505056"/>
<path d="M130.4 467.894H132.58V470.074C132.58 470.222 132.639 470.364 132.743 470.468C132.848 470.573 132.989 470.632 133.137 470.632H135.368C135.516 470.632 135.658 470.573 135.762 470.468C135.867 470.364 135.926 470.222 135.926 470.074V467.894H138.106C138.253 467.894 138.395 467.835 138.5 467.731C138.604 467.626 138.663 467.484 138.663 467.336V465.106C138.663 464.958 138.604 464.816 138.5 464.711C138.395 464.607 138.253 464.548 138.106 464.548H135.926V462.368C135.926 462.22 135.867 462.078 135.762 461.974C135.658 461.869 135.516 461.811 135.368 461.811H133.137C132.989 461.811 132.848 461.869 132.743 461.974C132.639 462.079 132.58 462.22 132.58 462.368V464.548H130.4C130.252 464.548 130.11 464.607 130.006 464.711C129.901 464.816 129.842 464.958 129.842 465.106V467.336C129.842 467.484 129.901 467.626 130.006 467.731C130.11 467.835 130.252 467.894 130.4 467.894ZM130.958 465.663H133.137C133.285 465.663 133.427 465.605 133.532 465.5C133.636 465.396 133.695 465.254 133.695 465.106V462.926H134.81V465.106C134.81 465.254 134.869 465.395 134.974 465.5C135.078 465.605 135.22 465.663 135.368 465.663H137.548V466.779H135.368C135.22 466.779 135.078 466.838 134.974 466.942C134.869 467.047 134.81 467.189 134.81 467.336V469.516H133.695V467.336C133.695 467.189 133.636 467.047 133.532 466.942C133.427 466.838 133.285 466.779 133.137 466.779H130.958V465.663Z" fill="#505056"/>
<path d="M157.203 477.806V471.945C157.203 471.346 156.985 470.767 156.59 470.316L151.033 463.978C150.678 463.574 150.202 463.297 149.677 463.187V461.933C149.677 461.49 149.5 461.064 149.187 460.751C148.873 460.437 148.447 460.261 148.004 460.261C147.56 460.261 147.135 460.437 146.821 460.751C146.507 461.064 146.331 461.49 146.331 461.933V463.134H144.98V460.843C144.979 460.273 144.752 459.726 144.349 459.323C143.946 458.92 143.399 458.693 142.829 458.692H125.679C125.108 458.693 124.562 458.92 124.158 459.323C123.755 459.726 123.528 460.273 123.528 460.843V477.811C123.143 477.832 122.78 478 122.515 478.28C122.249 478.56 122.101 478.93 122.1 479.316V480.591C122.1 480.739 122.159 480.88 122.263 480.985C122.368 481.09 122.51 481.148 122.658 481.148H127.028C127.363 482.016 127.953 482.761 128.721 483.287C129.488 483.813 130.396 484.095 131.326 484.095C132.256 484.095 133.164 483.813 133.932 483.287C134.699 482.761 135.289 482.016 135.624 481.148H146.231C146.568 482.016 147.158 482.762 147.926 483.288C148.694 483.814 149.603 484.095 150.533 484.095C151.464 484.095 152.373 483.814 153.14 483.288C153.908 482.762 154.499 482.016 154.835 481.148H158.117C158.265 481.148 158.407 481.09 158.512 480.985C158.616 480.88 158.675 480.739 158.675 480.591V479.316C158.674 478.922 158.52 478.545 158.245 478.263C157.971 477.981 157.597 477.817 157.203 477.806ZM154.833 477.802C154.56 477.099 154.119 476.474 153.548 475.982H156.088V477.802H154.833ZM146.232 477.802H144.98V475.983H147.517C146.946 476.474 146.504 477.099 146.232 477.802ZM135.621 477.802C135.345 477.1 134.902 476.475 134.329 475.983H143.864V477.802H135.621ZM124.643 474.867V473.752H143.864V474.867H124.643ZM127.031 477.803H124.643V475.983H128.323C127.75 476.475 127.307 477.099 127.031 477.802V477.803ZM156.088 474.867H144.98V473.752H156.088V474.867ZM147.446 461.933C147.446 461.786 147.505 461.644 147.609 461.539C147.714 461.435 147.856 461.376 148.004 461.376C148.152 461.376 148.293 461.435 148.398 461.539C148.503 461.644 148.561 461.786 148.561 461.933V463.134H147.446V461.933ZM146.876 464.25C146.88 464.25 146.884 464.25 146.888 464.25H149.119C149.123 464.25 149.127 464.25 149.131 464.25H149.173C149.366 464.25 149.557 464.292 149.733 464.372C149.909 464.452 150.066 464.568 150.193 464.713L155.751 471.05C155.968 471.298 156.088 471.616 156.088 471.945V472.637H144.98V464.25H146.876ZM125.679 459.808H142.829C143.103 459.808 143.367 459.917 143.561 460.111C143.755 460.306 143.864 460.569 143.864 460.843V472.637H124.643V460.843C124.643 460.569 124.752 460.306 124.947 460.111C125.141 459.917 125.404 459.808 125.679 459.808ZM123.215 480.033V479.316C123.215 479.21 123.257 479.109 123.332 479.034C123.407 478.96 123.508 478.918 123.614 478.918H126.749C126.699 479.288 126.699 479.663 126.749 480.033H123.215ZM131.326 482.979C130.409 482.97 129.532 482.601 128.884 481.951C128.236 481.302 127.87 480.424 127.863 479.507C127.856 478.589 128.209 477.706 128.847 477.047C129.485 476.388 130.357 476.006 131.274 475.983H131.378C132.299 476 133.176 476.38 133.819 477.04C134.462 477.699 134.819 478.586 134.812 479.507C134.805 480.428 134.435 481.31 133.782 481.96C133.13 482.61 132.247 482.976 131.326 482.98V482.979ZM135.904 478.918H145.953C145.905 479.288 145.905 479.663 145.953 480.033H135.905C135.954 479.663 135.953 479.288 135.904 478.918ZM150.534 482.981C149.614 482.98 148.732 482.617 148.077 481.971C147.423 481.324 147.05 480.446 147.038 479.527C147.026 478.607 147.376 477.72 148.013 477.057C148.65 476.393 149.523 476.008 150.442 475.983H150.454C150.485 475.994 153.133 475.846 153.898 478.514C154.047 479.035 154.072 479.584 153.973 480.116C153.874 480.649 153.653 481.151 153.327 481.584C153.001 482.017 152.579 482.368 152.094 482.611C151.61 482.853 151.076 482.979 150.534 482.981ZM157.56 480.033H155.113C155.16 479.663 155.16 479.288 155.113 478.918H157.163C157.268 478.918 157.37 478.96 157.444 479.034C157.519 479.109 157.561 479.21 157.561 479.316L157.56 480.033Z" fill="#505056"/>
<path d="M131.326 477.094C130.855 477.094 130.394 477.234 130.001 477.496C129.609 477.758 129.303 478.131 129.123 478.566C128.942 479.002 128.895 479.482 128.987 479.944C129.079 480.407 129.306 480.832 129.64 481.166C129.973 481.499 130.398 481.726 130.861 481.818C131.323 481.91 131.803 481.863 132.239 481.683C132.674 481.502 133.047 481.196 133.309 480.804C133.571 480.412 133.711 479.951 133.711 479.479C133.71 478.847 133.459 478.241 133.012 477.794C132.565 477.347 131.959 477.095 131.326 477.094ZM131.326 480.749C131.075 480.749 130.83 480.674 130.621 480.535C130.412 480.395 130.249 480.197 130.153 479.965C130.057 479.733 130.032 479.478 130.081 479.231C130.13 478.985 130.251 478.759 130.428 478.581C130.606 478.404 130.832 478.283 131.079 478.234C131.325 478.185 131.58 478.21 131.812 478.306C132.044 478.402 132.242 478.565 132.382 478.774C132.521 478.983 132.596 479.228 132.596 479.479C132.595 479.816 132.461 480.138 132.223 480.376C131.985 480.614 131.663 480.748 131.326 480.749Z" fill="#505056"/>
<path d="M150.534 477.095C150.062 477.095 149.601 477.234 149.208 477.496C148.816 477.758 148.51 478.131 148.329 478.567C148.148 479.003 148.101 479.482 148.193 479.945C148.285 480.408 148.512 480.833 148.846 481.167C149.179 481.5 149.605 481.728 150.067 481.82C150.53 481.912 151.01 481.864 151.446 481.683C151.882 481.503 152.254 481.197 152.516 480.804C152.778 480.412 152.918 479.95 152.917 479.479C152.916 478.847 152.664 478.242 152.217 477.795C151.771 477.348 151.165 477.097 150.534 477.095ZM150.534 480.75C150.283 480.75 150.037 480.676 149.828 480.537C149.619 480.398 149.456 480.199 149.36 479.968C149.263 479.736 149.238 479.48 149.286 479.234C149.335 478.988 149.456 478.761 149.633 478.583C149.811 478.406 150.037 478.284 150.283 478.235C150.529 478.186 150.785 478.211 151.017 478.306C151.249 478.402 151.447 478.565 151.587 478.773C151.727 478.982 151.802 479.227 151.802 479.479C151.8 479.815 151.666 480.136 151.428 480.374C151.191 480.612 150.87 480.747 150.534 480.75Z" fill="#505056"/>
<path d="M420.73 467.132L416.283 465.904L414.333 459.977C414.233 459.675 414.04 459.412 413.782 459.226C413.524 459.04 413.214 458.939 412.896 458.939H406.838C406.437 458.94 406.052 459.1 405.768 459.383C405.485 459.667 405.325 460.052 405.325 460.453V467.194H386.336C386.188 467.194 386.046 467.253 385.941 467.358C385.837 467.462 385.778 467.604 385.778 467.752V469.983C385.778 470.13 385.837 470.272 385.941 470.377C386.046 470.481 386.188 470.54 386.336 470.54H386.9V479.456C386.9 479.858 387.06 480.242 387.344 480.526C387.627 480.81 388.012 480.969 388.413 480.97H389.351C389.686 481.82 390.268 482.549 391.023 483.063C391.778 483.577 392.67 483.852 393.583 483.852C394.497 483.852 395.389 483.577 396.144 483.063C396.899 482.549 397.481 481.82 397.816 480.97H410.99C411.325 481.82 411.908 482.549 412.663 483.063C413.418 483.577 414.31 483.852 415.223 483.852C416.136 483.852 417.028 483.577 417.783 483.063C418.538 482.549 419.121 481.82 419.456 480.97H421.497C421.898 480.969 422.283 480.81 422.566 480.526C422.85 480.242 423.01 479.858 423.01 479.456V470.126C423.009 469.447 422.785 468.786 422.373 468.246C421.962 467.705 421.385 467.314 420.73 467.132ZM406.44 460.451C406.44 460.346 406.482 460.245 406.557 460.17C406.631 460.095 406.733 460.053 406.838 460.053H412.896C412.98 460.053 413.061 460.08 413.129 460.129C413.197 460.178 413.248 460.247 413.274 460.326L415.317 466.537C415.346 466.624 415.396 466.703 415.462 466.767C415.529 466.83 415.61 466.876 415.699 466.9L420.433 468.208C420.851 468.324 421.22 468.574 421.484 468.919C421.748 469.264 421.892 469.685 421.894 470.12H419.221C419.147 470.12 419.075 470.134 419.007 470.162C418.94 470.19 418.878 470.231 418.826 470.283C418.774 470.335 418.733 470.396 418.705 470.464C418.677 470.531 418.663 470.604 418.663 470.677V472.271C418.664 472.841 418.891 473.388 419.294 473.791C419.697 474.194 420.244 474.421 420.814 474.421H421.895V477.624H419.456C419.122 476.774 418.539 476.044 417.784 475.53C417.029 475.016 416.136 474.741 415.223 474.741C414.309 474.741 413.417 475.016 412.662 475.53C411.907 476.044 411.324 476.774 410.99 477.624H406.44V460.451ZM421.895 471.234V473.306H420.815C420.54 473.306 420.277 473.197 420.083 473.002C419.889 472.808 419.779 472.545 419.779 472.271V471.235L421.895 471.234ZM386.893 468.31H405.325V469.425H386.893V468.31ZM405.325 470.54V477.621H397.815C397.48 476.772 396.898 476.043 396.143 475.529C395.388 475.015 394.496 474.741 393.583 474.741C392.67 474.741 391.779 475.015 391.024 475.529C390.269 476.043 389.686 476.772 389.351 477.621H388.015V470.54H405.325ZM388.413 479.855C388.308 479.854 388.207 479.812 388.132 479.738C388.057 479.663 388.015 479.562 388.015 479.456V478.739H389.067C389.016 479.109 389.016 479.485 389.067 479.855H388.413ZM393.583 482.736C392.903 482.736 392.237 482.534 391.671 482.156C391.105 481.778 390.664 481.241 390.404 480.612C390.143 479.983 390.075 479.291 390.208 478.623C390.341 477.956 390.668 477.343 391.15 476.861C391.631 476.38 392.244 476.052 392.912 475.919C393.579 475.787 394.271 475.855 394.9 476.115C395.529 476.376 396.067 476.817 396.445 477.383C396.823 477.949 397.025 478.614 397.025 479.295C397.024 480.207 396.661 481.082 396.016 481.728C395.371 482.373 394.496 482.736 393.583 482.736ZM398.101 479.855C398.151 479.485 398.151 479.109 398.101 478.739H410.705C410.655 479.109 410.655 479.485 410.705 479.855H398.101ZM415.223 482.736C414.542 482.736 413.877 482.534 413.311 482.156C412.745 481.778 412.304 481.241 412.043 480.612C411.783 479.983 411.715 479.291 411.847 478.623C411.98 477.956 412.308 477.343 412.789 476.861C413.271 476.38 413.884 476.052 414.551 475.919C415.219 475.787 415.911 475.855 416.54 476.115C417.169 476.376 417.706 476.817 418.084 477.383C418.462 477.949 418.664 478.614 418.664 479.295C418.664 480.207 418.301 481.082 417.656 481.728C417.01 482.373 416.135 482.736 415.223 482.736ZM421.895 479.456C421.895 479.562 421.853 479.663 421.778 479.738C421.703 479.812 421.602 479.854 421.497 479.855H419.74C419.791 479.485 419.791 479.109 419.74 478.739H421.895L421.895 479.456Z" fill="#505056"/>
<path d="M408.112 466.919H413.498C413.586 466.919 413.673 466.898 413.751 466.858C413.83 466.818 413.898 466.76 413.95 466.688C414.001 466.617 414.035 466.534 414.049 466.447C414.062 466.359 414.055 466.27 414.027 466.186L412.501 461.551C412.464 461.44 412.393 461.343 412.298 461.274C412.203 461.205 412.088 461.168 411.971 461.168H408.112C407.964 461.168 407.822 461.227 407.718 461.332C407.613 461.436 407.555 461.578 407.555 461.726V466.363C407.555 466.51 407.614 466.652 407.718 466.756C407.823 466.861 407.964 466.919 408.112 466.919ZM408.67 462.283H411.568L412.727 465.804H408.67V462.283Z" fill="#505056"/>
<path d="M408.112 471.655C408.185 471.655 408.258 471.64 408.326 471.612C408.393 471.584 408.455 471.543 408.507 471.491C408.558 471.44 408.599 471.378 408.628 471.31C408.656 471.243 408.67 471.17 408.67 471.097V469.077C408.67 468.929 408.611 468.787 408.507 468.682C408.402 468.578 408.26 468.519 408.112 468.519C407.964 468.519 407.822 468.578 407.718 468.682C407.613 468.787 407.555 468.929 407.555 469.077V471.097C407.555 471.245 407.613 471.387 407.718 471.491C407.822 471.596 407.964 471.655 408.112 471.655Z" fill="#505056"/>
<path d="M393.583 476.971C393.123 476.971 392.673 477.107 392.291 477.363C391.908 477.618 391.61 477.982 391.434 478.407C391.258 478.832 391.212 479.299 391.302 479.751C391.392 480.202 391.613 480.616 391.938 480.942C392.264 481.267 392.678 481.489 393.129 481.578C393.581 481.668 394.048 481.622 394.473 481.446C394.899 481.27 395.262 480.972 395.517 480.589C395.773 480.207 395.91 479.757 395.91 479.297C395.91 478.68 395.664 478.088 395.228 477.652C394.792 477.216 394.2 476.971 393.583 476.971ZM393.583 480.505C393.344 480.505 393.11 480.434 392.911 480.301C392.711 480.168 392.556 479.979 392.465 479.757C392.373 479.536 392.349 479.293 392.396 479.058C392.442 478.823 392.558 478.607 392.727 478.438C392.896 478.268 393.112 478.153 393.347 478.106C393.582 478.06 393.825 478.084 394.047 478.175C394.268 478.267 394.457 478.422 394.59 478.621C394.723 478.82 394.794 479.055 394.794 479.294C394.794 479.453 394.763 479.611 394.702 479.758C394.641 479.905 394.552 480.038 394.44 480.151C394.327 480.263 394.194 480.352 394.047 480.413C393.9 480.474 393.742 480.506 393.583 480.506V480.505Z" fill="#505056"/>
<path d="M415.223 476.971C414.763 476.971 414.313 477.107 413.93 477.363C413.548 477.618 413.25 477.982 413.074 478.407C412.898 478.832 412.852 479.299 412.941 479.751C413.031 480.202 413.253 480.616 413.578 480.942C413.903 481.267 414.318 481.489 414.769 481.578C415.22 481.668 415.688 481.622 416.113 481.446C416.538 481.27 416.901 480.972 417.157 480.589C417.413 480.207 417.549 479.757 417.549 479.297C417.549 478.68 417.304 478.088 416.868 477.652C416.431 477.216 415.84 476.971 415.223 476.971ZM415.223 480.505C414.983 480.505 414.749 480.434 414.55 480.301C414.351 480.168 414.196 479.979 414.104 479.757C414.012 479.536 413.988 479.293 414.035 479.058C414.082 478.823 414.197 478.607 414.367 478.438C414.536 478.268 414.752 478.153 414.987 478.106C415.221 478.06 415.465 478.084 415.686 478.175C415.907 478.267 416.097 478.422 416.23 478.621C416.363 478.82 416.434 479.055 416.434 479.294C416.434 479.453 416.403 479.611 416.342 479.758C416.281 479.905 416.192 480.038 416.079 480.151C415.967 480.263 415.833 480.352 415.686 480.413C415.539 480.474 415.382 480.506 415.223 480.506V480.505Z" fill="#505056"/>
</svg>
