<svg xmlns="http://www.w3.org/2000/svg" width="128" height="128" viewBox="0 0 128 128">
  <title>AMBULANCE</title>
  <g>
    <path d="M82.721,64.626H105a1.75,1.75,0,0,0,1.351-2.863L92.941,45.491a1.747,1.747,0,0,0-1.35-.637h-8.87a1.749,1.749,0,0,0-1.75,1.75V62.876A1.75,1.75,0,0,0,82.721,64.626Zm1.75-16.272h6.3L101.29,61.126H84.471Z"/>
    <path d="M32.637,53.016h6.84v6.841a1.751,1.751,0,0,0,1.75,1.75h7a1.75,1.75,0,0,0,1.75-1.75V53.016h6.841a1.75,1.75,0,0,0,1.75-1.75v-7a1.75,1.75,0,0,0-1.75-1.75H49.977V35.675a1.75,1.75,0,0,0-1.75-1.75h-7a1.751,1.751,0,0,0-1.75,1.75v6.841h-6.84a1.75,1.75,0,0,0-1.75,1.75v7A1.75,1.75,0,0,0,32.637,53.016Zm1.75-7h6.84a1.75,1.75,0,0,0,1.75-1.75V37.425h3.5v6.841a1.751,1.751,0,0,0,1.75,1.75h6.841v3.5H48.227a1.751,1.751,0,0,0-1.75,1.75v6.841h-3.5V51.266a1.75,1.75,0,0,0-1.75-1.75h-6.84Z"/>
    <path d="M116.75,84.123V65.73a7.781,7.781,0,0,0-1.925-5.114L97.386,40.726a7.774,7.774,0,0,0-4.256-2.48V34.311a5.25,5.25,0,0,0-10.5,0V38.08H78.39V30.89a6.758,6.758,0,0,0-6.75-6.75H17.82a6.758,6.758,0,0,0-6.75,6.75V84.137A4.743,4.743,0,0,0,6.59,88.86v4a1.75,1.75,0,0,0,1.75,1.75H22.055a14.461,14.461,0,0,0,26.976,0H82.318a14.478,14.478,0,0,0,27,0h10.3a1.75,1.75,0,0,0,1.75-1.75v-4A4.748,4.748,0,0,0,116.75,84.123Zm-7.44-.013a14.413,14.413,0,0,0-4.032-5.712h7.972V84.11Zm-26.99,0H78.39V78.4h7.964A14.388,14.388,0,0,0,82.32,84.11Zm-33.3,0A14.529,14.529,0,0,0,44.967,78.4H74.89V84.11ZM14.57,74.9V71.4H74.89v3.5Zm7.494,9.212H14.57V78.4H26.119A14.519,14.519,0,0,0,22.064,84.11ZM113.25,74.9H78.39V71.4h34.86ZM86.13,34.311a1.75,1.75,0,0,1,3.5,0V38.08h-3.5ZM84.341,41.58c.013,0,.026,0,.039,0h7c.013,0,.025,0,.039,0h.131a4.268,4.268,0,0,1,3.2,1.454L112.191,62.92a4.277,4.277,0,0,1,1.059,2.81V67.9H78.39V41.58ZM17.82,27.64H71.64a3.254,3.254,0,0,1,3.25,3.25V67.9H14.57V30.89A3.254,3.254,0,0,1,17.82,27.64ZM10.09,91.11V88.86a1.25,1.25,0,0,1,1.25-1.25h9.838a13.188,13.188,0,0,0,0,3.5Zm25.453,9.246A10.98,10.98,0,0,1,35.379,78.4h.328a10.98,10.98,0,0,1-.164,21.958ZM49.908,87.61H81.443a13.667,13.667,0,0,0,0,3.5H49.912A13.273,13.273,0,0,0,49.908,87.61ZM95.82,100.36A10.982,10.982,0,0,1,95.533,78.4h.035c.1.036,8.408-.429,10.809,7.944v0A11,11,0,0,1,95.82,100.36Zm22.05-9.25h-7.68a13.851,13.851,0,0,0,0-3.5h6.432a1.25,1.25,0,0,1,1.25,1.25Z"/>
    <path d="M35.544,81.889a7.484,7.484,0,1,0,7.483,7.484A7.493,7.493,0,0,0,35.544,81.889Zm0,11.467a3.984,3.984,0,1,1,3.983-3.983A3.989,3.989,0,0,1,35.544,93.356Z"/>
    <path d="M95.82,81.89a7.485,7.485,0,1,0,7.48,7.48A7.5,7.5,0,0,0,95.82,81.89Zm0,11.47a3.985,3.985,0,1,1,3.98-3.99A4.017,4.017,0,0,1,95.82,93.36Z"/>
  </g>
</svg>
