<svg width="138" height="44" viewBox="0 0 138 44" fill="none" xmlns="http://www.w3.org/2000/svg">
<g clip-path="url(#clip0_238_3303)">
<path d="M59.1891 25.0105C58.6285 25.0105 58.1217 25.1948 57.6686 25.5634C57.2156 25.9397 56.9161 26.4234 56.7779 27.0301C56.7088 27.3142 56.6781 27.5446 56.6781 27.7212V29.4182C56.6781 30.1631 56.9007 30.7927 57.3615 31.2995C57.8145 31.8063 58.4058 32.0674 59.1353 32.0674C59.9877 32.0674 60.6557 31.7372 61.1318 31.0769C61.6079 30.4165 61.846 29.5488 61.846 28.466C61.846 27.4755 61.6233 26.6538 61.1779 26.0088C60.6864 25.3407 60.0261 24.9952 59.1967 24.9952L59.1891 25.0105ZM100.594 24.8723C99.6875 24.8723 98.9887 25.2793 98.5203 26.0856C98.1056 26.7536 97.906 27.5676 97.906 28.5351C97.906 29.5027 98.1056 30.2782 98.5203 30.9463C99.0041 31.7526 99.6952 32.1596 100.578 32.1596C101.461 32.1596 102.122 31.7526 102.613 30.9233C103.035 30.2475 103.25 29.4336 103.25 28.4967C103.25 27.5599 103.051 26.7536 102.644 26.0856C102.16 25.2716 101.484 24.8723 100.601 24.8723H100.594ZM70.4156 25.0105C69.855 25.0105 69.3482 25.1948 68.8952 25.5634C68.4421 25.9397 68.1426 26.4234 67.9967 27.0301C67.9276 27.3142 67.8969 27.5446 67.8969 27.7212V29.4182C67.8969 30.1631 68.1196 30.7927 68.5803 31.2995C69.0334 31.8063 69.6247 32.0674 70.3542 32.0674C71.2142 32.0674 71.8746 31.7372 72.3583 31.0769C72.8344 30.4165 73.0725 29.5488 73.0725 28.466C73.0725 27.4755 72.8498 26.6538 72.3967 26.0088C71.9053 25.3407 71.2449 24.9952 70.4156 24.9952V25.0105ZM46.9566 21.3554H46.9182C46.7723 21.9543 46.5573 22.8451 46.2425 24.0276L45.0676 27.7289H48.8686L47.6784 24.0276C47.5479 23.6437 47.3098 22.7606 46.9566 21.3554ZM117.81 24.7571C117.072 24.7571 116.466 25.072 116.005 25.6863C115.629 26.1777 115.398 26.7613 115.329 27.4447H120.06C120.075 26.7767 119.929 26.1931 119.622 25.7016C119.23 25.072 118.624 24.7571 117.81 24.7571ZM56.9699 14.6748C57.0006 14.5749 57.0006 14.4828 57.0006 14.383V13.6611C56.0638 13.6535 55.1653 13.8454 55.1653 14.644C55.1653 15.1662 55.5032 15.4043 55.9179 15.4043C56.4554 15.4043 56.8393 15.0587 56.9699 14.6824V14.6748ZM44.5838 11.3652C44.4456 10.9198 44.3227 10.4283 44.2152 10.006H44.1922C44.0847 10.4283 43.9695 10.9351 43.8466 11.3652L43.2861 13.162H45.1521L44.5761 11.3652H44.5838ZM119.906 10.843C121.611 10.843 122.179 12.2482 122.179 13.4077C122.179 13.6535 122.156 13.8531 122.133 13.9683H118.608C118.639 14.9205 119.376 15.3275 120.229 15.3275C120.843 15.3275 121.281 15.2276 121.687 15.0894L121.879 15.9955C121.426 16.1875 120.797 16.3334 120.044 16.3334C118.34 16.3334 117.334 15.2891 117.334 13.6765C117.334 12.2175 118.217 10.843 119.906 10.843ZM98.8198 10.9582L98.8812 11.7491H98.9119C99.15 11.3344 99.7182 10.843 100.594 10.843C101.515 10.843 102.46 11.4343 102.46 13.1006V16.2259H101.131V13.2542C101.131 12.5016 100.847 11.9257 100.125 11.9257C99.5953 11.9257 99.2268 12.302 99.0885 12.7013C99.0425 12.8088 99.0271 12.97 99.0271 13.1236V16.2259H97.6987V12.5323C97.6987 11.9257 97.6756 11.4189 97.6526 10.9659H98.8121L98.8198 10.9582ZM84.8672 10.843C86.572 10.843 87.1402 12.2482 87.1402 13.4077C87.1402 13.6535 87.1172 13.8531 87.0941 13.9683H83.5695C83.6002 14.9205 84.3374 15.3275 85.1898 15.3275C85.8041 15.3275 86.2341 15.2276 86.6487 15.0894L86.8407 15.9955C86.3877 16.1875 85.758 16.3334 85.0055 16.3334C83.3008 16.3334 82.2948 15.2891 82.2948 13.6765C82.2948 12.2175 83.1779 10.843 84.8672 10.843ZM79.4229 8.55469H80.7514V16.2259H79.4229V8.56237V8.55469ZM68.8875 11.7875C68.3653 11.7875 67.8278 11.9488 67.4746 12.1791L67.2135 11.3114C67.6051 11.0734 68.2809 10.843 69.1179 10.843C70.8072 10.843 71.291 11.9104 71.291 13.0699V14.9589C71.291 15.435 71.314 15.8957 71.3754 16.2259H70.1775L70.0777 15.6423H70.047C69.7322 16.0493 69.1793 16.3411 68.4882 16.3411C67.4285 16.3411 66.8372 15.5732 66.8372 14.7746C66.8372 13.4538 68.0121 12.7781 69.9625 12.7858V12.7013C69.9625 12.3557 69.8243 11.7798 68.8952 11.7798L68.8875 11.7875ZM61.032 8.7697C61.485 8.7697 61.7692 9.08453 61.7768 9.49151C61.7768 9.88313 61.485 10.2056 61.0166 10.2056C60.5482 10.2056 60.2795 9.88313 60.2795 9.49151C60.2795 9.08453 60.5789 8.7697 61.0243 8.7697H61.032ZM61.6924 10.9659V16.2259H60.3639V10.9659H61.6924ZM43.4166 8.94631H45.1137L47.4788 16.2259H46.0428L45.3824 14.1603H43.0788L42.4491 16.2259H41.0746L43.409 8.94631H43.4166ZM50.6041 33.6262L49.2833 29.472H44.676L43.4166 33.6262H41.0669L45.6205 19.4587H48.4386L53.0229 33.6262H50.6041ZM51.1186 16.2259H49.8131L47.855 10.9659H49.291L50.1433 13.6381C50.2969 14.0988 50.4044 14.5212 50.4966 14.9589H50.5273C50.6271 14.5289 50.7423 14.1142 50.8805 13.6381L51.7252 10.9659H53.1227L51.1109 16.2259H51.1186ZM53.8522 14.7746C53.8522 13.4538 55.0271 12.7781 56.9775 12.7858V12.7013C56.9775 12.3557 56.8393 11.7798 55.9102 11.7798C55.388 11.7798 54.8505 11.9411 54.4973 12.1714L54.2362 11.3037C54.6278 11.0657 55.3035 10.8353 56.1405 10.8353C57.8222 10.8353 58.3137 11.9027 58.3137 13.0622V14.9512C58.3137 15.4273 58.3367 15.888 58.3981 16.2182H57.2002L57.1004 15.6346H57.0697C56.7549 16.0416 56.202 16.3334 55.5109 16.3334C54.4512 16.3334 53.8599 15.5655 53.8599 14.7669L53.8522 14.7746ZM62.7367 32.5051C61.892 33.3959 60.84 33.8489 59.5884 33.8489C58.2292 33.8489 57.2617 33.3652 56.6704 32.3976V37.7652H54.4051V26.7613C54.4051 25.6709 54.3744 24.5498 54.3206 23.4056H56.3172L56.44 25.0259H56.4784C57.2386 23.8126 58.3828 23.1983 59.9262 23.1983C61.1318 23.1983 62.1301 23.6744 62.944 24.6266C63.7503 25.5788 64.1496 26.8381 64.1496 28.3892C64.1496 30.1324 63.6812 31.4992 62.729 32.5128L62.7367 32.5051ZM65.1018 16.2182H63.7734V8.56237H65.1018V16.2336V16.2182ZM73.9632 32.5051C73.1186 33.3959 72.0665 33.8489 70.8149 33.8489C69.4634 33.8489 68.4882 33.3652 67.9046 32.3976V37.7652H65.6316V26.7613C65.6316 25.6709 65.6009 24.5498 65.5472 23.4056H67.536L67.6665 25.0259H67.7049C68.4651 23.8126 69.6093 23.1983 71.1528 23.1983C72.3583 23.1983 73.3643 23.6744 74.1706 24.6266C74.9768 25.5788 75.3838 26.8381 75.3838 28.3892C75.3838 30.1324 74.9154 31.4992 73.9632 32.5128V32.5051ZM75.522 16.3411C74.8386 16.3411 74.2397 16.08 73.8557 15.435H73.8327L73.7713 16.2259H72.6348C72.6578 15.8727 72.6809 15.2891 72.6809 14.7439V8.56237H74.0093V11.6954H74.0323C74.3549 11.1885 74.9308 10.8507 75.7217 10.8507C77.0041 10.8507 77.9255 11.918 77.9179 13.5229C77.9179 15.4119 76.7199 16.3564 75.5297 16.3564L75.522 16.3411ZM86.9482 32.5896C86.0191 33.4189 84.7367 33.8259 83.0857 33.8259C81.5576 33.8259 80.3367 33.5341 79.4152 32.9428L79.9451 31.0538C80.9357 31.6374 82.0337 31.9369 83.2163 31.9369C84.0763 31.9369 84.7367 31.7449 85.2128 31.361C85.6889 30.977 85.9269 30.4625 85.9269 29.8098C85.9269 29.2416 85.7273 28.7578 85.3433 28.3662C84.944 27.9746 84.299 27.6137 83.3929 27.2758C80.9126 26.3543 79.6763 25.0029 79.6763 23.2214C79.6763 22.0542 80.1063 21.102 80.9894 20.3571C81.8648 19.62 83.0243 19.2437 84.4679 19.2437C85.758 19.2437 86.8254 19.4664 87.6854 19.9118L87.1095 21.7624C86.3109 21.3323 85.4048 21.1097 84.3912 21.1097C83.5926 21.1097 82.9629 21.3093 82.5098 21.6933C82.1336 22.0465 81.9416 22.4765 81.9416 22.9833C81.9416 23.5362 82.1566 24.0046 82.5943 24.3732C82.9706 24.7111 83.6617 25.072 84.6522 25.4636C85.8732 25.9474 86.7716 26.531 87.3475 27.1913C87.9234 27.8517 88.2076 28.6657 88.2076 29.6486C88.2076 30.8542 87.7852 31.8371 86.9482 32.5896ZM94.9496 25.1027H92.4463V30.0709C92.4463 31.3303 92.8917 31.9522 93.7747 31.9522C94.1817 31.9522 94.5119 31.9215 94.7807 31.8524L94.8421 33.5725C94.3967 33.7414 93.8055 33.8259 93.076 33.8259C92.1852 33.8259 91.4788 33.5571 90.972 33.0043C90.4652 32.4591 90.2117 31.5376 90.2117 30.2552V25.1027H88.722V23.4056H90.2117V21.5397L92.4386 20.8639V23.4056H94.9419V25.1027H94.9496ZM93.6672 16.3411C92.1852 16.3411 91.0334 15.3275 91.0334 13.6304C91.0334 11.9334 92.1699 10.843 93.7594 10.843C95.3489 10.843 96.3779 11.9488 96.3779 13.546C96.3779 15.481 95.0187 16.3411 93.6749 16.3411H93.6672ZM104.256 32.2978C103.312 33.3344 102.068 33.8489 100.517 33.8489C98.9657 33.8489 97.8138 33.3498 96.9308 32.3592C96.04 31.3686 95.6023 30.1093 95.6023 28.5966C95.6023 27.0838 96.0631 25.717 96.9768 24.7111C97.8983 23.6974 99.1269 23.1983 100.686 23.1983C102.245 23.1983 103.396 23.6898 104.303 24.688C105.17 25.6479 105.6 26.8995 105.6 28.4276C105.6 29.9557 105.155 31.2842 104.256 32.2978ZM106.598 10.9582H107.343V9.97528L108.649 9.60669V10.9582H109.916V11.9488H108.649V14.2755C108.649 14.9205 108.818 15.2507 109.332 15.2507C109.57 15.2507 109.701 15.243 109.854 15.1969L109.877 16.2029C109.685 16.2796 109.324 16.3411 108.918 16.3411C108.418 16.3411 108.019 16.1798 107.773 15.9111C107.482 15.6116 107.351 15.1201 107.351 14.429V11.9564H106.606V10.9659L106.598 10.9582ZM112.427 25.3945C112.204 25.3561 111.966 25.333 111.713 25.333C110.914 25.333 110.3 25.6325 109.862 26.2315C109.486 26.769 109.294 27.4294 109.294 28.2433V33.6032H107.021V26.6001C107.021 25.4329 106.998 24.3578 106.959 23.3903H108.933L109.017 25.3484H109.079C109.317 24.6803 109.693 24.1351 110.215 23.7358C110.722 23.3673 111.267 23.1906 111.859 23.1906C112.066 23.1906 112.258 23.1983 112.419 23.229V25.3945H112.427ZM112.772 13.0622V16.2182H111.444V8.56237H112.772V11.6877H112.795C112.957 11.4419 113.187 11.2346 113.456 11.0964C113.724 10.9428 114.039 10.8584 114.377 10.8584C115.276 10.8584 116.212 11.4496 116.212 13.139V16.2412H114.884V13.2849C114.884 12.5323 114.6 11.9411 113.87 11.9411C113.348 11.9411 112.987 12.2866 112.834 12.6859C112.788 12.8011 112.78 12.947 112.78 13.0852L112.772 13.0622ZM122.141 29.0573H115.329C115.36 30.0632 115.683 30.8311 116.32 31.361C116.896 31.8371 117.633 32.0751 118.547 32.0751C119.56 32.0751 120.474 31.9138 121.304 31.5913L121.664 33.1732C120.705 33.5955 119.553 33.8029 118.24 33.8029C116.658 33.8029 115.414 33.3421 114.515 32.4053C113.609 31.4762 113.156 30.2245 113.156 28.658C113.156 27.0915 113.579 25.8322 114.416 24.8109C115.306 23.7205 116.497 23.1753 117.994 23.1753C119.491 23.1753 120.582 23.7205 121.334 24.8109C121.933 25.6786 122.24 26.7536 122.24 28.0283C122.24 28.4353 122.21 28.7732 122.156 29.0573H122.141ZM75.2302 11.8873C74.6927 11.8873 74.1936 12.2789 74.0554 12.8625C74.0323 12.9624 74.0093 13.0775 74.0093 13.2081V14.0604C74.0093 14.168 74.017 14.2755 74.04 14.3753C74.1782 14.9128 74.6466 15.3044 75.2149 15.3044C76.0442 15.3044 76.5587 14.644 76.5587 13.5767C76.5587 12.6475 76.1133 11.8873 75.2302 11.8873ZM84.7981 11.7568C83.9765 11.7568 83.6309 12.5016 83.5772 13.0392H85.8885C85.8962 12.5554 85.6812 11.7568 84.7981 11.7568ZM93.7287 11.8105C92.7919 11.8105 92.4079 12.732 92.4079 13.6074C92.4079 14.621 92.9147 15.3889 93.7133 15.3889C94.4658 15.3889 94.9957 14.6517 94.9957 13.5844C94.9957 12.7627 94.6271 11.8105 93.721 11.8105H93.7287ZM68.158 14.644C68.158 15.1662 68.4959 15.4043 68.9105 15.4043C69.448 15.4043 69.832 15.0587 69.9625 14.6824C69.9932 14.5826 69.9932 14.4905 69.9932 14.3906V13.6688C69.0564 13.6611 68.158 13.8531 68.158 14.6517V14.644ZM119.845 11.7568C119.023 11.7568 118.677 12.5016 118.624 13.0392H120.935C120.943 12.5554 120.728 11.7568 119.845 11.7568Z" fill="white"/>
<path d="M33.0424 26.4926C32.4512 27.8057 32.1671 28.3893 31.4068 29.5565C30.3395 31.1768 28.8421 33.1963 26.9838 33.2117C25.3328 33.227 24.9105 32.1366 22.6683 32.152C20.426 32.1673 19.9576 33.2347 18.3067 33.2193C16.4484 33.204 15.0278 31.3764 13.9604 29.7562C10.981 25.2256 10.6739 19.9042 12.5091 17.0783C13.8145 15.0665 15.8725 13.8916 17.8075 13.8916C19.7426 13.8916 21.0173 14.9743 22.6452 14.9743C24.2732 14.9743 25.187 13.8916 27.4676 13.8916C29.1877 13.8916 31.0152 14.8284 32.313 16.4487C28.0512 18.7831 28.7423 24.8647 33.0501 26.4926H33.0424Z" fill="white"/>
<path d="M25.7247 12.0712C26.554 11.0115 27.1837 9.50648 26.9533 7.9707C25.6018 8.06285 24.02 8.92288 23.0985 10.044C22.2615 11.0653 21.5704 12.5704 21.8392 14.037C23.3135 14.0831 24.8416 13.2 25.7324 12.0635L25.7247 12.0712Z" fill="white"/>
<path d="M131.447 44H5.9281C2.65689 44 0 41.3431 0 38.0796V5.9281C0 2.65689 2.65689 0 5.9281 0H131.447C134.718 0 137.375 2.65689 137.375 5.9281V38.0796C137.375 41.3431 134.718 44 131.447 44ZM5.9281 1.53578C3.50925 1.53578 1.53578 3.50925 1.53578 5.9281V38.0796C1.53578 40.4984 3.50925 42.4642 5.9281 42.4642H131.447C133.874 42.4642 135.839 40.4984 135.839 38.0796V5.9281C135.839 3.50157 133.866 1.53578 131.447 1.53578H5.9281Z" fill="white"/>
</g>
<defs>
<clipPath id="clip0_238_3303">
<rect width="137.383" height="44" fill="white"/>
</clipPath>
</defs>
</svg>
