<?xml version="1.0" encoding="utf-8"?>
<!-- Generator: Adobe Illustrator 23.0.6, SVG Export Plug-In . SVG Version: 6.00 Build 0)  -->
<svg version="1.1" id="Layer_1" xmlns="http://www.w3.org/2000/svg" xmlns:xlink="http://www.w3.org/1999/xlink" x="0px" y="0px"
	 viewBox="0 0 128 128" style="enable-background:new 0 0 128 128;" xml:space="preserve">
<title>TUK TUK</title>
<g>
	<path d="M25.1,84.1c-4,0-7.3,3.3-7.3,7.3c0,4,3.3,7.3,7.3,7.3c4,0,7.3-3.3,7.3-7.3c0,0,0,0,0,0C32.4,87.3,29.1,84.1,25.1,84.1z
		 M25.1,95.2c-2.1,0-3.8-1.7-3.8-3.8c0-2.1,1.7-3.8,3.8-3.8c2.1,0,3.8,1.7,3.8,3.8c0,0,0,0,0,0C28.9,93.5,27.2,95.2,25.1,95.2z"/>
	<path d="M107.9,77.1c0.5-4,0-7.2-1-10.7c-2.2-8.2-6.8-17.2-10.3-23.4c-2.1-3.8-3.8-6.6-4.5-7.5c-0.3-7.4-6.4-13.2-13.7-13.2H18
		c-6.5,0-11.7,5.3-11.8,11.8v48.6c0,2.6,2.1,4.7,4.8,4.8h0.4c-2.2,7.6,2.2,15.5,9.8,17.7s15.5-2.2,17.7-9.8c0.7-2.6,0.7-5.3,0-7.9
		h2.1c0.8,4.1,4.4,7,8.6,7h44.1c1.7,7.7,9.3,12.6,17,10.8s12.6-9.3,10.8-17C120,81.9,114.5,77.3,107.9,77.1z M95.3,84h-8.5
		c2.9-4.9,3.9-11.7,3-21.2v0c-0.7-7.7-2.6-16.5-4.4-25h4.1c0.5,0.9,1.5,2.4,2.6,4.3h-1.6c-1.1,0-2,1.1-1.7,2.2l5.7,23
		c0.2,0.8,0.9,1.3,1.7,1.3h7.6c0.1,0.4,0.2,0.9,0.3,1.3c0.5,2.5,0.6,5,0.2,7.5C100.6,78.3,97.3,80.7,95.3,84z M76.9,84v-4.9
		c0-4.3-3.5-7.7-7.8-7.8h-6.6V37.8h19.4c1.7,7.7,3.4,15.6,4.2,22.7l-6.3-2c-0.9-0.3-1.9,0.2-2.2,1.1c-0.3,0.9,0.2,1.9,1.1,2.2
		c0,0,0,0,0.1,0l7.7,2.4c0.7,9.4-0.5,15.7-4,19.7L76.9,84z M44.2,84V72.8c0-6.5-5.3-11.7-11.8-11.8h-2.8V37.8h20.9V84H44.2z
		 M54.1,84V37.8H59v35.3c0,1,0.8,1.8,1.8,1.8h8.4c2.3,0,4.2,1.9,4.3,4.3V84H54.1z M102.9,65.2h-5.3l-4.9-19.5h1.4
		C97.9,52.8,100.5,58,102.9,65.2z M18,25.8h60.5c5,0,9.2,3.6,10.1,8.5H28c-1,0-1.7,0.8-1.8,1.7c0,0,0,0,0,0v25H9.7v-27
		C9.7,29.5,13.4,25.8,18,25.8z M25.1,102.2c-6,0-10.8-4.8-10.8-10.8c0-6,4.8-10.8,10.8-10.8s10.8,4.8,10.8,10.8c0,0,0,0,0,0
		C35.9,97.3,31,102.2,25.1,102.2z M25.1,77.1c-5,0-9.6,2.6-12.2,6.9h-1.9c-0.7,0-1.2-0.6-1.3-1.2V64.6h22.8c4.6,0,8.2,3.7,8.3,8.3
		V84h-3.4C34.7,79.7,30.1,77.1,25.1,77.1z M44.5,87.5h49.3c-0.3,1.1-0.5,2.3-0.5,3.5H49.5C47.2,91,45.2,89.6,44.5,87.5z
		 M107.5,102.2c-6,0-10.8-4.8-10.8-10.8c0-6,4.8-10.8,10.8-10.8c6,0,10.8,4.8,10.8,10.8C118.3,97.3,113.5,102.2,107.5,102.2z"/>
	<path d="M107.5,84.1c-4,0-7.3,3.3-7.3,7.3s3.3,7.3,7.3,7.3s7.3-3.3,7.3-7.3c0,0,0,0,0,0C114.8,87.3,111.5,84.1,107.5,84.1z
		 M107.5,95.2c-2.1,0-3.8-1.7-3.8-3.8s1.7-3.8,3.8-3.8s3.8,1.7,3.8,3.8c0,0,0,0,0,0C111.3,93.5,109.6,95.2,107.5,95.2z"/>
</g>
</svg>
