<svg width="92" height="92" viewBox="0 0 92 92" fill="none" xmlns="http://www.w3.org/2000/svg">
<path d="M13.417 76.6665H24.917V84.3332C24.917 85.3498 24.5131 86.3249 23.7942 87.0437C23.0753 87.7626 22.1003 88.1665 21.0837 88.1665H17.2503C16.2337 88.1665 15.2586 87.7626 14.5397 87.0437C13.8209 86.3249 13.417 85.3498 13.417 84.3332V76.6665Z" fill="url(#paint0_linear_238_3161)"/>
<path d="M13.417 82.4165H24.917V84.3332C24.917 85.3498 24.5131 86.3249 23.7942 87.0437C23.0753 87.7626 22.1003 88.1665 21.0837 88.1665H17.2503C16.2337 88.1665 15.2586 87.7626 14.5397 87.0437C13.8209 86.3249 13.417 85.3498 13.417 84.3332V82.4165Z" fill="url(#paint1_linear_238_3161)"/>
<path d="M67.0835 76.6665H78.5835V84.3332C78.5835 85.3498 78.1796 86.3249 77.4607 87.0437C76.7419 87.7626 75.7668 88.1665 74.7502 88.1665H70.9168C69.9002 88.1665 68.9251 87.7626 68.2063 87.0437C67.4874 86.3249 67.0835 85.3498 67.0835 84.3332V76.6665Z" fill="url(#paint2_linear_238_3161)"/>
<path d="M67.0835 82.4165H78.5835V84.3332C78.5835 85.3498 78.1796 86.3249 77.4607 87.0437C76.7419 87.7626 75.7668 88.1665 74.7502 88.1665H70.9168C69.9002 88.1665 68.9251 87.7626 68.2063 87.0437C67.4874 86.3249 67.0835 85.3498 67.0835 84.3332V82.4165Z" fill="url(#paint3_linear_238_3161)"/>
<path d="M86.2503 42.1665H74.7503V38.3332C74.7503 36.8082 75.3561 35.3456 76.4345 34.2673C77.5128 33.189 78.9753 32.5832 80.5003 32.5832H86.2503C86.7587 32.5832 87.2462 32.7851 87.6056 33.1446C87.9651 33.504 88.167 33.9915 88.167 34.4998V40.2498C88.167 40.7582 87.9651 41.2457 87.6056 41.6051C87.2462 41.9646 86.7587 42.1665 86.2503 42.1665Z" fill="url(#paint4_linear_238_3161)"/>
<path d="M5.75016 32.5833H11.5002C13.0252 32.5833 14.4877 33.1891 15.566 34.2674C16.6444 35.3457 17.2502 36.8083 17.2502 38.3333V42.1666H5.75016C5.24183 42.1666 4.75432 41.9647 4.39487 41.6052C4.03543 41.2458 3.8335 40.7582 3.8335 40.2499V34.4999C3.8335 33.9916 4.03543 33.5041 4.39487 33.1446C4.75432 32.7852 5.24183 32.5833 5.75016 32.5833Z" fill="url(#paint5_linear_238_3161)"/>
<path d="M68.057 3.83325H23.943C22.0888 3.83297 20.2972 4.5047 18.9003 5.72403C17.5034 6.94336 16.5957 8.62765 16.3453 10.4649L11.5 45.9999V76.6666C11.5 77.1749 11.7019 77.6624 12.0614 78.0219C12.4208 78.3813 12.9083 78.5833 13.4167 78.5833H78.5833C79.0917 78.5833 79.5792 78.3813 79.9386 78.0219C80.2981 77.6624 80.5 77.1749 80.5 76.6666V45.9999L75.6547 10.4649C75.4043 8.62765 74.4966 6.94336 73.0997 5.72403C71.7028 4.5047 69.9112 3.83297 68.057 3.83325Z" fill="url(#paint6_linear_238_3161)"/>
<path d="M11.5 59.4165V76.6665C11.5 77.1748 11.7019 77.6623 12.0614 78.0218C12.4208 78.3812 12.9083 78.5832 13.4167 78.5832H78.5833C79.0917 78.5832 79.5792 78.3812 79.9386 78.0218C80.2981 77.6623 80.5 77.1748 80.5 76.6665V59.4165H11.5Z" fill="url(#paint7_linear_238_3161)"/>
<path d="M23.9583 67.0832C27.6632 67.0832 30.6667 64.0797 30.6667 60.3748C30.6667 56.6699 27.6632 53.6665 23.9583 53.6665C20.2534 53.6665 17.25 56.6699 17.25 60.3748C17.25 64.0797 20.2534 67.0832 23.9583 67.0832Z" fill="url(#paint8_linear_238_3161)"/>
<path d="M68.0418 67.0832C71.7467 67.0832 74.7502 64.0797 74.7502 60.3748C74.7502 56.6699 71.7467 53.6665 68.0418 53.6665C64.3369 53.6665 61.3335 56.6699 61.3335 60.3748C61.3335 64.0797 64.3369 67.0832 68.0418 67.0832Z" fill="url(#paint9_linear_238_3161)"/>
<path d="M17.25 48.2998C16.9764 48.2999 16.706 48.2414 16.4569 48.1282C16.2078 48.015 15.9858 47.8499 15.8059 47.6438C15.626 47.4377 15.4922 47.1955 15.4137 46.9334C15.3351 46.6713 15.3136 46.3955 15.3506 46.1244L20.1441 10.9823C20.2716 10.0647 20.7261 9.22394 21.4241 8.61472C22.1221 8.00549 23.0165 7.66878 23.943 7.6665H68.057C68.9834 7.66878 69.8779 8.00549 70.5759 8.61472C71.2738 9.22394 71.7283 10.0647 71.8558 10.9823L76.6475 46.1321C76.6832 46.4024 76.6608 46.6773 76.5818 46.9383C76.5029 47.1993 76.3691 47.4404 76.1895 47.6456C76.0099 47.8508 75.7886 48.0153 75.5404 48.1281C75.2921 48.2409 75.0226 48.2995 74.75 48.2998H17.25Z" fill="url(#paint10_linear_238_3161)"/>
<path d="M17.25 46.3832L22.0417 11.2412C22.1043 10.7815 22.3315 10.3602 22.6811 10.0553C23.0308 9.75044 23.4791 9.58272 23.943 9.58325H68.057C68.5206 9.58318 68.9684 9.75111 69.3177 10.0559C69.6669 10.3608 69.8938 10.7819 69.9564 11.2412L74.75 46.3832H17.25Z" fill="url(#paint11_linear_238_3161)"/>
<path d="M19.6554 28.75L17.25 46.391H74.75L72.3446 28.75H19.6554Z" fill="url(#paint12_linear_238_3161)"/>
<path d="M23.9587 65.1666C26.605 65.1666 28.7503 63.0213 28.7503 60.3749C28.7503 57.7286 26.605 55.5833 23.9587 55.5833C21.3123 55.5833 19.167 57.7286 19.167 60.3749C19.167 63.0213 21.3123 65.1666 23.9587 65.1666Z" fill="url(#paint13_linear_238_3161)"/>
<path d="M68.0417 65.1666C70.688 65.1666 72.8333 63.0213 72.8333 60.3749C72.8333 57.7286 70.688 55.5833 68.0417 55.5833C65.3953 55.5833 63.25 57.7286 63.25 60.3749C63.25 63.0213 65.3953 65.1666 68.0417 65.1666Z" fill="url(#paint14_linear_238_3161)"/>
<path d="M40.25 70.9165H51.75V84.3332C51.75 85.3498 51.3461 86.3249 50.6272 87.0437C49.9084 87.7626 48.9333 88.1665 47.9167 88.1665H44.0833C43.0667 88.1665 42.0916 87.7626 41.3728 87.0437C40.6539 86.3249 40.25 85.3498 40.25 84.3332V70.9165Z" fill="url(#paint15_linear_238_3161)"/>
<path d="M40.25 82.4165H51.75V84.3332C51.75 85.3498 51.3461 86.3249 50.6272 87.0437C49.9084 87.7626 48.9333 88.1665 47.9167 88.1665H44.0833C43.0667 88.1665 42.0916 87.7626 41.3728 87.0437C40.6539 86.3249 40.25 85.3498 40.25 84.3332V82.4165Z" fill="url(#paint16_linear_238_3161)"/>
<path d="M53.667 72.8333H38.3337C37.8253 72.8333 37.3378 72.6313 36.9784 72.2719C36.6189 71.9124 36.417 71.4249 36.417 70.9166V65.1666C36.417 62.6249 37.4267 60.1874 39.2239 58.3901C41.0211 56.5929 43.4587 55.5833 46.0003 55.5833C48.542 55.5833 50.9795 56.5929 52.7768 58.3901C54.574 60.1874 55.5837 62.6249 55.5837 65.1666V70.9166C55.5837 71.4249 55.3817 71.9124 55.0223 72.2719C54.6628 72.6313 54.1753 72.8333 53.667 72.8333Z" fill="url(#paint17_linear_238_3161)"/>
<defs>
<linearGradient id="paint0_linear_238_3161" x1="19.167" y1="77.3853" x2="19.167" y2="88.0228" gradientUnits="userSpaceOnUse">
<stop stop-color="#3F4C56"/>
<stop offset="1" stop-color="#27333E"/>
</linearGradient>
<linearGradient id="paint1_linear_238_3161" x1="19.167" y1="82.7768" x2="19.167" y2="88.0937" gradientUnits="userSpaceOnUse">
<stop stop-color="#3F4C56" stop-opacity="0"/>
<stop offset="1" stop-color="#141414"/>
</linearGradient>
<linearGradient id="paint2_linear_238_3161" x1="72.8335" y1="77.3853" x2="72.8335" y2="88.0228" gradientUnits="userSpaceOnUse">
<stop stop-color="#3F4C56"/>
<stop offset="1" stop-color="#27333E"/>
</linearGradient>
<linearGradient id="paint3_linear_238_3161" x1="72.8335" y1="82.7749" x2="72.8335" y2="88.0937" gradientUnits="userSpaceOnUse">
<stop stop-color="#3F4C56" stop-opacity="0"/>
<stop offset="1" stop-color="#141414"/>
</linearGradient>
<linearGradient id="paint4_linear_238_3161" x1="74.7503" y1="37.3748" x2="88.167" y2="37.3748" gradientUnits="userSpaceOnUse">
<stop stop-color="#27333E"/>
<stop offset="1" stop-color="#3F4C56"/>
</linearGradient>
<linearGradient id="paint5_linear_238_3161" x1="3.8335" y1="37.3749" x2="17.2502" y2="37.3749" gradientUnits="userSpaceOnUse">
<stop stop-color="#3F4C56"/>
<stop offset="1" stop-color="#27333E"/>
</linearGradient>
<linearGradient id="paint6_linear_238_3161" x1="46" y1="4.79159" x2="46" y2="79.3384" gradientUnits="userSpaceOnUse">
<stop stop-color="#FFCA4F"/>
<stop offset="1" stop-color="#F7AE30"/>
</linearGradient>
<linearGradient id="paint7_linear_238_3161" x1="46" y1="59.6618" x2="46" y2="78.7767" gradientUnits="userSpaceOnUse">
<stop stop-color="#FFCA4F" stop-opacity="0"/>
<stop offset="1" stop-color="#F4901F"/>
</linearGradient>
<linearGradient id="paint8_linear_238_3161" x1="19.2165" y1="55.3129" x2="29.1065" y2="65.8718" gradientUnits="userSpaceOnUse">
<stop stop-color="#F4901F"/>
<stop offset="1" stop-color="#FFCA4F" stop-opacity="0"/>
</linearGradient>
<linearGradient id="paint9_linear_238_3161" x1="63.6488" y1="55.8228" x2="72.8124" y2="65.3198" gradientUnits="userSpaceOnUse">
<stop stop-color="#F4901F"/>
<stop offset="1" stop-color="#FFCA4F" stop-opacity="0"/>
</linearGradient>
<linearGradient id="paint10_linear_238_3161" x1="46" y1="8.54817" x2="46" y2="48.2538" gradientUnits="userSpaceOnUse">
<stop stop-color="#F4901F"/>
<stop offset="1" stop-color="#FFCA4F" stop-opacity="0"/>
</linearGradient>
<linearGradient id="paint11_linear_238_3161" x1="46" y1="10.3825" x2="46" y2="46.343" gradientUnits="userSpaceOnUse">
<stop stop-color="#EAECF7"/>
<stop offset="1" stop-color="#CDD3F1"/>
</linearGradient>
<linearGradient id="paint12_linear_238_3161" x1="46" y1="34.1646" x2="46" y2="51.3993" gradientUnits="userSpaceOnUse">
<stop stop-color="#E2E5F4" stop-opacity="0"/>
<stop offset="1" stop-color="#9AA6E2"/>
</linearGradient>
<linearGradient id="paint13_linear_238_3161" x1="20.57" y1="56.7563" x2="27.6387" y2="64.3041" gradientUnits="userSpaceOnUse">
<stop stop-color="#EAECF7"/>
<stop offset="1" stop-color="#CDD3F1"/>
</linearGradient>
<linearGradient id="paint14_linear_238_3161" x1="64.9022" y1="57.1204" x2="71.4514" y2="63.9092" gradientUnits="userSpaceOnUse">
<stop stop-color="#EAECF7"/>
<stop offset="1" stop-color="#CDD3F1"/>
</linearGradient>
<linearGradient id="paint15_linear_238_3161" x1="46" y1="71.9956" x2="46" y2="87.9518" gradientUnits="userSpaceOnUse">
<stop stop-color="#3F4C56"/>
<stop offset="1" stop-color="#27333E"/>
</linearGradient>
<linearGradient id="paint16_linear_238_3161" x1="46" y1="82.7768" x2="46" y2="88.0937" gradientUnits="userSpaceOnUse">
<stop stop-color="#3F4C56" stop-opacity="0"/>
<stop offset="1" stop-color="#141414"/>
</linearGradient>
<linearGradient id="paint17_linear_238_3161" x1="46.0003" y1="55.9819" x2="46.0003" y2="72.4748" gradientUnits="userSpaceOnUse">
<stop stop-color="#FFD980"/>
<stop offset="1" stop-color="#FFCA4F"/>
</linearGradient>
</defs>
</svg>
