<svg width="100" height="100" viewBox="0 0 100 100" fill="none" xmlns="http://www.w3.org/2000/svg">
<path d="M64.3244 16.4062H35.9383C33.6273 16.4062 31.7539 18.2797 31.7539 20.5907V80.5958C31.7539 82.9068 33.6273 84.7803 35.9383 84.7803H64.3244C66.6354 84.7803 68.5088 82.9068 68.5088 80.5958V20.5907C68.5088 18.2797 66.6354 16.4062 64.3244 16.4062Z" fill="#6F6571"/>
<path d="M64.479 20.5921V80.5972C64.4785 80.638 64.462 80.677 64.4331 80.7059C64.4043 80.7348 64.3653 80.7512 64.3245 80.7517H35.9377C35.8973 80.7501 35.8589 80.7333 35.8303 80.7047C35.8017 80.676 35.7849 80.6377 35.7832 80.5972V20.5921C35.7837 20.5512 35.8002 20.5122 35.829 20.4834C35.8579 20.4545 35.8969 20.438 35.9377 20.4375H42.213L42.6632 22.5741C42.9252 23.7902 43.7651 24.6233 44.7191 24.6233H55.281C56.2351 24.6233 57.0749 23.7902 57.3369 22.5741L57.7871 20.4375H64.3245C64.3448 20.4372 64.3651 20.4409 64.384 20.4485C64.4029 20.4562 64.4201 20.4676 64.4345 20.482C64.449 20.4964 64.4603 20.5136 64.468 20.5325C64.4756 20.5514 64.4793 20.5717 64.479 20.5921V20.5921Z" fill="#FEE07D"/>
<path d="M65.4533 66.5156H43.5683C42.7536 66.5241 41.9452 66.3709 41.1901 66.0651C40.4349 65.7592 39.7479 65.3066 39.1688 64.7335C38.5896 64.1603 38.1299 63.4781 37.8161 62.7262C37.5024 61.9742 37.3408 61.1676 37.3408 60.3528C37.3408 59.538 37.5024 58.7313 37.8161 57.9794C38.1299 57.2275 38.5896 56.5452 39.1688 55.9721C39.7479 55.399 40.4349 54.9464 41.1901 54.6405C41.9452 54.3346 42.7536 54.1815 43.5683 54.19H45.6081C46.7365 54.1759 47.8138 53.7177 48.6068 52.9148C49.3997 52.1119 49.8443 51.0289 49.8443 49.9004C49.8443 48.772 49.3997 47.689 48.6068 46.886C47.8138 46.0831 46.7365 45.625 45.6081 45.6108H43.2659C42.9541 45.6108 42.655 45.487 42.4345 45.2665C42.214 45.046 42.0902 44.7469 42.0902 44.4351C42.0902 44.1232 42.214 43.8242 42.4345 43.6037C42.655 43.3832 42.9541 43.2593 43.2659 43.2593H45.6081C47.3579 43.2769 49.03 43.9843 50.2611 45.2279C51.4922 46.4714 52.1828 48.1506 52.1828 49.9004C52.1828 51.6503 51.4922 53.3294 50.2611 54.573C49.03 55.8165 47.3579 56.524 45.6081 56.5416H43.5683C43.0635 56.5349 42.5625 56.6285 42.0942 56.817C41.6259 57.0055 41.1998 57.2852 40.8405 57.6398C40.4811 57.9944 40.1958 58.4168 40.0011 58.8825C39.8064 59.3482 39.7061 59.848 39.7061 60.3528C39.7061 60.8576 39.8064 61.3574 40.0011 61.8231C40.1958 62.2888 40.4811 62.7112 40.8405 63.0658C41.1998 63.4204 41.6259 63.7 42.0942 63.8885C42.5625 64.0771 43.0635 64.1707 43.5683 64.164H65.4533C65.7651 64.164 66.0642 64.2879 66.2847 64.5084C66.5052 64.7289 66.629 65.0279 66.629 65.3398C66.629 65.6516 66.5052 65.9507 66.2847 66.1712C66.0642 66.3917 65.7651 66.5156 65.4533 66.5156V66.5156Z" fill="#9FD4FE"/>
<path d="M65.4528 29.2861C63.8545 29.2866 62.2719 29.6018 60.7954 30.2139C59.3189 30.8259 57.9775 31.7228 56.8476 32.8533C55.7177 33.9838 54.8216 35.3258 54.2103 36.8026C53.5991 38.2794 53.2847 39.8622 53.2852 41.4605C53.2852 48.1793 65.4528 65.339 65.4528 65.339C65.4528 65.339 77.6272 48.1793 77.6272 41.4605C77.6275 39.8617 77.3127 38.2784 76.701 36.8013C76.0893 35.3241 75.1925 33.9819 74.062 32.8513C72.9314 31.7208 71.5892 30.824 70.1121 30.2123C68.6349 29.6006 67.0516 29.2859 65.4528 29.2861V29.2861ZM65.4528 47.9979C64.1598 47.9979 62.8959 47.6144 61.8209 46.8961C60.7458 46.1778 59.9079 45.1568 59.4131 43.9622C58.9183 42.7677 58.7888 41.4533 59.0411 40.1851C59.2933 38.917 59.9159 37.7522 60.8302 36.8379C61.7445 35.9236 62.9093 35.301 64.1774 35.0488C65.4456 34.7965 66.76 34.926 67.9545 35.4208C69.1491 35.9156 70.1701 36.7535 70.8884 37.8286C71.6068 38.9036 71.9902 40.1675 71.9902 41.4605C71.9893 43.194 71.3002 44.8563 70.0744 46.0821C68.8486 47.3079 67.1864 47.997 65.4528 47.9979V47.9979Z" fill="#FFC269"/>
<path d="M43.2647 44.4349C43.2648 45.087 43.0716 45.7245 42.7093 46.2668C42.3471 46.8091 41.8322 47.2317 41.2298 47.4814C40.6273 47.731 39.9644 47.7963 39.3248 47.6691C38.6852 47.5419 38.0977 47.2279 37.6365 46.7668C37.1754 46.3057 36.8614 45.7182 36.7342 45.0786C36.607 44.439 36.6724 43.776 36.922 43.1736C37.1716 42.5711 37.5943 42.0562 38.1366 41.694C38.6788 41.3318 39.3163 41.1385 39.9685 41.1387C40.8426 41.1389 41.6809 41.4862 42.299 42.1043C42.9172 42.7224 43.2645 43.5607 43.2647 44.4349V44.4349Z" fill="#F76672"/>
</svg>
