<svg xmlns="http://www.w3.org/2000/svg" width="128" height="128" viewBox="0 0 128 128">
  <title>BUS</title>
  <g>
    <path d="M122.337,59.064l-4.051-17.9a9.789,9.789,0,0,0-2.023-4.093h.874a5.25,5.25,0,1,0,0-10.5H14.242a8.759,8.759,0,0,0-8.748,8.714c0,.013,0,.025,0,.038V82.95a6.758,6.758,0,0,0,6.75,6.75h7.394a13.463,13.463,0,0,0,26.7,0H81.543a13.463,13.463,0,0,0,26.7,0h7.515a6.758,6.758,0,0,0,6.75-6.75V60.56A6.423,6.423,0,0,0,122.337,59.064Zm-108.095-29h102.9a1.75,1.75,0,1,1,0,3.5H9.292A5.258,5.258,0,0,1,14.242,30.068ZM32.985,97.932a9.989,9.989,0,0,1-9.977-9.967l0-.015v-.011a9.976,9.976,0,0,1,19.952,0v.026A9.988,9.988,0,0,1,32.985,97.932Zm61.909,0a9.988,9.988,0,0,1-9.976-9.961l0-.021,0-.018a9.977,9.977,0,0,1,19.953.013v.013A9.989,9.989,0,0,1,94.894,97.932ZM119.01,82.95a3.254,3.254,0,0,1-3.25,3.25h-7.517a13.462,13.462,0,0,0-26.7,0H46.334a13.462,13.462,0,0,0-26.7,0h-7.4a3.254,3.254,0,0,1-3.25-3.25V37.07h99.79a6.222,6.222,0,0,1,6.093,4.866l4.057,17.928a2.963,2.963,0,0,1,.08.7Z"/>
    <path d="M32.985,81.477a6.478,6.478,0,1,0,6.477,6.478A6.485,6.485,0,0,0,32.985,81.477Zm0,9.455a2.978,2.978,0,1,1,2.977-2.977A2.98,2.98,0,0,1,32.985,90.932Z"/>
    <path d="M94.894,81.477a6.478,6.478,0,1,0,6.477,6.478A6.484,6.484,0,0,0,94.894,81.477Zm0,9.455a2.978,2.978,0,1,1,2.977-2.977A2.98,2.98,0,0,1,94.894,90.932Z"/>
    <path d="M111.459,42.73a2.722,2.722,0,0,0-2.68-2.159H14.239a1.751,1.751,0,0,0-1.75,1.75v18.46a1.751,1.751,0,0,0,1.75,1.75H113.76a1.752,1.752,0,0,0,1.707-2.137Zm-57.28,1.341H69.773v14.96H54.179Zm-3.5,14.96H35.084V44.071h15.6Zm22.594-14.96H88.867v14.96H73.273Zm-57.284,0h15.6v14.96H15.989Zm76.378,14.96V44.071h15.808l3.393,14.96Z"/>
    <path d="M93.3,66.3H90.617a1.75,1.75,0,0,0,0,3.5H93.3a1.75,1.75,0,0,0,0-3.5Z"/>
  </g>
</svg>
