<svg width="98" height="98" viewBox="0 0 98 98" fill="none" xmlns="http://www.w3.org/2000/svg">
<path d="M14.291 75.5415H26.541V85.7498C26.541 86.2913 26.3259 86.8106 25.943 87.1935C25.5601 87.5764 25.0408 87.7915 24.4993 87.7915H16.3327C15.7912 87.7915 15.2719 87.5764 14.889 87.1935C14.5061 86.8106 14.291 86.2913 14.291 85.7498V75.5415Z" fill="url(#paint0_linear_238_3107)"/>
<path d="M14.291 81.6665H26.541V85.7498C26.541 86.2913 26.3259 86.8106 25.943 87.1935C25.5601 87.5764 25.0408 87.7915 24.4993 87.7915H16.3327C15.7912 87.7915 15.2719 87.5764 14.889 87.1935C14.5061 86.8106 14.291 86.2913 14.291 85.7498V81.6665Z" fill="url(#paint1_linear_238_3107)"/>
<path d="M71.458 75.5415H83.708V85.7498C83.708 86.2913 83.4929 86.8106 83.11 87.1935C82.7271 87.5764 82.2078 87.7915 81.6663 87.7915H73.4997C72.9582 87.7915 72.4389 87.5764 72.056 87.1935C71.6731 86.8106 71.458 86.2913 71.458 85.7498V75.5415Z" fill="url(#paint2_linear_238_3107)"/>
<path d="M71.458 81.6665H83.708V85.7498C83.708 86.2913 83.4929 86.8106 83.11 87.1935C82.7271 87.5764 82.2078 87.7915 81.6663 87.7915H73.4997C72.9582 87.7915 72.4389 87.5764 72.056 87.1935C71.6731 86.8106 71.458 86.2913 71.458 85.7498V81.6665Z" fill="url(#paint3_linear_238_3107)"/>
<path d="M6.12467 28.5833H12.2497C13.8741 28.5833 15.432 29.2286 16.5807 30.3772C17.7294 31.5259 18.3747 33.0838 18.3747 34.7083V38.7916H6.12467C5.58319 38.7916 5.06388 38.5765 4.681 38.1936C4.29811 37.8107 4.08301 37.2914 4.08301 36.7499V30.6249C4.08301 30.0834 4.29811 29.5641 4.681 29.1812C5.06388 28.7984 5.58319 28.5833 6.12467 28.5833Z" fill="url(#paint4_linear_238_3107)"/>
<path d="M91.8743 38.7915H79.6243V34.7082C79.6243 33.0837 80.2697 31.5258 81.4183 30.3771C82.567 29.2285 84.1249 28.5832 85.7493 28.5832H91.8743C92.4158 28.5832 92.9351 28.7983 93.318 29.1812C93.7009 29.564 93.916 30.0834 93.916 30.6248V36.7498C93.916 37.2913 93.7009 37.8106 93.318 38.1935C92.9351 38.5764 92.4158 38.7915 91.8743 38.7915Z" fill="url(#paint5_linear_238_3107)"/>
<path d="M75.9698 10.2083H22.0289C21.0233 10.2071 20.0526 10.5771 19.3029 11.2474C18.5532 11.9176 18.0771 12.8409 17.966 13.8404L14.291 46.9583H83.7077L80.0327 13.8404C79.9216 12.8409 79.4455 11.9176 78.6958 11.2474C77.9461 10.5771 76.9754 10.2071 75.9698 10.2083Z" fill="url(#paint6_linear_238_3107)"/>
<path d="M16.5593 26.5415L14.291 46.9582H83.7077L81.4394 26.5415H16.5593Z" fill="url(#paint7_linear_238_3107)"/>
<path d="M20.4168 42.8748C20.1297 42.8749 19.8459 42.8143 19.5838 42.6972C19.3217 42.5801 19.0872 42.409 18.8957 42.1952C18.7042 41.9813 18.5599 41.7295 18.4724 41.4561C18.3848 41.1827 18.3558 40.8939 18.3874 40.6086L20.9088 17.9257C21.0194 16.9265 21.4947 16.0033 22.2436 15.3327C22.9925 14.6622 23.9624 14.2914 24.9677 14.2915H71.5993C72.6042 14.2919 73.5737 14.6629 74.3222 15.3334C75.0706 16.0039 75.5456 16.9269 75.6561 17.9257L78.1776 40.6086C78.2091 40.8934 78.1803 41.1817 78.0931 41.4546C78.0059 41.7276 77.8622 41.9791 77.6713 42.1929C77.4805 42.4067 77.2468 42.5779 76.9854 42.6954C76.724 42.8128 76.4409 42.874 76.1543 42.8748H20.4168Z" fill="url(#paint8_linear_238_3107)"/>
<path d="M20.416 40.8333L22.9375 18.1503C22.9928 17.6508 23.2304 17.1891 23.6048 16.8539C23.9793 16.5186 24.4643 16.3332 24.9669 16.3333H71.5965C72.0991 16.3332 72.5841 16.5186 72.9586 16.8539C73.333 17.1891 73.5706 17.6508 73.6259 18.1503L76.1535 40.8333H20.416Z" fill="url(#paint9_linear_238_3107)"/>
<path d="M22.2311 24.5L20.416 40.8333H76.1474L74.3324 24.5H22.2311Z" fill="url(#paint10_linear_238_3107)"/>
<path d="M18.3747 38.7915H79.6247C81.7906 38.7915 83.8678 39.6519 85.3994 41.1835C86.9309 42.715 87.7913 44.7922 87.7913 46.9582V71.4582H10.208V46.9582C10.208 44.7922 11.0684 42.715 12.6 41.1835C14.1315 39.6519 16.2087 38.7915 18.3747 38.7915Z" fill="url(#paint11_linear_238_3107)"/>
<path d="M87.7913 53.0833H10.208V71.4583H87.7913V53.0833Z" fill="url(#paint12_linear_238_3107)"/>
<path d="M87.791 65.3333H72.7194C72.3404 65.3335 71.9689 65.4392 71.6465 65.6386C71.3241 65.838 71.0636 66.1232 70.8942 66.4623L69.416 69.4166H28.5827L27.1045 66.4623C26.9351 66.1232 26.6746 65.838 26.3522 65.6386C26.0298 65.4392 25.6583 65.3335 25.2793 65.3333H10.2077C9.6662 65.3333 9.14689 65.5484 8.76401 65.9312C8.38112 66.3141 8.16602 66.8334 8.16602 67.3749V75.5416C8.16602 76.0831 8.38112 76.6024 8.76401 76.9853C9.14689 77.3682 9.6662 77.5833 10.2077 77.5833H87.791C88.3325 77.5833 88.8518 77.3682 89.2347 76.9853C89.6176 76.6024 89.8327 76.0831 89.8327 75.5416V67.3749C89.8327 66.8334 89.6176 66.3141 89.2347 65.9312C88.8518 65.5484 88.3325 65.3333 87.791 65.3333Z" fill="url(#paint13_linear_238_3107)"/>
<path d="M21.1517 59.2082C20.0687 59.2082 19.0301 58.778 18.2643 58.0122C17.4986 57.2464 17.0684 56.2078 17.0684 55.1248V48.9998C17.0684 47.9169 17.4986 46.8783 18.2643 46.1125C19.0301 45.3467 20.0687 44.9165 21.1517 44.9165H29.3184C30.7331 44.9201 32.1032 45.4121 33.1969 46.3094C34.2907 47.2067 35.0409 48.4543 35.3209 49.841L36.7092 56.7582C36.7698 57.0548 36.7636 57.3613 36.6911 57.6552C36.6186 57.9492 36.4816 58.2234 36.2901 58.4579C36.0986 58.6924 35.8573 58.8814 35.5837 59.0112C35.3102 59.1409 35.0111 59.2082 34.7084 59.2082H21.1517Z" fill="url(#paint14_linear_238_3107)"/>
<path d="M34.7077 57.1666H21.151C20.6096 57.1666 20.0903 56.9515 19.7074 56.5686C19.3245 56.1857 19.1094 55.6664 19.1094 55.1249V48.9999C19.1094 48.4584 19.3245 47.9391 19.7074 47.5562C20.0903 47.1734 20.6096 46.9583 21.151 46.9583H29.3177C30.2617 46.9584 31.1765 47.2855 31.9064 47.8841C32.6364 48.4826 33.1364 49.3156 33.3214 50.2413L34.7077 57.1666Z" fill="url(#paint15_linear_238_3107)"/>
<path d="M63.2911 59.2082C62.9883 59.2082 62.6893 59.1409 62.4157 59.0112C62.1422 58.8814 61.9009 58.6924 61.7094 58.4579C61.5178 58.2234 61.3809 57.9492 61.3084 57.6552C61.2359 57.3613 61.2297 57.0548 61.2903 56.7582L62.6766 49.8308C62.9586 48.4456 63.7101 47.2001 64.8041 46.3048C65.898 45.4095 67.2675 44.9191 68.6811 44.9165H76.8478C77.9307 44.9165 78.9694 45.3467 79.7351 46.1125C80.5009 46.8783 80.9311 47.9169 80.9311 48.9998V55.1248C80.9311 56.2078 80.5009 57.2464 79.7351 58.0122C78.9694 58.778 77.9307 59.2082 76.8478 59.2082H63.2911Z" fill="url(#paint16_linear_238_3107)"/>
<path d="M63.291 57.1666H76.8477C77.3892 57.1666 77.9085 56.9515 78.2914 56.5686C78.6742 56.1857 78.8893 55.6664 78.8893 55.1249V48.9999C78.8893 48.4584 78.6742 47.9391 78.2914 47.5562C77.9085 47.1734 77.3892 46.9583 76.8477 46.9583H68.681C67.737 46.9584 66.8223 47.2855 66.0923 47.8841C65.3624 48.4826 64.8623 49.3156 64.6773 50.2413L63.291 57.1666Z" fill="url(#paint17_linear_238_3107)"/>
<path d="M57.166 57.1666H40.8327L38.791 46.9583H59.2077L57.166 57.1666Z" fill="url(#paint18_linear_238_3107)"/>
<path d="M19.1094 51.0415V55.1248C19.1094 55.6663 19.3245 56.1856 19.7074 56.5685C20.0903 56.9514 20.6096 57.1665 21.151 57.1665H34.7077L33.4827 51.0415H19.1094Z" fill="url(#paint19_linear_238_3107)"/>
<path d="M39.6084 51.0415L40.8334 57.1665H57.1667L58.3917 51.0415H39.6084Z" fill="url(#paint20_linear_238_3107)"/>
<path d="M64.516 51.0415L63.291 57.1665H76.8477C77.3892 57.1665 77.9085 56.9514 78.2914 56.5685C78.6742 56.1856 78.8893 55.6663 78.8893 55.1248V51.0415H64.516Z" fill="url(#paint21_linear_238_3107)"/>
<path d="M8.16602 71.4583V75.5416C8.16602 76.0831 8.38112 76.6024 8.76401 76.9853C9.14689 77.3682 9.6662 77.5833 10.2077 77.5833H87.791C88.3325 77.5833 88.8518 77.3682 89.2347 76.9853C89.6176 76.6024 89.8327 76.0831 89.8327 75.5416V71.4583H8.16602Z" fill="url(#paint22_linear_238_3107)"/>
<defs>
<linearGradient id="paint0_linear_238_3107" x1="20.416" y1="76.3071" x2="20.416" y2="87.6384" gradientUnits="userSpaceOnUse">
<stop stop-color="#3F4C56"/>
<stop offset="1" stop-color="#27333E"/>
</linearGradient>
<linearGradient id="paint1_linear_238_3107" x1="20.416" y1="82.0503" x2="20.416" y2="87.7139" gradientUnits="userSpaceOnUse">
<stop stop-color="#3F4C56" stop-opacity="0"/>
<stop offset="1" stop-color="#141414"/>
</linearGradient>
<linearGradient id="paint2_linear_238_3107" x1="77.583" y1="76.3071" x2="77.583" y2="87.6384" gradientUnits="userSpaceOnUse">
<stop stop-color="#3F4C56"/>
<stop offset="1" stop-color="#27333E"/>
</linearGradient>
<linearGradient id="paint3_linear_238_3107" x1="77.583" y1="82.0503" x2="77.583" y2="87.7139" gradientUnits="userSpaceOnUse">
<stop stop-color="#3F4C56" stop-opacity="0"/>
<stop offset="1" stop-color="#141414"/>
</linearGradient>
<linearGradient id="paint4_linear_238_3107" x1="4.08301" y1="33.6874" x2="18.3747" y2="33.6874" gradientUnits="userSpaceOnUse">
<stop stop-color="#3F4C56"/>
<stop offset="1" stop-color="#27333E"/>
</linearGradient>
<linearGradient id="paint5_linear_238_3107" x1="79.6243" y1="33.6873" x2="93.916" y2="33.6873" gradientUnits="userSpaceOnUse">
<stop stop-color="#27333E"/>
<stop offset="1" stop-color="#3F4C56"/>
</linearGradient>
<linearGradient id="paint6_linear_238_3107" x1="48.9993" y1="10.0388" x2="48.9993" y2="44.7737" gradientUnits="userSpaceOnUse">
<stop stop-color="#FF4343"/>
<stop offset="1" stop-color="#E40000"/>
</linearGradient>
<linearGradient id="paint7_linear_238_3107" x1="48.9993" y1="28.1054" x2="48.9993" y2="42.8748" gradientUnits="userSpaceOnUse">
<stop stop-color="#FF4343" stop-opacity="0"/>
<stop offset="1" stop-color="#AF0000"/>
</linearGradient>
<linearGradient id="paint8_linear_238_3107" x1="48.2815" y1="14.0935" x2="48.2815" y2="42.6768" gradientUnits="userSpaceOnUse">
<stop stop-color="#AF0000"/>
<stop offset="1" stop-color="#FF4343" stop-opacity="0"/>
</linearGradient>
<linearGradient id="paint9_linear_238_3107" x1="48.2807" y1="16.1638" x2="48.2807" y2="40.6638" gradientUnits="userSpaceOnUse">
<stop stop-color="#EAECF7"/>
<stop offset="1" stop-color="#CDD3F1"/>
</linearGradient>
<linearGradient id="paint10_linear_238_3107" x1="48.2807" y1="26.7683" x2="48.2807" y2="41.3438" gradientUnits="userSpaceOnUse">
<stop stop-color="#E2E5F4" stop-opacity="0"/>
<stop offset="1" stop-color="#9AA6E2"/>
</linearGradient>
<linearGradient id="paint11_linear_238_3107" x1="48.9997" y1="39.1753" x2="48.9997" y2="71.6154" gradientUnits="userSpaceOnUse">
<stop stop-color="#FF4343"/>
<stop offset="1" stop-color="#E40000"/>
</linearGradient>
<linearGradient id="paint12_linear_238_3107" x1="48.9997" y1="53.2976" x2="48.9997" y2="71.546" gradientUnits="userSpaceOnUse">
<stop stop-color="#FF4343" stop-opacity="0"/>
<stop offset="1" stop-color="#AF0000"/>
</linearGradient>
<linearGradient id="paint13_linear_238_3107" x1="48.9993" y1="64.5676" x2="48.9993" y2="77.8487" gradientUnits="userSpaceOnUse">
<stop stop-color="#FFCA4F"/>
<stop offset="1" stop-color="#F7AE30"/>
</linearGradient>
<linearGradient id="paint14_linear_238_3107" x1="26.9092" y1="44.9165" x2="26.9092" y2="58.7345" gradientUnits="userSpaceOnUse">
<stop stop-color="#AF0000"/>
<stop offset="1" stop-color="#FF4343" stop-opacity="0"/>
</linearGradient>
<linearGradient id="paint15_linear_238_3107" x1="26.9085" y1="46.9583" x2="26.9085" y2="56.8277" gradientUnits="userSpaceOnUse">
<stop stop-color="#EAECF7"/>
<stop offset="1" stop-color="#CDD3F1"/>
</linearGradient>
<linearGradient id="paint16_linear_238_3107" x1="71.0903" y1="44.9165" x2="71.0903" y2="58.7345" gradientUnits="userSpaceOnUse">
<stop stop-color="#AF0000"/>
<stop offset="1" stop-color="#FF4343" stop-opacity="0"/>
</linearGradient>
<linearGradient id="paint17_linear_238_3107" x1="71.0902" y1="46.9583" x2="71.0902" y2="56.8277" gradientUnits="userSpaceOnUse">
<stop stop-color="#EAECF7"/>
<stop offset="1" stop-color="#CDD3F1"/>
</linearGradient>
<linearGradient id="paint18_linear_238_3107" x1="48.9993" y1="47.2135" x2="48.9993" y2="57.1707" gradientUnits="userSpaceOnUse">
<stop stop-color="#FFCA4F"/>
<stop offset="1" stop-color="#F7AE30"/>
</linearGradient>
<linearGradient id="paint19_linear_238_3107" x1="26.9085" y1="52.0623" x2="26.9085" y2="57.9832" gradientUnits="userSpaceOnUse">
<stop stop-color="#E2E5F4" stop-opacity="0"/>
<stop offset="1" stop-color="#9AA6E2"/>
</linearGradient>
<linearGradient id="paint20_linear_238_3107" x1="49.0001" y1="51.1946" x2="49.0001" y2="57.1685" gradientUnits="userSpaceOnUse">
<stop stop-color="#FFCA4F" stop-opacity="0"/>
<stop offset="1" stop-color="#F4901F"/>
</linearGradient>
<linearGradient id="paint21_linear_238_3107" x1="71.0902" y1="51.9358" x2="71.0902" y2="57.8566" gradientUnits="userSpaceOnUse">
<stop stop-color="#E2E5F4" stop-opacity="0"/>
<stop offset="1" stop-color="#9AA6E2"/>
</linearGradient>
<linearGradient id="paint22_linear_238_3107" x1="-0.000650637" y1="71.0744" x2="48.9993" y2="77.716" gradientUnits="userSpaceOnUse">
<stop stop-color="#FFCA4F" stop-opacity="0"/>
<stop offset="1" stop-color="#F4901F"/>
</linearGradient>
</defs>
</svg>
