<svg xmlns="http://www.w3.org/2000/svg" width="128" height="128" viewBox="0 0 128 128">
  <title>CAR</title>
  <g>
    <path d="M119.817,68.521a25.874,25.874,0,0,0-5.441-7.5,26.2,26.2,0,0,0-18.3-7.391H86.616L74.968,30.817a6.721,6.721,0,0,0-6.012-3.68h-32a6.722,6.722,0,0,0-6.012,3.68L19.293,53.63H17.3A11.763,11.763,0,0,0,5.55,65.38V83.82a6.758,6.758,0,0,0,6.75,6.75h5.728a14.423,14.423,0,0,0,27.638,0H74.6a14.423,14.423,0,0,0,27.638,0H115.7a6.758,6.758,0,0,0,6.75-6.75V80A25.99,25.99,0,0,0,119.817,68.521Zm-7.4-4.486a21.891,21.891,0,0,1,2.81,3.5h-8.118a2.365,2.365,0,0,1-2.361-2.362V64.035ZM66.66,37.637,74.826,53.63H54.7V37.637ZM51.2,53.63H31.083l8.166-15.993H51.2ZM34.059,32.409a3.234,3.234,0,0,1,2.894-1.772h32a3.236,3.236,0,0,1,2.895,1.772L82.686,53.63h-3.93L69.29,35.091a1.751,1.751,0,0,0-1.559-.954H38.178a1.751,1.751,0,0,0-1.559.954L27.153,53.63h-3.93ZM12.3,87.07a3.254,3.254,0,0,1-3.25-3.25V65.38a8.259,8.259,0,0,1,8.25-8.25h2.008V79.319a14.1,14.1,0,0,0-1.859,7.751ZM31.847,97.363a10.945,10.945,0,0,1-10.731-8.882l0-.019a10.927,10.927,0,1,1,10.734,8.9Zm0-25.361a14.349,14.349,0,0,0-9.039,3.2V57.132H51.2V87.07H46.245c.009-.213.032-.422.032-.637A14.447,14.447,0,0,0,31.847,72ZM54.7,87.07V57.133H83.8V72.776A14.447,14.447,0,0,0,73.99,86.433c0,.215.023.424.032.637ZM88.421,97.363a10.931,10.931,0,1,1,10.931-10.93A10.944,10.944,0,0,1,88.421,97.363ZM118.95,83.82a3.254,3.254,0,0,1-3.25,3.25H102.819c.01-.213.033-.422.033-.637A14.448,14.448,0,0,0,88.421,72c-.38,0-.753.028-1.125.057V57.13H96.08a22.709,22.709,0,0,1,11.973,3.4H103a1.749,1.749,0,0,0-1.75,1.75v2.888a5.868,5.868,0,0,0,5.861,5.862h10A22.534,22.534,0,0,1,118.95,80Z"/>
    <path d="M31.847,79.4a7.034,7.034,0,1,0,7.033,7.034A7.042,7.042,0,0,0,31.847,79.4Zm0,10.567a3.534,3.534,0,1,1,3.533-3.533A3.537,3.537,0,0,1,31.847,89.966Z"/>
    <path d="M88.421,79.4a7.034,7.034,0,1,0,7.033,7.034A7.041,7.041,0,0,0,88.421,79.4Zm0,10.567a3.534,3.534,0,1,1,3.533-3.533A3.537,3.537,0,0,1,88.421,89.966Z"/>
    <path d="M66.4,64.037H60.532a1.75,1.75,0,0,0,0,3.5H66.4a1.75,1.75,0,1,0,0-3.5Z"/>
  </g>
</svg>
