<svg width="1374" height="207" viewBox="0 0 1374 207" fill="none" xmlns="http://www.w3.org/2000/svg">
<g opacity="0.4" clip-path="url(#clip0_238_6590)">
<path d="M457.555 102.684V33.4235L442.767 17.6168L419.871 24.3089V58.9392V104.513H395.41V80.8162H387.513V69.8731H372.514V80.8162H364.626V94.7853H333.046V29.1633H324.37L314.103 58.9392V83.248H284.902V27.344L279.374 13.9783L273.06 12.7624V3.03518L265.959 0V7.89878L254.117 10.934V89.9309H218.602V49.8245L213.861 46.1768V29.1633H204.39V19.4453H189.391V26.7315H176.763V30.9917H189.391V103.9H181.503V83.8514H170.449V56.0137H161.124L150.719 64.0222V84.4639H130.193V48.0052H122.295V43.1416H108.093V49.2211H93.8813V95.3979H78.0956V66.8379H68.6243V57.1199H62.31V43.1416L53.6256 50.437V64.0222H49.6815V78.3844H43.3672V117.878H24.4244V75.0201H0.219727V178.975H457.555V102.684Z" fill="#E8E9ED"/>
<path d="M417.574 134.572V119.295H410.921V134.572H407.325V128.136H403.006V134.572H383.614V119.734H380.238V134.572H379.002V96.6777H372.953V117.193H369V134.572H365.404V126.033H361.084V134.572H341.693V117.631H338.316V134.572H337.081V94.575H331.032V134.572H328.689V132.469L328.671 134.572H255.06V107.657H250.658V131.939H248.654V91.229H245.323V121.754H205.415V92.4815L196.712 74.5447L180.341 107.191H171.876V138.082H162.688L159.842 129.891H150.746L147.735 138.082H113.684V157.217H111.342V113.069H106.482V164.165H104.68V129.882H100.003V151.713H95.1441V110.464H88.8481V174.843H87.0453V135.632H82.0122V135.815H41.2989V126.408L39.2491 126.472L39.2765 93.9625C37.9039 81.8766 33.2277 82.0686 33.2277 82.0686V125.119H28.0939V135.815H0V198.804H457.555V134.563H417.574V134.572Z" fill="#D3D4D9"/>
<path d="M457.555 198.813H0V206.776H457.555V198.813Z" fill="#C3C4C6"/>
</g>
<g opacity="0.4" clip-path="url(#clip1_238_6590)">
<path d="M1374 102.684V33.4235L1359.21 17.6168L1336.32 24.3089V58.9392V104.513H1311.85V80.8162H1303.96V69.8731H1288.96V80.8162H1281.07V94.7853H1249.49V29.1633H1240.81L1230.55 58.9392V83.248H1201.35V27.344L1195.82 13.9783L1189.5 12.7624V3.03518L1182.4 0V7.89878L1170.56 10.934V89.9309H1135.05V49.8245L1130.31 46.1768V29.1633H1120.83V19.4453H1105.84V26.7315H1093.21V30.9917H1105.84V103.9H1097.95V83.8514H1086.89V56.0137H1077.57L1067.16 64.0222V84.4639H1046.64V48.0052H1038.74V43.1416H1024.54V49.2211H1010.33V95.3979H994.54V66.8379H985.069V57.1199H978.754V43.1416L970.07 50.437V64.0222H966.126V78.3844H959.812V117.878H940.869V75.0201H916.664V178.975H1374V102.684Z" fill="#E8E9ED"/>
<path d="M1334.02 134.572V119.295H1327.37V134.572H1323.77V128.136H1319.45V134.572H1300.06V119.734H1296.68V134.572H1295.45V96.6777H1289.4V117.193H1285.44V134.572H1281.85V126.033H1277.53V134.572H1258.14V117.631H1254.76V134.572H1253.53V94.575H1247.48V134.572H1245.13V132.469L1245.12 134.572H1171.5V107.657H1167.1V131.939H1165.1V91.229H1161.77V121.754H1121.86V92.4815L1113.16 74.5447L1096.79 107.191H1088.32V138.082H1079.13L1076.29 129.891H1067.19L1064.18 138.082H1030.13V157.217H1027.79V113.069H1022.93V164.165H1021.12V129.882H1016.45V151.713H1011.59V110.464H1005.29V174.843H1003.49V135.632H998.457V135.815H957.743V126.408L955.693 126.472L955.721 93.9625C954.348 81.8766 949.672 82.0686 949.672 82.0686V125.119H944.538V135.815H916.444V198.804H1374V134.563H1334.02V134.572Z" fill="#D3D4D9"/>
<path d="M1374 198.813H916.444V206.776H1374V198.813Z" fill="#C3C4C6"/>
</g>
<g opacity="0.4" clip-path="url(#clip2_238_6590)">
<path d="M916.444 102.684V33.4235L901.613 17.6168L878.65 24.3089V58.9392V104.513H854.118V80.8162H846.198V69.8731H831.155V80.8162H823.244V94.7853H791.571V29.1633H782.871L772.573 58.9392V83.248H743.287V27.344L737.744 13.9783L731.411 12.7624V3.03518L724.289 0V7.89878L712.413 10.934V89.9309H676.794V49.8245L672.04 46.1768V29.1633H662.541V19.4453H647.499V26.7315H634.833V30.9917H647.499V103.9H639.587V83.8514H628.501V56.0137H619.148L608.713 64.0222V84.4639H588.127V48.0052H580.207V43.1416H565.963V49.2211H551.71V95.3979H535.878V66.8379H526.379V57.1199H520.047V43.1416L511.337 50.437V64.0222H507.381V78.3844H501.049V117.878H482.051V75.0201H457.775V178.975H916.444V102.684Z" fill="#E8E9ED"/>
<path d="M876.346 134.572V119.295H869.674V134.572H866.067V128.136H861.735V134.572H842.287V119.734H838.901V134.572H837.662V96.6777H831.595V117.193H827.631V134.572H824.024V126.033H819.692V134.572H800.244V117.631H796.857V134.572H795.618V94.575H789.552V134.572H787.202V132.469L787.184 134.572H713.358V107.657H708.943V131.939H706.933V91.229H703.593V121.754H663.568V92.4815L654.84 74.5447L638.421 107.191H629.932V138.082H620.717L617.863 129.891H608.74L605.721 138.082H571.57V157.217H569.221V113.069H564.347V164.165H562.539V129.882H557.85V151.713H552.976V110.464H546.662V174.843H544.854V135.632H539.806V135.815H498.974V126.408L496.918 126.472L496.946 93.9625C495.569 81.8766 490.879 82.0686 490.879 82.0686V125.119H485.73V135.815H457.555V198.804H916.444V134.563H876.346V134.572Z" fill="#D3D4D9"/>
<path d="M916.444 198.813H457.555V206.776H916.444V198.813Z" fill="#C3C4C6"/>
</g>
<defs>
<clipPath id="clip0_238_6590">
<rect width="457.555" height="206.767" fill="white"/>
</clipPath>
<clipPath id="clip1_238_6590">
<rect width="457.555" height="206.767" fill="white" transform="translate(916.444)"/>
</clipPath>
<clipPath id="clip2_238_6590">
<rect width="458.889" height="206.767" fill="white" transform="translate(457.555)"/>
</clipPath>
</defs>
</svg>
