<svg xmlns="http://www.w3.org/2000/svg" width="128" height="128" viewBox="0 0 128 128">
  <title>BIKE</title>
  <g>
    <path d="M98.52,52.89c-.782,0-1.556.05-2.322.124C95.46,51.1,98.869,59.949,89,34.32H98.52a5.25,5.25,0,0,0,0-10.5c-15.726.052-17.069-.091-18.145.09a5.233,5.233,0,0,0-4.014,6.739c.074.3-.193-.452,3.9,10.191H56.027L52.1,32.17l3.124.438a5.25,5.25,0,1,0,1.458-10.4L38.7,19.687a5.25,5.25,0,1,0-1.459,10.4l2.592.364c.316.867,1.5,3.347,5.028,11.192a5.378,5.378,0,0,0-1.752,1.78L36.827,54.063A23.693,23.693,0,0,0,29.48,52.89,23.93,23.93,0,1,0,52.817,82.07H61.55a5.318,5.318,0,0,0,4.174-2.082L85.366,54.109l.845,2.193A23.925,23.925,0,1,0,98.52,52.89ZM91.245,69.368l2.271,5.894a5.248,5.248,0,0,0,9.753-3.88l-1.744-4.532A10.424,10.424,0,1,1,88.08,76.82,10.35,10.35,0,0,1,91.245,69.368ZM79.754,29.789a1.849,1.849,0,0,1,.116-1.645,1.819,1.819,0,0,1,1.171-.789L98.52,27.32a1.75,1.75,0,0,1,0,3.5H86.45A1.75,1.75,0,0,0,84.817,33.2l2.944,7.641h-3.75ZM36.241,24.643a1.751,1.751,0,0,1,1.976-1.49L56.2,25.676a1.75,1.75,0,0,1-.486,3.467h0L41.56,27.157c-.024,0-.048-.008-.073-.011l-3.756-.527A1.748,1.748,0,0,1,36.241,24.643ZM48,31.6l4.19,9.245H48.345L43.9,31.019ZM29.48,97.25A20.43,20.43,0,1,1,35,57.15l-3.487,5.9a14.169,14.169,0,0,0-2.037-.163A13.93,13.93,0,1,0,42.388,82.07h6.843A20.3,20.3,0,0,1,29.48,97.25ZM24.929,79.415A5.248,5.248,0,0,0,29.48,82.07h9.015A10.431,10.431,0,1,1,29.48,66.39c.022,0,.042,0,.064,0l-4.58,7.754A5.226,5.226,0,0,0,24.929,79.415ZM84.476,49.492S62.96,77.84,62.966,77.834a1.922,1.922,0,0,1-1.416.736H29.48a1.748,1.748,0,0,1-1.515-.9,1.729,1.729,0,0,1,.012-1.745L39.071,57.143h0L46.066,45.3a1.743,1.743,0,0,1,1.514-.948c3.6,0-13.049,0,35.23-.01h6.3l10.9,28.309.008.021a1.754,1.754,0,0,1-.97,2.273,1.774,1.774,0,0,1-2.272-.963L87.5,49.92a1.75,1.75,0,0,0-3.027-.428ZM98.52,97.25A20.419,20.419,0,0,1,87.494,59.632L89.9,65.883A13.928,13.928,0,1,0,112.45,76.82a14,14,0,0,0-12.412-13.833l-2.526-6.56c.335-.016.67-.037,1.008-.037a20.43,20.43,0,1,1,0,40.86Z"/>
    <path d="M48.814,52.948a1.75,1.75,0,0,0-3.1-.167L34.113,72.43a1.751,1.751,0,0,0,1.507,2.64h20.5A1.75,1.75,0,0,0,57.714,72.6ZM42.38,71.57A14.156,14.156,0,0,0,40.558,68.4l3.486-5.906a20.327,20.327,0,0,1,5.182,9.077Zm10.436,0A23.821,23.821,0,0,0,45.87,59.4l1.146-1.941,6.39,14.109Z"/>
    <path d="M77.81,47.84H53.06a1.749,1.749,0,0,0-1.594,2.471l9.25,20.432a1.75,1.75,0,0,0,1.4,1.016,1.616,1.616,0,0,0,.2.011,1.749,1.749,0,0,0,1.394-.692l15.5-20.43A1.75,1.75,0,0,0,77.81,47.84ZM62.69,66.623,55.772,51.34H74.286Z"/>
  </g>
</svg>
