<svg width="112" height="112" viewBox="0 0 112 112" fill="none" xmlns="http://www.w3.org/2000/svg">
<path d="M21.0002 91.0001C17.3083 91.0001 13.6992 89.9053 10.6295 87.8542C7.55981 85.8031 5.16726 82.8877 3.75442 79.4769C2.34158 76.066 1.97192 72.3127 2.69218 68.6917C3.41244 65.0708 5.19027 61.7447 7.80085 59.1341C10.4114 56.5235 13.7375 54.7457 17.3585 54.0254C20.9795 53.3052 24.7327 53.6748 28.1436 55.0877C31.5545 56.5005 34.4698 58.8931 36.5209 61.9628C38.5721 65.0325 39.6668 68.6415 39.6668 72.3334C39.6613 77.2824 37.6928 82.0271 34.1934 85.5266C30.6939 89.0261 25.9492 90.9945 21.0002 91.0001ZM21.0002 58.3334C18.2312 58.3334 15.5245 59.1545 13.2222 60.6929C10.9199 62.2312 9.12549 64.4177 8.06586 66.9759C7.00623 69.534 6.72898 72.349 7.26918 75.0647C7.80937 77.7804 9.14274 80.275 11.1007 82.2329C13.0586 84.1909 15.5532 85.5242 18.2689 86.0644C20.9846 86.6046 23.7996 86.3274 26.3577 85.2677C28.9159 84.2081 31.1024 82.4137 32.6408 80.1114C34.1791 77.8091 35.0002 75.1024 35.0002 72.3334C34.9959 68.6217 33.5195 65.0633 30.8949 62.4387C28.2703 59.8141 24.7119 58.3377 21.0002 58.3334Z" fill="url(#paint0_linear_238_3183)"/>
<path d="M21.0002 86.3333C17.2885 86.3289 13.73 84.8525 11.1054 82.228C8.48087 79.6034 7.00449 76.045 7.00016 72.3333H2.3335C2.3335 77.284 4.30016 82.0319 7.80084 85.5326C11.3015 89.0333 16.0495 90.9999 21.0002 90.9999C25.9509 90.9999 30.6988 89.0333 34.1995 85.5326C37.7002 82.0319 39.6668 77.284 39.6668 72.3333H35.0002C34.9958 76.045 33.5195 79.6034 30.8949 82.228C28.2703 84.8525 24.7119 86.3289 21.0002 86.3333Z" fill="url(#paint1_linear_238_3183)"/>
<path d="M91.0002 91.0001C87.3083 91.0001 83.6993 89.9053 80.6295 87.8542C77.5598 85.8031 75.1673 82.8877 73.7544 79.4769C72.3416 76.066 71.9719 72.3127 72.6922 68.6917C73.4124 65.0708 75.1903 61.7447 77.8009 59.1341C80.4114 56.5235 83.7375 54.7457 87.3585 54.0254C90.9795 53.3052 94.7327 53.6748 98.1436 55.0877C101.554 56.5005 104.47 58.8931 106.521 61.9628C108.572 65.0325 109.667 68.6415 109.667 72.3334C109.661 77.2824 107.693 82.0271 104.193 85.5266C100.694 89.0261 95.9492 90.9945 91.0002 91.0001ZM91.0002 58.3334C88.2312 58.3334 85.5245 59.1545 83.2222 60.6929C80.9199 62.2312 79.1255 64.4177 78.0659 66.9759C77.0062 69.534 76.729 72.349 77.2692 75.0647C77.8094 77.7804 79.1427 80.275 81.1007 82.2329C83.0586 84.1909 85.5532 85.5242 88.2689 86.0644C90.9846 86.6046 93.7996 86.3274 96.3577 85.2677C98.9159 84.2081 101.102 82.4137 102.641 80.1114C104.179 77.8091 105 75.1024 105 72.3334C104.996 68.6217 103.519 65.0633 100.895 62.4387C98.2703 59.8141 94.7119 58.3377 91.0002 58.3334Z" fill="url(#paint2_linear_238_3183)"/>
<path d="M96.3459 27.3209C95.9585 26.1595 95.2155 25.1494 94.2222 24.4337C93.2289 23.718 92.0355 23.333 90.8112 23.3333H80.1362C79.4088 23.3332 78.6915 23.5032 78.0415 23.8296C77.3915 24.1561 76.8268 24.63 76.3924 25.2134C75.9581 25.7969 75.6662 26.4738 75.54 27.1902C75.4138 27.9065 75.4568 28.6425 75.6655 29.3393L77.3642 34.9999H35.5975L32.3752 29.2016C32.23 28.9272 32.0315 28.6846 31.7914 28.4879C31.5513 28.2912 31.2743 28.1444 30.9767 28.056C30.6792 27.9677 30.3669 27.9397 30.0584 27.9735C29.7498 28.0074 29.4511 28.1024 29.1798 28.2532C28.9084 28.4039 28.6698 28.6073 28.4781 28.8514C28.2863 29.0954 28.1451 29.3753 28.0629 29.6747C27.9806 29.974 27.9589 30.2867 27.9991 30.5945C28.0392 30.9023 28.1403 31.199 28.2965 31.4673L32.0999 38.3109L18.8325 71.4676C18.6911 71.8217 18.6385 72.205 18.6795 72.5841C18.7205 72.9632 18.8538 73.3265 19.0677 73.6421C19.2816 73.9578 19.5696 74.2162 19.9065 74.3948C20.2434 74.5734 20.6189 74.6667 21.0002 74.6666H53.6669C54.0083 74.6622 54.3445 74.5826 54.6515 74.4332C54.6819 74.4192 54.7145 74.4122 54.7449 74.3959C54.7752 74.3796 54.7822 74.3842 54.7985 74.3749C55.0863 74.2157 55.3369 73.9969 55.5335 73.7332L55.5592 73.7099L79.2729 41.3629L88.7649 73.0029C88.9089 73.4838 89.2042 73.9054 89.6069 74.2051C90.0096 74.5048 90.4982 74.6666 91.0002 74.6666C91.2278 74.6665 91.4541 74.6335 91.6722 74.5686C91.9658 74.4807 92.2391 74.3358 92.4767 74.1422C92.7142 73.9486 92.9113 73.7101 93.0567 73.4404C93.2021 73.1706 93.293 72.8749 93.324 72.57C93.3551 72.2651 93.3258 71.9571 93.2379 71.6636L80.1362 27.9999H90.8112C91.056 28.0001 91.2945 28.0773 91.493 28.2205C91.6914 28.3637 91.8399 28.5657 91.9172 28.7979C91.9756 28.9732 91.9915 29.1599 91.9636 29.3425C91.9358 29.5252 91.8649 29.6986 91.757 29.8485C91.649 29.9984 91.5069 30.1205 91.3425 30.2048C91.1781 30.2891 90.996 30.3331 90.8112 30.3333H88.6669C88.048 30.3333 87.4545 30.5791 87.017 31.0167C86.5794 31.4543 86.3335 32.0477 86.3335 32.6666C86.3335 33.2854 86.5794 33.8789 87.017 34.3165C87.4545 34.7541 88.048 34.9999 88.6669 34.9999H90.8112C91.7357 35.0001 92.647 34.7805 93.4699 34.3593C94.2929 33.9381 95.0039 33.3274 95.5445 32.5774C96.085 31.8274 96.4396 30.9597 96.5789 30.0458C96.7182 29.1319 96.6384 28.1979 96.3459 27.3209ZM53.9375 68.0166L38.1875 39.6666H74.7275L53.9375 68.0166ZM35.0189 43.5702L49.7002 69.9999H24.4465L35.0189 43.5702Z" fill="url(#paint3_linear_238_3183)"/>
<path d="M39.6667 30.3333H23.3333C22.7855 30.3934 22.2357 30.238 21.8003 29.9001C21.3649 29.5622 21.0779 29.0683 21 28.5226V25.144C21 24.0543 22.2297 23.212 23.6227 23.3473L33.5347 24.3086C35.0399 24.2975 36.4966 24.8404 37.6274 25.8339C38.7581 26.8275 39.484 28.2022 39.6667 29.6963V30.3333Z" fill="url(#paint4_linear_238_3183)"/>
<path d="M53.667 79.3333C57.533 79.3333 60.667 76.1992 60.667 72.3333C60.667 68.4673 57.533 65.3333 53.667 65.3333C49.801 65.3333 46.667 68.4673 46.667 72.3333C46.667 76.1992 49.801 79.3333 53.667 79.3333Z" fill="url(#paint5_linear_238_3183)"/>
<path d="M91.0002 86.3333C87.2885 86.3289 83.73 84.8525 81.1054 82.228C78.4809 79.6034 77.0045 76.045 77.0002 72.3333H72.3335C72.3335 77.284 74.3002 82.0319 77.8008 85.5326C81.3015 89.0333 86.0495 90.9999 91.0002 90.9999C95.9509 90.9999 100.699 89.0333 104.199 85.5326C107.7 82.0319 109.667 77.284 109.667 72.3333H105C104.996 76.045 103.519 79.6034 100.895 82.228C98.2703 84.8525 94.7119 86.3289 91.0002 86.3333Z" fill="url(#paint6_linear_238_3183)"/>
<path d="M48.7178 77.2824C50.0306 78.5953 51.8113 79.3328 53.6679 79.3328C55.5246 79.3328 57.3052 78.5953 58.6181 77.2824C59.931 75.9695 60.6685 74.1889 60.6685 72.3322C60.6685 70.4756 59.931 68.6949 58.6181 67.3821L48.7178 77.2824Z" fill="url(#paint7_linear_238_3183)"/>
<defs>
<linearGradient id="paint0_linear_238_3183" x1="21.0002" y1="53.8138" x2="21.0002" y2="90.9464" gradientUnits="userSpaceOnUse">
<stop stop-color="#9AA6E2"/>
<stop offset="1" stop-color="#7283D6"/>
</linearGradient>
<linearGradient id="paint1_linear_238_3183" x1="21.0002" y1="72.4056" x2="21.0002" y2="90.9743" gradientUnits="userSpaceOnUse">
<stop stop-color="#7283D6" stop-opacity="0"/>
<stop offset="1" stop-color="#4D62CB"/>
</linearGradient>
<linearGradient id="paint2_linear_238_3183" x1="91.0002" y1="54.1054" x2="91.0002" y2="91.2194" gradientUnits="userSpaceOnUse">
<stop stop-color="#9AA6E2"/>
<stop offset="1" stop-color="#7283D6"/>
</linearGradient>
<linearGradient id="paint3_linear_238_3183" x1="57.6545" y1="24.6936" x2="57.6545" y2="75.5182" gradientUnits="userSpaceOnUse">
<stop stop-color="#3F4C56"/>
<stop offset="1" stop-color="#27333E"/>
</linearGradient>
<linearGradient id="paint4_linear_238_3183" x1="30.3333" y1="23.0416" x2="30.3333" y2="30.5013" gradientUnits="userSpaceOnUse">
<stop stop-color="#E28B5A"/>
<stop offset="1" stop-color="#B35E3E"/>
</linearGradient>
<linearGradient id="paint5_linear_238_3183" x1="53.667" y1="65.3333" x2="53.667" y2="79.3939" gradientUnits="userSpaceOnUse">
<stop stop-color="#9AA6E2"/>
<stop offset="1" stop-color="#7283D6"/>
</linearGradient>
<linearGradient id="paint6_linear_238_3183" x1="91.0002" y1="72.5526" x2="91.0002" y2="91.1096" gradientUnits="userSpaceOnUse">
<stop stop-color="#7283D6" stop-opacity="0"/>
<stop offset="1" stop-color="#4D62CB"/>
</linearGradient>
<linearGradient id="paint7_linear_238_3183" x1="54.0261" y1="72.6531" x2="60.9701" y2="78.5564" gradientUnits="userSpaceOnUse">
<stop stop-color="#7283D6" stop-opacity="0"/>
<stop offset="1" stop-color="#4D62CB"/>
</linearGradient>
</defs>
</svg>
