<svg xmlns="http://www.w3.org/2000/svg" width="128" height="128" viewBox="0 0 128 128">
  <title>DELIVERY TRUCK</title>
  <g>
    <path d="M120.71,84.12h-1.25V67.83a1.738,1.738,0,0,0-.224-.855L107.057,45.244a1.75,1.75,0,0,0-1.527-.894H87.1V31.65a6.759,6.759,0,0,0-6.75-6.75H19.71a6.758,6.758,0,0,0-6.75,6.75v9.463H7.288a1.75,1.75,0,1,0,0,3.5H12.96v9.9H7.288a1.75,1.75,0,0,0,0,3.5H12.96v9.9H7.288a1.75,1.75,0,1,0,0,3.5H12.96V80.87a6.759,6.759,0,0,0,5.46,6.623V89.87a4.756,4.756,0,0,0,4.75,4.75h3.29a11.519,11.519,0,0,0,22.223,0h2.826a11.519,11.519,0,0,0,22.224,0H92.2a11.52,11.52,0,0,0,22.225,0h3.29a4.756,4.756,0,0,0,4.75-4.75v-4A1.749,1.749,0,0,0,120.71,84.12Zm-16.2-36.27L115.96,68.287V84.12H112.1a11.5,11.5,0,0,0-17.587,0H87.1V47.85ZM91.8,91.12H74.133a11.42,11.42,0,0,0-.688-3.5H92.483A11.48,11.48,0,0,0,91.8,91.12ZM16.46,80.87V71.408H35.894a1.75,1.75,0,0,0,0-3.5H16.46v-9.9H43.567a1.75,1.75,0,0,0,0-3.5H16.46v-9.9H27.787a1.75,1.75,0,1,0,0-3.5H16.46V31.65a3.254,3.254,0,0,1,3.25-3.25H80.35a3.254,3.254,0,0,1,3.25,3.25V84.12H71.414a11.5,11.5,0,0,0-17.586,0H46.364a11.5,11.5,0,0,0-17.585,0H19.71A3.254,3.254,0,0,1,16.46,80.87ZM51.109,91.12H49.084a11.48,11.48,0,0,0-.688-3.5h3.4A11.42,11.42,0,0,0,51.109,91.12ZM21.92,89.87V87.62h4.828a11.42,11.42,0,0,0-.688,3.5H23.17A1.25,1.25,0,0,1,21.92,89.87ZM37.571,99.6a8.035,8.035,0,1,1,8.035-8.035A8.044,8.044,0,0,1,37.571,99.6Zm25.05,0a8.035,8.035,0,1,1,8.035-8.035A8.043,8.043,0,0,1,62.621,99.6Zm40.687,0a8.035,8.035,0,1,1,8.035-8.035A8.044,8.044,0,0,1,103.308,99.6ZM118.96,89.87a1.251,1.251,0,0,1-1.25,1.25h-2.89a11.45,11.45,0,0,0-.688-3.5h4.828Z"/>
    <path d="M92.345,69.575h17.34a1.75,1.75,0,0,0,1.526-2.605l-8.25-14.72a1.75,1.75,0,0,0-1.526-.9h-9.09a1.75,1.75,0,0,0-1.75,1.75v14.72A1.749,1.749,0,0,0,92.345,69.575Zm1.75-14.72h6.314l6.288,11.22H94.1Z"/>
    <path d="M92.345,75.761h3.276a1.75,1.75,0,1,0,0-3.5H92.345a1.75,1.75,0,0,0,0,3.5Z"/>
    <path d="M37.571,87.033a4.535,4.535,0,1,0,4.535,4.535A4.539,4.539,0,0,0,37.571,87.033Zm0,5.57a1.035,1.035,0,1,1,1.035-1.035A1.036,1.036,0,0,1,37.571,92.6Z"/>
    <path d="M62.621,87.033a4.535,4.535,0,1,0,4.534,4.535A4.54,4.54,0,0,0,62.621,87.033Zm0,5.57a1.035,1.035,0,1,1,1.034-1.035A1.036,1.036,0,0,1,62.621,92.6Z"/>
    <path d="M103.308,87.033a4.535,4.535,0,1,0,4.534,4.535A4.54,4.54,0,0,0,103.308,87.033Zm0,5.57a1.035,1.035,0,1,1,1.034-1.035A1.037,1.037,0,0,1,103.308,92.6Z"/>
  </g>
</svg>
