<svg width="104" height="104" viewBox="0 0 104 104" fill="none" xmlns="http://www.w3.org/2000/svg">
<path d="M69.3221 11.375H34.9948C32.2001 11.375 29.9346 13.6406 29.9346 16.4353V88.9996C29.9346 91.7943 32.2001 94.0599 34.9948 94.0599H69.3221C72.1168 94.0599 74.3824 91.7943 74.3824 88.9996V16.4353C74.3824 13.6406 72.1168 11.375 69.3221 11.375Z" fill="#6F6571"/>
<path d="M69.5095 16.4369V89.0013C69.5089 89.0507 69.489 89.0978 69.4541 89.1327C69.4191 89.1676 69.372 89.1875 69.3226 89.1882H34.9945C34.9456 89.1862 34.8992 89.1658 34.8646 89.1312C34.8299 89.0966 34.8096 89.0502 34.8076 89.0013V16.4369C34.8082 16.3875 34.8281 16.3404 34.8631 16.3055C34.898 16.2706 34.9451 16.2507 34.9945 16.25H42.5832L43.1276 18.8338C43.4445 20.3044 44.4601 21.3119 45.6139 21.3119H58.3864C59.5401 21.3119 60.5557 20.3044 60.8726 18.8338L61.417 16.25H69.3226C69.3473 16.2496 69.3718 16.2541 69.3946 16.2634C69.4175 16.2726 69.4383 16.2863 69.4557 16.3038C69.4732 16.3212 69.4869 16.342 69.4962 16.3649C69.5054 16.3877 69.5099 16.4122 69.5095 16.4369Z" fill="#FEE07D"/>
<path d="M70.6878 71.972H44.2223C43.237 71.9823 42.2595 71.7971 41.3463 71.4272C40.4331 71.0573 39.6023 70.51 38.9019 69.8169C38.2016 69.1239 37.6456 68.2988 37.2662 67.3895C36.8868 66.4802 36.6914 65.5047 36.6914 64.5194C36.6914 63.5341 36.8868 62.5585 37.2662 61.6492C37.6456 60.7399 38.2016 59.9149 38.9019 59.2218C39.6023 58.5287 40.4331 57.9814 41.3463 57.6115C42.2595 57.2416 43.237 57.0564 44.2223 57.0667H46.689C48.0536 57.0496 49.3564 56.4956 50.3153 55.5246C51.2742 54.5536 51.8119 53.244 51.8119 51.8793C51.8119 50.5147 51.2742 49.205 50.3153 48.234C49.3564 47.263 48.0536 46.709 46.689 46.6919H43.8567C43.4796 46.6919 43.1179 46.5421 42.8512 46.2754C42.5846 46.0088 42.4348 45.6471 42.4348 45.27C42.4348 44.8929 42.5846 44.5313 42.8512 44.2646C43.1179 43.998 43.4796 43.8481 43.8567 43.8481H46.689C48.805 43.8694 50.8271 44.7249 52.3159 46.2288C53.8047 47.7326 54.6398 49.7632 54.6398 51.8793C54.6398 53.9954 53.8047 56.026 52.3159 57.5298C50.8271 59.0337 48.805 59.8892 46.689 59.9105H44.2223C43.6119 59.9024 43.006 60.0156 42.4397 60.2436C41.8734 60.4715 41.358 60.8097 40.9235 61.2385C40.489 61.6673 40.144 62.1781 39.9085 62.7413C39.673 63.3045 39.5518 63.9089 39.5518 64.5194C39.5518 65.1298 39.673 65.7342 39.9085 66.2974C40.144 66.8606 40.489 67.3714 40.9235 67.8002C41.358 68.229 41.8734 68.5672 42.4397 68.7952C43.006 69.0232 43.6119 69.1364 44.2223 69.1283H70.6878C71.065 69.1283 71.4266 69.2781 71.6933 69.5447C71.9599 69.8114 72.1097 70.173 72.1097 70.5501C72.1097 70.9273 71.9599 71.2889 71.6933 71.5556C71.4266 71.8222 71.065 71.972 70.6878 71.972Z" fill="#9FD4FE"/>
<path d="M70.687 26.9507C68.7542 26.9512 66.8404 27.3324 65.0548 28.0726C63.2693 28.8128 61.6471 29.8974 60.2807 31.2645C58.9144 32.6316 57.8307 34.2544 57.0915 36.0404C56.3523 37.8263 55.9721 39.7403 55.9727 41.6732C55.9727 49.7982 70.687 70.5494 70.687 70.5494C70.687 70.5494 85.4095 49.7982 85.4095 41.6732C85.4099 39.7397 85.0293 37.8251 84.2895 36.0387C83.5497 34.2524 82.4653 32.6293 81.0981 31.2621C79.7309 29.8949 78.1078 28.8105 76.3215 28.0707C74.5351 27.331 72.6205 26.9504 70.687 26.9507ZM70.687 49.5788C69.1234 49.5788 67.595 49.1152 66.2949 48.2465C64.9948 47.3778 63.9815 46.1431 63.3832 44.6985C62.7848 43.254 62.6283 41.6644 62.9333 40.1309C63.2384 38.5973 63.9913 37.1887 65.0969 36.0831C66.2025 34.9774 67.6112 34.2245 69.1447 33.9195C70.6783 33.6144 72.2678 33.771 73.7124 34.3693C75.1569 34.9677 76.3916 35.981 77.2603 37.2811C78.129 38.5811 78.5927 40.1096 78.5927 41.6732C78.5916 43.7696 77.7583 45.7798 76.276 47.2621C74.7936 48.7445 72.7834 49.5777 70.687 49.5788Z" fill="#FFC269"/>
<path d="M43.8557 45.2703C43.8559 46.0589 43.6222 46.8299 43.1841 47.4856C42.7461 48.1414 42.1234 48.6525 41.3949 48.9544C40.6663 49.2563 39.8646 49.3353 39.0912 49.1815C38.3177 49.0277 37.6072 48.6479 37.0496 48.0903C36.492 47.5327 36.1122 46.8222 35.9584 46.0487C35.8046 45.2753 35.8836 44.4736 36.1855 43.745C36.4873 43.0165 36.9985 42.3938 37.6543 41.9558C38.31 41.5177 39.081 41.284 39.8696 41.2842C40.9267 41.2844 41.9405 41.7044 42.688 42.4519C43.4355 43.1994 43.8555 44.2132 43.8557 45.2703Z" fill="#F76672"/>
</svg>
