<svg width="449" height="449" viewBox="0 0 449 449" fill="none" xmlns="http://www.w3.org/2000/svg">
<g opacity="0.2">
<path d="M157.808 97.6899H123.992V349.431H157.808V97.6899Z" fill="#FAB60B"/>
<path d="M449 224.455C449 229.854 448.685 235.118 448.28 240.426V241.416H448.19C439.51 357.4 342.541 449 224.478 449C100.657 449 0 348.312 0 224.455C0 100.598 100.657 0 224.478 0C306.38 0 378.207 44.1352 417.337 109.866L392.51 134.7C360.486 74.7284 297.249 33.7875 224.478 33.7875C119.323 33.7875 33.8223 119.313 33.8223 224.41C33.8223 329.507 119.323 415.123 224.478 415.123C323.831 415.123 405.688 338.595 414.233 241.371H239.814L333.995 335.58L310.068 359.515L174.958 224.365L198.886 200.43L310.023 89.2601L333.95 113.195L239.769 207.494H448.19C448.595 213.073 448.91 218.651 448.91 224.365L449 224.455Z" fill="#FAB60B"/>
</g>
</svg>
