<?xml version="1.0" encoding="utf-8"?>
<!-- Generator: Adobe Illustrator 26.4.1, SVG Export Plug-In . SVG Version: 6.00 Build 0)  -->
<svg version="1.1" id="Layer_2_00000080897378130735477180000017361714694671472000_"
	 xmlns="http://www.w3.org/2000/svg" xmlns:xlink="http://www.w3.org/1999/xlink" x="0px" y="0px" viewBox="0 0 435 435"
	 style="enable-background:new 0 0 435 435;" xml:space="preserve">
<style type="text/css">
	.st0{fill:#FAB60B;}
</style>
<g id="Layer_1-2">
	<g>
		<path class="st0" d="M35,0h365c19.3,0,35,15.7,35,35v365c0,19.3-15.7,35-35,35H35c-19.3,0-35-15.7-35-35V35C0,15.7,15.7,0,35,0z"
			/>
		<g>
			<rect x="149.5" y="132.6" width="22.8" height="169.8"/>
			<path d="M368.3,217.4c0,3.6-0.2,7.2-0.5,10.7v0.7h-0.1c-5.8,77.9-71,139.4-150.3,139.4c-83.2,0-150.8-67.6-150.8-150.8
				S134.3,66.7,217.5,66.7c55,0,103.3,29.6,129.6,73.8l-16.7,16.7c-21.5-40.3-64-67.8-112.9-67.8c-70.6,0-128.1,57.4-128.1,128
				s57.4,128.1,128.1,128.1c66.8,0,121.7-51.4,127.5-116.7H227.8l63.3,63.3L275,308.2l-90.8-90.8l16.1-16.1l74.7-74.7l16.1,16.1
				l-63.3,63.3h140C368.1,209.8,368.3,213.6,368.3,217.4L368.3,217.4z"/>
		</g>
	</g>
</g>
</svg>
