<svg width="415" height="267" viewBox="0 0 415 267" fill="none" xmlns="http://www.w3.org/2000/svg">
<g clip-path="url(#clip0_1_200)">
<path d="M399.325 189.61C397.83 182.548 394.45 175.878 389.754 170.421C384.363 164.156 377.465 160.615 370.15 157.081C361.995 153.143 355.043 148.017 350.268 140.147C345.499 132.29 343.899 123.226 343.303 114.169C342.258 98.1632 343.588 81.8723 336.154 67.1064C329.85 54.5948 318.93 44.4039 306 39.0597C289.789 32.3564 272.195 35.1544 255.191 35.486C246.05 35.665 236.777 35.0749 228.159 31.7729C219.938 28.6235 212.689 23.5048 205.387 18.6845C191.398 9.44833 176.556 3.3152 159.578 3.15607C144.028 3.0102 126.567 7.3929 114.966 18.2999C102.518 30.0092 98.4834 49.0982 95.5269 65.2366C89.5147 98.0107 88.139 136.553 59.6191 158.891C48.9242 167.265 35.7423 173.332 27.5938 184.584C18.2018 197.56 20.5233 214.48 28.7446 227.423C33.0438 234.193 38.6459 239.901 44.6383 245.166C43.9041 245.617 44.0694 247.016 45.1475 247.009C126.666 246.446 207.602 248.335 289.121 247.599C307.64 247.434 325.465 248.7 343.938 247.301C358.304 246.214 374.839 239.663 385.951 229.856C397.109 220.01 402.42 204.203 399.331 189.61H399.325Z" fill="#F5E7D7"/>
<path d="M249.608 22.4837C255.376 22.5235 261.481 20.1432 263.809 14.4676C265.753 9.73344 263.161 3.53401 258.246 2.59249C252.803 -0.0861959 246.103 -1.01445 240.428 1.35923C235.262 3.52075 231.459 9.34225 233.973 14.8786C236.612 20.6869 243.788 22.4373 249.602 22.4771L249.608 22.4837Z" fill="#F5E7D7"/>
<path d="M357.762 122.145C358.112 124.817 359.223 127.436 361.115 129.711C365.811 135.353 376.288 139.451 382.154 133.231C387.869 127.171 380.719 117.61 375.937 113.274C372.174 109.859 366.558 108.228 362.153 110.224C361.995 110.131 361.796 110.124 361.637 110.297C361.532 110.41 361.439 110.536 361.333 110.655C360.182 111.325 359.137 112.259 358.251 113.513C358.099 113.731 358.073 113.963 358.125 114.182C356.789 116.417 356.895 119.308 357.755 122.152L357.762 122.145Z" fill="#F5E7D7"/>
<path d="M23.2152 151.637C23.4599 153.514 24.2404 155.357 25.5764 156.955C28.8768 160.92 36.2449 163.804 40.3721 159.428C44.3868 155.165 39.3601 148.442 36.0002 145.398C33.3546 142.998 29.4059 141.851 26.3106 143.25C26.1981 143.184 26.0592 143.177 25.9468 143.303C25.874 143.383 25.8079 143.469 25.7351 143.555C24.9282 144.026 24.1874 144.682 23.5723 145.564C23.4665 145.717 23.4467 145.882 23.4864 146.035C22.5472 147.606 22.6199 149.642 23.2284 151.637H23.2152Z" fill="#F5E7D7"/>
<path d="M1.32275 247.301H413.637" stroke="#F5B367" stroke-width="4" stroke-miterlimit="10" stroke-linecap="round"/>
<path d="M225.507 34.3787H127.242C123.066 34.3787 119.682 37.7717 119.682 41.9572V238.668C119.682 242.854 123.066 246.247 127.242 246.247H225.507C229.682 246.247 233.067 242.854 233.067 238.668V41.9572C233.067 37.7717 229.682 34.3787 225.507 34.3787Z" fill="#424543"/>
<path d="M218.853 45.604H133.895C130.21 45.604 127.222 48.5992 127.222 52.294V229.174C127.222 232.868 130.21 235.864 133.895 235.864H218.853C222.539 235.864 225.527 232.868 225.527 229.174V52.294C225.527 48.5992 222.539 45.604 218.853 45.604Z" fill="white"/>
<path d="M160.96 45.604V97.2615C160.96 99.9269 158.804 102.088 156.145 102.088H127.215V52.294C127.215 48.5943 130.198 45.604 133.889 45.604H160.953H160.96Z" fill="#EBF0ED"/>
<path d="M194.222 167.935V214.892H127.222V187.607C140.119 187.607 151.138 179.406 155.365 167.935H194.222Z" fill="#EBF0ED"/>
<path d="M165.881 86.9379V98.0174C165.881 102.831 161.985 106.736 157.183 106.736V139.809H178.891V86.9313H165.881V86.9379Z" fill="#96D6B6"/>
<path d="M225.527 167.935H199.659V214.892H225.527V167.935Z" fill="#EBF0ED"/>
<path d="M178.884 219.984C169.029 224.015 167.369 235.32 167.303 235.857H133.895C130.205 235.857 127.222 232.86 127.222 229.167V219.984H178.884Z" fill="#96D6B6"/>
<path d="M201.438 45.604H165.881V83.3111H201.438V45.604Z" fill="#EBF0ED"/>
<path d="M225.527 86.9379H183.382V139.689H225.527V86.9379Z" fill="#EBF0ED"/>
<path d="M225.527 144.311H157.183V163.433H225.527V144.311Z" fill="#EBF0ED"/>
<path d="M225.527 52.294V83.3111H205.81V45.604H218.853C222.537 45.604 225.527 48.5943 225.527 52.294Z" fill="#EBF0ED"/>
<path d="M151.958 106.763V155.496C151.958 169.672 140.919 181.236 127.222 181.561V106.756H151.958V106.763Z" fill="#EBF0ED"/>
<path d="M194.507 219.984C178.891 219.984 174.261 226.561 170.398 235.864H218.853C222.537 235.864 225.527 232.867 225.527 229.174V219.99H194.5L194.507 219.984Z" fill="#EBF0ED"/>
<path d="M177.985 39.557C177.985 40.4455 177.264 41.1682 176.377 41.1682C175.491 41.1682 174.77 40.4455 174.77 39.557C174.77 38.6686 175.491 37.9458 176.377 37.9458C177.264 37.9458 177.985 38.6686 177.985 39.557Z" fill="white"/>
<path d="M282.117 136.487C282.024 133.324 282.348 129.446 281.799 126.362C281.131 122.61 277.97 123.591 275.542 123.564C273.836 123.544 272.136 123.558 270.43 123.578C263.028 123.491 255.607 124.015 248.259 125.063C246.004 125.381 241.691 124.93 240.091 127.602C239.191 129.107 239.31 131.309 239.244 133.092C239.119 136.494 239.158 139.875 239.205 143.237C239.218 144.006 239.84 144.702 240.441 144.437C240.653 144.344 240.871 144.264 241.09 144.172C241.341 145.61 241.744 146.89 242.935 147.328C245.369 148.216 248.815 147.248 251.341 147.202C254.721 147.135 258.101 147.122 261.487 147.169C268.247 147.261 275 147.533 281.733 147.984C282.077 148.004 282.447 147.566 282.434 147.116L282.123 136.487H282.117Z" fill="white"/>
<path d="M248.881 130.168H246.394V128.703H253.16V130.168H250.673V136.487H248.874V130.168H248.881Z" fill="black"/>
<path d="M259.602 134.816H255.998L255.31 136.487H253.471L256.93 128.703H258.703L262.175 136.487H260.29L259.602 134.816ZM259.034 133.45L257.803 130.473L256.573 133.45H259.034Z" fill="black"/>
<path d="M268.227 136.487L266.355 133.788L264.517 136.487H262.453L265.324 132.529L262.592 128.703H264.636L266.422 131.229L268.174 128.703H270.112L267.407 132.462L270.304 136.487H268.227Z" fill="black"/>
<path d="M271.759 128.703H273.558V136.487H271.759V128.703Z" fill="black"/>
<path d="M407.539 230.221C407.539 230.221 415.966 189.086 376.89 181.62L337.814 174.154C337.814 174.154 310.994 144.198 292.606 142.66C274.219 141.122 219.051 136.514 203.727 147.268C188.402 158.023 177.674 181.62 177.674 181.62C177.674 181.62 140.899 182.907 134.768 194.278C128.637 205.649 130.171 230.228 130.171 230.228H407.533L407.539 230.221Z" fill="#F6C042"/>
<path d="M330.432 182.323C330.432 182.323 305.53 154.767 288.671 153.076C271.812 151.386 219.197 148.68 211.782 154.429C204.368 160.177 191.213 181.812 191.213 181.812L330.439 182.323H330.432Z" fill="#020403"/>
<path d="M263.24 190.14H271.871C273.207 190.14 274.292 189.053 274.292 187.714C274.292 186.374 273.207 185.287 271.871 185.287H263.24C261.904 185.287 260.819 186.374 260.819 187.714C260.819 189.053 261.904 190.14 263.24 190.14Z" fill="#020403"/>
<path d="M192.159 190.14H200.79C202.126 190.14 203.211 189.053 203.211 187.714C203.211 186.374 202.126 185.287 200.79 185.287H192.159C190.823 185.287 189.738 186.374 189.738 187.714C189.738 189.053 190.823 190.14 192.159 190.14Z" fill="#020403"/>
<path d="M131.177 237.959H409.609C412.586 237.959 415 235.539 415 232.555C415 229.571 412.586 227.151 409.609 227.151H131.177C128.201 227.151 125.786 229.571 125.786 232.555C125.786 235.539 128.201 237.959 131.177 237.959Z" fill="#020403"/>
<path d="M134.775 194.271C135.615 192.713 137.05 191.347 138.869 190.14H148.142C151.35 190.14 153.956 192.746 153.956 195.968C153.956 199.191 151.356 201.797 148.142 201.797H132.076C132.744 198.992 133.624 196.399 134.775 194.271Z" fill="white"/>
<path d="M370.229 192.481C373.622 196.293 391.11 194.198 398.815 193.064C397.955 192.116 397.03 191.201 396.018 190.319C391.46 186.361 385.27 183.212 376.896 181.614C376.275 181.494 375.666 181.382 375.071 181.262C373.53 180.97 372.055 180.685 370.633 180.42C369.078 183.875 367.392 189.311 370.229 192.481Z" fill="white"/>
<path d="M370.229 192.481C373.622 196.293 391.11 194.198 398.815 193.064C397.955 192.116 397.03 191.201 396.018 190.319C381.057 192.415 376.447 185.081 375.071 181.262C373.53 180.97 372.055 180.685 370.633 180.42C369.078 183.875 367.392 189.311 370.229 192.481Z" fill="#EBF0ED"/>
<path d="M254.86 187.541H260.819V148.853H254.86V187.541Z" fill="#F6C042"/>
<path d="M257.803 187.541V218.983" stroke="#F49C45" stroke-width="2" stroke-miterlimit="10" stroke-linecap="round"/>
<path d="M291.092 147.984C291.092 147.984 313.93 153.945 336.24 180.42" stroke="#F49C45" stroke-width="2" stroke-miterlimit="10" stroke-linecap="round"/>
<path d="M349.931 266.302C364.888 262.83 374.205 247.859 370.741 232.866C367.277 217.872 352.343 208.532 337.386 212.004C322.429 215.477 313.112 230.447 316.577 245.441C320.041 260.435 334.974 269.775 349.931 266.302Z" fill="#020403"/>
<path d="M346.667 251.417C353.446 249.762 357.602 242.911 355.951 236.116C354.3 229.32 347.466 225.153 340.687 226.809C333.909 228.464 329.752 235.315 331.403 242.11C333.054 248.906 339.888 253.073 346.667 251.417Z" fill="white"/>
<path d="M196.787 266.641C211.947 264.207 222.268 249.914 219.839 234.716C217.411 219.519 203.153 209.173 187.994 211.607C172.834 214.041 162.513 228.334 164.941 243.531C167.369 258.729 181.627 269.075 196.787 266.641Z" fill="#020403"/>
<path d="M204.024 244.031C206.725 237.582 203.699 230.16 197.265 227.453C190.832 224.746 183.428 227.779 180.728 234.228C178.027 240.677 181.054 248.1 187.487 250.807C193.92 253.514 201.324 250.48 204.024 244.031Z" fill="white"/>
<path d="M61.6365 243.648C61.3918 243.243 60.9619 243.217 60.6245 243.382C60.4989 243.382 60.3534 243.416 60.1946 243.522C58.1046 244.888 53.8319 244.808 51.3251 244.291L50.6241 244.589C47.2972 245.557 43.9968 246.625 40.7625 247.878C38.7452 248.654 36.1723 249.443 34.7503 251.193C31.0266 255.781 38.2756 255.503 40.9543 255.642C44.7309 255.841 48.5208 255.881 52.304 255.768C54.996 255.689 58.852 256.133 61.3719 255.092C65.7306 253.288 63.29 246.466 61.6365 243.654V243.648Z" fill="#000201"/>
<path d="M61.5109 243.528C60.5717 240.903 60.9156 237.747 61.114 235.015C61.114 234.942 61.1008 234.889 61.0809 234.843C61.2661 234.637 61.0809 234.233 60.7899 234.239C59.6258 234.259 58.5014 234.65 57.344 234.823C55.9087 235.041 54.4735 235.167 53.0316 235.234C52.8133 235.108 52.4694 235.201 52.4826 235.525C52.6149 238.582 52.1123 241.519 51.0672 244.39C51.0143 244.53 51.0606 244.636 51.1334 244.709C51.1664 244.755 51.2061 244.801 51.2723 244.828C53.0581 245.584 54.4867 246.26 56.4908 246.094C58.1377 245.955 59.8904 245.332 61.1074 244.191C61.1802 244.118 61.2132 244.046 61.2331 243.966C61.4249 243.926 61.5968 243.767 61.5109 243.528Z" fill="#F6C1A7"/>
<path d="M61.8414 232.973C59.6654 231.123 55.7962 231.985 53.058 232.25C52.9852 232.217 52.8992 232.224 52.8066 232.27C52.6743 232.283 52.5354 232.29 52.4098 232.303C51.8674 232.336 51.6822 232.8 51.7947 233.172C50.9811 234.14 50.6438 235.373 52.1254 236.142C54.3874 237.309 59.2553 237.375 61.4909 236.275C62.9923 235.539 63.0849 234.034 61.8414 232.973Z" fill="#F59476"/>
<path d="M68.7731 152.499C68.1051 152.579 67.4371 152.652 66.769 152.732C66.6897 152.075 65.638 151.876 65.5322 152.606C65.519 152.698 65.5057 152.791 65.4925 152.877C58.8917 153.62 52.2379 154.323 45.7164 155.53C45.7032 155.065 44.969 155.065 44.9889 155.53C44.9889 155.576 44.9889 155.616 44.9889 155.662C44.7839 155.702 44.5788 155.735 44.3738 155.775C44.1687 155.815 44.215 156.14 44.4201 156.133C44.6119 156.126 44.8103 156.113 45.0021 156.1C45.4651 169.042 45.6106 182.011 45.9612 194.961C46.1397 201.531 46.3315 208.109 46.4903 214.679C46.5961 218.89 46.563 223.379 48.1372 227.35C48.6862 229.717 49.4865 231.965 51.4641 233.563C53.3623 235.101 56.2659 235.36 58.7395 234.69C61.3323 234.524 63.7001 233.099 64.8973 229.923C66.4912 225.693 65.2941 220.746 64.8245 216.417C64.1366 210.045 63.7067 203.646 63.5347 197.241C63.1511 182.814 63.9779 168.134 66.5772 153.918C67.3048 153.832 68.0389 153.739 68.7665 153.653C69.5006 153.567 69.5139 152.393 68.7665 152.48L68.7731 152.499Z" fill="#EC663C"/>
<path d="M53.1904 229.797C51.7817 225.288 51.0673 220.647 50.6242 215.952C50.1612 211.066 49.7974 206.173 49.4932 201.273C48.8913 191.506 48.6201 181.713 48.6797 171.927C48.7127 166.357 48.9508 160.787 49.0368 155.218C49.0368 155.099 48.8648 155.105 48.8516 155.218C48.4812 160.144 48.4085 165.104 48.3556 170.037C48.3026 174.977 48.3291 179.923 48.4415 184.862C48.673 194.788 49.2286 204.701 50.1744 214.587C50.6705 219.732 51.2195 224.963 52.8333 229.903C52.906 230.128 53.2632 230.035 53.1971 229.803L53.1904 229.797Z" fill="#F59476"/>
<path d="M72.2588 255.085C74.7787 256.126 78.6347 255.682 81.3267 255.761C85.1099 255.881 88.8998 255.834 92.6764 255.635C95.3551 255.496 102.604 255.775 98.8804 251.186C97.4584 249.436 94.8789 248.654 92.8682 247.871C89.634 246.618 86.3335 245.551 83.0066 244.583L82.3056 244.284C79.7988 244.808 75.5261 244.881 73.4361 243.515C73.2707 243.409 73.1318 243.376 73.0062 243.376C72.6755 243.203 72.2389 243.237 71.9942 243.641C70.3341 246.452 67.8935 253.275 72.2588 255.079V255.085Z" fill="#000201"/>
<path d="M72.3909 243.966C72.4042 244.046 72.4372 244.118 72.5166 244.191C73.7336 245.338 75.4863 245.955 77.1332 246.094C79.1439 246.267 80.5725 245.59 82.3517 244.828C82.4179 244.801 82.4576 244.755 82.4906 244.709C82.57 244.636 82.6097 244.53 82.5568 244.39C81.5184 241.519 81.0157 238.582 81.1414 235.525C81.1546 235.201 80.8106 235.108 80.5924 235.234C79.1439 235.161 77.7086 235.035 76.28 234.823C75.1292 234.65 73.9982 234.259 72.8341 234.239C72.5364 234.239 72.3579 234.644 72.5431 234.843C72.5166 234.889 72.5034 234.949 72.51 235.015C72.715 237.747 73.0523 240.903 72.1131 243.528C72.0272 243.767 72.1925 243.926 72.3909 243.966Z" fill="#F6C1A7"/>
<path d="M72.1332 236.275C74.3687 237.369 79.2367 237.309 81.4987 236.142C82.9803 235.373 82.6429 234.14 81.8294 233.172C81.9485 232.8 81.7633 232.336 81.2143 232.303C81.0886 232.296 80.9497 232.283 80.8175 232.27C80.7249 232.223 80.6389 232.217 80.5661 232.25C77.8279 231.985 73.9587 231.123 71.7826 232.973C70.5392 234.034 70.6318 235.539 72.1332 236.275Z" fill="#F59476"/>
<path d="M64.8576 152.499C65.5256 152.579 66.1936 152.652 66.8616 152.732C66.941 152.075 67.9926 151.876 68.0985 152.606C68.1117 152.698 68.1249 152.791 68.1382 152.877C74.739 153.62 81.3928 150.225 87.9142 151.432C87.9275 150.968 88.6616 150.968 88.6418 151.432C88.6418 151.478 88.6418 151.518 88.6418 151.565C88.8468 151.604 89.0518 151.637 89.2569 151.677C89.4619 151.717 89.4156 152.042 89.2106 152.035C89.0188 152.029 88.8204 152.015 88.6285 152.002C88.1656 164.945 88.0201 182.011 87.6695 194.961C87.4909 201.531 87.2991 208.109 87.1404 214.679C87.0346 218.89 87.0676 223.379 85.4935 227.35C84.9445 229.717 84.1442 231.965 82.1666 233.563C80.2684 235.101 77.3648 235.36 74.8911 234.69C72.2984 234.524 69.9306 233.099 68.7334 229.923C67.1394 225.693 68.3366 220.746 68.8062 216.417C69.494 210.045 69.924 203.646 70.0959 197.241C70.4795 182.814 69.6528 168.134 67.0534 153.918C66.3259 153.832 65.5917 153.739 64.8642 153.653C64.13 153.567 64.1168 152.393 64.8642 152.48L64.8576 152.499Z" fill="#EC663C"/>
<path d="M85.3479 151.889C85.3347 151.77 85.1561 151.77 85.1627 151.889C86.2143 162.425 85.5596 173.1 85.0767 183.656C84.5939 194.145 84.1838 204.641 83.6216 215.124C83.3108 220.925 82.7816 226.74 81.1943 232.343C81.1414 232.535 81.439 232.615 81.4919 232.422C82.861 227.595 83.4497 222.609 83.7804 217.617C84.1309 212.392 84.3029 207.147 84.541 201.916C85.0238 191.281 85.6521 180.646 85.8903 170.004C86.0291 163.95 85.877 157.916 85.3413 151.883L85.3479 151.889Z" fill="#F59476"/>
<path d="M89.3761 50.7094C88.9131 48.9324 88.265 47.1223 86.8429 45.8957C86.7702 45.8294 86.671 45.8957 86.6644 45.9686C80.0304 45.6636 73.3701 45.783 66.7428 46.0482C60.0427 46.3134 53.3493 46.7974 46.6823 47.5135C46.378 47.5467 46.378 48.0241 46.6823 47.9909C46.7021 47.9909 46.722 47.9909 46.7418 47.9909C48.2498 51.5647 49.5462 55.2048 50.5317 58.9576C51.0145 60.7876 51.451 62.6176 51.8016 64.4741C51.9735 65.3758 52.1257 66.2842 52.258 67.1926C52.4035 68.1805 52.4233 69.2546 52.7143 70.2094C52.7143 70.2293 52.7342 70.2359 52.7408 70.2492C52.6945 70.2492 52.6416 70.2625 52.5953 70.2625C52.4498 70.2757 52.4762 70.4879 52.6217 70.468C55.5981 70.0171 58.6736 69.8713 61.6764 69.6127C64.494 69.374 67.3116 69.1751 70.1292 69.0159C75.8768 68.691 81.6377 68.5319 87.3985 68.5187C87.4911 68.5717 87.6168 68.5651 87.6829 68.4325C89.4621 64.8123 90.2889 60.7346 90.2029 56.7033C90.1566 54.6876 89.8788 52.672 89.3695 50.7226L89.3761 50.7094Z" fill="#C65334"/>
<path d="M56.8481 53.5074C54.0834 49.3568 48.5805 45.9421 43.5604 47.5268C43.5604 47.4605 43.5207 47.3942 43.4413 47.4141C38.1567 48.7004 34.6115 53.4278 33.8708 58.699C33.4938 61.3777 33.6988 64.3017 34.7703 66.8146C35.855 69.3607 37.8789 70.8327 40.4981 71.5554C43.5075 72.3842 46.7021 72.3577 49.7512 71.7543C52.496 71.2106 55.0887 70.1564 56.8679 67.9087C60.208 63.6984 59.7252 57.8172 56.8481 53.5074Z" fill="#EC663C"/>
<path d="M50.5317 53.713C48.8981 52.5924 46.7485 52.1747 44.8436 52.7449C42.7734 53.3682 41.1331 55.1783 40.3394 57.1475C39.5391 59.1366 39.7177 61.6694 41.3845 63.1812C42.8991 64.5537 45.3265 64.6929 46.8874 63.3204C48.3292 62.0474 48.3557 59.5013 46.5567 58.5067C44.923 57.5984 42.7403 59.1963 43.243 61.0396C43.2761 61.1655 43.4745 61.1125 43.4414 60.9865C43.1967 59.9455 43.9375 58.9245 44.9428 58.646C45.882 58.3874 46.7948 58.9443 47.2313 59.7665C48.1837 61.5501 46.8675 63.3934 45.0553 63.8044C42.9189 64.2885 40.9612 62.6905 40.4717 60.6683C39.9955 58.7056 40.8024 56.6701 42.0723 55.1849C43.2232 53.8389 44.7907 52.9505 46.5831 52.9571C48.3028 52.9571 50.0224 53.6931 51.2064 54.9462C53.7197 57.605 53.5147 61.875 51.4511 64.7128C50.3002 66.2908 48.6335 67.5042 46.8146 68.1938C44.9891 68.8833 42.6544 69.1088 41.1331 67.6567C40.8024 67.3451 40.2931 67.8622 40.6371 68.154C44.0698 71.0846 49.4404 68.3396 51.7818 65.2896C54.4274 61.8418 54.3547 56.3054 50.5516 53.6997L50.5317 53.713Z" fill="#F59476"/>
<path d="M92.3986 106.518C92.2928 96.6316 91.3867 86.7655 89.7662 77.0188C89.7266 76.8 89.6869 76.5812 89.6472 76.3624C89.6472 76.2232 89.6472 76.0906 89.6538 75.9513C90.011 74.4728 89.7993 72.9544 89.1974 71.5753C88.999 70.899 88.7278 70.2625 88.3773 69.6856C88.3641 69.6657 88.3574 69.6458 88.3442 69.6326C87.6894 68.5916 86.7634 67.7628 85.4869 67.3119C82.4841 65.4421 78.648 65.2101 75.202 65.23C70.2084 65.2565 65.2148 65.4488 60.2344 65.6742C55.6905 65.8798 50.9813 65.9063 46.5168 66.8743C42.6807 67.7097 39.2612 69.5663 36.8338 72.7024C34.585 75.6132 33.3019 79.1605 32.4553 82.7011C31.4433 86.9114 30.9407 91.261 30.4843 95.5641C29.9552 100.603 29.6377 105.669 29.5451 110.734C29.4459 115.8 29.5716 120.872 29.9155 125.931C30.2264 130.566 30.5835 135.287 31.4566 139.855C32.1841 143.648 33.8641 147.116 37.5283 148.78C41.1065 150.404 45.2138 150.245 49.0566 150.238C54.0436 150.232 59.0373 150.219 64.0243 150.212C68.502 150.205 73.1649 150.464 77.5368 149.29C81.1349 148.329 84.2038 146.214 86.3864 143.19C88.4434 140.339 89.6472 136.944 90.4409 133.55C91.3536 129.638 91.6975 125.62 91.9753 121.622C92.3259 116.596 92.4714 111.557 92.4185 106.518H92.3986Z" fill="#4F2410"/>
<path d="M41.6819 74.8242C33.7318 85.8837 32.0518 100.239 32.065 113.526C32.065 114.017 32.7595 113.997 32.8058 113.526C34.1683 100.159 34.3733 86.6661 42.3962 75.2419C42.7071 74.8043 41.9927 74.3932 41.6819 74.8242Z" fill="#773D26"/>
<path d="M33.3615 127.112C33.3615 126.568 32.581 126.588 32.5347 127.112C32.0982 131.925 31.9791 136.719 35.2862 140.571C35.9277 141.321 37.0058 140.233 36.3709 139.484C33.3879 136.01 33.3482 131.448 33.3681 127.105L33.3615 127.112Z" fill="#773D26"/>
<path d="M41.6819 74.5921C33.7318 85.6516 32.0518 100.006 32.065 113.294C32.065 113.784 32.7595 113.765 32.8058 113.294C34.1683 99.9269 34.3733 86.434 42.3962 75.0098C42.7071 74.5722 41.9927 74.1611 41.6819 74.5921Z" fill="#773D26"/>
<path d="M41.6819 74.8242C33.7318 85.8837 32.0518 100.239 32.065 113.526C32.065 114.017 32.7595 113.997 32.8058 113.526C34.1683 100.159 34.3733 86.6661 42.3962 75.2419C42.7071 74.8043 41.9927 74.3932 41.6819 74.8242Z" fill="#773D26"/>
<path d="M33.3615 127.112C33.3615 126.568 32.581 126.588 32.5347 127.112C32.0982 131.925 31.9791 136.719 35.2862 140.571C35.9277 141.321 37.0058 140.233 36.3709 139.484C33.3879 136.01 33.3482 131.448 33.3681 127.105L33.3615 127.112Z" fill="#773D26"/>
<path d="M33.3615 126.88C33.3615 126.336 32.581 126.356 32.5347 126.88C32.0982 131.693 31.9791 136.487 35.2862 140.339C35.9277 141.088 37.0058 140.001 36.3709 139.252C33.3879 135.778 33.3482 131.216 33.3681 126.873L33.3615 126.88Z" fill="#773D26"/>
<path d="M95.2163 184.412C95.1568 184.372 95.0973 184.332 95.0377 184.292C95.1965 180.891 95.0576 177.476 94.5748 174.101C94.1581 171.191 93.4173 168.048 91.0296 166.098C89.0454 164.481 86.4725 164.361 84.2899 165.648C81.8559 167.086 80.5529 169.685 80.1098 172.411C79.5013 176.203 80.0238 180.261 80.5 184.04C80.4736 184.054 80.4471 184.08 80.414 184.087C80.3545 184.107 80.209 184.14 80.2156 184.04C80.2156 183.967 80.0966 183.947 80.0833 184.02C80.0569 184.213 80.2288 184.286 80.3942 184.272C80.6786 184.252 80.9233 184.02 81.1548 183.875C81.7964 183.463 82.4379 183.059 83.0597 182.615C83.2912 182.449 83.0795 182.078 82.848 182.21C82.6496 179.837 82.3123 177.43 82.3586 175.056C82.3983 172.974 82.8877 170.634 84.5148 169.188C86.0558 167.822 88.5824 167.464 90.0375 169.148C91.3471 170.667 91.3868 172.928 91.486 174.824C91.6249 177.529 91.6646 180.234 91.6447 182.94C91.5654 182.926 91.486 182.907 91.4066 182.9C91.281 182.88 91.2214 183.072 91.3537 183.099C91.4529 183.119 91.5521 183.152 91.6513 183.178C91.6513 183.251 91.6513 183.331 91.6513 183.404C91.6513 183.729 92.154 183.729 92.1606 183.404C92.1606 183.371 92.1606 183.344 92.1606 183.311C92.6236 183.45 93.0866 183.609 93.5231 183.828C93.8604 183.987 94.1845 184.173 94.4954 184.378C94.5086 184.385 94.5219 184.398 94.5417 184.412C94.5417 184.538 94.5417 184.664 94.5285 184.79C94.5086 185.108 95.0047 185.108 95.0245 184.79C95.0245 184.776 95.0245 184.763 95.0245 184.756C95.137 184.843 95.2428 184.929 95.4015 184.896C95.4544 184.882 95.5007 184.823 95.5007 184.763C95.5007 184.584 95.3618 184.504 95.2229 184.412H95.2163Z" fill="#924B44"/>
<path d="M102.333 187.137C100.607 183.245 97.2336 180.712 93.1659 179.644C89.4356 178.663 85.1761 178.955 81.8426 181.023C78.3967 182.137 75.718 185.022 74.1769 188.277C72.0604 192.753 71.7363 197.931 71.8223 202.811C71.8686 205.41 72.0935 208.003 72.4771 210.569C72.8607 213.115 73.2906 215.813 74.2497 218.213C75.718 221.88 79.2301 223.451 82.9472 223.849C86.8363 224.26 91.1817 223.849 94.8723 222.517C96.6383 221.88 98.3183 220.945 99.6345 219.586C101.129 218.048 101.976 216.065 102.472 213.997C103.047 211.59 103.285 209.083 103.537 206.63C103.801 204.058 104.006 201.472 104.086 198.892C104.211 194.941 103.96 190.797 102.333 187.137Z" fill="#4F2410"/>
<path d="M86.3931 181.561C78.7075 183.921 74.3158 192.726 74.6531 200.55C74.673 200.981 75.3145 201.1 75.427 200.656C76.3728 196.837 76.3463 193.111 78.3107 189.557C80.0833 186.361 83.0795 183.47 86.618 182.356C87.1207 182.197 86.909 181.401 86.3997 181.554L86.3931 181.561Z" fill="#773D26"/>
<path d="M96.4201 184.339C95.9174 183.947 95.4081 184.756 95.9174 184.988C100.144 186.898 99.5816 195.14 99.6544 199.005C99.6676 199.668 100.706 199.675 100.686 199.005C100.56 193.986 100.732 187.68 96.4135 184.339H96.4201Z" fill="#773D26"/>
<path d="M97.4187 199.317C89.8918 193.475 77.6426 198.747 75.4136 207.618C74.6596 210.615 74.9573 213.851 75.3806 216.874C75.5922 218.406 75.9362 219.924 76.4984 221.35C78.2312 222.835 80.5462 223.591 82.9471 223.843C86.8361 224.254 91.1816 223.843 94.8722 222.51C96.6382 221.873 98.3182 220.939 99.6344 219.579C101.129 218.041 101.976 216.059 102.472 213.99C102.683 213.121 102.836 212.233 102.968 211.344C102.373 206.948 101.07 202.155 97.4187 199.317Z" fill="#924B44"/>
<path d="M90.4342 198.236C86.7832 198.899 83.8135 199.914 81.2075 202.731C78.9257 205.191 77.6823 208.228 77.2722 211.53C77.206 212.06 78.132 212.186 78.2048 211.656C79.0447 205.417 83.9987 199.635 90.54 199.052C91.1353 198.999 91.0294 198.13 90.4276 198.236H90.4342Z" fill="#892F2B"/>
<path d="M78.218 215.628C78.4098 215.004 77.2722 214.918 77.4177 215.628C77.5367 216.191 77.4045 216.881 77.4177 217.464C77.4309 217.935 77.378 218.439 77.6624 218.837C77.8278 219.069 78.1254 219.016 78.2312 218.764C78.4164 218.32 78.2577 217.816 78.218 217.345C78.1783 216.821 78.0592 216.138 78.218 215.628Z" fill="#892F2B"/>
<path d="M99.5814 209.415C99.2375 206.544 97.8485 204.681 96.4397 202.274C96.1421 201.77 95.3815 202.314 95.7915 202.778C98.8605 206.259 98.4041 211.908 97.3987 216.032C97.2532 216.629 98.1197 217.046 98.4173 216.463C99.5285 214.308 99.8724 211.808 99.5814 209.415Z" fill="#892F2B"/>
<path d="M96.7243 104.867C96.8301 104.807 96.9359 104.754 97.0417 104.688C97.5709 104.356 97.0417 103.534 96.4861 103.766C93.8868 104.893 91.4859 106.789 88.7675 107.691C88.5691 107.532 88.2252 107.612 88.1987 107.877C88.1987 107.877 88.1987 107.883 88.1855 107.883C87.7622 107.996 85.9962 108.507 85.6854 108.573C87.577 116.755 88.6022 125.441 88.5625 133.782C88.536 140.127 89.4554 146.459 89.2437 152.791C89.1776 154.535 89.1379 156.285 89.1115 158.029C86.9751 158.792 85.348 161.238 84.5411 163.307C84.3096 163.91 83.6615 165.376 84.6536 165.654C85.4671 165.873 86.6113 164.912 87.491 164.056C87.0214 165.25 86.4923 166.377 85.778 167.537C85.4737 168.034 85.0173 168.651 84.6337 169.281C84.303 169.831 84.5345 170.587 85.143 170.779C85.3414 170.839 85.5729 170.846 85.8441 170.753C85.8441 170.753 86.5386 172.417 87.9606 171.668C87.9606 171.668 88.0334 172.755 89.2636 172.663C89.9647 172.609 90.5732 172.152 90.8972 171.522C92.2399 168.883 96.5589 160.164 97.6502 154.926C98.3778 151.432 98.8474 147.891 99.1913 144.41C100.527 131.13 99.4889 117.902 96.7243 104.873V104.867ZM85.6854 108.573V108.56C85.6258 108.586 85.6325 108.586 85.6854 108.573Z" fill="#F6C1A7"/>
<path d="M62.1789 68.0943C62.1789 68.0943 48.3356 71.4692 45.5379 79.9163C42.7335 88.3568 37.4158 103.023 37.4158 103.023C37.4158 103.023 41.0601 109.7 48.0644 109.7C48.0644 109.7 41.9663 136.434 41.4041 156.173C41.4041 156.173 70.0628 162.531 89.3958 156.106C89.3958 156.106 89.8058 123.657 87.2859 108.533C87.2859 108.533 95.1302 109.587 98.2123 105.569C98.2123 105.569 99.8526 78.3184 75.7774 67.3252L62.1855 68.0877L62.1789 68.0943Z" fill="#3986B2"/>
<path d="M57.9923 73.9026C57.8666 72.245 57.4499 70.216 56.1271 69.301C55.4392 68.8237 54.4934 68.7043 53.6865 68.9828C52.9788 68.9961 52.324 69.3342 51.9007 70.0437C51.8875 70.0635 51.8809 70.0901 51.8676 70.11C51.8015 70.0768 51.7089 70.11 51.7023 70.2227C51.7023 70.3221 51.6891 70.4282 51.6824 70.5277C51.5369 70.9785 51.5171 71.4758 51.6031 71.94C51.0276 82.7077 50.3067 93.4556 49.1691 104.157C48.5606 109.873 47.8463 115.568 47.0327 121.25C46.6359 124.022 46.206 126.793 45.7695 129.558C45.3858 131.965 44.7773 134.624 45.485 137.024C45.7165 137.813 46.1332 138.562 46.6624 139.166C45.538 140.366 44.0696 141.168 42.3963 141.321C41.3116 141.42 39.8631 140.658 38.8379 141.108C37.5151 141.692 38.0905 143.316 39.0562 143.906C40.7824 144.954 42.8394 145.027 44.6781 144.424C44.9692 144.351 45.2602 144.258 45.538 144.145C46.4176 143.774 47.1783 143.21 47.7801 142.514C48.3886 141.897 48.8781 141.181 49.2088 140.379C50.4787 140.286 51.4906 139.232 52.1124 137.946C53.0317 136.036 53.3426 133.775 53.746 131.667C54.2752 128.908 54.7381 126.13 55.1548 123.346C56.8083 112.385 57.6351 101.273 57.9261 90.1603C57.9989 87.3822 58.0319 84.604 58.0518 81.8259C58.065 79.2003 58.1841 76.5149 57.979 73.9026H57.9923Z" fill="#924B44"/>
<path d="M52.9391 72.1256C53.9775 76.9592 52.8002 82.5751 52.3107 87.4419C51.8279 92.2025 51.1202 96.9499 50.7696 101.717C50.7432 102.088 51.3451 102.175 51.4178 101.803C53.2962 92.1428 54.5132 81.8193 53.7526 72.0129C53.7063 71.4161 52.8134 71.5289 52.9391 72.1256Z" fill="#892F2B"/>
<path d="M56.0675 94.9011C56.1865 100.597 54.9365 106.491 54.3081 112.14C54.2552 112.624 55.0753 112.737 55.1613 112.253C56.1865 106.531 56.1071 100.736 56.881 95.0071C56.967 94.3971 56.0542 94.311 56.0675 94.8944V94.9011Z" fill="#892F2B"/>
<path d="M89.3893 142.501L89.4026 146.472C89.1777 146.625 88.8735 146.651 88.6883 146.413C87.9872 145.511 87.425 144.516 87.0877 143.422C86.7305 142.282 86.7107 140.976 86.3866 139.809C85.7185 139.325 85.163 138.33 84.7926 137.362C83.9923 135.287 83.7277 132.668 83.5359 130.281C83.0928 124.619 82.9208 118.863 82.6562 113.168C82.3917 107.512 82.1139 101.856 81.9287 96.1874C81.7567 90.883 81.7303 85.519 82.2131 80.2479C82.4512 77.6289 82.8216 75.0364 83.3507 72.5301C83.6483 71.1178 84.151 68.8303 85.2952 68.9828C86.0823 68.6181 86.9289 69.2149 87.3654 70.3155C88.1128 72.1919 87.9475 74.8706 87.9938 76.9857C88.1261 82.8072 88.2782 88.6287 88.4237 94.4502C88.7147 106.146 89.0057 117.849 89.2968 129.545C89.3563 131.866 89.5679 134.326 89.31 136.633C89.1777 137.787 88.8536 138.94 88.2716 139.59C88.6287 140.571 89.0123 141.539 89.3893 142.501Z" fill="#924B44"/>
<path d="M85.6591 72.7356C85.7715 72.2184 84.9977 71.993 84.8588 72.5168C83.5955 77.3371 82.7357 82.8403 83.8733 87.7601C83.9262 87.9723 84.2238 87.9126 84.237 87.7137C84.6207 82.6414 84.5611 77.7615 85.6525 72.7422L85.6591 72.7356Z" fill="#892F2B"/>
<path d="M87.2133 134.193C85.7318 127.158 85.2489 120.216 85.0042 113.048C84.9976 112.777 84.6272 112.79 84.5941 113.048C83.6549 120.163 84.6074 127.509 86.6577 134.345C86.7636 134.703 87.2927 134.558 87.2133 134.193Z" fill="#892F2B"/>
<path d="M86.1001 88.2489L77.3497 103.442C76.8091 104.381 77.1299 105.581 78.0663 106.123L83.8057 109.445C84.7421 109.987 85.9395 109.666 86.4801 108.727L95.2305 93.5333C95.7711 92.5946 95.4503 91.3943 94.5139 90.8523L88.7745 87.5305C87.8381 86.9885 86.6408 87.3102 86.1001 88.2489Z" fill="#000201"/>
<path d="M96.9558 79.2666C96.9558 84.2261 90.9832 90.5847 90.9832 90.5847C90.9832 90.5847 85.0107 84.2261 85.0107 79.2666C85.0107 74.307 88.1855 72.6229 90.9832 72.6229C93.781 72.6229 96.9558 74.307 96.9558 79.2666Z" fill="#ED643E"/>
<path d="M94.4359 78.3383C94.4359 80.2478 92.8882 81.7994 90.9833 81.7994C89.0785 81.7994 87.5308 80.2478 87.5308 78.3383C87.5308 76.4287 89.0785 74.8772 90.9833 74.8772C92.8882 74.8772 94.4359 76.4287 94.4359 78.3383Z" fill="white"/>
<path d="M90.54 104.223C90.5665 104.144 90.54 104.058 90.4805 104.005C89.9712 103.415 89.032 103.826 88.4302 104.031C89.3098 103.401 89.9051 102.765 89.4355 102.334C88.9394 101.87 87.4447 102.592 86.9817 102.778C86.6774 102.904 86.3666 103.037 86.0557 103.176C86.8163 102.46 87.3455 101.697 86.6047 101.299C86.0689 101.014 84.9049 101.598 84.422 101.803C83.2447 102.307 82.1799 103.05 80.9959 103.554C81.4457 102.241 82.4113 99.3368 80.7512 99.9203C80.4139 100.033 80.103 100.59 79.8782 100.855C79.3755 101.452 78.8794 102.062 78.2908 102.579C77.3317 103.421 76.2007 104.071 75.0631 104.668C69.9769 106.743 64.9568 108.984 60.1153 111.596C55.5913 114.036 51.3913 116.96 47.0525 119.679C47.1848 116.43 47.4957 113.201 48.0049 109.985C48.0248 109.879 48.0049 109.786 47.9586 109.713C47.2642 109.773 43.051 109.912 38.99 105.165L38.9701 105.185C38.8048 105.185 38.646 105.264 38.5997 105.477C37.3034 111.371 35.7887 117.63 37.2174 123.644C37.7201 125.739 38.5071 128.69 40.1937 130.175C41.7877 131.574 44.5987 131.428 46.53 131.183C52.6943 130.407 57.8599 126.323 62.8205 122.901C69.203 118.499 75.4996 113.93 82.0145 109.727C82.1005 109.74 82.1931 109.733 82.2989 109.674C83.5556 108.924 85.2819 108.732 86.6311 108.149C87.2925 107.864 88.7939 107.479 89.0188 106.71C89.0387 106.63 89.0188 106.537 88.9593 106.484C88.5691 106.126 87.8812 106.106 87.1603 106.219C87.6894 105.961 88.2251 105.715 88.7609 105.443C89.3429 105.152 90.2821 104.893 90.54 104.223Z" fill="#F6C1A7"/>
<path d="M75.6385 67.5374C68.4622 72.6759 62.1458 68.4722 62.1458 68.4722C62.3442 67.6236 62.4566 66.755 62.5228 65.8731C62.5625 65.2963 62.5757 64.7261 62.5625 64.1426C62.4963 58.1155 60.1086 52.2277 60.1086 52.2277L74.5472 58.8515C73.264 62.3391 75.6319 67.5374 75.6319 67.5374H75.6385Z" fill="#F6C1A7"/>
<path d="M74.7919 65.1771C74.9109 65.5882 75.0366 65.9662 75.149 66.2977C67.4503 67.3453 63.0453 62.2863 61.4976 57.1676C61.4778 57.1013 60.1285 52.3009 60.1086 52.2346L74.5009 59.0241C73.9585 60.6486 74.1702 62.6045 74.5472 64.2356C74.6199 64.5671 74.6993 64.8854 74.7919 65.1838V65.1771Z" fill="#F6AA85"/>
<path d="M95.4279 33.53C94.0985 31.0767 89.1313 31.3884 87.0148 31.3088C82.3717 31.1232 77.7154 31.4613 73.1385 32.2702C63.3232 34.0074 54.1098 38.0055 46.0274 43.8337C45.8158 43.9861 45.8025 44.2248 45.8885 44.4105C45.3131 44.4702 45.3462 45.3719 45.9679 45.4249C57.0795 46.446 68.3499 44.2845 79.2036 42.0965C81.7302 41.5859 98.5365 39.2719 95.4279 33.53Z" fill="#301409"/>
<path d="M57.2381 42.8656C57.2381 42.8656 53.0315 40.4256 51.5434 42.6932C50.0552 44.9542 53.5474 50.9149 56.8942 48.4816L57.2447 42.8656H57.2381Z" fill="#F6C1A7"/>
<path d="M83.0593 39.6167C83.0593 39.6167 86.5317 36.2087 88.5358 38.0387C90.5398 39.862 88.6218 46.5057 84.779 44.9741L83.0593 39.6233V39.6167Z" fill="#F6C1A7"/>
<path d="M55.6903 43.8005C55.9417 45.783 56.3914 47.6793 57.0065 49.443C58.4815 53.7196 60.9287 57.2602 63.8984 59.5875C66.7689 61.8485 70.1223 62.9756 73.5417 62.5447C81.9614 61.4904 87.6429 51.3724 86.2143 39.9681C84.7857 28.5572 76.7959 20.1564 68.3695 21.2239C59.9366 22.2848 54.2617 32.3962 55.6903 43.8071V43.8005Z" fill="#F6C1A7"/>
<path d="M85.3413 31.6337C83.2843 29.5517 76.9018 30.0026 74.3355 30.0888C68.6011 30.2745 57.6085 31.4944 55.5449 38.105C55.3994 38.1779 55.2804 38.3105 55.2671 38.5359C55.0952 41.3075 54.6256 44.5696 56.3452 46.9831C56.4378 47.1157 56.5635 47.1621 56.6825 47.1555C56.9537 47.2881 57.3175 47.2218 57.3638 46.8505C57.6945 44.4569 58.3956 42.2423 59.5266 40.1604C59.7779 40.2134 60.0359 40.2599 60.2872 40.293C61.2595 40.419 62.245 40.3991 63.2106 40.2333C64.9501 39.9416 67.1262 39.1327 68.1844 37.6276C68.2109 37.5878 68.2042 37.5414 68.1844 37.5082C68.2373 37.3624 68.2175 37.19 68.0786 37.0308C70.2149 37.0242 72.3711 37.4684 74.3223 38.3304C74.4413 38.3834 74.6001 38.3503 74.6331 38.2044C74.772 37.5812 74.8051 36.7921 74.6199 36.1225C77.4904 36.7192 80.3146 36.885 83.2182 36.4805C84.2831 38.5161 85.0767 40.6312 85.7712 42.8192C85.8903 43.1971 86.426 43.1176 86.4525 42.7264C86.6311 40.1339 87.4512 33.7753 85.3347 31.6337H85.3413Z" fill="#924B44"/>
<path d="M67.8404 43.0247C66.2596 43.2303 65.1286 44.6359 65.327 46.1675C65.3667 46.4593 65.6445 46.6715 65.9421 46.6317C66.2464 46.5919 66.4647 46.32 66.425 46.0283C66.3059 45.0868 67.0004 44.2116 67.9727 44.0856C68.9449 43.9596 69.8378 44.6293 69.9569 45.5708C69.9966 45.8626 70.2744 46.0747 70.572 46.0349C70.8762 45.9952 71.0945 45.7233 71.0548 45.4316C70.8564 43.8999 69.4145 42.8192 67.8338 43.0181L67.8404 43.0247Z" fill="#3F1E17"/>
<path d="M79.739 41.7185C78.2641 41.9108 77.2191 43.3098 77.4175 44.8415C77.4572 45.1332 77.7151 45.3454 77.9995 45.3056C78.2839 45.2724 78.4824 45.0006 78.4427 44.7089C78.3236 43.7673 78.9652 42.8987 79.8713 42.786C80.7841 42.6667 81.6174 43.343 81.7431 44.2845C81.7828 44.5762 82.0407 44.7884 82.3251 44.7486C82.6095 44.7155 82.808 44.4436 82.7683 44.1519C82.5698 42.6203 81.214 41.5263 79.739 41.7185Z" fill="#3F1E17"/>
<path d="M76.2006 47.4406C75.8501 47.8981 74.0709 48.1633 73.5352 47.8251C73.4095 47.7456 73.3235 47.3875 73.2772 46.8836C73.1317 45.2393 73.4293 42.0235 74.1304 41.9307C74.1834 41.9307 74.2296 41.9307 74.2892 41.9639C75.2019 42.3816 76.538 47.0162 76.2006 47.4406Z" fill="#F6AA85"/>
<g style="mix-blend-mode:soft-light" opacity="0.6">
<path d="M76.2005 47.4406C75.85 47.8981 74.0708 48.1633 73.535 47.8251C73.4094 47.7456 73.3234 47.3875 73.2771 46.8836C75.1026 46.0681 74.6859 43.4491 74.2891 41.9639C75.2018 42.3816 76.5378 47.0162 76.2005 47.4406Z" fill="#31282C"/>
</g>
<path d="M71.5576 50.0463C71.5576 50.0463 73.5815 49.9469 75.288 49.7281C76.9944 49.5093 78.972 49.0982 78.972 49.0982C78.972 49.0982 78.3172 51.7504 75.5856 52.1018C72.854 52.4532 71.5576 50.053 71.5576 50.053V50.0463Z" fill="white"/>
<path d="M69.9701 38.6686C68.0124 39.4244 66.0811 40.2333 64.1365 41.0025C63.9976 41.0555 63.9381 41.155 63.9381 41.2544C63.8455 41.3406 63.8058 41.46 63.8984 41.5793C64.7979 42.7065 66.3721 42.0235 67.5494 41.5462C68.3497 41.2213 69.2823 40.9561 69.9966 40.4919C70.6249 40.0875 70.777 39.6366 71.0085 39.0399C71.2202 38.4895 70.3207 38.3768 69.9767 38.6619L69.9701 38.6686Z" fill="#924B44"/>
<path d="M82.4508 38.9736C80.8238 38.5094 79.1769 38.105 77.5498 37.6607C77.4374 37.6276 77.3382 37.6806 77.2654 37.7602C77.153 37.7801 77.0537 37.8596 77.0273 38.0121C76.809 39.4443 78.1649 39.7493 79.1636 40.0145C79.8383 40.1935 80.5526 40.4853 81.2669 40.5052C81.8953 40.5184 82.2789 40.2333 82.8014 39.862C83.2842 39.5239 82.8411 38.9271 82.4508 38.9802V38.9736Z" fill="#924B44"/>
<path d="M81.5779 49.98C81.7962 51.7437 82.7354 53.2356 84.0516 54.2169C85.6191 51.0475 86.4856 47.2019 86.4327 43.0778C83.3108 43.7673 81.1745 46.7378 81.5846 49.98H81.5779Z" fill="#F6A08C"/>
<path d="M57.0066 49.443C58.4815 53.7196 60.9287 57.2602 63.8985 59.5875C66.4383 58.5333 68.0653 55.8745 67.7082 53.0168C67.2782 49.5822 64.1498 47.1488 60.7171 47.5798C59.2421 47.7588 57.9524 48.4484 57.0066 49.443Z" fill="#F6A08C"/>
<path d="M89.8984 29.8501C88.7145 29.8037 87.524 29.7838 86.3335 29.7904C85.7382 25.2685 84.336 21.0516 80.6718 18.0413C77.1201 15.124 72.3447 13.9106 67.8339 14.7593C57.7805 16.6556 52.4892 26.5548 54.0766 36.1556C53.574 36.3744 53.0713 36.5932 52.5752 36.8253C49.6716 38.1978 44.0497 41.0025 45.3659 45.0072C45.5246 45.4846 46.0405 45.4382 46.2588 45.1465C46.2919 45.1133 46.3249 45.0802 46.358 45.0337C48.6465 41.1019 53.7195 39.504 57.7276 37.9657C61.6233 36.4739 65.6512 35.3136 69.7454 34.498C74.0048 33.6427 78.337 33.1719 82.6759 33.0791C86.4393 32.9996 91.8364 32.4559 94.859 35.1611C94.9714 35.3401 95.1368 35.4727 95.322 35.5655C95.5998 35.7843 95.8974 35.7777 96.1421 35.6318C96.4067 35.539 96.6183 35.3202 96.6911 34.9423C97.4716 30.5596 93.2915 29.9893 89.8918 29.8501H89.8984Z" fill="#4F2410"/>
<path d="M85.8838 27.1913C86.0756 28.04 86.2211 28.9086 86.3335 29.7904C72.9995 29.134 54.0833 36.1556 54.0833 36.1556C53.9775 35.4992 53.9047 34.8494 53.8518 34.1864C63.6406 29.0677 74.9705 27.6422 85.8838 27.1913Z" fill="#AF684B"/>
<path d="M89.4355 94.7353H106.414C109.079 94.7353 111.242 96.9035 111.242 99.5755C111.242 102.248 113.405 104.416 116.07 104.416H155.907C160.16 104.416 163.612 100.961 163.612 96.6913V58.7919" stroke="#000201" stroke-width="2" stroke-miterlimit="10"/>
<path d="M163.606 85.1942H257.473C260.217 85.1942 262.446 87.422 262.446 90.1802V94.0325" stroke="#000201" stroke-width="2" stroke-miterlimit="10"/>
<path d="M180.445 30.0557C180.445 44.1055 163.533 62.1137 163.533 62.1137C163.533 62.1137 146.621 44.1055 146.621 30.0557C146.621 16.0058 155.609 11.2452 163.533 11.2452C171.457 11.2452 180.445 16.0124 180.445 30.0557Z" fill="#ED643E"/>
<path d="M170.448 34.3393C174.266 30.5123 174.266 24.3075 170.448 20.4804C166.631 16.6534 160.441 16.6534 156.623 20.4804C152.806 24.3075 152.806 30.5123 156.623 34.3393C160.441 38.1664 166.631 38.1664 170.448 34.3393Z" fill="white"/>
<path d="M270.912 103.448C270.912 110.483 262.446 119.493 262.446 119.493C262.446 119.493 253.98 110.476 253.98 103.448C253.98 96.4194 258.478 94.0325 262.446 94.0325C266.415 94.0325 270.912 96.4194 270.912 103.448Z" fill="#ED643E"/>
<path d="M267.289 102.917C267.722 100.243 265.911 97.7222 263.242 97.2881C260.574 96.8539 258.06 98.6703 257.627 101.345C257.194 104.02 259.006 106.54 261.674 106.974C264.342 107.408 266.856 105.592 267.289 102.917Z" fill="white"/>
</g>
<defs>
<clipPath id="clip0_1_200">
<rect width="415" height="267" fill="white"/>
</clipPath>
</defs>
</svg>
