<svg width="369" height="237" viewBox="0 0 369 237" fill="none" xmlns="http://www.w3.org/2000/svg">
<g clip-path="url(#clip0_203_2953)">
<path d="M20.6422 134.6C20.8598 136.265 21.5538 137.901 22.7417 139.32C25.6763 142.839 32.2277 145.399 35.8974 141.515C39.4671 137.731 34.9976 131.763 32.0101 129.061C29.6577 126.931 26.1468 125.913 23.3945 127.155C23.2945 127.096 23.171 127.09 23.071 127.202C23.0063 127.272 22.9475 127.349 22.8828 127.425C22.1654 127.843 21.5067 128.426 20.9598 129.209C20.8657 129.344 20.848 129.491 20.8833 129.626C20.0482 131.021 20.1129 132.828 20.654 134.6H20.6422Z" fill="#F5E7D7"/>
<path d="M1.17627 219.514H367.789" stroke="#F5B367" stroke-width="4" stroke-miterlimit="10" stroke-linecap="round"/>
<path d="M200.511 30.5159H113.138C109.425 30.5159 106.416 33.5277 106.416 37.243V211.852C106.416 215.567 109.425 218.579 113.138 218.579H200.511C204.223 218.579 207.233 215.567 207.233 211.852V37.243C207.233 33.5277 204.223 30.5159 200.511 30.5159Z" fill="#424543"/>
<path d="M194.595 40.4799H119.054C115.777 40.4799 113.12 43.1386 113.12 46.4183V203.424C113.12 206.703 115.777 209.362 119.054 209.362H194.595C197.872 209.362 200.529 206.703 200.529 203.424V46.4183C200.529 43.1386 197.872 40.4799 194.595 40.4799Z" fill="white"/>
<path d="M143.119 40.4799V86.3332C143.119 88.6992 141.202 90.6178 138.838 90.6178H113.114V46.4183C113.114 43.1342 115.767 40.4799 119.048 40.4799H143.113H143.119Z" fill="#EBF0ED"/>
<path d="M172.694 149.066V190.746H113.12V166.528C124.588 166.528 134.386 159.248 138.144 149.066H172.694Z" fill="#EBF0ED"/>
<path d="M147.494 77.1696V87.0042C147.494 91.277 144.03 94.7435 139.761 94.7435V124.1H159.062V77.1638H147.494V77.1696Z" fill="#96D6B6"/>
<path d="M200.528 149.066H177.528V190.746H200.528V149.066Z" fill="#EBF0ED"/>
<path d="M159.056 195.266C150.294 198.845 148.817 208.879 148.759 209.356H119.054C115.772 209.356 113.12 206.696 113.12 203.418V195.266H159.056Z" fill="#96D6B6"/>
<path d="M179.11 40.4799H147.494V73.9503H179.11V40.4799Z" fill="#EBF0ED"/>
<path d="M200.529 77.1697H163.055V123.994H200.529V77.1697Z" fill="#EBF0ED"/>
<path d="M200.529 128.096H139.761V145.07H200.529V128.096Z" fill="#EBF0ED"/>
<path d="M200.529 46.4183V73.9503H182.998V40.4799H194.595C197.87 40.4799 200.529 43.1342 200.529 46.4183Z" fill="#EBF0ED"/>
<path d="M135.115 94.7671V138.025C135.115 150.608 125.3 160.872 113.12 161.16V94.7612H135.115V94.7671Z" fill="#EBF0ED"/>
<path d="M172.947 195.266C159.062 195.266 154.945 201.105 151.511 209.362H194.595C197.87 209.362 200.529 206.702 200.529 203.424V195.272H172.941L172.947 195.266Z" fill="#EBF0ED"/>
<path d="M158.256 35.1125C158.256 35.9011 157.615 36.5426 156.827 36.5426C156.039 36.5426 155.398 35.9011 155.398 35.1125C155.398 34.3238 156.039 33.6823 156.827 33.6823C157.615 33.6823 158.256 34.3238 158.256 35.1125Z" fill="white"/>
<path d="M250.846 121.151C250.764 118.344 251.052 114.901 250.564 112.164C249.97 108.833 247.159 109.704 245 109.681C243.483 109.663 241.972 109.675 240.454 109.692C233.873 109.616 227.275 110.081 220.741 111.011C218.736 111.293 214.902 110.893 213.478 113.265C212.679 114.601 212.784 116.555 212.726 118.138C212.614 121.157 212.649 124.159 212.69 127.143C212.702 127.825 213.255 128.443 213.79 128.208C213.978 128.126 214.172 128.055 214.366 127.973C214.59 129.25 214.949 130.386 216.007 130.774C218.171 131.563 221.235 130.703 223.482 130.662C226.487 130.603 229.492 130.592 232.503 130.633C238.514 130.715 244.518 130.957 250.505 131.357C250.811 131.374 251.14 130.986 251.128 130.586L250.852 121.151H250.846Z" fill="white"/>
<path d="M221.294 115.543H219.083V114.242H225.099V115.543H222.888V121.151H221.288V115.543H221.294Z" fill="black"/>
<path d="M230.827 119.668H227.622L227.011 121.151H225.376L228.451 114.242H230.028L233.115 121.151H231.439L230.827 119.668ZM230.322 118.456L229.228 115.813L228.134 118.456H230.322Z" fill="black"/>
<path d="M238.496 121.151L236.832 118.756L235.197 121.151H233.362L235.914 117.638L233.486 114.242H235.303L236.891 116.484L238.449 114.242H240.172L237.767 117.579L240.343 121.151H238.496Z" fill="black"/>
<path d="M241.636 114.242H243.236V121.151H241.636V114.242Z" fill="black"/>
<path d="M362.366 204.354C362.366 204.354 369.859 167.84 335.114 161.213L300.369 154.586C300.369 154.586 276.522 127.996 260.173 126.631C243.824 125.265 194.771 121.175 181.145 130.721C167.519 140.267 157.98 161.213 157.98 161.213C157.98 161.213 125.282 162.355 119.83 172.449C114.378 182.542 115.743 204.359 115.743 204.359H362.36L362.366 204.354Z" fill="#F6C042"/>
<path d="M293.806 161.837C293.806 161.837 271.664 137.377 256.674 135.877C241.683 134.376 194.9 131.975 188.308 137.077C181.715 142.18 170.018 161.384 170.018 161.384L293.812 161.837H293.806Z" fill="#020403"/>
<path d="M234.062 168.776H241.736C242.924 168.776 243.889 167.811 243.889 166.622C243.889 165.433 242.924 164.468 241.736 164.468H234.062C232.874 164.468 231.909 165.433 231.909 166.622C231.909 167.811 232.874 168.776 234.062 168.776Z" fill="#020403"/>
<path d="M170.859 168.776H178.534C179.722 168.776 180.686 167.811 180.686 166.622C180.686 165.433 179.722 164.468 178.534 164.468H170.859C169.671 164.468 168.707 165.433 168.707 166.622C168.707 167.811 169.671 168.776 170.859 168.776Z" fill="#020403"/>
<path d="M116.637 211.222H364.207C366.853 211.222 369 209.074 369 206.425C369 203.777 366.853 201.629 364.207 201.629H116.637C113.99 201.629 111.844 203.777 111.844 206.425C111.844 209.074 113.99 211.222 116.637 211.222Z" fill="#020403"/>
<path d="M119.836 172.443C120.583 171.06 121.859 169.847 123.476 168.776H131.721C134.574 168.776 136.891 171.089 136.891 173.949C136.891 176.81 134.579 179.123 131.721 179.123H117.437C118.03 176.633 118.813 174.332 119.836 172.443Z" fill="white"/>
<path d="M329.192 170.854C332.209 174.238 347.758 172.378 354.609 171.372C353.845 170.53 353.021 169.718 352.122 168.935C348.07 165.422 342.565 162.626 335.12 161.208C334.567 161.102 334.026 161.002 333.497 160.896C332.126 160.637 330.815 160.384 329.551 160.148C328.169 163.214 326.669 168.041 329.192 170.854Z" fill="white"/>
<path d="M329.192 170.854C332.209 174.238 347.758 172.378 354.609 171.372C353.845 170.53 353.021 169.718 352.122 168.935C338.819 170.795 334.72 164.286 333.497 160.896C332.126 160.637 330.815 160.384 329.551 160.148C328.169 163.214 326.669 168.041 329.192 170.854Z" fill="#EBF0ED"/>
<path d="M226.61 166.469H231.909V132.128H226.61V166.469Z" fill="#F6C042"/>
<path d="M229.227 166.469V194.378" stroke="#F49C45" stroke-width="2" stroke-miterlimit="10" stroke-linecap="round"/>
<path d="M258.826 131.357C258.826 131.357 279.133 136.648 298.97 160.148" stroke="#F49C45" stroke-width="2" stroke-miterlimit="10" stroke-linecap="round"/>
<path d="M311.143 236.381C324.442 233.298 332.727 220.01 329.646 206.701C326.566 193.392 313.288 185.101 299.989 188.184C286.69 191.266 278.406 204.554 281.486 217.864C284.566 231.173 297.844 239.463 311.143 236.381Z" fill="#020403"/>
<path d="M308.241 223.168C314.269 221.699 317.965 215.618 316.496 209.586C315.028 203.554 308.952 199.855 302.924 201.325C296.897 202.794 293.201 208.875 294.669 214.907C296.138 220.939 302.214 224.638 308.241 223.168Z" fill="white"/>
<path d="M174.974 236.681C188.454 234.521 197.631 221.833 195.472 208.344C193.313 194.854 180.635 185.67 167.156 187.831C153.676 189.992 144.5 202.679 146.659 216.168C148.818 229.658 161.495 238.842 174.974 236.681Z" fill="#020403"/>
<path d="M181.409 216.612C183.81 210.887 181.12 204.299 175.4 201.896C169.68 199.493 163.096 202.186 160.695 207.911C158.294 213.635 160.985 220.224 166.705 222.626C172.425 225.029 179.008 222.336 181.409 216.612Z" fill="white"/>
<path d="M54.8045 216.272C54.5869 215.913 54.2046 215.889 53.9047 216.036C53.793 216.036 53.6636 216.066 53.5225 216.16C51.6641 217.372 47.865 217.302 45.6361 216.842L45.0127 217.107C42.0546 217.967 39.12 218.914 36.2442 220.026C34.4505 220.715 32.1629 221.415 30.8985 222.969C27.5875 227.042 34.033 226.795 36.4148 226.918C39.7728 227.095 43.1426 227.13 46.5065 227.03C48.9 226.96 52.3286 227.354 54.5693 226.43C58.4448 224.829 56.2747 218.773 54.8045 216.277V216.272Z" fill="#000201"/>
<path d="M54.6928 216.166C53.8577 213.835 54.1635 211.034 54.3399 208.609C54.3399 208.544 54.3281 208.497 54.3105 208.456C54.4752 208.273 54.3105 207.914 54.0517 207.92C53.0167 207.938 52.0169 208.285 50.9878 208.438C49.7116 208.632 48.4354 208.744 47.1534 208.803C46.9593 208.691 46.6535 208.774 46.6653 209.062C46.7829 211.775 46.3359 214.382 45.4067 216.931C45.3597 217.054 45.4009 217.148 45.4656 217.213C45.495 217.254 45.5302 217.296 45.5891 217.319C47.1769 217.99 48.4472 218.59 50.2291 218.443C51.6935 218.32 53.2519 217.766 54.334 216.754C54.3987 216.689 54.4281 216.625 54.4458 216.554C54.6163 216.519 54.7692 216.377 54.6928 216.166Z" fill="#F6C1A7"/>
<path d="M54.9869 206.796C53.0521 205.154 49.6118 205.919 47.177 206.155C47.1124 206.125 47.0359 206.131 46.9536 206.172C46.8359 206.184 46.7124 206.19 46.6007 206.202C46.1185 206.231 45.9538 206.643 46.0538 206.973C45.3304 207.832 45.0305 208.927 46.3478 209.609C48.3591 210.645 52.6875 210.704 54.6753 209.727C56.0102 209.074 56.0926 207.738 54.9869 206.796Z" fill="#F59476"/>
<path d="M61.1501 135.365C60.5561 135.435 59.9621 135.5 59.3682 135.571C59.2976 134.988 58.3625 134.811 58.2684 135.459C58.2567 135.541 58.2449 135.624 58.2331 135.7C52.364 136.359 46.4477 136.983 40.6491 138.054C40.6374 137.642 39.9846 137.642 40.0022 138.054C40.0022 138.096 40.0022 138.131 40.0022 138.172C39.8199 138.207 39.6376 138.237 39.4553 138.272C39.273 138.307 39.3141 138.596 39.4964 138.59C39.667 138.584 39.8434 138.572 40.014 138.56C40.4256 150.049 40.555 161.561 40.8667 173.055C41.0255 178.887 41.196 184.726 41.3372 190.558C41.4313 194.295 41.4019 198.28 42.8015 201.805C43.2897 203.906 44.0012 205.901 45.7597 207.32C47.4475 208.685 50.0292 208.915 52.2287 208.32C54.534 208.173 56.6394 206.908 57.7039 204.089C59.1212 200.334 58.0567 195.943 57.6392 192.1C57.0275 186.444 56.6453 180.765 56.4924 175.08C56.1513 162.273 56.8864 149.243 59.1976 136.624C59.8445 136.548 60.4973 136.465 61.1442 136.389C61.797 136.312 61.8088 135.271 61.1442 135.347L61.1501 135.365Z" fill="#EC663C"/>
<path d="M47.2947 203.977C46.0421 199.975 45.4069 195.855 45.0129 191.688C44.6012 187.351 44.2778 183.007 44.0072 178.658C43.4721 169.989 43.231 161.296 43.2839 152.609C43.3133 147.665 43.525 142.721 43.6015 137.778C43.6015 137.672 43.4486 137.678 43.4368 137.778C43.1075 142.151 43.0428 146.553 42.9957 150.932C42.9487 155.316 42.9722 159.707 43.0722 164.091C43.278 172.902 43.772 181.701 44.613 190.476C45.0541 195.043 45.5422 199.686 46.9771 204.071C47.0418 204.271 47.3594 204.189 47.3006 203.983L47.2947 203.977Z" fill="#F59476"/>
<path d="M64.2492 226.424C66.4899 227.348 69.9184 226.954 72.312 227.024C75.6759 227.13 79.0457 227.089 82.4037 226.912C84.7855 226.789 91.231 227.036 87.92 222.963C86.6556 221.41 84.3621 220.715 82.5742 220.021C79.6985 218.908 76.7639 217.961 73.8058 217.101L73.1824 216.837C70.9535 217.301 67.1544 217.366 65.296 216.154C65.149 216.06 65.0255 216.03 64.9138 216.03C64.6197 215.877 64.2316 215.907 64.014 216.266C62.5379 218.761 60.3678 224.817 64.2492 226.418V226.424Z" fill="#000201"/>
<path d="M64.3668 216.554C64.3786 216.625 64.408 216.689 64.4786 216.754C65.5607 217.772 67.1191 218.32 68.5835 218.443C70.3713 218.596 71.6416 217.996 73.2235 217.319C73.2824 217.296 73.3176 217.254 73.347 217.213C73.4176 217.149 73.4529 217.054 73.4059 216.931C72.4825 214.382 72.0356 211.775 72.1473 209.062C72.1591 208.774 71.8533 208.691 71.6592 208.803C70.3713 208.738 69.0951 208.626 67.8248 208.438C66.8016 208.285 65.7959 207.938 64.7609 207.92C64.4962 207.92 64.3374 208.279 64.5021 208.456C64.4786 208.497 64.4668 208.55 64.4727 208.609C64.655 211.034 64.9549 213.835 64.1198 216.166C64.0434 216.378 64.1904 216.519 64.3668 216.554Z" fill="#F6C1A7"/>
<path d="M64.1376 209.727C66.1253 210.698 70.4537 210.645 72.465 209.609C73.7823 208.927 73.4824 207.832 72.7591 206.973C72.8649 206.643 72.7002 206.231 72.2121 206.202C72.1004 206.196 71.9769 206.184 71.8593 206.172C71.7769 206.131 71.7005 206.125 71.6358 206.155C69.2011 205.919 65.7607 205.154 63.8259 206.796C62.7203 207.738 62.8026 209.074 64.1376 209.727Z" fill="#F59476"/>
<path d="M57.6685 135.365C58.2625 135.435 58.8565 135.5 59.4505 135.571C59.521 134.988 60.4561 134.811 60.5502 135.459C60.562 135.541 60.5737 135.624 60.5855 135.7C66.4547 136.359 72.3709 133.346 78.1695 134.417C78.1813 134.005 78.8341 134.005 78.8164 134.417C78.8164 134.458 78.8164 134.494 78.8164 134.535C78.9987 134.57 79.181 134.6 79.3634 134.635C79.5457 134.67 79.5045 134.959 79.3222 134.953C79.1516 134.947 78.9752 134.935 78.8047 134.923C78.393 146.412 78.2636 161.561 77.9519 173.055C77.7931 178.887 77.6226 184.726 77.4815 190.558C77.3874 194.295 77.4168 198.28 76.0171 201.805C75.529 203.906 74.8174 205.901 73.059 207.32C71.3712 208.685 68.7894 208.915 66.5899 208.32C64.2846 208.173 62.1792 206.908 61.1148 204.089C59.6975 200.334 60.7619 195.943 61.1795 192.1C61.7911 186.444 62.1734 180.765 62.3263 175.08C62.6674 162.273 61.9322 149.243 59.621 136.624C58.9741 136.548 58.3213 136.465 57.6744 136.389C57.0216 136.312 57.0099 135.271 57.6744 135.347L57.6685 135.365Z" fill="#EC663C"/>
<path d="M75.8878 134.823C75.876 134.717 75.7172 134.717 75.7231 134.823C76.6582 144.175 76.076 153.651 75.6467 163.02C75.2174 172.331 74.8527 181.648 74.3529 190.952C74.0764 196.102 73.606 201.264 72.1945 206.237C72.1475 206.408 72.4121 206.478 72.4592 206.308C73.6765 202.023 74.1999 197.597 74.494 193.165C74.8057 188.528 74.9586 183.872 75.1703 179.229C75.5996 169.789 76.1583 160.348 76.37 150.902C76.4935 145.529 76.3583 140.173 75.8819 134.817L75.8878 134.823Z" fill="#F59476"/>
<path d="M79.4693 45.0117C79.0577 43.4345 78.4813 41.8277 77.2169 40.7389C77.1522 40.6801 77.064 40.7389 77.0581 40.8037C71.1596 40.5329 65.2374 40.6389 59.3447 40.8743C53.3873 41.1097 47.4358 41.5393 41.5078 42.175C41.2373 42.2044 41.2373 42.6281 41.5078 42.5987C41.5255 42.5987 41.5431 42.5987 41.5608 42.5987C42.9016 45.771 44.0543 49.0021 44.9305 52.3332C45.3598 53.9576 45.748 55.582 46.0597 57.2299C46.2126 58.0303 46.3478 58.8366 46.4655 59.6429C46.5948 60.5198 46.6125 61.4733 46.8712 62.3208C46.8712 62.3384 46.8889 62.3443 46.8948 62.3561C46.8536 62.3561 46.8066 62.3678 46.7654 62.3678C46.636 62.3796 46.6595 62.5679 46.7889 62.5503C49.4353 62.1501 52.17 62.0206 54.8399 61.7911C57.3452 61.5792 59.8505 61.4026 62.3558 61.2614C67.4663 60.973 72.5886 60.8317 77.7109 60.82C77.7933 60.8671 77.905 60.8612 77.9638 60.7435C79.5458 57.53 80.2809 53.9105 80.2045 50.3322C80.1633 48.543 79.9163 46.7538 79.4634 45.0235L79.4693 45.0117Z" fill="#C65334"/>
<path d="M50.5467 47.4954C48.0885 43.8111 43.1955 40.7801 38.7319 42.1867C38.7319 42.1279 38.6966 42.069 38.626 42.0867C33.9272 43.2285 30.775 47.4248 30.1163 52.1037C29.7811 54.4814 29.9634 57.0769 30.9161 59.3074C31.8806 61.5674 33.6802 62.874 36.009 63.5155C38.6849 64.2512 41.5254 64.2276 44.2365 63.6921C46.6771 63.2095 48.9824 62.2737 50.5644 60.2785C53.5343 56.5413 53.1049 51.3209 50.5467 47.4954Z" fill="#EC663C"/>
<path d="M44.9305 47.6778C43.4779 46.6832 41.5666 46.3124 39.8729 46.8186C38.0322 47.3718 36.5737 48.9785 35.868 50.7265C35.1564 52.4921 35.3152 54.7403 36.7972 56.0822C38.1439 57.3005 40.3022 57.4241 41.6901 56.2058C42.9722 55.0758 42.9957 52.8158 41.3961 51.933C39.9435 51.1267 38.0028 52.5451 38.4497 54.1812C38.4791 54.293 38.6556 54.246 38.6261 54.1341C38.4086 53.2101 39.0672 52.3038 39.9611 52.0566C40.7962 51.827 41.6078 52.3214 41.9959 53.0512C42.8428 54.6344 41.6725 56.2705 40.0611 56.6354C38.1616 57.0651 36.4208 55.6467 35.9856 53.8516C35.5622 52.1095 36.2797 50.3027 37.4088 48.9844C38.4321 47.7897 39.8259 47.001 41.4196 47.0069C42.9486 47.0069 44.4777 47.6602 45.5304 48.7725C47.7651 51.1326 47.5828 54.9228 45.748 57.4417C44.7247 58.8425 43.2427 59.9195 41.6254 60.5316C40.0023 61.1437 37.9263 61.3438 36.5737 60.0549C36.2797 59.7783 35.8268 60.2373 36.1326 60.4963C39.1848 63.0976 43.9602 60.6611 46.042 57.9538C48.3944 54.8934 48.3297 49.979 44.9482 47.6661L44.9305 47.6778Z" fill="#F59476"/>
<path d="M82.1569 94.5493C82.0628 85.7742 81.2571 77.0167 79.8162 68.3651C79.781 68.1709 79.7457 67.9767 79.7104 67.7824C79.7104 67.6588 79.7104 67.5411 79.7163 67.4175C80.0338 66.1051 79.8456 64.7573 79.3105 63.5332C79.1341 62.9329 78.8929 62.3679 78.5812 61.8558C78.5695 61.8382 78.5636 61.8205 78.5518 61.8087C77.9696 60.8847 77.1463 60.1491 76.0113 59.7488C73.3413 58.0892 69.9304 57.8832 66.8664 57.9008C62.4263 57.9244 57.9862 58.095 53.5578 58.2951C49.5176 58.4776 45.3304 58.5011 41.3607 59.3604C37.9498 60.102 34.9093 61.7499 32.751 64.5337C30.7515 67.1174 29.6106 70.2661 28.8578 73.4089C27.9581 77.1462 27.5111 81.007 27.1053 84.8266C26.6348 89.2995 26.3526 93.796 26.2702 98.2925C26.182 102.789 26.2937 107.291 26.5996 111.782C26.876 115.896 27.1935 120.086 27.9698 124.141C28.6167 127.508 30.1105 130.586 33.3685 132.063C36.5501 133.505 40.2022 133.364 43.619 133.358C48.0532 133.352 52.4934 133.34 56.9276 133.334C60.909 133.328 65.0551 133.558 68.9424 132.516C72.1416 131.663 74.8704 129.785 76.8111 127.102C78.64 124.571 79.7104 121.558 80.4161 118.544C81.2277 115.072 81.5335 111.505 81.7805 107.956C82.0922 103.495 82.2215 99.0223 82.1745 94.5493H82.1569Z" fill="#4F2410"/>
<path d="M37.0617 66.417C29.9928 76.2339 28.499 88.9759 28.5108 100.77C28.5108 101.206 29.1283 101.188 29.1695 100.77C30.381 88.9052 30.5633 76.9284 37.6968 66.7878C37.9733 66.3994 37.3381 66.0345 37.0617 66.417Z" fill="#773D26"/>
<path d="M29.6635 112.829C29.6635 112.347 28.9695 112.365 28.9283 112.829C28.5402 117.102 28.4343 121.357 31.3748 124.777C31.9453 125.442 32.9039 124.477 32.3393 123.812C29.687 120.728 29.6517 116.679 29.6693 112.824L29.6635 112.829Z" fill="#773D26"/>
<path d="M37.0617 66.211C29.9928 76.0279 28.499 88.7699 28.5108 100.564C28.5108 101 29.1283 100.982 29.1695 100.564C30.381 88.6992 30.5633 76.7224 37.6968 66.5818C37.9733 66.1934 37.3381 65.8285 37.0617 66.211Z" fill="#773D26"/>
<path d="M37.0617 66.417C29.9928 76.2339 28.499 88.9759 28.5108 100.77C28.5108 101.206 29.1283 101.188 29.1695 100.77C30.381 88.9052 30.5633 76.9284 37.6968 66.7878C37.9733 66.3994 37.3381 66.0345 37.0617 66.417Z" fill="#773D26"/>
<path d="M29.6635 112.829C29.6635 112.347 28.9695 112.365 28.9283 112.829C28.5402 117.102 28.4343 121.357 31.3748 124.777C31.9453 125.442 32.9039 124.477 32.3393 123.812C29.687 120.728 29.6517 116.679 29.6693 112.824L29.6635 112.829Z" fill="#773D26"/>
<path d="M29.6635 112.623C29.6635 112.141 28.9695 112.159 28.9283 112.623C28.5402 116.896 28.4343 121.151 31.3748 124.571C31.9453 125.236 32.9039 124.271 32.3393 123.606C29.687 120.522 29.6517 116.473 29.6693 112.618L29.6635 112.623Z" fill="#773D26"/>
<path d="M84.6622 163.691C84.6093 163.656 84.5564 163.621 84.5034 163.585C84.6446 160.566 84.5211 157.535 84.0918 154.539C83.7213 151.956 83.0626 149.166 80.9396 147.436C79.1753 146 76.8876 145.894 74.9469 147.036C72.7827 148.313 71.6242 150.62 71.2301 153.039C70.6891 156.405 71.1537 160.007 71.5771 163.362C71.5536 163.373 71.5301 163.397 71.5007 163.403C71.4477 163.421 71.3184 163.45 71.3242 163.362C71.3242 163.297 71.2184 163.279 71.2066 163.344C71.1831 163.515 71.336 163.579 71.483 163.568C71.7359 163.55 71.9535 163.344 72.1593 163.215C72.7298 162.85 73.3002 162.491 73.8531 162.096C74.0589 161.949 73.8707 161.62 73.6649 161.737C73.4884 159.63 73.1885 157.494 73.2297 155.387C73.265 153.539 73.7001 151.461 75.1469 150.178C76.5171 148.966 78.7636 148.648 80.0575 150.143C81.2219 151.491 81.2572 153.498 81.3454 155.181C81.4689 157.582 81.5042 159.983 81.4865 162.385C81.4159 162.373 81.3454 162.355 81.2748 162.349C81.1631 162.332 81.1101 162.502 81.2278 162.526C81.316 162.544 81.4042 162.573 81.4924 162.597C81.4924 162.661 81.4924 162.732 81.4924 162.797C81.4924 163.085 81.9393 163.085 81.9452 162.797C81.9452 162.767 81.9452 162.744 81.9452 162.714C82.3569 162.838 82.7686 162.979 83.1567 163.173C83.4566 163.315 83.7448 163.479 84.0212 163.662C84.033 163.668 84.0447 163.68 84.0624 163.691C84.0624 163.803 84.0624 163.915 84.0506 164.027C84.033 164.309 84.474 164.309 84.4917 164.027C84.4917 164.015 84.4917 164.003 84.4917 163.997C84.5917 164.074 84.6858 164.15 84.8269 164.121C84.8739 164.109 84.9151 164.056 84.9151 164.003C84.9151 163.844 84.7916 163.774 84.6681 163.691H84.6622Z" fill="#924B44"/>
<path d="M90.99 166.11C89.4551 162.655 86.4558 160.407 82.839 159.46C79.5222 158.589 75.7349 158.848 72.7709 160.684C69.7069 161.673 67.3251 164.233 65.9548 167.123C64.0729 171.095 63.7848 175.692 63.8612 180.023C63.9024 182.33 64.1024 184.632 64.4434 186.909C64.7845 189.169 65.1668 191.565 66.0195 193.695C67.3251 196.95 70.4479 198.345 73.753 198.698C77.211 199.063 81.0748 198.698 84.3563 197.515C85.9265 196.95 87.4203 196.12 88.5906 194.913C89.9197 193.548 90.6725 191.788 91.1135 189.952C91.6252 187.816 91.8369 185.591 92.0604 183.413C92.2956 181.13 92.4779 178.835 92.5485 176.545C92.6602 173.037 92.4368 169.359 90.99 166.11Z" fill="#4F2410"/>
<path d="M76.8168 161.161C69.9832 163.256 66.0782 171.072 66.3782 178.016C66.3958 178.399 66.9663 178.505 67.0662 178.111C67.9072 174.721 67.8837 171.413 69.6303 168.258C71.2064 165.422 73.8705 162.856 77.0168 161.867C77.4637 161.726 77.2756 161.019 76.8227 161.155L76.8168 161.161Z" fill="#773D26"/>
<path d="M85.7323 163.627C85.2854 163.279 84.8325 163.997 85.2854 164.203C89.0433 165.898 88.5434 173.214 88.6081 176.645C88.6199 177.234 89.5432 177.24 89.5255 176.645C89.4138 172.19 89.5667 166.593 85.7264 163.627H85.7323Z" fill="#773D26"/>
<path d="M86.6206 176.922C79.928 171.737 69.0365 176.416 67.0547 184.29C66.3842 186.95 66.6489 189.823 67.0252 192.506C67.2134 193.866 67.5193 195.214 68.0191 196.479C69.5599 197.797 71.6183 198.468 73.7531 198.692C77.2111 199.057 81.0748 198.692 84.3564 197.509C85.9266 196.944 87.4204 196.114 88.5907 194.908C89.9198 193.542 90.6725 191.782 91.1136 189.946C91.3018 189.175 91.4371 188.387 91.5547 187.598C91.0254 183.696 89.8668 179.441 86.6206 176.922Z" fill="#924B44"/>
<path d="M80.4102 175.962C77.1639 176.551 74.5234 177.451 72.2063 179.953C70.1773 182.136 69.0717 184.832 68.7071 187.763C68.6483 188.234 69.4716 188.345 69.5363 187.875C70.2832 182.336 74.688 177.204 80.5043 176.686C81.0336 176.639 80.9395 175.868 80.4043 175.962H80.4102Z" fill="#892F2B"/>
<path d="M69.548 191.4C69.7186 190.847 68.707 190.77 68.8364 191.4C68.9423 191.9 68.8247 192.512 68.8364 193.03C68.8482 193.448 68.8011 193.895 69.054 194.248C69.201 194.454 69.4657 194.407 69.5598 194.184C69.7244 193.789 69.5833 193.342 69.548 192.924C69.5127 192.459 69.4069 191.853 69.548 191.4Z" fill="#892F2B"/>
<path d="M88.5437 185.885C88.2379 183.337 87.0029 181.683 85.7502 179.547C85.4856 179.099 84.8093 179.582 85.1739 179.994C87.9026 183.084 87.4969 188.098 86.6029 191.759C86.4736 192.289 87.244 192.659 87.5086 192.141C88.4966 190.229 88.8024 188.01 88.5437 185.885Z" fill="#892F2B"/>
<path d="M86.003 93.0839C86.0971 93.0309 86.1912 92.9838 86.2853 92.925C86.7558 92.6307 86.2853 91.9009 85.7913 92.1069C83.4801 93.1074 81.3453 94.7907 78.9283 95.5911C78.7518 95.4498 78.446 95.5204 78.4225 95.7559C78.4225 95.7559 78.4225 95.7618 78.4107 95.7618C78.0343 95.8618 76.4641 96.315 76.1877 96.3738C77.8697 103.636 78.7812 111.346 78.7459 118.75C78.7224 124.383 79.5399 130.003 79.3517 135.624C79.2929 137.172 79.2576 138.725 79.2341 140.273C77.3345 140.95 75.8878 143.122 75.1703 144.958C74.9645 145.494 74.3882 146.794 75.2703 147.041C75.9937 147.236 77.0111 146.382 77.7932 145.623C77.3757 146.682 76.9052 147.683 76.2701 148.713C75.9995 149.154 75.5938 149.702 75.2527 150.261C74.9586 150.749 75.1644 151.42 75.7055 151.591C75.8819 151.644 76.0877 151.65 76.3289 151.567C76.3289 151.567 76.9464 153.045 78.2108 152.379C78.2108 152.379 78.2755 153.345 79.3693 153.262C79.9927 153.215 80.5337 152.809 80.8219 152.25C82.0157 149.908 85.856 142.168 86.8264 137.519C87.4733 134.417 87.8908 131.274 88.1966 128.185C89.3846 116.396 88.4613 104.655 86.003 93.0898V93.0839ZM76.1877 96.3738V96.3621C76.1348 96.3856 76.1407 96.3856 76.1877 96.3738Z" fill="#F6C1A7"/>
<path d="M55.2868 60.4433C55.2868 60.4433 42.978 63.439 40.4904 70.937C37.9968 78.4292 33.2686 91.4477 33.2686 91.4477C33.2686 91.4477 36.509 97.3743 42.7369 97.3743C42.7369 97.3743 37.3146 121.104 36.8148 138.625C36.8148 138.625 62.2969 144.269 79.4869 138.566C79.4869 138.566 79.8515 109.763 77.6109 96.3385C77.6109 96.3385 84.5857 97.2743 87.3262 93.7077C87.3262 93.7077 88.7847 69.5186 67.378 59.7606L55.2927 60.4374L55.2868 60.4433Z" fill="#3986B2"/>
<path d="M51.5641 65.599C51.4524 64.1276 51.0819 62.3267 49.9057 61.5145C49.2941 61.0907 48.4531 60.9848 47.7356 61.232C47.1063 61.2437 46.5241 61.5439 46.1478 62.1736C46.136 62.1913 46.1301 62.2148 46.1183 62.2325C46.0595 62.2031 45.9772 62.2325 45.9713 62.3326C45.9713 62.4208 45.9596 62.515 45.9537 62.6033C45.8243 63.0035 45.8067 63.4449 45.8831 63.8569C45.3715 73.4148 44.7304 82.9551 43.7189 92.4541C43.1779 97.5274 42.5427 102.583 41.8194 107.627C41.4665 110.087 41.0843 112.547 40.6961 115.001C40.355 117.138 39.814 119.498 40.4432 121.628C40.6491 122.329 41.0196 122.994 41.49 123.529C40.4903 124.594 39.1847 125.307 37.6968 125.442C36.7324 125.53 35.4444 124.853 34.5329 125.254C33.3567 125.771 33.8683 127.213 34.727 127.737C36.2619 128.667 38.0909 128.732 39.7258 128.196C39.9845 128.132 40.2433 128.049 40.4903 127.949C41.2724 127.62 41.9488 127.119 42.4839 126.501C43.025 125.954 43.4602 125.318 43.7542 124.606C44.8833 124.524 45.7831 123.588 46.3359 122.446C47.1534 120.751 47.4298 118.744 47.7885 116.873C48.259 114.424 48.6707 111.958 49.0412 109.487C50.5114 99.7579 51.2465 89.894 51.5053 80.03C51.57 77.564 51.5994 75.098 51.617 72.632C51.6288 70.3014 51.7347 67.9178 51.5523 65.599H51.5641Z" fill="#924B44"/>
<path d="M47.0711 64.0217C47.9944 68.3121 46.9476 73.2971 46.5124 77.617C46.0831 81.8427 45.4538 86.0567 45.1421 90.2883C45.1186 90.6179 45.6538 90.6944 45.7184 90.3648C47.3886 81.7898 48.4707 72.6262 47.7944 63.9216C47.7532 63.3919 46.9593 63.492 47.0711 64.0217Z" fill="#892F2B"/>
<path d="M49.8526 84.2381C49.9585 89.2937 48.847 94.5258 48.2883 99.5402C48.2413 99.9698 48.9705 100.07 49.047 99.6402C49.9585 94.5611 49.8879 89.4172 50.576 84.3322C50.6525 83.7908 49.8409 83.7143 49.8526 84.2322V84.2381Z" fill="#892F2B"/>
<path d="M79.481 126.49L79.4927 130.015C79.2928 130.15 79.0223 130.174 78.8576 129.962C78.2342 129.161 77.7343 128.279 77.4344 127.308C77.1168 126.295 77.0992 125.136 76.811 124.1C76.2171 123.67 75.7231 122.788 75.3937 121.928C74.6821 120.086 74.4469 117.761 74.2764 115.643C73.8823 110.617 73.7294 105.508 73.4942 100.452C73.2589 95.4321 73.0119 90.4119 72.8473 85.3798C72.6944 80.6715 72.6709 75.9102 73.1002 71.2313C73.3119 68.9066 73.6412 66.6054 74.1117 64.3807C74.3763 63.1271 74.8233 61.0966 75.8407 61.232C76.5405 60.9083 77.2933 61.438 77.6814 62.4149C78.346 64.0805 78.1989 66.4582 78.2401 68.3357C78.3577 73.5031 78.493 78.6705 78.6224 83.8379C78.8811 94.2197 79.1399 104.608 79.3986 114.989C79.4516 117.049 79.6398 119.233 79.4104 121.281C79.2928 122.305 79.0046 123.329 78.4871 123.906C78.8047 124.777 79.1458 125.636 79.481 126.49Z" fill="#924B44"/>
<path d="M76.1642 64.5631C76.2642 64.1041 75.5761 63.9039 75.4526 64.3689C74.3294 68.6476 73.5649 73.5325 74.5764 77.8995C74.6234 78.0878 74.8881 78.0348 74.8998 77.8583C75.2409 73.3559 75.188 69.0243 76.1584 64.569L76.1642 64.5631Z" fill="#892F2B"/>
<path d="M77.5463 119.115C76.229 112.871 75.7997 106.709 75.5821 100.346C75.5762 100.105 75.2469 100.117 75.2175 100.346C74.3824 106.662 75.2292 113.183 77.0523 119.25C77.1464 119.568 77.6169 119.439 77.5463 119.115Z" fill="#892F2B"/>
<path d="M76.5566 78.3333L68.7761 91.8198C68.2954 92.653 68.5807 93.7185 69.4133 94.1995L74.5165 97.1481C75.3491 97.6292 76.4138 97.3437 76.8945 96.5105L84.6749 83.024C85.1556 82.1908 84.8704 81.1254 84.0378 80.6443L78.9346 77.6957C78.102 77.2146 77.0373 77.5001 76.5566 78.3333Z" fill="#000201"/>
<path d="M86.2089 70.3603C86.2089 74.7626 80.8984 80.4067 80.8984 80.4067C80.8984 80.4067 75.5879 74.7626 75.5879 70.3603C75.5879 65.958 78.4107 64.4631 80.8984 64.4631C83.386 64.4631 86.2089 65.958 86.2089 70.3603Z" fill="#ED643E"/>
<path d="M83.9683 69.5363C83.9683 71.2313 82.5922 72.6085 80.8985 72.6085C79.2048 72.6085 77.8286 71.2313 77.8286 69.5363C77.8286 67.8413 79.2048 66.4641 80.8985 66.4641C82.5922 66.4641 83.9683 67.8413 83.9683 69.5363Z" fill="white"/>
<path d="M80.5043 92.513C80.5278 92.4423 80.5043 92.3658 80.4514 92.3187C79.9985 91.7949 79.1634 92.1598 78.6283 92.3423C79.4104 91.7832 79.9397 91.2182 79.5222 90.8356C79.0811 90.4236 77.752 91.0652 77.3403 91.2299C77.0698 91.3418 76.7934 91.4595 76.517 91.5831C77.1933 90.9474 77.6638 90.2706 77.0051 89.9175C76.5288 89.6644 75.4937 90.1823 75.0644 90.3648C74.0176 90.8121 73.0708 91.4712 72.0181 91.9185C72.418 90.7532 73.2766 88.1754 71.8005 88.6933C71.5006 88.7934 71.2242 89.2878 71.0242 89.5232C70.5773 90.0529 70.1362 90.5943 69.6128 91.0534C68.76 91.8008 67.7544 92.3776 66.7429 92.9073C62.2204 94.7494 57.7568 96.7387 53.4519 99.0576C49.4294 101.223 45.695 103.819 41.8371 106.232C41.9547 103.348 42.2311 100.482 42.6839 97.6274C42.7016 97.5332 42.6839 97.4508 42.6428 97.3861C42.0253 97.4391 38.2791 97.5627 34.6682 93.3487L34.6505 93.3664C34.5035 93.3664 34.3624 93.437 34.3212 93.6253C33.1686 98.8575 31.8218 104.413 33.0921 109.751C33.539 111.611 34.2389 114.23 35.7385 115.549C37.1558 116.79 39.6552 116.661 41.3725 116.443C46.8535 115.754 51.4465 112.129 55.8572 109.092C61.5324 105.184 67.131 101.129 72.9237 97.3979C73.0002 97.4096 73.0825 97.4038 73.1766 97.3508C74.294 96.6857 75.8289 96.5151 77.0286 95.9971C77.6167 95.7441 78.9517 95.4027 79.1517 94.72C79.1693 94.6494 79.1517 94.567 79.0987 94.5199C78.7518 94.2021 78.1401 94.1844 77.4991 94.2845C77.9696 94.0549 78.446 93.8372 78.9223 93.5959C79.4398 93.3369 80.2749 93.1074 80.5043 92.513Z" fill="#F6C1A7"/>
<path d="M67.2545 59.9489C60.8737 64.5101 55.2574 60.7788 55.2574 60.7788C55.4338 60.0254 55.5338 59.2545 55.5926 58.4717C55.6279 57.9597 55.6396 57.4535 55.6279 56.9356C55.5691 51.5858 53.446 46.3595 53.446 46.3595L66.2842 52.239C65.1432 55.3348 67.2486 59.9489 67.2486 59.9489H67.2545Z" fill="#F6C1A7"/>
<path d="M66.5017 57.8539C66.6076 58.2188 66.7193 58.5542 66.8193 58.8485C59.9739 59.7784 56.0572 55.2878 54.681 50.7443C54.6634 50.6854 53.4637 46.4244 53.446 46.3655L66.243 52.3922C65.7607 53.8341 65.9489 55.5703 66.2842 57.0181C66.3488 57.3124 66.4194 57.5949 66.5017 57.8598V57.8539Z" fill="#F6AA85"/>
<path d="M84.8503 29.7626C83.6682 27.585 79.2516 27.8616 77.3697 27.791C73.2413 27.6262 69.1011 27.9264 65.0315 28.6444C56.3042 30.1864 48.112 33.7353 40.9255 38.9086C40.7373 39.0439 40.7256 39.2558 40.802 39.4206C40.2904 39.4736 40.3198 40.274 40.8726 40.3211C50.7526 41.2274 60.7737 39.3088 70.4243 37.3666C72.6709 36.9134 87.6144 34.8594 84.8503 29.7626Z" fill="#301409"/>
<path d="M50.8939 38.0493C50.8939 38.0493 47.1536 35.8835 45.8304 37.8963C44.5072 39.9032 47.6123 45.1942 50.5881 43.0343L50.8998 38.0493H50.8939Z" fill="#F6C1A7"/>
<path d="M73.853 35.1655C73.853 35.1655 76.9405 32.1404 78.7225 33.7647C80.5044 35.3832 78.7989 41.2804 75.3821 39.9209L73.853 35.1713V35.1655Z" fill="#F6C1A7"/>
<path d="M49.5178 38.8792C49.7412 40.6389 50.1411 42.3221 50.6881 43.8876C51.9995 47.6837 54.1755 50.8266 56.816 52.8923C59.3683 54.8993 62.35 55.8998 65.3904 55.5172C72.8769 54.5815 77.9286 45.6003 76.6583 35.4774C75.388 25.3486 68.2839 17.8917 60.7915 18.8393C53.2933 19.781 48.2475 28.7562 49.5178 38.885V38.8792Z" fill="#F6C1A7"/>
<path d="M75.882 28.0794C74.053 26.2314 68.3779 26.6316 66.0961 26.7081C60.9973 26.8729 51.2232 27.9558 49.3883 33.8236C49.2589 33.8883 49.1531 34.006 49.1413 34.2061C48.9884 36.6662 48.5709 39.5619 50.0999 41.7042C50.1822 41.8219 50.294 41.8631 50.3998 41.8572C50.6409 41.9749 50.9644 41.916 51.0056 41.5865C51.2996 39.4618 51.923 37.4961 52.9286 35.6481C53.1521 35.6951 53.3815 35.7363 53.6049 35.7658C54.4694 35.8776 55.3457 35.8599 56.2043 35.7128C57.751 35.4538 59.6858 34.7358 60.6268 33.3998C60.6503 33.3645 60.6444 33.3233 60.6268 33.2939C60.6738 33.1644 60.6562 33.0114 60.5327 32.8701C62.4322 32.8643 64.3494 33.2586 66.0843 34.0237C66.1902 34.0708 66.3313 34.0413 66.3607 33.9119C66.4842 33.3586 66.5136 32.6583 66.349 32.0638C68.9013 32.5935 71.4124 32.7407 73.9942 32.3817C74.941 34.1885 75.6467 36.0659 76.2642 38.0081C76.3701 38.3436 76.8464 38.273 76.87 37.9257C77.0288 35.6245 77.758 29.9804 75.8761 28.0794H75.882Z" fill="#924B44"/>
<path d="M60.3213 38.1905C58.9157 38.373 57.9101 39.6207 58.0865 40.9802C58.1218 41.2392 58.3688 41.4275 58.6334 41.3922C58.9039 41.3569 59.098 41.1156 59.0627 40.8566C58.9569 40.0209 59.5744 39.244 60.4389 39.1322C61.3034 39.0204 62.0973 39.6148 62.2032 40.4505C62.2384 40.7095 62.4854 40.8978 62.7501 40.8625C63.0206 40.8272 63.2147 40.5859 63.1794 40.3269C63.003 38.9674 61.7209 38.0081 60.3154 38.1846L60.3213 38.1905Z" fill="#3F1E17"/>
<path d="M70.9011 37.0311C69.5897 37.2018 68.6605 38.4436 68.8369 39.8032C68.8722 40.0621 69.1016 40.2504 69.3544 40.2151C69.6073 40.1857 69.7838 39.9444 69.7485 39.6854C69.6426 38.8497 70.2131 38.0787 71.0188 37.9787C71.8303 37.8727 72.5713 38.473 72.6831 39.3088C72.7183 39.5677 72.9477 39.7561 73.2006 39.7208C73.4535 39.6913 73.6299 39.45 73.5946 39.1911C73.4182 37.8315 72.2126 36.8604 70.9011 37.0311Z" fill="#3F1E17"/>
<path d="M67.7547 42.1103C67.443 42.5164 65.861 42.7518 65.3847 42.4516C65.2729 42.381 65.1965 42.0632 65.1553 41.6159C65.0259 40.1563 65.2906 37.3019 65.914 37.2195C65.961 37.2195 66.0022 37.2195 66.0551 37.2489C66.8667 37.6197 68.0546 41.7336 67.7547 42.1103Z" fill="#F6AA85"/>
<g style="mix-blend-mode:soft-light" opacity="0.6">
<path d="M67.7547 42.1103C67.443 42.5164 65.861 42.7518 65.3846 42.4516C65.2729 42.381 65.1964 42.0632 65.1553 41.6159C66.7784 40.892 66.4079 38.5672 66.0551 37.2489C66.8666 37.6197 68.0546 41.7336 67.7547 42.1103Z" fill="#31282C"/>
</g>
<path d="M63.6265 44.4232C63.6265 44.4232 65.426 44.3349 66.9433 44.1407C68.4606 43.9465 70.219 43.5816 70.219 43.5816C70.219 43.5816 69.6368 45.9358 67.208 46.2477C64.7791 46.5596 63.6265 44.4291 63.6265 44.4291V44.4232Z" fill="white"/>
<path d="M62.2149 34.3239C60.4741 34.9948 58.7569 35.7128 57.0279 36.3955C56.9044 36.4426 56.8514 36.5309 56.8514 36.6192C56.7691 36.6957 56.7338 36.8016 56.8161 36.9076C57.616 37.9081 59.0156 37.3019 60.0624 36.8781C60.774 36.5897 61.6032 36.3543 62.2384 35.9424C62.7971 35.5833 62.9323 35.1831 63.1382 34.6534C63.3264 34.165 62.5265 34.0649 62.2207 34.318L62.2149 34.3239Z" fill="#924B44"/>
<path d="M73.3122 34.5946C71.8655 34.1826 70.4011 33.8236 68.9544 33.4293C68.8544 33.3998 68.7662 33.4469 68.7015 33.5175C68.6015 33.5352 68.5133 33.6058 68.4898 33.7412C68.2957 35.0124 69.5013 35.2832 70.3893 35.5186C70.9892 35.6775 71.6243 35.9364 72.2595 35.9541C72.8182 35.9659 73.1593 35.7128 73.6239 35.3832C74.0532 35.0831 73.6591 34.5534 73.3122 34.6005V34.5946Z" fill="#924B44"/>
<path d="M72.5357 44.3644C72.7298 45.9299 73.5649 47.2541 74.7352 48.1252C76.129 45.3119 76.8994 41.8984 76.8523 38.2377C74.0765 38.8498 72.177 41.4864 72.5416 44.3644H72.5357Z" fill="#F6A08C"/>
<path d="M50.688 43.8876C51.9994 47.6837 54.1754 50.8266 56.8159 52.8923C59.0742 51.9566 60.5209 49.5965 60.2034 47.0599C59.8211 44.0112 57.0394 41.8513 53.9872 42.2338C52.6757 42.3927 51.529 43.0048 50.688 43.8876Z" fill="#F6A08C"/>
<path d="M79.9339 26.4962C78.8812 26.455 77.8227 26.4374 76.7641 26.4432C76.2348 22.4294 74.9881 18.6863 71.73 16.0143C68.5719 13.4247 64.3259 12.3477 60.3151 13.101C51.3761 14.7842 46.6713 23.5712 48.0827 32.0932C47.6358 32.2875 47.1888 32.4817 46.7478 32.6877C44.166 33.906 39.1672 36.3955 40.3375 39.9503C40.4787 40.374 40.9374 40.3328 41.1314 40.0739C41.1609 40.0444 41.1903 40.015 41.2197 39.9738C43.2545 36.4838 47.7652 35.0654 51.329 33.7C54.7929 32.3757 58.3744 31.3458 62.0147 30.6219C65.802 29.8627 69.654 29.4448 73.5119 29.3624C76.8582 29.2918 81.6571 28.8092 84.3446 31.2104C84.4446 31.3693 84.5916 31.487 84.7563 31.5694C85.0033 31.7637 85.268 31.7578 85.4855 31.6283C85.7208 31.5459 85.909 31.3517 85.9737 31.0162C86.6676 27.1259 82.9509 26.6198 79.9281 26.4962H79.9339Z" fill="#4F2410"/>
<path d="M76.3642 24.1362C76.5348 24.8895 76.6642 25.6605 76.7641 26.4433C64.9082 25.8606 48.0886 32.0933 48.0886 32.0933C47.9945 31.5106 47.9299 30.9338 47.8828 30.3453C56.5866 25.8017 66.6607 24.5364 76.3642 24.1362Z" fill="#AF684B"/>
<path d="M79.5222 84.0909H94.6186C96.9886 84.0909 98.9117 86.0154 98.9117 88.3873C98.9117 90.7591 100.835 92.6836 103.205 92.6836H138.626C142.407 92.6836 145.477 89.6173 145.477 85.8271V52.186" stroke="#000201" stroke-width="2" stroke-miterlimit="10"/>
<path d="M145.471 75.6218H228.934C231.374 75.6218 233.356 77.5993 233.356 80.0476V83.467" stroke="#000201" stroke-width="2" stroke-miterlimit="10"/>
<path d="M160.444 26.6786C160.444 39.1498 145.406 55.1346 145.406 55.1346C145.406 55.1346 130.369 39.1498 130.369 26.6786C130.369 14.2074 138.361 9.98169 145.406 9.98169C152.452 9.98169 160.444 14.2133 160.444 26.6786Z" fill="#ED643E"/>
<path d="M151.555 30.481C154.95 27.084 154.95 21.5763 151.555 18.1793C148.161 14.7822 142.657 14.7822 139.263 18.1793C135.868 21.5763 135.868 27.084 139.263 30.481C142.657 33.878 148.161 33.878 151.555 30.481Z" fill="white"/>
<path d="M240.884 91.8243C240.884 98.0688 233.356 106.067 233.356 106.067C233.356 106.067 225.828 98.0629 225.828 91.8243C225.828 85.5858 229.827 83.467 233.356 83.467C236.885 83.467 240.884 85.5858 240.884 91.8243Z" fill="#ED643E"/>
<path d="M237.662 91.3536C238.047 88.9793 236.436 86.7422 234.064 86.3568C231.691 85.9714 229.456 87.5837 229.071 89.958C228.686 92.3322 230.297 94.5693 232.669 94.9547C235.042 95.3401 237.277 93.7278 237.662 91.3536Z" fill="white"/>
</g>
<defs>
<clipPath id="clip0_203_2953">
<rect width="369" height="237" fill="white"/>
</clipPath>
</defs>
</svg>
