<svg width="705" height="544" viewBox="0 0 705 544" fill="none" xmlns="http://www.w3.org/2000/svg">
<path opacity="0.2" d="M616.854 177C637.619 176.851 657.675 169.442 673.534 156.061C689.392 142.681 700.05 124.176 703.653 103.765C707.256 83.3543 703.577 62.3285 693.255 44.3446C682.934 26.3607 666.623 12.5565 647.159 5.33298C625.034 -2.69499 600.62 -1.62453 579.286 8.30898C557.952 18.2425 541.444 36.2258 533.392 58.3045C529.37 69.2227 527.567 80.8307 528.088 92.4516C528.608 104.072 531.441 115.474 536.422 125.99C541.326 136.501 548.276 145.932 556.868 153.736C565.459 161.539 575.521 167.557 586.467 171.441C596.192 175.054 606.477 176.935 616.854 177ZM616.772 48.822C624.329 48.8639 631.72 51.0343 638.096 55.0836C644.471 59.1328 649.572 64.8963 652.81 71.7109C655.023 76.4298 656.278 81.539 656.503 86.7441C656.728 91.9492 655.918 97.1473 654.121 102.039C652.361 106.918 649.643 111.397 646.127 115.215C642.611 119.033 638.367 122.113 633.644 124.274C626.526 127.589 618.583 128.724 610.819 127.535C603.055 126.346 595.818 122.886 590.024 117.593C584.229 112.3 580.137 105.411 578.265 97.7971C576.393 90.1833 576.824 82.1864 579.505 74.8173C582.334 67.2182 587.416 60.6599 594.074 56.0158C600.732 51.3718 608.649 48.8624 616.772 48.822Z" fill="#FAB60B"/>
<path opacity="0.7" fill-rule="evenodd" clip-rule="evenodd" d="M2.45353 544C-2.54706 504.907 0.0697343 464.877 10.5469 426.178C30.3983 352.853 77.0254 289.638 141.218 249.02C205.411 208.402 282.503 193.333 357.266 206.791C432.029 220.248 499.027 261.253 545.027 321.706C591.027 382.159 612.685 457.664 605.722 533.309C605.393 536.885 605 540.449 604.546 544H444.909C453.789 510.535 450.713 474.856 435.958 443.228C419.336 407.6 389.253 380.025 352.315 366.561C336.159 360.573 319.064 357.516 301.834 357.532V358.353C271.457 358.27 241.786 367.514 216.832 384.836C191.877 402.157 172.84 426.722 162.294 455.21C155.62 473.521 152.619 492.967 153.462 512.438C153.925 523.127 155.541 533.707 158.267 544H2.45353Z" fill="#FAB60B"/>
</svg>
