<svg width="100" height="100" viewBox="0 0 100 100" fill="none" xmlns="http://www.w3.org/2000/svg">
<path d="M87.2761 30.3169H12.7236V69.965H87.2761V30.3169Z" fill="#FFA95F"/>
<path d="M39.0913 35.3267H19.2852V58.4191H39.0913V35.3267Z" fill="white"/>
<path d="M87.2761 28.1652V30.3171H12.7236V28.1652C12.7235 27.7436 12.8065 27.326 12.9678 26.9365C13.1292 26.5469 13.3656 26.1929 13.6638 25.8948C13.962 25.5966 14.3159 25.3601 14.7055 25.1988C15.0951 25.0375 15.5126 24.9545 15.9343 24.9546H84.0655C84.4872 24.9545 84.9047 25.0375 85.2943 25.1988C85.6838 25.3601 86.0378 25.5966 86.336 25.8948C86.6341 26.1929 86.8706 26.5469 87.0319 26.9365C87.1932 27.326 87.2762 27.7436 87.2761 28.1652V28.1652Z" fill="#FEE07D"/>
<path d="M12.7236 69.9648H87.2761V71.8348C87.2762 72.2565 87.1932 72.674 87.0319 73.0636C86.8706 73.4532 86.6341 73.8071 86.336 74.1053C86.0378 74.4035 85.6838 74.6399 85.2943 74.8013C84.9047 74.9626 84.4872 75.0456 84.0655 75.0455H15.9343C15.5126 75.0456 15.0951 74.9626 14.7055 74.8013C14.3159 74.6399 13.962 74.4035 13.6638 74.1053C13.3656 73.8071 13.1292 73.4532 12.9678 73.0636C12.8065 72.674 12.7235 72.2565 12.7236 71.8348V69.9648Z" fill="#FEE07D"/>
<path d="M81.5089 58.4189H51.7607V61.4811H81.5089V58.4189Z" fill="#B6B1B8"/>
<path d="M80.8603 54.6455H52.7959V58.4192H80.8603V54.6455Z" fill="#FFC269"/>
<path d="M77.3753 54.6455H80.8719V58.4192H73.834V58.1868C73.834 57.2476 74.2071 56.3469 74.8712 55.6827C75.5353 55.0186 76.4361 54.6455 77.3753 54.6455V54.6455Z" fill="#9FD4FE"/>
<path d="M59.8564 58.4185H52.7958V54.6448H56.3151C57.2543 54.6448 58.1551 55.0179 58.8192 55.682C59.4833 56.3461 59.8564 57.2469 59.8564 58.1861V58.4185V58.4185Z" fill="#9FD4FE"/>
<path d="M71.0896 54.6455H62.6533V58.4192H71.0896V54.6455Z" fill="#9FD4FE"/>
<path d="M80.8724 54.6467H52.7949C53.16 53.2889 53.9595 52.0879 55.0712 51.2271C55.2339 51.0985 55.4045 50.9803 55.582 50.873H78.0894C78.2669 50.9803 78.4375 51.0985 78.6002 51.2271C79.7092 52.0897 80.5069 53.2902 80.8724 54.6467V54.6467Z" fill="#FEE07D"/>
<path d="M78.0894 50.873H55.582L56.3754 49.0222H56.3802L58.5534 43.9622C58.6537 43.7305 58.8196 43.5332 59.0307 43.3946C59.2418 43.2561 59.4889 43.1824 59.7414 43.1826H73.9245C74.1769 43.1825 74.4238 43.2563 74.6348 43.3948C74.8458 43.5334 75.0116 43.7306 75.1118 43.9622L77.2898 49.0222L78.0894 50.873Z" fill="#9FD4FE"/>
<path d="M71.0893 43.1822H62.3711L63.3865 40.0596H70.0745L71.0893 43.1822Z" fill="#FEE07D"/>
<path d="M57.9705 65.0523C56.8231 65.5191 55.5387 65.5191 54.3913 65.0523V65.0523C54.1769 64.965 53.9934 64.8157 53.8642 64.6236C53.735 64.4314 53.666 64.2052 53.666 63.9736V61.4814H58.6958V63.9736C58.6958 64.2052 58.6268 64.4314 58.4976 64.6236C58.3684 64.8157 58.1849 64.965 57.9705 65.0523V65.0523Z" fill="#6F6571"/>
<path d="M78.9312 65.0523C77.7851 65.5185 76.5022 65.5185 75.3562 65.0523C75.1417 64.965 74.9582 64.8157 74.829 64.6236C74.6998 64.4314 74.6308 64.2052 74.6309 63.9736V61.4814H79.6606V63.9736C79.6597 64.2055 79.5899 64.4319 79.46 64.624C79.3301 64.8161 79.146 64.9652 78.9312 65.0523V65.0523Z" fill="#6F6571"/>
<path d="M80.8613 36.6973H44.4004C44.0813 36.6973 43.7753 36.5705 43.5497 36.3449C43.324 36.1192 43.1973 35.8132 43.1973 35.4941C43.1973 35.1751 43.324 34.869 43.5497 34.6434C43.7753 34.4178 44.0813 34.291 44.4004 34.291H80.8613C81.1804 34.291 81.4864 34.4178 81.712 34.6434C81.9376 34.869 82.0644 35.1751 82.0644 35.4941C82.0644 35.8132 81.9376 36.1192 81.712 36.3449C81.4864 36.5705 81.1804 36.6973 80.8613 36.6973V36.6973Z" fill="#FEE07D"/>
<path d="M52.5645 44.3853H44.4004C44.0813 44.3853 43.7753 44.2585 43.5497 44.0329C43.324 43.8072 43.1973 43.5012 43.1973 43.1821C43.1973 42.863 43.324 42.557 43.5497 42.3314C43.7753 42.1058 44.0813 41.979 44.4004 41.979H52.5645C52.8835 41.979 53.1896 42.1058 53.4152 42.3314C53.6408 42.557 53.7676 42.863 53.7676 43.1821C53.7676 43.5012 53.6408 43.8072 53.4152 44.0329C53.1896 44.2585 52.8835 44.3853 52.5645 44.3853V44.3853Z" fill="#FEE07D"/>
<path d="M49.138 51.2031H44.4004C44.0813 51.2031 43.7753 51.0764 43.5497 50.8507C43.324 50.6251 43.1973 50.3191 43.1973 50C43.1973 49.6809 43.324 49.3749 43.5497 49.1493C43.7753 48.9236 44.0813 48.7969 44.4004 48.7969H49.138C49.457 48.7969 49.7631 48.9236 49.9887 49.1493C50.2143 49.3749 50.3411 49.6809 50.3411 50C50.3411 50.3191 50.2143 50.6251 49.9887 50.8507C49.7631 51.0764 49.457 51.2031 49.138 51.2031V51.2031Z" fill="#FEE07D"/>
<path d="M33.4024 44.5098C33.4024 45.3433 33.1552 46.1581 32.6921 46.8512C32.2291 47.5442 31.5709 48.0844 30.8008 48.4034C30.0307 48.7223 29.1833 48.8058 28.3658 48.6432C27.5483 48.4806 26.7974 48.0792 26.208 47.4898C25.6186 46.9004 25.2172 46.1495 25.0546 45.332C24.892 44.5145 24.9755 43.6671 25.2944 42.897C25.6134 42.1269 26.1536 41.4687 26.8466 41.0057C27.5397 40.5426 28.3545 40.2954 29.188 40.2954C29.7415 40.2953 30.2895 40.4043 30.8009 40.616C31.3122 40.8278 31.7769 41.1382 32.1682 41.5296C32.5596 41.9209 32.87 42.3856 33.0818 42.8969C33.2935 43.4083 33.4025 43.9563 33.4024 44.5098V44.5098Z" fill="#FEE07D"/>
<path d="M29.1865 48.7227C30.9238 48.7227 32.59 49.4128 33.8184 50.6413C35.0469 51.8697 35.737 53.5359 35.737 55.2732V58.4192H22.6367V55.2732C22.6367 53.536 23.3268 51.8699 24.5551 50.6415C25.7834 49.4131 27.4494 48.7228 29.1865 48.7227Z" fill="#FEE07D"/>
</svg>
