<svg width="100" height="100" viewBox="0 0 100 100" fill="none" xmlns="http://www.w3.org/2000/svg">
<path d="M90.5272 78.2999H10.2134L10.7528 77.1351L20.962 54.9578L30.5146 34.2031H70.226L77.41 49.8062L82.1706 60.1562L90.5272 78.2999Z" fill="#B2E59F"/>
<path d="M82.1706 60.1562L61.2127 78.2999H44.4918L53.1845 70.7719L36.0414 56.3727L10.2134 78.2999L20.962 54.9578L44.9295 34.2031H61.6427L44.4214 49.1183L61.5645 63.5176L77.41 49.8062L82.1706 60.1562Z" fill="#C7C5C9"/>
<path d="M72.7898 29.7631C72.7906 31.4974 72.277 33.1929 71.314 34.6352C70.3509 36.0775 68.9817 37.2018 67.3796 37.8659C65.7775 38.5299 64.0144 38.7039 62.3135 38.3657C60.6125 38.0275 59.05 37.1925 57.8237 35.9662C56.5973 34.7399 55.7623 33.1774 55.4241 31.4764C55.086 29.7754 55.2599 28.0123 55.924 26.4102C56.588 24.8081 57.7123 23.4389 59.1546 22.4759C60.5969 21.5128 62.2925 20.9992 64.0268 21C66.3495 21.0043 68.5759 21.929 70.2184 23.5714C71.8608 25.2139 72.7855 27.4403 72.7898 29.7631V29.7631Z" fill="#FF8086"/>
<path d="M66.4272 38.1978V58.2762C66.4272 58.9137 66.1739 59.5251 65.7231 59.9759C65.2724 60.4267 64.6609 60.68 64.0234 60.68C63.3859 60.68 62.7745 60.4267 62.3237 59.9759C61.8729 59.5251 61.6196 58.9137 61.6196 58.2762V38.1978C63.1908 38.6459 64.856 38.6459 66.4272 38.1978V38.1978Z" fill="#ECEAEC"/>
</svg>
