<svg width="150" height="45" viewBox="0 0 150 45" fill="none" xmlns="http://www.w3.org/2000/svg">
<path d="M40.7294 1H3.27058C1.46429 1 0 2.46429 0 4.27058V41.7294C0 43.5357 1.46429 45 3.27058 45H40.7294C42.5357 45 44 43.5357 44 41.7294V4.27058C44 2.46429 42.5357 1 40.7294 1Z" fill="#FAB60B"/>
<path d="M17.4319 14.4124H15.1302V31.5876H17.4319V14.4124Z" fill="black"/>
<path d="M37.2602 22.9985C37.2602 23.3653 37.2388 23.7229 37.2113 24.0836V24.1508H37.2052C36.6152 32.0308 30.0252 38.2541 22.0015 38.2541C13.5867 38.2541 6.74597 31.4134 6.74597 22.9985C6.74597 14.5836 13.5867 7.74902 22.0015 7.74902C27.5676 7.74902 32.4491 10.7476 35.1083 15.2133L33.4211 16.9005C31.2448 12.8261 26.9472 10.0445 22.0015 10.0445C14.8552 10.0445 9.04455 15.8552 9.04455 22.9954C9.04455 30.1357 14.8552 35.9524 22.0015 35.9524C28.7536 35.9524 34.3167 30.7531 34.8974 24.1478H23.0439L29.4444 30.5483L27.8183 32.1744L18.6362 22.9924L20.2623 21.3662L27.8152 13.8134L29.4414 15.4395L23.0408 21.8461H37.2052C37.2327 22.2252 37.2541 22.6042 37.2541 22.9924L37.2602 22.9985Z" fill="black"/>
<path d="M61.1506 32.6299C59.3931 32.6299 57.8587 32.2295 56.5443 31.4317C55.23 30.6339 54.2091 29.5152 53.4816 28.0755C52.7541 26.6389 52.3904 24.9608 52.3904 23.0413C52.3904 21.1217 52.7633 19.465 53.5091 18.007C54.2549 16.5521 55.3156 15.4119 56.691 14.5836C58.0665 13.7583 59.6957 13.3457 61.5786 13.3457C63.709 13.3457 65.4849 13.8622 66.9032 14.8893C68.3245 15.9193 69.2476 17.3407 69.6725 19.1502H66.4783C66.1941 18.1568 65.6347 17.3743 64.8002 16.8058C63.9658 16.2372 62.8929 15.953 61.5786 15.953C59.6254 15.953 58.091 16.5826 56.9723 17.845C55.8535 19.1043 55.2942 20.8466 55.2942 23.0657C55.2942 25.2848 55.8444 27.0149 56.9447 28.2589C58.0451 29.5029 59.5092 30.1234 61.3402 30.1234C63.1711 30.1234 64.5771 29.6008 65.5094 28.5523C66.4417 27.5039 66.9888 26.1101 67.1477 24.3709H62.089V22.1885H69.9996V32.3089H67.4167L67.1783 29.5671C66.5578 30.5422 65.7753 31.2972 64.8339 31.8321C63.8924 32.3639 62.6667 32.6299 61.1598 32.6299H61.1506Z" fill="black"/>
<path d="M73.854 16.5979C73.3221 16.5979 72.882 16.4329 72.5366 16.1058C72.1912 15.7787 72.017 15.3661 72.017 14.8679C72.017 14.3696 72.1912 13.957 72.5366 13.6299C72.882 13.3029 73.3221 13.1378 73.854 13.1378C74.3858 13.1378 74.826 13.3029 75.1714 13.6299C75.5168 13.96 75.691 14.3727 75.691 14.8679C75.691 15.363 75.5168 15.7787 75.1714 16.1058C74.826 16.4359 74.3858 16.5979 73.854 16.5979ZM72.4418 32.3089V19.1013H75.2662V32.3089H72.4418Z" fill="black"/>
<path d="M77.9285 32.312V19.1013H80.4594L80.6978 21.6046C81.1593 20.7335 81.8043 20.0458 82.6295 19.5414C83.4548 19.0371 84.4543 18.7834 85.625 18.7834V21.7391H84.8517C84.0692 21.7391 83.3723 21.8675 82.761 22.1243C82.1497 22.381 81.6606 22.8181 81.2969 23.4294C80.9331 24.0408 80.7497 24.8905 80.7497 25.9725V32.312H77.9254H77.9285Z" fill="black"/>
<path d="M92.7866 32.6299C91.5273 32.6299 90.3933 32.3425 89.3907 31.7648C88.3881 31.1871 87.5934 30.3802 87.0065 29.3409C86.4196 28.3017 86.1293 27.0913 86.1293 25.7066C86.1293 24.322 86.4258 23.1116 87.0218 22.0723C87.6148 21.0331 88.4187 20.2261 89.4304 19.6484C90.4422 19.0707 91.57 18.7834 92.8141 18.7834C94.0581 18.7834 95.2074 19.0707 96.21 19.6484C97.2126 20.2261 98.0103 21.0331 98.6064 22.0723C99.1994 23.1116 99.4989 24.322 99.4989 25.7066C99.4989 27.0913 99.2024 28.3017 98.6064 29.3409C98.0103 30.3802 97.2095 31.1871 96.1978 31.7648C95.186 32.3425 94.049 32.6299 92.7896 32.6299H92.7866ZM92.7866 30.206C93.4621 30.206 94.0857 30.0378 94.6634 29.7016C95.2411 29.3654 95.7056 28.8611 96.0602 28.1978C96.4148 27.5314 96.5921 26.7031 96.5921 25.7066C96.5921 24.7102 96.4178 23.8818 96.0724 23.2155C95.727 22.5491 95.2655 22.0479 94.6878 21.7116C94.1101 21.3754 93.4835 21.2073 92.811 21.2073C92.1386 21.2073 91.5089 21.3754 90.9343 21.7116C90.3566 22.0479 89.892 22.5491 89.5374 23.2155C89.1828 23.8818 89.0055 24.7102 89.0055 25.7066C89.0055 26.7031 89.1828 27.5314 89.5374 28.1978C89.892 28.8641 90.3535 29.3654 90.922 29.7016C91.4906 30.0378 92.1111 30.206 92.7866 30.206V30.206Z" fill="black"/>
<path d="M101.602 32.312V13.6697H104.426V21.6597L111.777 13.6697H115.265L108.369 21.1003L115.427 32.312H111.991L106.346 23.2583L104.429 25.3368V32.315H101.605L101.602 32.312Z" fill="#FAB60B"/>
<path d="M120.431 32.6299C119.312 32.6299 118.389 32.4434 117.661 32.0705C116.934 31.6976 116.393 31.2055 116.038 30.5911C115.684 29.9798 115.506 29.3104 115.506 28.5799C115.506 27.3022 116.005 26.2904 116.998 25.5446C117.991 24.7988 119.413 24.4259 121.259 24.4259H124.722V24.1875C124.722 23.1574 124.444 22.3871 123.885 21.8706C123.325 21.3571 122.601 21.0973 121.714 21.0973C120.932 21.0973 120.253 21.2868 119.676 21.6688C119.098 22.0509 118.746 22.6133 118.624 23.3592H115.803C115.892 22.3994 116.216 21.5802 116.775 20.8955C117.334 20.2139 118.043 19.6882 118.905 19.3244C119.767 18.9607 120.712 18.7773 121.742 18.7773C123.588 18.7773 125.019 19.2602 126.03 20.2292C127.042 21.1981 127.55 22.5155 127.55 24.1844V32.3059H125.098L124.857 30.0409C124.484 30.7684 123.943 31.3828 123.234 31.8779C122.524 32.3762 121.592 32.6238 120.437 32.6238L120.431 32.6299ZM120.99 30.3405C121.754 30.3405 122.396 30.1571 122.922 29.7933C123.444 29.4296 123.854 28.9466 124.148 28.3414C124.441 27.7393 124.621 27.0729 124.695 26.3455H121.552C120.434 26.3455 119.639 26.5411 119.168 26.9323C118.698 27.3236 118.462 27.8126 118.462 28.3965C118.462 28.9803 118.688 29.4754 119.141 29.8208C119.593 30.1662 120.211 30.3405 120.99 30.3405V30.3405Z" fill="#FAB60B"/>
<path d="M137.208 32.6299C136.178 32.6299 135.268 32.4251 134.479 32.0185C133.687 31.609 133.064 31.0343 132.602 30.2885L132.309 32.312H129.778V13.1348H132.599V21.1523C133.024 20.5318 133.611 19.9816 134.357 19.5017C135.102 19.0218 136.062 18.7834 137.233 18.7834C138.511 18.7834 139.638 19.086 140.617 19.6882C141.592 20.2903 142.362 21.1186 142.921 22.164C143.481 23.2124 143.759 24.4015 143.759 25.7311C143.759 27.0607 143.481 28.2467 142.921 29.2859C142.362 30.3252 141.595 31.1413 140.617 31.7373C139.642 32.3303 138.504 32.6299 137.208 32.6299V32.6299ZM136.729 30.1785C137.936 30.1785 138.929 29.7658 139.712 28.9405C140.494 28.1152 140.883 27.0363 140.883 25.7036C140.883 24.8324 140.705 24.0622 140.351 23.3867C139.996 22.7111 139.507 22.1854 138.887 21.8033C138.266 21.4213 137.545 21.2317 136.729 21.2317C135.521 21.2317 134.531 21.6505 133.761 22.485C132.987 23.3194 132.602 24.3923 132.602 25.7066C132.602 27.021 132.987 28.1152 133.761 28.9436C134.534 29.7689 135.521 30.1815 136.729 30.1815V30.1785Z" fill="#FAB60B"/>
<path d="M138.308 2.57031V1.90909H142.248V2.57031H140.66V7H139.894V2.57031H138.308ZM143.609 1.90909H144.541L146.162 5.86648H146.221L147.842 1.90909H148.774V7H148.044V3.31605H147.996L146.495 6.99254H145.888L144.387 3.31357H144.34V7H143.609V1.90909Z" fill="black"/>
</svg>
