<svg width="26" height="37" viewBox="0 0 26 37" fill="none" xmlns="http://www.w3.org/2000/svg">
<path d="M25.0871 12.5698C25.0871 5.62678 19.4875 0 12.578 0C5.66858 0 0.0690061 5.62678 0.0690061 12.5698C0.0690061 12.5698 -1.61956 25.333 11.7089 35.8006C12.2118 36.1998 12.9443 36.1998 13.4534 35.8006C26.7818 25.333 25.0933 12.5698 25.0933 12.5698H25.0871Z" fill="#FAB60B"/>
<path d="M13.0993 19.0512C9.11381 19.3694 5.80497 16.0507 6.12157 12.0396C6.36989 8.88931 8.90894 6.33169 12.0502 6.08216C16.0357 5.76402 19.3445 9.0827 19.0279 13.0938C18.7796 16.2441 16.2405 18.8017 13.0993 19.0512Z" fill="white"/>
</svg>
