<?xml version="1.0" encoding="utf-8"?>
<!-- Generator: Adobe Illustrator 26.4.1, SVG Export Plug-In . SVG Version: 6.00 Build 0)  -->
<svg version="1.1" id="Layer_1" xmlns="http://www.w3.org/2000/svg" xmlns:xlink="http://www.w3.org/1999/xlink" x="0px" y="0px"
	 viewBox="0 0 64 64" style="enable-background:new 0 0 64 64;" xml:space="preserve">
<style type="text/css">
	.st0{fill:none;stroke:#000000;stroke-width:3;stroke-linecap:round;stroke-linejoin:round;}
</style>
<path class="st0" d="M58.7,45.1v8c0,0.7-0.1,1.5-0.4,2.2c-0.3,0.7-0.7,1.3-1.3,1.8c-0.5,0.5-1.2,0.9-1.9,1.1
	c-0.7,0.2-1.4,0.3-2.2,0.3c-8.2-0.9-16.1-3.7-23-8.2c-6.4-4.1-11.9-9.6-16-16c-4.5-7-7.3-14.9-8.2-23.1c-0.1-0.7,0-1.5,0.3-2.2
	C6.1,8.3,6.5,7.6,7,7.1c0.5-0.5,1.1-1,1.8-1.3c0.7-0.3,1.4-0.5,2.1-0.5h8c1.3,0,2.5,0.4,3.5,1.3c1,0.8,1.6,2,1.8,3.3
	c0.3,2.6,1,5.1,1.9,7.5c0.4,1,0.4,2,0.2,3c-0.2,1-0.7,1.9-1.4,2.6l-3.4,3.4c3.8,6.7,9.3,12.2,16,16L41,39c0.7-0.7,1.6-1.2,2.6-1.4
	c1-0.2,2-0.1,3,0.2c2.4,0.9,4.9,1.5,7.5,1.9c1.3,0.2,2.5,0.8,3.3,1.8C58.2,42.5,58.7,43.8,58.7,45.1z"/>
</svg>
