<svg xmlns="http://www.w3.org/2000/svg" width="128" height="128" viewBox="0 0 128 128">
  <title>PICKUP</title>
  <g>
    <path d="M115.265,50.623,101.31,46.772l-6.12-18.6a4.75,4.75,0,0,0-4.51-3.257H71.67a4.756,4.756,0,0,0-4.75,4.75V50.82H7.33a1.75,1.75,0,0,0-1.75,1.75v7a1.75,1.75,0,0,0,1.75,1.75H9.1V89.3a4.756,4.756,0,0,0,4.75,4.75h2.942a14.276,14.276,0,0,0,26.565,0H84.7a14.276,14.276,0,0,0,26.565,0h6.405a4.756,4.756,0,0,0,4.75-4.75V60.02A9.778,9.778,0,0,0,115.265,50.623ZM70.42,29.66a1.251,1.251,0,0,1,1.25-1.25H90.68a1.251,1.251,0,0,1,1.187.857l6.41,19.49a1.75,1.75,0,0,0,1.2,1.14L114.333,54a6.268,6.268,0,0,1,4.585,6h-8.39a1.749,1.749,0,0,0-1.75,1.75v5a6.758,6.758,0,0,0,6.75,6.75h3.392V83.55h-7.653a14.276,14.276,0,0,0-26.569,0H70.42Zm48.5,33.837V70h-3.39a3.254,3.254,0,0,1-3.25-3.25V63.5ZM9.08,54.32H66.92v3.5H9.08Zm57.84,7V83.54H43.355a14.277,14.277,0,0,0-26.562,0H12.6V61.32ZM13.85,90.55A1.252,1.252,0,0,1,12.6,89.3V87.05h3.3a12.981,12.981,0,0,0,0,3.5Zm16.224,9.043a10.8,10.8,0,1,1,10.8-10.8A10.808,10.808,0,0,1,30.074,99.593ZM44.251,90.55a12.981,12.981,0,0,0,0-3.5H83.805a12.981,12.981,0,0,0,0,3.5Zm53.731,9.043a10.8,10.8,0,1,1,10.8-10.8A10.808,10.808,0,0,1,97.982,99.593ZM118.92,89.3a1.252,1.252,0,0,1-1.25,1.25h-5.511a12.981,12.981,0,0,0,0-3.5h6.76Z"/>
    <path d="M75.668,49.957h16.9a1.75,1.75,0,0,0,1.662-2.3L89.44,33.11a1.75,1.75,0,0,0-1.662-1.2H75.668a1.75,1.75,0,0,0-1.75,1.75v14.55A1.75,1.75,0,0,0,75.668,49.957Zm1.75-14.55h9.094l3.638,11.05H77.418Z"/>
    <path d="M75.668,64.817a1.749,1.749,0,0,0,1.75-1.75v-6.34a1.75,1.75,0,0,0-3.5,0v6.34A1.75,1.75,0,0,0,75.668,64.817Z"/>
    <path d="M30.074,81.5a7.3,7.3,0,1,0,7.3,7.3A7.3,7.3,0,0,0,30.074,81.5Zm0,11.091a3.8,3.8,0,1,1,3.8-3.8A3.8,3.8,0,0,1,30.074,92.593Z"/>
    <path d="M97.982,81.5a7.3,7.3,0,1,0,7.3,7.3A7.3,7.3,0,0,0,97.982,81.5Zm0,11.091a3.8,3.8,0,1,1,3.8-3.8A3.8,3.8,0,0,1,97.982,92.593Z"/>
  </g>
</svg>
