<svg width="138" height="44" viewBox="0 0 138 44" fill="none" xmlns="http://www.w3.org/2000/svg">
<g clip-path="url(#clip0_238_3270)">
<path d="M130.993 44H6.50969C2.92052 44 0 41.0795 0 37.4903V6.50969C0 2.92052 2.92052 0 6.50969 0H130.993C134.582 0 137.503 2.92052 137.503 6.50969V37.498C137.503 41.0872 134.582 44.0077 130.993 44.0077V44ZM6.50969 1.53712C3.76594 1.53712 1.53712 3.76594 1.53712 6.50969V37.498C1.53712 40.2417 3.76594 42.4706 6.50969 42.4706H130.993C133.737 42.4706 135.966 40.2417 135.966 37.498V6.50969C135.966 3.76594 133.737 1.53712 130.993 1.53712H6.50969Z" fill="white"/>
<path d="M46.7207 12.8427H45.8446C45.8446 12.7198 45.76 12.3816 45.5986 11.8206H44.3382C44.1691 12.3739 44.0846 12.7121 44.0846 12.8427H43.2622C43.2622 12.7736 43.4774 12.1895 43.9001 11.0981C44.3228 10.0068 44.538 9.40728 44.538 9.29199H45.5679C45.5679 9.3919 45.76 9.99138 46.1443 11.0674C46.5286 12.151 46.7207 12.7428 46.7207 12.835V12.8427ZM45.4603 11.3056C45.1529 10.368 44.9915 9.86073 44.9915 9.78387H44.9454C44.9454 9.85304 44.784 10.3603 44.4612 11.3056H45.4526H45.4603Z" fill="white"/>
<path d="M50.2407 12.8427H49.5644C49.5644 12.7659 49.3108 12.3739 48.8112 11.6592C48.2886 10.906 47.9888 10.3987 47.9197 10.122H47.8735C47.9197 10.5217 47.9427 10.8829 47.9427 11.198C47.9427 11.6438 47.9581 12.1971 47.9811 12.8427H47.3125C47.3432 12.2817 47.3509 11.6592 47.3509 10.9828C47.3509 10.3065 47.3356 9.75313 47.3125 9.29199H48.1195C48.1195 9.3919 48.3424 9.77618 48.7958 10.4448C49.2723 11.1596 49.549 11.6438 49.6182 11.8974H49.6566C49.6105 11.4901 49.5874 11.1288 49.5874 10.8061C49.5874 10.3142 49.5721 9.80693 49.549 9.29199H50.233C50.21 9.74544 50.1946 10.3065 50.1946 10.9828C50.1946 11.6592 50.21 12.2817 50.233 12.8427H50.2407Z" fill="white"/>
<path d="M54.1911 10.9441C54.1911 11.4591 54.022 11.9125 53.6915 12.2968C53.3611 12.6811 52.8999 12.8732 52.3004 12.8732C52.0315 12.8732 51.6625 12.8655 51.186 12.8425C51.2091 12.2968 51.2245 11.6743 51.2245 10.9826C51.2245 10.2909 51.2091 9.75287 51.186 9.29174H51.6625C51.7394 9.29174 51.8547 9.29174 52.0084 9.28405C52.1621 9.28405 52.262 9.27637 52.3081 9.27637C52.9614 9.27637 53.4379 9.43776 53.7377 9.76825C54.0297 10.0987 54.1834 10.4907 54.1834 10.9441H54.1911ZM53.4456 11.0594C53.4456 10.7136 53.3457 10.4138 53.1382 10.1756C52.9384 9.93733 52.6232 9.81436 52.2082 9.81436C52.1314 9.81436 52.0238 9.82204 51.8854 9.83742C51.9008 10.1986 51.9162 10.5829 51.9162 10.9749C51.9162 11.413 51.9239 11.8434 51.9469 12.2661C52.0622 12.2891 52.1852 12.3045 52.3004 12.3045C52.6924 12.3045 52.9845 12.1815 53.1689 11.9433C53.3534 11.6973 53.4533 11.4053 53.4533 11.0594H53.4456Z" fill="white"/>
<path d="M57.8339 12.8425H57.0269C56.8194 12.1969 56.658 11.8049 56.5427 11.6512C56.4274 11.4975 56.2507 11.4283 55.997 11.4283C55.8894 11.4283 55.7895 11.4283 55.6973 11.4283C55.6973 11.8972 55.705 12.366 55.7203 12.8425H54.9595C54.9825 12.2968 54.9979 11.6743 54.9979 10.9826C54.9979 10.2909 54.9825 9.75287 54.9595 9.29174H55.4283C55.4821 9.29174 55.5974 9.29174 55.7741 9.28405C55.9509 9.28405 56.1046 9.27637 56.2583 9.27637C57.0961 9.27637 57.5111 9.56073 57.5111 10.1295C57.5111 10.5829 57.2728 10.898 56.7963 11.0748V11.1132C56.9808 11.167 57.1422 11.3054 57.2805 11.5436C57.4189 11.7819 57.6033 12.2123 57.8416 12.8348L57.8339 12.8425ZM56.8117 10.337C56.8117 9.97576 56.5811 9.7913 56.1123 9.7913C55.9432 9.7913 55.7895 9.80667 55.6589 9.82973C55.6819 10.1141 55.6896 10.4753 55.6896 10.9288C55.7895 10.9288 55.8741 10.9288 55.9432 10.9288C56.5196 10.9288 56.8117 10.7289 56.8117 10.3293V10.337Z" fill="white"/>
<path d="M61.7459 11.0056C61.7459 11.5666 61.5768 12.0278 61.2309 12.3967C60.8928 12.7656 60.47 12.95 59.9628 12.95C59.4556 12.95 59.079 12.781 58.7562 12.4428C58.4334 12.1046 58.272 11.6742 58.272 11.1593C58.272 10.5983 58.4411 10.1371 58.7869 9.76821C59.1251 9.3993 59.5478 9.21484 60.055 9.21484C60.5623 9.21484 60.9389 9.38393 61.2617 9.72209C61.5845 10.0603 61.7459 10.4907 61.7459 11.0056ZM60.9927 11.0824C60.9927 10.7058 60.8928 10.3907 60.7006 10.1602C60.5085 9.92192 60.2625 9.80663 59.9782 9.80663C59.7092 9.80663 59.4863 9.92192 59.3018 10.1602C59.1174 10.3984 59.0252 10.6982 59.0252 11.0594C59.0252 11.4206 59.1251 11.7434 59.3172 11.9817C59.5094 12.2199 59.7553 12.3352 60.032 12.3352C60.301 12.3352 60.5238 12.2122 60.7083 11.974C60.8928 11.7357 60.985 11.436 60.985 11.0748L60.9927 11.0824Z" fill="white"/>
<path d="M63.2832 12.8427H62.5146C62.5377 12.2817 62.5531 11.6592 62.5531 10.9828C62.5531 10.3065 62.5377 9.75313 62.5146 9.29199H63.2832C63.2602 9.75313 63.2448 10.3142 63.2448 10.9828C63.2448 11.6515 63.2602 12.2894 63.2832 12.8427Z" fill="white"/>
<path d="M67.2336 10.9441C67.2336 11.4591 67.0645 11.9125 66.734 12.2968C66.4035 12.6811 65.9424 12.8732 65.3429 12.8732C65.0739 12.8732 64.705 12.8655 64.2285 12.8425C64.2516 12.2968 64.2669 11.6743 64.2669 10.9826C64.2669 10.2909 64.2516 9.75287 64.2285 9.29174H64.705C64.7819 9.29174 64.8972 9.29174 65.0509 9.28405C65.2046 9.27637 65.3045 9.27637 65.3506 9.27637C66.0039 9.27637 66.4804 9.43776 66.7801 9.76825C67.0722 10.0987 67.2259 10.4907 67.2259 10.9441H67.2336ZM66.4881 11.0594C66.4881 10.7136 66.3882 10.4138 66.1807 10.1756C65.9808 9.93733 65.6657 9.81436 65.2507 9.81436C65.1738 9.81436 65.0662 9.82204 64.9279 9.83742C64.9433 10.1986 64.9586 10.5829 64.9586 10.9749C64.9586 11.413 64.9663 11.8434 64.9894 12.2661C65.1047 12.2891 65.2276 12.3045 65.3429 12.3045C65.7349 12.3045 66.0269 12.1815 66.2114 11.9433C66.3959 11.6973 66.4958 11.4053 66.4958 11.0594H66.4881Z" fill="white"/>
<path d="M72.4829 12.8427H71.6068C71.6068 12.7198 71.5222 12.3816 71.3608 11.8206H70.1004C69.9313 12.3739 69.8468 12.7121 69.8468 12.8427H69.0244C69.0244 12.7736 69.2396 12.1895 69.6623 11.0981C70.085 10.0068 70.3002 9.40728 70.3002 9.29199H71.3301C71.3301 9.3919 71.5222 9.99138 71.9065 11.0674C72.2908 12.151 72.4829 12.7428 72.4829 12.835V12.8427ZM71.2225 11.3056C70.9151 10.368 70.7537 9.86073 70.7537 9.78387H70.7076C70.7076 9.85304 70.5462 10.3603 70.2234 11.3056H71.2148H71.2225Z" fill="white"/>
<path d="M75.6569 10.2217C75.6569 10.6598 75.4955 10.9749 75.1727 11.1824C74.8499 11.3899 74.458 11.4898 73.9892 11.4898C73.9046 11.4898 73.8431 11.4898 73.8047 11.4898C73.8047 11.828 73.8124 12.2814 73.8355 12.8425H73.0669C73.09 12.3199 73.1053 11.6973 73.1053 10.9826C73.1053 10.3293 73.09 9.76056 73.0669 9.29174H73.5434C73.6126 9.29174 73.7432 9.29174 73.9277 9.28405C74.1121 9.27637 74.2812 9.27637 74.4272 9.27637C74.7731 9.27637 75.0652 9.35322 75.3034 9.51462C75.5417 9.66833 75.6569 9.90659 75.6569 10.2294V10.2217ZM74.9499 10.3754C74.9499 9.98344 74.6886 9.7913 74.1736 9.7913C74.043 9.7913 73.9046 9.80667 73.7663 9.82973C73.7893 10.1756 73.797 10.5599 73.797 10.9979C73.8431 10.9979 73.8969 10.9979 73.9584 10.9979C74.6194 10.9979 74.9499 10.7904 74.9499 10.3677V10.3754Z" fill="white"/>
<path d="M78.9312 10.2217C78.9312 10.6598 78.7698 10.9749 78.447 11.1824C78.1242 11.3899 77.7323 11.4898 77.2558 11.4898C77.1712 11.4898 77.1097 11.4898 77.0713 11.4898C77.0713 11.828 77.079 12.2814 77.1021 12.8425H76.3335C76.3566 12.3199 76.3719 11.6973 76.3719 10.9826C76.3719 10.3293 76.3566 9.76056 76.3335 9.29174H76.81C76.8792 9.29174 77.0098 9.29174 77.1943 9.28405C77.3787 9.27637 77.5478 9.27637 77.6938 9.27637C78.0397 9.27637 78.3318 9.35322 78.57 9.51462C78.8083 9.66833 78.9235 9.90659 78.9235 10.2294L78.9312 10.2217ZM78.2242 10.3754C78.2242 9.98344 77.9628 9.7913 77.4479 9.7913C77.3172 9.7913 77.1789 9.80667 77.0406 9.82973C77.0636 10.1756 77.0713 10.5599 77.0713 10.9979C77.1174 10.9979 77.1712 10.9979 77.2327 10.9979C77.8937 10.9979 78.2242 10.7904 78.2242 10.3677V10.3754Z" fill="white"/>
<path d="M84.2727 11.0056C84.2727 11.5666 84.1036 12.0278 83.7578 12.3967C83.4196 12.7656 82.9969 12.95 82.4897 12.95C81.9824 12.95 81.6058 12.781 81.283 12.4428C80.9602 12.1046 80.7988 11.6742 80.7988 11.1593C80.7988 10.5983 80.9679 10.1371 81.3138 9.76821C81.6519 9.3993 82.0746 9.21484 82.5819 9.21484C83.0891 9.21484 83.4657 9.38393 83.7885 9.72209C84.1113 10.0603 84.2727 10.4907 84.2727 11.0056ZM83.5195 11.0824C83.5195 10.7058 83.4196 10.3907 83.2275 10.1602C83.0353 9.92192 82.7894 9.80663 82.505 9.80663C82.236 9.80663 82.0132 9.92192 81.8287 10.1602C81.6442 10.3984 81.552 10.6982 81.552 11.0594C81.552 11.4206 81.6519 11.7434 81.8441 11.9817C82.0362 12.2199 82.2821 12.3352 82.5588 12.3352C82.8278 12.3352 83.0507 12.2122 83.2352 11.974C83.4196 11.7357 83.5118 11.436 83.5118 11.0748L83.5195 11.0824Z" fill="white"/>
<path d="M87.9692 12.8427H87.2929C87.2929 12.7659 87.0393 12.3739 86.5397 11.6592C86.0171 10.906 85.7173 10.3987 85.6482 10.122H85.6021C85.6482 10.5217 85.6712 10.8829 85.6712 11.198C85.6712 11.6438 85.6866 12.1971 85.7097 12.8427H85.041C85.0718 12.2817 85.0794 11.6592 85.0794 10.9828C85.0794 10.3065 85.0641 9.75313 85.041 9.29199H85.848C85.848 9.3919 86.0709 9.77618 86.5243 10.4448C87.0008 11.1596 87.2775 11.6438 87.3467 11.8974H87.3851C87.339 11.4901 87.3159 11.1288 87.3159 10.8061C87.3159 10.3142 87.3006 9.80693 87.2775 9.29199H87.9615C87.9385 9.74544 87.9231 10.3065 87.9231 10.9828C87.9231 11.6592 87.9385 12.2817 87.9615 12.8427H87.9692Z" fill="white"/>
<path d="M55.805 24.2168C55.805 25.9768 55.2823 27.3833 54.2371 28.4285C53.0535 29.6736 51.5087 30.2961 49.6027 30.2961C47.6967 30.2961 46.2364 29.6659 44.9606 28.4055C43.6848 27.1451 43.0469 25.5772 43.0469 23.7096C43.0469 21.842 43.6848 20.2741 44.9606 19.0137C46.2364 17.7533 47.7812 17.123 49.6027 17.123C50.5096 17.123 51.3704 17.2998 52.1927 17.6534C53.0151 18.0069 53.676 18.4757 54.1679 19.0598L53.0612 20.1665C52.2312 19.1674 51.0783 18.6679 49.6104 18.6679C48.2808 18.6679 47.1356 19.1367 46.1672 20.0666C45.1988 20.9966 44.7146 22.2109 44.7146 23.7019C44.7146 25.1929 45.1988 26.4072 46.1672 27.3372C47.1356 28.2672 48.2808 28.736 49.6104 28.736C51.0168 28.736 52.1927 28.2672 53.1304 27.3295C53.7375 26.7223 54.0911 25.8692 54.1833 24.7779H49.6027V23.2638H55.7204C55.7819 23.5943 55.805 23.9094 55.805 24.2168Z" fill="white"/>
<path d="M57.7264 22.4109C58.5564 21.5348 59.6247 21.0967 60.9159 21.0967C62.2071 21.0967 63.2677 21.5348 64.1054 22.4109C64.9355 23.2871 65.3582 24.3784 65.3582 25.7003C65.3582 27.0223 64.9432 28.1136 64.1054 28.9898C63.2677 29.8659 62.2071 30.304 60.9159 30.304C59.6247 30.304 58.5641 29.8659 57.7264 28.9898C56.8963 28.1136 56.4736 27.0223 56.4736 25.7003C56.4736 24.3784 56.8887 23.2871 57.7264 22.4109ZM58.933 27.9599C59.4941 28.5286 60.1473 28.813 60.9159 28.813C61.6845 28.813 62.3377 28.5286 62.8988 27.9599C63.4598 27.3912 63.7365 26.638 63.7365 25.6927C63.7365 24.7473 63.4598 24.0018 62.8988 23.4254C62.3377 22.8567 61.6768 22.5723 60.9159 22.5723C60.155 22.5723 59.4941 22.8567 58.933 23.4254C58.372 23.9941 58.0953 24.7473 58.0953 25.6927C58.0953 26.638 58.372 27.3835 58.933 27.9599Z" fill="white"/>
<path d="M67.1566 22.4109C67.9866 21.5348 69.0549 21.0967 70.3461 21.0967C71.6373 21.0967 72.6979 21.5348 73.5356 22.4109C74.3656 23.2871 74.7883 24.3784 74.7883 25.7003C74.7883 27.0223 74.3733 28.1136 73.5356 28.9898C72.6979 29.8659 71.6373 30.304 70.3461 30.304C69.0549 30.304 67.9943 29.8659 67.1566 28.9898C66.3188 28.1136 65.9038 27.0223 65.9038 25.7003C65.9038 24.3784 66.3188 23.2871 67.1566 22.4109ZM68.3632 27.9599C68.9242 28.5286 69.5775 28.813 70.3461 28.813C71.1146 28.813 71.7679 28.5286 72.329 27.9599C72.89 27.3912 73.1667 26.638 73.1667 25.6927C73.1667 24.7473 72.89 24.0018 72.329 23.4254C71.7679 22.8567 71.107 22.5723 70.3461 22.5723C69.5852 22.5723 68.9242 22.8567 68.3632 23.4254C67.8021 23.9941 67.5255 24.7473 67.5255 25.6927C67.5255 26.638 67.8021 27.3835 68.3632 27.9599Z" fill="white"/>
<path d="M79.5764 34.101C78.5542 34.101 77.7242 33.8473 77.0709 33.3324C76.4253 32.8251 75.9642 32.2334 75.6798 31.5801L77.1632 30.9652C77.3246 31.4341 77.632 31.826 78.0701 32.1488C78.5081 32.4639 79.0154 32.6253 79.5764 32.6253C80.468 32.6253 81.1673 32.3563 81.6823 31.826C82.1895 31.288 82.4508 30.5656 82.4508 29.651V28.821H82.3817C82.0973 29.2437 81.6977 29.5972 81.1827 29.8816C80.6678 30.1659 80.0837 30.3043 79.4381 30.3043C78.3237 30.3043 77.3553 29.8662 76.5483 28.9823C75.7413 28.0985 75.334 27.0072 75.334 25.7083C75.334 24.4094 75.7413 23.3104 76.5483 22.4342C77.3553 21.5504 78.3237 21.1123 79.4381 21.1123C80.0837 21.1123 80.6678 21.2506 81.1827 21.535C81.6977 21.8194 82.0973 22.1729 82.3817 22.5956H82.4508V21.3967H84.0033V29.5895C84.0033 31.0728 83.5729 32.1949 82.7198 32.9635C81.8591 33.732 80.8138 34.1163 79.5841 34.1163L79.5764 34.101ZM79.6994 28.8133C80.4603 28.8133 81.1136 28.5289 81.6439 27.9679C82.1742 27.4068 82.4432 26.6459 82.4432 25.6929C82.4432 24.7399 82.1742 23.9867 81.6439 23.418C81.1059 22.8569 80.4603 22.5726 79.6994 22.5726C78.9385 22.5726 78.3006 22.8569 77.7626 23.4257C77.2246 23.9944 76.9556 24.7476 76.9556 25.6929C76.9556 26.6382 77.2246 27.3837 77.7626 27.9602C78.3006 28.5289 78.9462 28.8133 79.6994 28.8133Z" fill="white"/>
<path d="M87.1544 30.0115H85.5327V17.3994H87.1544V30.0115Z" fill="white"/>
<path d="M92.5035 30.2963C91.1969 30.2963 90.1363 29.8583 89.3216 28.9898C88.5069 28.1213 88.0996 27.0223 88.0996 25.6927C88.0996 24.4322 88.4993 23.3562 89.2909 22.4493C90.0825 21.5424 91.097 21.0967 92.3267 21.0967C93.5564 21.0967 94.6324 21.5117 95.4009 22.3494C96.1695 23.1872 96.5538 24.3016 96.5538 25.7003L96.5384 26.0001H89.7213C89.7674 26.8686 90.0594 27.5603 90.5897 28.0598C91.1277 28.5671 91.7503 28.8207 92.465 28.8207C93.6255 28.8207 94.4172 28.3288 94.8245 27.3374L96.2694 27.9369C95.985 28.6055 95.5239 29.1665 94.8783 29.62C94.2327 30.0734 93.4411 30.2963 92.5035 30.2963ZM94.8322 24.6551C94.7938 24.1632 94.5709 23.6944 94.1559 23.2486C93.7408 22.8029 93.1183 22.58 92.2959 22.58C91.6965 22.58 91.1738 22.7645 90.7358 23.141C90.2977 23.5176 89.9903 24.0249 89.8289 24.6551H94.8322Z" fill="white"/>
<path d="M102.941 30.0115H101.319V17.3994H105.615C106.683 17.3994 107.606 17.753 108.39 18.4677C109.174 19.1825 109.558 20.074 109.558 21.1577C109.558 22.2413 109.166 23.1329 108.39 23.8476C107.606 24.5547 106.683 24.9159 105.615 24.9159H102.941V30.0268V30.0115ZM102.941 23.3557H105.654C106.338 23.3557 106.883 23.1252 107.291 22.6717C107.706 22.2106 107.905 21.711 107.905 21.1577C107.905 20.6043 107.698 20.0971 107.291 19.6436C106.876 19.1825 106.33 18.9596 105.654 18.9596H102.941V23.3634V23.3557Z" fill="white"/>
<path d="M112.24 30.0115H110.619V17.3994H112.24V30.0115Z" fill="white"/>
<path d="M116.414 30.2963C115.499 30.2963 114.73 30.035 114.116 29.5047C113.501 28.9744 113.193 28.275 113.193 27.4065C113.193 26.4689 113.555 25.7311 114.285 25.1931C115.015 24.6551 115.914 24.3938 116.982 24.3938C117.935 24.3938 118.712 24.5706 119.326 24.9241V24.6782C119.326 24.0403 119.111 23.533 118.673 23.1564C118.235 22.7721 117.705 22.58 117.067 22.58C116.598 22.58 116.168 22.6953 115.791 22.9182C115.407 23.141 115.145 23.4485 115.007 23.8327L113.524 23.1948C113.724 22.6799 114.116 22.1957 114.707 21.7576C115.292 21.3196 116.068 21.0967 117.036 21.0967C118.143 21.0967 119.057 21.4195 119.788 22.0651C120.518 22.7107 120.879 23.6252 120.879 24.7934V30.012H119.326V28.813H119.257C118.612 29.7968 117.666 30.2963 116.421 30.2963H116.414ZM116.675 28.813C117.344 28.813 117.951 28.5594 118.496 28.0675C119.042 27.5679 119.319 26.9762 119.319 26.2998C118.858 25.9232 118.174 25.7388 117.259 25.7388C116.475 25.7388 115.876 25.9079 115.476 26.246C115.076 26.5842 114.877 26.9838 114.877 27.445C114.877 27.8677 115.061 28.2059 115.422 28.4518C115.783 28.6977 116.206 28.8207 116.675 28.8207V28.813Z" fill="white"/>
<path d="M124.399 33.8161H122.723L124.729 29.4661L121.171 21.3809H122.931L125.506 27.5831H125.544L128.042 21.3809H129.802L124.391 33.8161H124.399Z" fill="white"/>
<path d="M12.8193 22.7256C12.8193 18.6983 12.8193 14.6634 12.8193 10.6361C12.8193 10.1442 12.9116 9.6908 13.2651 9.3142C13.4034 9.16818 13.4957 9.12975 13.6648 9.29883C16.3778 12.0656 19.0908 14.8248 21.8115 17.5839C23.5715 19.3746 25.3315 21.1577 27.0992 22.9408C27.2682 23.1098 27.2836 23.2021 27.0992 23.3865C22.7799 27.6828 18.4606 31.9867 14.1566 36.2983C13.8953 36.5596 13.7109 36.5366 13.4572 36.3367C12.9961 35.9832 12.8193 35.5067 12.8193 34.938C12.8193 32.5477 12.8193 30.1652 12.8193 27.775C12.8193 26.0842 12.8193 24.401 12.8193 22.7102V22.7256Z" fill="white"/>
<path d="M14.3643 8.85352C14.6947 8.85352 14.9253 8.94574 15.1482 9.06871C20.6664 12.1583 26.1847 15.2556 31.7029 18.3375C31.9566 18.4759 31.9489 18.5604 31.7567 18.7526C30.5194 19.9669 29.2974 21.1889 28.0753 22.4186C27.9447 22.5492 27.8602 22.6261 27.6834 22.4493C23.2949 17.9686 18.8988 13.5033 14.5026 9.03028C14.4642 8.99186 14.4334 8.94574 14.3643 8.85352Z" fill="white"/>
<path d="M15.6016 36.1984C19.6058 32.1481 23.6176 28.1055 27.6141 24.0475C27.8601 23.7939 27.9754 23.8323 28.1982 24.0629C29.2127 25.1235 30.2426 26.161 31.2802 27.1986C31.4646 27.383 31.48 27.4522 31.2341 27.5905C26.0924 30.4035 20.9507 33.2318 15.8168 36.0524C15.7322 36.0985 15.6554 36.1754 15.6092 36.2061L15.6016 36.1984Z" fill="white"/>
<path d="M38.4816 22.8334C38.4663 23.2868 38.2511 23.6096 37.9283 23.8479C37.69 24.0246 37.421 24.1707 37.1597 24.3167C35.6072 25.1775 34.0471 26.0306 32.4946 26.8914C32.2871 27.0066 32.1641 27.0066 31.9873 26.8222C30.8806 25.6847 29.7662 24.5472 28.6518 23.4252C28.4904 23.2638 28.4827 23.1715 28.6518 23.0101C29.9583 21.7266 31.2572 20.4278 32.5484 19.1289C32.7021 18.9752 32.8097 18.9598 33.0018 19.0674C34.5389 19.9359 36.0837 20.7967 37.6209 21.6575C38.0974 21.9265 38.4663 22.2723 38.4893 22.8334H38.4816Z" fill="white"/>
</g>
<defs>
<clipPath id="clip0_238_3270">
<rect width="137.503" height="44" fill="white"/>
</clipPath>
</defs>
</svg>
