<svg width="100" height="100" viewBox="0 0 100 100" fill="none" xmlns="http://www.w3.org/2000/svg">
<path d="M50.3125 24L56.7891 43.9347H77.749L60.7924 56.2539L67.2691 76.1886L50.3125 63.8685L33.3559 76.1886L39.8326 56.2539L22.876 43.9347H43.8358L50.3125 24Z" fill="#FEE07D"/>
<path d="M85.7261 47.8628L88.8463 57.4654H98.943L90.774 63.4003L93.8942 73.003L85.7261 67.0681L77.5571 73.003L80.6773 63.4003L72.5083 57.4654H82.606L85.7261 47.8628Z" fill="#FFC269"/>
<path d="M14.8985 47.8628L18.0187 57.4654H28.1164L19.9474 63.4003L23.0675 73.003L14.8985 67.0681L6.73049 73.003L9.85064 63.4003L1.68164 57.4654H11.7784L14.8985 47.8628Z" fill="#FFC269"/>
</svg>
