<svg xmlns="http://www.w3.org/2000/svg" width="128" height="128" viewBox="0 0 128 128">
  <title>SCOOTER</title>
  <g>
    <path d="M122.43,76.763a1.759,1.759,0,0,0-.245-1.331,21.117,21.117,0,0,0-17.091-9.905L91.572,44.33H97.23a1.75,1.75,0,0,0,1.75-1.75V33.8a4.747,4.747,0,0,0-6.116-4.555L81.783,32.59l-2.251-2.812v-3.4a4.756,4.756,0,0,0-4.75-4.75h-6.92a4.755,4.755,0,0,0-4.749,4.75v1a4.755,4.755,0,0,0,4.749,4.75H76.93l1.243,1.552A1.748,1.748,0,0,0,76.94,35.35V41.4L72.948,43a1.751,1.751,0,0,0,.653,3.375c.59,0,.517-.118,5.428-2.041h.685c4.334,14.5,4.2,26.435-.438,33.676A3.194,3.194,0,0,1,76.56,79.46H70.269a3.21,3.21,0,0,1-1.825-.554c-7.512-5.037-7.948-12.88-1.412-25.427a2,2,0,0,0,.184-1.025A9.575,9.575,0,0,0,57.658,43.1H26.521a1.751,1.751,0,0,0-1.75,1.75A9.55,9.55,0,0,0,28.2,52.181,31.564,31.564,0,0,0,5.53,82.631l.04,6.6A1.75,1.75,0,0,0,7.32,90.97h9.867a17.155,17.155,0,0,0,34.146,0H87.977a17.157,17.157,0,1,0,31.166-11.447c1.016-.684,1.933-1.289,2.509-1.652A1.749,1.749,0,0,0,122.43,76.763Zm-4.2-.841c-2.828,1.879-3.058,2.159-3.638,2.277a2.457,2.457,0,0,1-1.916-.348,16.272,16.272,0,0,0-7.915-2.838c-6.28-.358-11.773,3.768-13.121,10.963A1.942,1.942,0,0,1,90.4,87.4a8.372,8.372,0,0,1-1.811.064c.076-5.639,1.741-10.341,4.861-13.672a15.084,15.084,0,0,1,10.733-4.768A17.324,17.324,0,0,1,118.231,75.922ZM91.21,33.4l2.666-.8a1.23,1.23,0,0,1,1.1.192A1.249,1.249,0,0,1,95.48,33.8v7.03H91.21Zm-3.544,7.43H80.44V36.652l7.268-2.19Zm-11.634-12.2h-8.17a1.251,1.251,0,0,1-1.249-1.25v-1a1.251,1.251,0,0,1,1.249-1.25h6.92a1.251,1.251,0,0,1,1.25,1.25ZM57.658,46.6a6.079,6.079,0,0,1,5.811,4.319H34.34A6.079,6.079,0,0,1,28.529,46.6ZM9.03,82.61A28.036,28.036,0,0,1,37.06,54.42H62.653c-4.145,8.741-7.124,20.04,3.83,27.385a6.685,6.685,0,0,0,3.786,1.155H76.56a6.686,6.686,0,0,0,5.665-3.067c5.153-8.056,5.531-20.323,1.139-35.563H87.42l13.723,21.512A18.447,18.447,0,0,0,90.892,71.4c-3.738,3.99-5.7,9.528-5.784,16.074H58.61a24.153,24.153,0,0,0-48.18,0H9.059ZM17.2,87.47H13.933a20.661,20.661,0,0,1,41.174,0H51.593A17.185,17.185,0,0,0,34.52,72.05,17.369,17.369,0,0,0,17.2,87.47ZM34.26,102.948A13.673,13.673,0,0,1,20.64,90.053c-.76-7.016,5.189-14.425,13.62-14.425a13.66,13.66,0,1,1,0,27.32Zm70.791,0A13.687,13.687,0,0,1,91.469,90.739c.039-.014.076-.034.115-.048a5.421,5.421,0,0,0,3.756-4.149c.873-4.653,4.228-8.234,8.958-7.957a12.79,12.79,0,0,1,6.193,2.267,6.028,6.028,0,0,0,5.676.5,13.66,13.66,0,0,1-11.116,21.6Z"/>
    <path d="M104.57,82.158a7.153,7.153,0,1,0,7.64,7.13C112.21,84.716,107.958,81.651,104.57,82.158Zm4.14,7.125a3.651,3.651,0,1,1-3.651-3.65A3.65,3.65,0,0,1,108.71,89.283Z"/>
    <path d="M34.26,82.128A7.16,7.16,0,1,0,41.42,89.3v-.015A7.168,7.168,0,0,0,34.26,82.128Zm3.66,7.166a3.66,3.66,0,1,1-3.66-3.666,3.67,3.67,0,0,1,3.66,3.666Z"/>
  </g>
</svg>
