<svg width="90" height="90" viewBox="0 0 90 90" fill="none" xmlns="http://www.w3.org/2000/svg">
<path d="M15 76.875H26.25V84.375C26.25 84.8723 26.0525 85.3492 25.7008 85.7008C25.3492 86.0525 24.8723 86.25 24.375 86.25H16.875C16.3777 86.25 15.9008 86.0525 15.5492 85.7008C15.1975 85.3492 15 84.8723 15 84.375V76.875Z" fill="url(#paint0_linear_238_3215)"/>
<path d="M15 80.625H26.25V84.375C26.25 84.8723 26.0525 85.3492 25.7008 85.7008C25.3492 86.0525 24.8723 86.25 24.375 86.25H16.875C16.3777 86.25 15.9008 86.0525 15.5492 85.7008C15.1975 85.3492 15 84.8723 15 84.375V80.625Z" fill="url(#paint1_linear_238_3215)"/>
<path d="M63.75 76.875H75V84.375C75 84.8723 74.8025 85.3492 74.4508 85.7008C74.0992 86.0525 73.6223 86.25 73.125 86.25H65.625C65.1277 86.25 64.6508 86.0525 64.2992 85.7008C63.9475 85.3492 63.75 84.8723 63.75 84.375V76.875Z" fill="url(#paint2_linear_238_3215)"/>
<path d="M63.75 80.625H75V84.375C75 84.8723 74.8025 85.3492 74.4508 85.7008C74.0992 86.0525 73.6223 86.25 73.125 86.25H65.625C65.1277 86.25 64.6508 86.0525 64.2992 85.7008C63.9475 85.3492 63.75 84.8723 63.75 84.375V80.625Z" fill="url(#paint3_linear_238_3215)"/>
<path d="M5.625 26.25H11.25C12.7418 26.25 14.1726 26.8426 15.2275 27.8975C16.2824 28.9524 16.875 30.3832 16.875 31.875V35.625H5.625C5.12772 35.625 4.65081 35.4275 4.29917 35.0758C3.94754 34.7242 3.75 34.2473 3.75 33.75V28.125C3.75 27.6277 3.94754 27.1508 4.29917 26.7992C4.65081 26.4475 5.12772 26.25 5.625 26.25Z" fill="url(#paint4_linear_238_3215)"/>
<path d="M84.375 35.625H73.125V31.875C73.125 30.3832 73.7176 28.9524 74.7725 27.8975C75.8274 26.8426 77.2582 26.25 78.75 26.25H84.375C84.8723 26.25 85.3492 26.4475 85.7008 26.7992C86.0525 27.1508 86.25 27.6277 86.25 28.125V33.75C86.25 34.2473 86.0525 34.7242 85.7008 35.0758C85.3492 35.4275 84.8723 35.625 84.375 35.625Z" fill="url(#paint5_linear_238_3215)"/>
<path d="M68.4525 3.75H21.5475C19.7336 3.74972 17.981 4.40685 16.6144 5.59967C15.2478 6.7925 14.3599 8.44017 14.115 10.2375L9.375 45V75H80.625V45L75.885 10.2375C75.6401 8.44017 74.7522 6.7925 73.3856 5.59967C72.019 4.40685 70.2664 3.74972 68.4525 3.75Z" fill="url(#paint6_linear_238_3215)"/>
<path d="M80.625 54.375H9.375V75H80.625V54.375Z" fill="url(#paint7_linear_238_3215)"/>
<path d="M37.5 73.125H9.375V45C16.8342 45 23.9879 47.9632 29.2624 53.2376C34.5368 58.5121 37.5 65.6658 37.5 73.125Z" fill="url(#paint8_linear_238_3215)"/>
<path d="M9.375 60V73.125H37.5C37.5032 68.5494 36.3842 64.0428 34.2412 60H9.375Z" fill="url(#paint9_linear_238_3215)"/>
<path d="M20.625 65.625C23.7316 65.625 26.25 63.1066 26.25 60C26.25 56.8934 23.7316 54.375 20.625 54.375C17.5184 54.375 15 56.8934 15 60C15 63.1066 17.5184 65.625 20.625 65.625Z" fill="url(#paint10_linear_238_3215)"/>
<path d="M20.625 63.75C22.6961 63.75 24.375 62.0711 24.375 60C24.375 57.9289 22.6961 56.25 20.625 56.25C18.5539 56.25 16.875 57.9289 16.875 60C16.875 62.0711 18.5539 63.75 20.625 63.75Z" fill="url(#paint11_linear_238_3215)"/>
<path d="M52.5 73.125H80.625V45C73.1658 45 66.0121 47.9632 60.7376 53.2376C55.4632 58.5121 52.5 65.6658 52.5 73.125Z" fill="url(#paint12_linear_238_3215)"/>
<path d="M55.7588 60C53.6158 64.0428 52.4968 68.5494 52.5 73.125H80.625V60H55.7588Z" fill="url(#paint13_linear_238_3215)"/>
<path d="M69.375 65.625C72.4816 65.625 75 63.1066 75 60C75 56.8934 72.4816 54.375 69.375 54.375C66.2684 54.375 63.75 56.8934 63.75 60C63.75 63.1066 66.2684 65.625 69.375 65.625Z" fill="url(#paint14_linear_238_3215)"/>
<path d="M69.375 63.75C71.4461 63.75 73.125 62.0711 73.125 60C73.125 57.9289 71.4461 56.25 69.375 56.25C67.3039 56.25 65.625 57.9289 65.625 60C65.625 62.0711 67.3039 63.75 69.375 63.75Z" fill="url(#paint15_linear_238_3215)"/>
<path d="M16.5992 35.625C16.3314 35.6251 16.0666 35.5678 15.8228 35.457C15.579 35.3462 15.3618 35.1844 15.1857 34.9826C15.0096 34.7808 14.8789 34.5436 14.8022 34.287C14.7255 34.0304 14.7046 33.7603 14.7411 33.495L17.8629 10.7906C17.9808 9.88459 18.423 9.05196 19.1077 8.44695C19.7923 7.84193 20.673 7.50551 21.5867 7.5H68.4129C69.3229 7.5024 70.2011 7.83443 70.8851 8.43461C71.569 9.03479 72.0123 9.86246 72.1329 10.7644L75.2586 33.495C75.295 33.7603 75.2741 34.0304 75.1974 34.287C75.1207 34.5436 74.99 34.7808 74.8139 34.9826C74.6379 35.1844 74.4206 35.3462 74.1768 35.457C73.933 35.5678 73.6683 35.6251 73.4004 35.625H16.5992Z" fill="url(#paint16_linear_238_3215)"/>
<path d="M73.4009 33.75L70.2734 11.0081C70.2146 10.5564 69.9934 10.1416 69.6511 9.84103C69.3088 9.5405 68.8689 9.37484 68.4134 9.375H21.5871C21.1258 9.37783 20.6815 9.54926 20.3379 9.85698C19.9943 10.1647 19.775 10.5875 19.7215 11.0456L16.5996 33.75H73.4009Z" fill="url(#paint17_linear_238_3215)"/>
<path d="M45 39.375C43.1458 39.375 41.3332 39.9248 39.7915 40.955C38.2498 41.9851 37.0482 43.4493 36.3386 45.1623C35.6291 46.8754 35.4434 48.7604 35.8051 50.579C36.1669 52.3975 37.0598 54.068 38.3709 55.3791C39.682 56.6902 41.3525 57.5831 43.171 57.9449C44.9896 58.3066 46.8746 58.1209 48.5877 57.4114C50.3007 56.7018 51.7649 55.5002 52.795 53.9585C53.8252 52.4168 54.375 50.6042 54.375 48.75C54.372 46.2645 53.3834 43.8817 51.6258 42.1242C49.8683 40.3667 47.4855 39.378 45 39.375ZM43.125 43.47V47.97L39.9375 51.1575C39.5922 50.4503 39.4012 49.6779 39.3771 48.8913C39.3531 48.1047 39.4965 47.322 39.7979 46.595C40.0993 45.8681 40.5518 45.2135 41.1254 44.6748C41.699 44.136 42.3806 43.7253 43.125 43.47ZM42.5906 53.8125L45 51.4012L47.4094 53.8125C46.6599 54.1831 45.8351 54.3759 44.9991 54.3759C44.163 54.3759 43.3382 54.1831 42.5888 53.8125H42.5906ZM50.0625 51.1594L46.875 47.9719V43.4719C47.6194 43.7272 48.301 44.1379 48.8746 44.6767C49.4482 45.2154 49.9007 45.87 50.2021 46.5969C50.5035 47.3239 50.6469 48.1066 50.6229 48.8932C50.5988 49.6797 50.4078 50.4522 50.0625 51.1594Z" fill="url(#paint18_linear_238_3215)"/>
<path d="M80.625 71.25H9.375C8.33947 71.25 7.5 72.0895 7.5 73.125V76.875C7.5 77.9105 8.33947 78.75 9.375 78.75H80.625C81.6605 78.75 82.5 77.9105 82.5 76.875V73.125C82.5 72.0895 81.6605 71.25 80.625 71.25Z" fill="url(#paint19_linear_238_3215)"/>
<path d="M7.5 76.875C7.5 77.3723 7.69754 77.8492 8.04918 78.2008C8.40081 78.5525 8.87772 78.75 9.375 78.75H80.625C81.1223 78.75 81.5992 78.5525 81.9508 78.2008C82.3024 77.8492 82.5 77.3723 82.5 76.875V73.125H7.5V76.875Z" fill="url(#paint20_linear_238_3215)"/>
<path d="M18.4052 20.625L16.5996 33.75H73.4009L71.5971 20.625H18.4052Z" fill="url(#paint21_linear_238_3215)"/>
<defs>
<linearGradient id="paint0_linear_238_3215" x1="20.625" y1="77.4619" x2="20.625" y2="86.1337" gradientUnits="userSpaceOnUse">
<stop stop-color="#3F4C56"/>
<stop offset="1" stop-color="#27333E"/>
</linearGradient>
<linearGradient id="paint1_linear_238_3215" x1="20.625" y1="80.9775" x2="20.625" y2="86.1787" gradientUnits="userSpaceOnUse">
<stop stop-color="#3F4C56" stop-opacity="0"/>
<stop offset="1" stop-color="#141414"/>
</linearGradient>
<linearGradient id="paint2_linear_238_3215" x1="69.375" y1="77.4619" x2="69.375" y2="86.1337" gradientUnits="userSpaceOnUse">
<stop stop-color="#3F4C56"/>
<stop offset="1" stop-color="#27333E"/>
</linearGradient>
<linearGradient id="paint3_linear_238_3215" x1="69.375" y1="80.9775" x2="69.375" y2="86.1787" gradientUnits="userSpaceOnUse">
<stop stop-color="#3F4C56" stop-opacity="0"/>
<stop offset="1" stop-color="#141414"/>
</linearGradient>
<linearGradient id="paint4_linear_238_3215" x1="3.75" y1="30.9375" x2="16.875" y2="30.9375" gradientUnits="userSpaceOnUse">
<stop stop-color="#3F4C56"/>
<stop offset="1" stop-color="#27333E"/>
</linearGradient>
<linearGradient id="paint5_linear_238_3215" x1="73.125" y1="30.9375" x2="86.25" y2="30.9375" gradientUnits="userSpaceOnUse">
<stop stop-color="#27333E"/>
<stop offset="1" stop-color="#3F4C56"/>
</linearGradient>
<linearGradient id="paint6_linear_238_3215" x1="45" y1="3.90563" x2="45" y2="78.0488" gradientUnits="userSpaceOnUse">
<stop stop-color="#EAECF7"/>
<stop offset="1" stop-color="#CDD3F1"/>
</linearGradient>
<linearGradient id="paint7_linear_238_3215" x1="45" y1="54.42" x2="45" y2="75.8831" gradientUnits="userSpaceOnUse">
<stop stop-color="#E2E5F4" stop-opacity="0"/>
<stop offset="1" stop-color="#9AA6E2"/>
</linearGradient>
<linearGradient id="paint8_linear_238_3215" x1="33.7425" y1="48.1425" x2="10.1869" y2="73.1044" gradientUnits="userSpaceOnUse">
<stop stop-color="#FF4343"/>
<stop offset="1" stop-color="#E40000"/>
</linearGradient>
<linearGradient id="paint9_linear_238_3215" x1="23.4375" y1="71.5425" x2="23.4375" y2="61.0444" gradientUnits="userSpaceOnUse">
<stop stop-color="#AF0000"/>
<stop offset="1" stop-color="#FF4343" stop-opacity="0"/>
</linearGradient>
<linearGradient id="paint10_linear_238_3215" x1="16.9238" y1="56.4262" x2="24.5663" y2="63.8062" gradientUnits="userSpaceOnUse">
<stop stop-color="#AF0000"/>
<stop offset="1" stop-color="#FF4343" stop-opacity="0"/>
</linearGradient>
<linearGradient id="paint11_linear_238_3215" x1="18.1556" y1="57.6169" x2="23.2538" y2="62.5388" gradientUnits="userSpaceOnUse">
<stop stop-color="#EAECF7"/>
<stop offset="1" stop-color="#CDD3F1"/>
</linearGradient>
<linearGradient id="paint12_linear_238_3215" x1="57.03" y1="49.2356" x2="79.7644" y2="72.6731" gradientUnits="userSpaceOnUse">
<stop stop-color="#FF4343"/>
<stop offset="1" stop-color="#E40000"/>
</linearGradient>
<linearGradient id="paint13_linear_238_3215" x1="66.5625" y1="72.8119" x2="66.5625" y2="61.3256" gradientUnits="userSpaceOnUse">
<stop stop-color="#AF0000"/>
<stop offset="1" stop-color="#FF4343" stop-opacity="0"/>
</linearGradient>
<linearGradient id="paint14_linear_238_3215" x1="64.7137" y1="55.5225" x2="73.6294" y2="64.0875" gradientUnits="userSpaceOnUse">
<stop stop-color="#AF0000"/>
<stop offset="1" stop-color="#FF4343" stop-opacity="0"/>
</linearGradient>
<linearGradient id="paint15_linear_238_3215" x1="66.2663" y1="57.0131" x2="72.2138" y2="62.7263" gradientUnits="userSpaceOnUse">
<stop stop-color="#EAECF7"/>
<stop offset="1" stop-color="#CDD3F1"/>
</linearGradient>
<linearGradient id="paint16_linear_238_3215" x1="44.9998" y1="-1.4475" x2="44.9998" y2="26.1469" gradientUnits="userSpaceOnUse">
<stop stop-color="#9AA6E2"/>
<stop offset="1" stop-color="#E2E5F4" stop-opacity="0"/>
</linearGradient>
<linearGradient id="paint17_linear_238_3215" x1="45.0002" y1="9.60938" x2="45.0002" y2="33.5269" gradientUnits="userSpaceOnUse">
<stop stop-color="#9AA6E2"/>
<stop offset="1" stop-color="#7283D6"/>
</linearGradient>
<linearGradient id="paint18_linear_238_3215" x1="45" y1="39.2587" x2="45" y2="57.1913" gradientUnits="userSpaceOnUse">
<stop stop-color="#3F4C56"/>
<stop offset="1" stop-color="#27333E"/>
</linearGradient>
<linearGradient id="paint19_linear_238_3215" x1="45" y1="71.5631" x2="45" y2="79.1025" gradientUnits="userSpaceOnUse">
<stop stop-color="#9AA6E2"/>
<stop offset="1" stop-color="#7283D6"/>
</linearGradient>
<linearGradient id="paint20_linear_238_3215" x1="45" y1="73.3594" x2="45" y2="79.0144" gradientUnits="userSpaceOnUse">
<stop stop-color="#7283D6" stop-opacity="0"/>
<stop offset="1" stop-color="#4D62CB"/>
</linearGradient>
<linearGradient id="paint21_linear_238_3215" x1="0.000232521" y1="20.7506" x2="45.0002" y2="33.63" gradientUnits="userSpaceOnUse">
<stop stop-color="#7283D6" stop-opacity="0"/>
<stop offset="1" stop-color="#4D62CB"/>
</linearGradient>
</defs>
</svg>
