<svg width="571" height="393" viewBox="0 0 571 393" fill="none" xmlns="http://www.w3.org/2000/svg">
<g clip-path="url(#clip0_203_8011)">
<path d="M493.9 78.7249C493.9 35.2406 458.829 -0.00012207 415.555 -0.00012207C372.281 -0.00012207 337.211 35.2406 337.211 78.7249C337.211 78.7249 326.635 158.661 410.112 224.22C413.261 226.72 417.849 226.72 421.037 224.22C504.514 158.661 493.939 78.7249 493.939 78.7249H493.9Z" fill="url(#paint0_linear_203_8011)"/>
<path d="M418.821 119.318C393.86 121.311 373.137 100.526 375.12 75.404C376.675 55.6739 392.577 39.6554 412.251 38.0926C437.212 36.1001 457.935 56.8851 455.952 82.0067C454.397 101.737 438.495 117.755 418.821 119.318Z" fill="white"/>
<path d="M91.8359 172.804H0C0 172.804 5.7932 156.082 22.4341 153.191C39.075 150.3 38.3362 163.349 52.7998 164.092C67.2634 164.834 71.618 156.082 82.4657 161.201C93.3133 166.28 91.8748 172.843 91.8748 172.843L91.8359 172.804Z" fill="#F1F2F2"/>
<path d="M303.735 112.246H211.899C211.899 112.246 217.692 95.5247 234.333 92.6336C250.974 89.7424 250.235 102.792 264.699 103.534C279.162 104.276 283.517 95.5247 294.365 100.643C305.212 105.722 303.774 112.286 303.774 112.286L303.735 112.246Z" fill="#F1F2F2"/>
<path d="M237.677 155.496H324.847C327.841 155.496 330.29 157.958 330.29 160.966V185.072H232.195V160.966C232.195 157.958 234.644 155.496 237.638 155.496H237.677Z" fill="#FEDA4E"/>
<path d="M231.145 155.496H318.315C321.309 155.496 323.758 157.958 323.758 160.966V185.072H225.663V160.966C225.663 157.958 228.112 155.496 231.106 155.496H231.145Z" fill="#374148"/>
<path d="M441.489 284.855H184.449V341.467H441.489V284.855Z" fill="#212826"/>
<path d="M450.742 335.294H47.5898C43.2093 335.294 39.6582 338.863 39.6582 343.264V347.21C39.6582 351.612 43.2093 355.181 47.5898 355.181H450.742C455.123 355.181 458.674 351.612 458.674 347.21V343.264C458.674 338.863 455.123 335.294 450.742 335.294Z" fill="#212826"/>
<path d="M119.908 375.223C140.264 375.223 156.766 358.641 156.766 338.185C156.766 317.73 140.264 301.147 119.908 301.147C99.5511 301.147 83.0488 317.73 83.0488 338.185C83.0488 358.641 99.5511 375.223 119.908 375.223Z" fill="#17242B"/>
<path d="M304.746 375.223C325.103 375.223 341.605 358.641 341.605 338.185C341.605 317.73 325.103 301.147 304.746 301.147C284.389 301.147 267.887 317.73 267.887 338.185C267.887 358.641 284.389 375.223 304.746 375.223Z" fill="#17242B"/>
<path d="M205.523 374.989C229.701 374.989 249.302 357.06 249.302 334.943C249.302 312.826 229.701 294.896 205.523 294.896C181.344 294.896 161.743 312.826 161.743 334.943C161.743 357.06 181.344 374.989 205.523 374.989Z" fill="#17242B"/>
<path d="M210.538 374.989C232.548 374.989 250.391 357.06 250.391 334.943C250.391 312.826 232.548 294.896 210.538 294.896C188.528 294.896 170.686 312.826 170.686 334.943C170.686 357.06 188.528 374.989 210.538 374.989Z" fill="#2F393C"/>
<path d="M210.538 374.989C232.548 374.989 250.391 357.06 250.391 334.943C250.391 312.826 232.548 294.896 210.538 294.896C188.528 294.896 170.686 312.826 170.686 334.943C170.686 357.06 188.528 374.989 210.538 374.989Z" fill="#212826"/>
<path d="M211.782 366.276C229.004 366.276 242.965 352.248 242.965 334.943C242.965 317.637 229.004 303.609 211.782 303.609C194.561 303.609 180.6 317.637 180.6 334.943C180.6 352.248 194.561 366.276 211.782 366.276Z" fill="#48606C"/>
<path d="M246.192 337.131C244.365 337.131 242.809 338.498 242.498 340.334C239.971 355.103 227.179 366.316 211.783 366.316C196.386 366.316 183.594 355.103 181.067 340.334C180.756 338.498 179.24 337.131 177.373 337.131H174.846C172.513 337.131 170.802 339.24 171.152 341.506C174.185 360.611 190.632 375.223 210.5 375.223C230.368 375.223 246.853 360.611 249.847 341.506C250.197 339.201 248.486 337.131 246.153 337.131H246.192Z" fill="#374148"/>
<path d="M231.573 334.943C231.573 345.843 222.786 354.673 211.938 354.673C201.09 354.673 192.303 345.843 192.303 334.943C192.303 324.042 201.09 315.213 211.938 315.213C222.786 315.213 231.573 324.042 231.573 334.943Z" fill="#C4CAD1"/>
<path d="M183.011 333.302C183.944 333.302 184.722 332.638 184.838 331.7C186.432 318.026 197.941 307.438 211.977 307.438C226.013 307.438 237.522 318.026 239.116 331.7C239.232 332.598 240.01 333.302 240.943 333.302C242.071 333.302 242.926 332.325 242.77 331.192C240.943 315.642 227.763 303.57 211.783 303.57C195.803 303.57 182.661 315.642 180.795 331.192C180.678 332.325 181.495 333.302 182.622 333.302H182.972H183.011Z" fill="#524F5E"/>
<path d="M383.363 374.989C407.541 374.989 427.142 357.06 427.142 334.943C427.142 312.826 407.541 294.896 383.363 294.896C359.184 294.896 339.583 312.826 339.583 334.943C339.583 357.06 359.184 374.989 383.363 374.989Z" fill="#17242B"/>
<path d="M388.339 374.989C410.349 374.989 428.192 357.06 428.192 334.943C428.192 312.826 410.349 294.896 388.339 294.896C366.329 294.896 348.487 312.826 348.487 334.943C348.487 357.06 366.329 374.989 388.339 374.989Z" fill="#2F393C"/>
<path d="M388.339 374.989C410.349 374.989 428.192 357.06 428.192 334.943C428.192 312.826 410.349 294.896 388.339 294.896C366.329 294.896 348.487 312.826 348.487 334.943C348.487 357.06 366.329 374.989 388.339 374.989Z" fill="#212826"/>
<path d="M389.584 366.276C406.805 366.276 420.766 352.248 420.766 334.943C420.766 317.637 406.805 303.609 389.584 303.609C372.362 303.609 358.401 317.637 358.401 334.943C358.401 352.248 372.362 366.276 389.584 366.276Z" fill="#48606C"/>
<path d="M424.032 337.131C422.204 337.131 420.649 338.498 420.338 340.334C417.811 355.103 405.019 366.316 389.622 366.316C374.226 366.316 361.434 355.103 358.907 340.334C358.596 338.498 357.079 337.131 355.213 337.131H352.686C350.353 337.131 348.642 339.24 348.992 341.506C352.025 360.611 368.471 375.223 388.339 375.223C408.207 375.223 424.693 360.611 427.687 341.506C428.036 339.201 426.326 337.131 423.993 337.131H424.032Z" fill="#374148"/>
<path d="M410.035 334.826C410.035 345.726 401.248 354.556 390.4 354.556C379.552 354.556 370.765 345.726 370.765 334.826C370.765 323.925 379.552 315.095 390.4 315.095C401.248 315.095 410.035 323.925 410.035 334.826Z" fill="#C4CAD1"/>
<path d="M360.812 333.302C361.745 333.302 362.522 332.638 362.639 331.7C364.233 318.026 375.742 307.438 389.778 307.438C403.814 307.438 415.322 318.026 416.916 331.7C417.033 332.598 417.811 333.302 418.744 333.302C419.871 333.302 420.727 332.325 420.571 331.192C418.744 315.642 405.563 303.57 389.583 303.57C373.603 303.57 360.462 315.642 358.596 331.192C358.479 332.325 359.295 333.302 360.423 333.302H360.773H360.812Z" fill="#524F5E"/>
<path d="M135.187 342.483V334.435L139.464 329.551C139.464 310.915 144.908 299.975 148.718 294.584C149.845 293.138 151.051 291.732 152.334 290.403C172.435 269.032 201.984 267.821 218.547 244.067C235.111 220.313 252.84 178.743 293.043 178.743H186.082C145.88 178.743 128.15 220.313 111.587 244.067C95.0239 267.821 65.4746 269.032 45.3734 290.403C44.1292 291.732 42.9239 293.138 41.7575 294.584C37.9472 299.975 32.5039 310.915 32.5039 329.551L28.2271 334.435V342.483C28.2271 344.554 29.8989 346.234 31.9596 346.234H138.92C136.859 346.234 135.187 344.554 135.187 342.483Z" fill="#FEDA4E"/>
<path d="M464.234 286.536L456.691 276.104C448.604 221.68 427.259 196.168 414.584 185.424C409.374 181.048 402.803 178.665 396.038 178.665H287.055C246.853 178.665 229.123 220.235 212.56 243.989C195.997 267.743 166.448 268.954 146.347 290.325C145.063 291.654 143.897 293.06 142.731 294.506C138.92 299.897 133.477 310.837 133.477 329.473L129.2 334.357V342.405C129.2 344.476 130.872 346.156 132.933 346.156H168.003C171.23 346.156 173.641 343.264 173.096 340.061C172.474 336.388 172.358 332.559 172.746 328.613C174.885 308.336 191.565 292.318 211.783 291.068C236.122 289.583 256.34 308.961 256.34 333.106C256.34 334.982 256.223 336.857 255.99 338.693C255.445 342.678 258.634 346.156 262.599 346.156H342.227C347.359 346.156 351.325 341.741 350.897 336.623C350.664 334.005 350.703 331.309 350.975 328.574C353.113 308.297 369.793 292.279 390.011 291.029C414.35 289.544 434.568 308.922 434.568 333.067C434.568 335.294 434.413 337.443 434.063 339.553C433.518 342.991 436.162 346.077 439.623 346.077H456.03C461.59 346.077 466.061 341.545 466.061 335.998V292.357C466.061 290.208 465.4 288.137 464.156 286.418L464.234 286.536Z" fill="#FEDA4E"/>
<path d="M231.067 243.286H387.25C387.834 243.286 388.378 243.129 388.845 242.856L425.664 221.993C426.598 221.485 427.103 220.547 426.986 219.57C426.481 215.312 423.332 203.2 404.125 190.659C402.958 189.917 401.558 189.526 400.12 189.526H276.402C274.963 189.526 273.525 189.917 272.358 190.659C265.593 194.8 242.42 210.545 228.423 239.652C227.607 241.371 229.007 243.286 231.145 243.286H231.067Z" fill="white"/>
<path d="M231.067 241.645H386.784C387.328 241.645 387.911 241.488 388.378 241.215L425.081 220.352C426.014 219.844 426.52 218.906 426.403 217.93C425.898 213.671 422.748 201.559 403.58 189.018C402.414 188.276 401.014 187.885 399.575 187.885H276.207C274.769 187.885 273.369 188.276 272.164 189.018C265.399 193.16 242.342 208.905 228.345 238.011C227.529 239.73 228.929 241.645 231.028 241.645H231.067Z" fill="#2C8CA5"/>
<path d="M391.76 198.004C390.516 197.184 389 196.754 387.445 196.754H261.394C251.479 204.763 237.871 218.32 228.423 238.011C227.607 239.73 229.006 241.645 231.106 241.645H386.823C387.367 241.645 387.95 241.488 388.417 241.215L415.711 225.704C413.961 219.57 408.518 208.944 391.799 198.004H391.76Z" fill="#47BBE4"/>
<path d="M400.314 223.243C399.07 222.423 397.554 221.993 395.998 221.993H269.948C264.193 226.642 257.234 233.167 250.507 241.645H386.823C387.367 241.645 387.95 241.488 388.417 241.215L408.907 229.572C406.457 227.502 403.619 225.353 400.353 223.243H400.314Z" fill="#2C8CA5"/>
<path d="M130.328 234.104C145.724 208.983 157.466 196.09 163.143 190.581C165.359 188.432 168.353 187.221 171.463 187.299L239.893 188.549C241.293 188.549 241.954 190.268 240.943 191.245C235.577 196.285 223.291 209.373 206.922 236.214C204.939 239.457 201.401 241.371 197.63 241.293L133.594 240.121C130.561 240.082 128.733 236.683 130.328 234.104Z" fill="#2C8CA5"/>
<path d="M176.285 194.371C173.174 194.332 170.18 195.504 167.964 197.652C162.365 203.083 150.896 215.703 135.771 240.16L197.591 241.293C201.363 241.371 204.901 239.418 206.884 236.214C219.87 214.96 230.251 202.341 236.705 195.504L176.285 194.41V194.371Z" fill="#47BBE4"/>
<path d="M146.385 290.403C145.102 291.732 143.936 293.138 142.769 294.584C138.959 299.975 133.516 310.915 133.516 329.551L129.239 334.435V342.483C129.239 344.554 130.911 346.234 132.971 346.234H168.042C171.269 346.234 173.679 343.343 173.135 340.139C172.513 336.466 172.396 332.638 172.785 328.691C174.923 308.414 191.603 292.396 211.821 291.146C236.16 289.661 256.378 309.04 256.378 333.184C256.378 335.06 256.262 336.935 256.028 338.771C255.484 342.757 258.672 346.234 262.638 346.234H342.265C347.398 346.234 351.363 341.819 350.936 336.701C350.702 334.083 350.741 331.387 351.014 328.652C353.152 308.375 369.832 292.357 390.05 291.107C414.389 289.622 434.607 309 434.607 333.145C434.607 335.372 434.451 337.521 434.101 339.631C433.557 343.069 436.201 346.156 439.661 346.156H456.069C461.629 346.156 466.1 341.623 466.1 336.076V292.435C466.1 290.286 465.439 288.216 464.195 286.496L456.652 276.065C456.574 275.44 456.458 274.815 456.341 274.19H168.625C160.732 278.409 153.034 283.254 146.385 290.325V290.403Z" fill="#FEBC2F"/>
<path d="M129.939 296.42H112.093C110.697 296.42 109.565 297.557 109.565 298.96V304.468C109.565 305.871 110.697 307.008 112.093 307.008H129.939C131.335 307.008 132.466 305.871 132.466 304.468V298.96C132.466 297.557 131.335 296.42 129.939 296.42Z" fill="#FEE8A9"/>
<path d="M35.731 307.008H52.1774C53.5771 307.008 54.7047 305.875 54.7047 304.468V298.999C54.7047 297.592 53.5771 296.459 52.1774 296.459H40.5521C38.958 299.038 37.2084 302.515 35.731 307.047V307.008Z" fill="#FEE8A9"/>
<path d="M459.218 309.626H467.15C469.288 309.626 470.999 311.345 470.999 313.493V336.935C470.999 339.084 469.288 340.803 467.15 340.803H459.218C456.613 340.803 454.475 338.654 454.475 336.036V314.353C454.475 311.735 456.613 309.586 459.218 309.586V309.626Z" fill="#212826"/>
<path d="M56.0267 314.275H102.917C105.833 314.275 108.204 316.658 108.204 319.588V332.872H50.7778V319.588C50.7778 316.658 53.1495 314.275 56.0656 314.275H56.0267Z" fill="#FEA100"/>
<path d="M140.32 329.981H35.148C32.0988 329.981 29.627 332.465 29.627 335.529V342.131C29.627 345.195 32.0988 347.679 35.148 347.679H140.32C143.369 347.679 145.841 345.195 145.841 342.131V335.529C145.841 332.465 143.369 329.981 140.32 329.981Z" fill="#212826"/>
<path d="M122.668 329.981H32.7762C29.7056 329.981 27.2163 332.482 27.2163 335.568V342.092C27.2163 345.178 29.7056 347.679 32.7762 347.679H122.668C125.739 347.679 128.228 345.178 128.228 342.092V335.568C128.228 332.482 125.739 329.981 122.668 329.981Z" fill="#374148"/>
<path d="M117.108 342.132H99.3009C97.4736 342.132 95.9961 340.647 95.9961 338.811C95.9961 336.974 97.4736 335.49 99.3009 335.49H117.108C118.936 335.49 120.413 336.974 120.413 338.811C120.413 340.647 118.936 342.132 117.108 342.132Z" fill="#212826"/>
<path d="M53.7327 342.132H35.9255C34.0981 342.132 32.6206 340.647 32.6206 338.811C32.6206 336.974 34.0981 335.49 35.9255 335.49H53.7327C55.5601 335.49 57.0376 336.974 57.0376 338.811C57.0376 340.647 55.5601 342.132 53.7327 342.132Z" fill="#212826"/>
<path d="M32.6984 319.159H44.3626C45.2568 319.159 45.9956 319.901 45.9956 320.8V325.019C45.9956 325.918 45.2568 326.66 44.3626 326.66H32.6984C31.8042 326.66 31.0654 325.918 31.0654 325.019V320.8C31.0654 319.901 31.8042 319.159 32.6984 319.159Z" fill="#FEA100"/>
<path d="M100.623 296.811H62.7534C61.422 296.811 60.3428 297.895 60.3428 299.233V303.882C60.3428 305.22 61.422 306.305 62.7534 306.305H100.623C101.954 306.305 103.034 305.22 103.034 303.882V299.233C103.034 297.895 101.954 296.811 100.623 296.811Z" fill="#374148"/>
<path d="M114.348 319.159H126.012C126.906 319.159 127.645 319.901 127.645 320.8V325.019C127.645 325.918 126.906 326.66 126.012 326.66H114.348C113.454 326.66 112.715 325.918 112.715 325.019V320.8C112.715 319.901 113.454 319.159 114.348 319.159Z" fill="#FEA100"/>
<path d="M434.412 328.535H457.702C457.78 327.754 457.896 326.973 458.013 326.23H434.062C434.179 327.012 434.296 327.754 434.374 328.535H434.412Z" fill="#17242B"/>
<path d="M307.545 264.969H290.826C288.766 264.969 287.094 263.289 287.094 261.218C287.094 259.148 288.766 257.468 290.826 257.468H307.545C309.606 257.468 311.277 259.148 311.277 261.218C311.277 263.289 309.606 264.969 307.545 264.969Z" fill="#374148"/>
<path d="M422.515 264.969H405.796C403.736 264.969 402.064 263.289 402.064 261.219C402.064 259.148 403.736 257.468 405.796 257.468H422.515C424.576 257.468 426.248 259.148 426.248 261.219C426.248 263.289 424.576 264.969 422.515 264.969Z" fill="#374148"/>
<path d="M321.542 241.645H331.768L322.126 193.55H312.133L321.542 241.645Z" fill="#2C8CA5"/>
<path d="M160.888 282.785H123.874C122.979 282.785 122.124 283.019 121.385 283.449L110.537 289.583C109.954 289.895 109.332 290.091 108.671 290.091H62.5977C61.2369 290.091 59.9539 289.348 59.2929 288.137L57.6599 285.207C57.3489 284.66 56.9601 284.152 56.4546 283.762L54.6272 282.238C54.2773 282.511 53.8885 282.785 53.5386 283.058L55.5992 284.777C55.9492 285.09 56.2602 285.442 56.4935 285.832L58.1265 288.762C59.0207 290.403 60.7315 291.38 62.5977 291.38H108.671C109.565 291.38 110.421 291.146 111.16 290.716L122.007 284.582C122.59 284.269 123.213 284.074 123.874 284.074H159.177C159.76 283.605 160.305 283.175 160.888 282.746V282.785Z" fill="#FEBC2F"/>
<path d="M466.139 307.75H460.463C459.724 307.75 459.102 307.242 458.985 306.5L458.285 302.554C458.13 301.616 458.83 300.796 459.763 300.796H466.139V307.75Z" fill="#E33C2E"/>
<path opacity="0.28" d="M180.872 241.02L196.308 241.293L193.314 187.69L177.878 187.416L180.872 241.02Z" fill="#FBF9FA"/>
<path d="M305.407 185.892L316.293 242.621H326.519L315.321 185.892H305.407Z" fill="#DFE5F5"/>
<path d="M272.786 321.503H262.288V332.051H272.786V321.503Z" fill="#212826"/>
<path d="M283.284 332.091H272.786V342.639H283.284V332.091Z" fill="#212826"/>
<path d="M293.781 321.503H283.284V332.051H293.781V321.503Z" fill="#212826"/>
<path d="M304.318 332.091H293.82V342.639H304.318V332.091Z" fill="#212826"/>
<path d="M314.816 321.503H304.318V332.051H314.816V321.503Z" fill="#212826"/>
<path d="M325.313 332.091H314.815V342.639H325.313V332.091Z" fill="#212826"/>
<path d="M335.85 321.503H325.353V332.051H335.85V321.503Z" fill="#212826"/>
<path d="M346.348 332.091H335.85V342.639H346.348V332.091Z" fill="#212826"/>
<path d="M192.342 334.943C192.342 345.843 201.129 354.673 211.977 354.673C222.825 354.673 231.612 345.843 231.612 334.943C231.612 334.826 231.612 334.669 231.573 334.552H192.42C192.42 334.552 192.381 334.826 192.381 334.943H192.342Z" fill="#AEB0B6"/>
<path d="M370.998 335.021C370.998 345.921 379.785 354.751 390.633 354.751C401.48 354.751 410.267 345.921 410.267 335.021C410.267 334.904 410.267 334.747 410.229 334.63H371.076C371.076 334.63 371.037 334.904 371.037 335.021H370.998Z" fill="#AEB0B6"/>
<path d="M122.914 75.8125C129.657 47.1049 111.964 18.34 83.3951 11.5643C54.8262 4.78871 26.2004 22.5681 19.4576 51.2758C12.7147 79.9835 30.4082 108.748 58.977 115.524C87.5458 122.3 116.172 104.52 122.914 75.8125Z" fill="#FEE18E"/>
</g>
<defs>
<linearGradient id="paint0_linear_203_8011" x1="343.043" y1="-111.27" x2="511.667" y2="351.179" gradientUnits="userSpaceOnUse">
<stop stop-color="#FF7D49"/>
<stop offset="0.2" stop-color="#FB7646"/>
<stop offset="0.47" stop-color="#F16541"/>
<stop offset="0.78" stop-color="#E14837"/>
<stop offset="1" stop-color="#D32F2F"/>
</linearGradient>
<clipPath id="clip0_203_8011">
<rect width="571" height="393" fill="white"/>
</clipPath>
</defs>
</svg>
