<svg width="23" height="23" viewBox="0 0 23 23" fill="none" xmlns="http://www.w3.org/2000/svg">
<g clip-path="url(#clip0_238_3317)">
<path fill-rule="evenodd" clip-rule="evenodd" d="M23 11.2047C23 17.3917 17.9453 22.408 11.7092 22.408C9.72943 22.408 7.86886 21.9022 6.25059 21.0136L0 23L2.03806 16.9892C1.01042 15.3007 0.418471 13.3209 0.418471 11.2034C0.418471 5.01637 5.47323 0 11.7092 0C17.9453 0 23 5.01637 23 11.2047ZM11.7092 1.7838C6.47306 1.7838 2.21551 6.00823 2.21551 11.2034C2.21551 13.264 2.88693 15.1722 4.02315 16.7256L2.83793 20.223L6.48499 19.0643C7.98409 20.0469 9.77845 20.6216 11.7079 20.6216C16.9414 20.6216 21.2003 16.3958 21.2003 11.2034C21.2003 6.01089 16.9428 1.7838 11.7092 1.7838ZM17.4103 13.7844C17.3401 13.6692 17.156 13.6016 16.8806 13.4639C16.6038 13.3275 15.2424 12.6614 14.9882 12.5714C14.7352 12.4799 14.5485 12.4337 14.3657 12.7077C14.1817 12.9819 13.6506 13.6016 13.4891 13.7844C13.3275 13.9685 13.1673 13.991 12.8905 13.8533C12.6137 13.7168 11.7212 13.4255 10.6644 12.4906C9.84199 11.7622 9.28711 10.863 9.12424 10.5889C8.96402 10.3148 9.10836 10.1664 9.24478 10.0287C9.36928 9.9056 9.52157 9.70823 9.66056 9.54802C9.79965 9.38644 9.84465 9.27259 9.93738 9.08852C10.0301 8.90574 9.98371 8.74552 9.9135 8.60782C9.84465 8.4714 9.29114 7.11931 9.05934 6.56839C8.83026 6.02016 8.59855 6.04003 8.43699 6.04003C8.2754 6.04003 7.97742 6.08769 7.97742 6.08769C7.97742 6.08769 7.42253 6.15656 7.16962 6.43069C6.91669 6.70482 6.20159 7.36956 6.20159 8.72038C6.20159 10.0711 7.19217 11.3782 7.33118 11.5596C7.47026 11.7437 9.24478 14.6067 12.0588 15.7059C14.8729 16.805 14.8729 16.4382 15.3801 16.3919C15.8873 16.3469 17.0169 15.7284 17.2487 15.0861C17.4791 14.4452 17.4791 13.8943 17.4116 13.7804L17.4103 13.7844Z" fill="#FAB60B"/>
</g>
<defs>
<clipPath id="clip0_238_3317">
<rect width="23" height="23" fill="white"/>
</clipPath>
</defs>
</svg>
