<?xml version="1.0" encoding="utf-8"?>
<!-- Generator: Adobe Illustrator 23.0.1, SVG Export Plug-In . SVG Version: 6.00 Build 0)  -->
<svg version="1.1" id="Layer_1" xmlns="http://www.w3.org/2000/svg" xmlns:xlink="http://www.w3.org/1999/xlink" x="0px" y="0px"
	 viewBox="0 0 19 20" style="enable-background:new 0 0 19 20;" xml:space="preserve">
<style type="text/css">
	.st0{fill:#010101;}
</style>
<path class="st0" d="M15.42,10.61c-0.7,0.25-1.41,0.34-2.14,0.27l-0.1-0.29c-0.08-0.22-0.44-0.27-0.49,0
	c-0.02,0.08-0.19,0.83-0.47,0.46c-0.17-0.22-0.07-0.55-0.04-0.8c0.03-0.27,0.03-0.61-0.15-0.83c-0.21-0.25-0.79-0.51-1.05-0.18
	c-0.42,0.52,0.21,1.22-0.28,1.78c-0.29,0.33-0.81,0.12-1.08-0.15c0.35-0.59,0.28-1.27-0.03-1.87c-0.09-0.17-0.38-0.18-0.46,0
	c-0.25,0.53-0.39,1.25-0.17,1.81c-0.24,0.16-0.56,0.2-0.81,0.05c0.45-0.69,0.63-1.58,0.38-2.49C8.44,8.14,8.13,8.13,8,8.32
	c-0.42,0.58-0.8,1.2-0.76,1.94c0.01,0.23,0.08,0.44,0.19,0.62c-0.4,0.46-0.98,0.77-1.64,0.83c-0.01-0.04-0.02-0.08-0.03-0.11
	c-0.04-0.16-0.1-0.31-0.15-0.46c0-0.36,0.01-0.72,0.02-1.07C5.69,9.98,5.75,9.9,5.81,9.8c0.3-0.43,0.56-0.9,0.79-1.37
	c0.93-1.89,1.29-4.05,1.06-6.14C7.64,2.04,7.4,1.94,7.21,2.1C6.64,2.55,6.39,3.21,6.17,3.88c-0.28,0.88-0.5,1.79-0.67,2.7
	C5.29,7.66,5.17,8.76,5.11,9.86C5.09,9.89,5.07,9.92,5.05,9.96c-0.3,0.43-0.13,0.89,0.03,1.34c0,0.23,0.01,0.46,0.01,0.69
	c0.01,0.15,0.12,0.25,0.26,0.26c0,0,0.01,0,0.01,0c0.12,0.49,0.2,0.99,0.26,1.49c0.16,1.43,0.02,2.88-0.37,4.27
	c-0.53-0.25-0.6-3.01-0.61-3.39c-0.04-0.97,0.03-1.93,0.11-2.89c0.08-0.05,0.13-0.13,0.11-0.25l-0.07-0.4
	c-0.04-0.24-0.44-0.24-0.49,0c-0.21,1.16-0.23,2.37-0.19,3.54c0.02,0.61,0.07,1.23,0.14,1.84c0.06,0.5,0.09,1.03,0.29,1.49
	c0.23,0.54,1.01,0.99,1.24,0.22c0.32-1.06,0.45-2.18,0.46-3.28c0.01-0.89-0.11-1.78-0.31-2.65c0.75-0.09,1.4-0.43,1.88-0.94
	c0.1,0.08,0.22,0.14,0.35,0.18c0.34,0.13,0.76,0.01,1.08-0.21c0.06,0.06,0.12,0.11,0.19,0.16c0.64,0.43,1.66,0.37,1.92-0.48
	c0.13-0.43,0.09-0.85,0.01-1.28c0.08-0.05,0.16-0.03,0.23,0.06c0.15,0.12,0.07,0.55,0.05,0.72c-0.03,0.25-0.05,0.53,0.08,0.76
	c0.17,0.3,0.41,0.53,0.77,0.51c0.22-0.01,0.38-0.17,0.49-0.37c0.04,0.02,0.08,0.03,0.13,0.04c0.84,0.11,1.67,0.02,2.47-0.27
	C15.88,11,15.74,10.49,15.42,10.61 M5.97,6.92C6.11,6.13,6.3,5.36,6.51,4.59C6.67,4.02,6.83,3.4,7.18,2.92
	c0.11,2.13-0.42,4.18-1.47,6.01C5.77,8.25,5.86,7.58,5.97,6.92 M8.06,9.24c-0.01,0.41-0.11,0.8-0.29,1.15
	C7.68,10.03,7.85,9.61,8.06,9.24"/>
</svg>
