<svg width="70" height="70" viewBox="0 0 70 70" fill="none" xmlns="http://www.w3.org/2000/svg">
<rect width="70" height="70" rx="12" fill="#FAB615"/>
<path d="M26.6136 19.2404H22.3841V50.766H26.6136V19.2404Z" fill="black"/>
<path d="M63 34.9968C63 35.6723 62.9621 36.3288 62.9116 36.9853V37.1116H62.899C61.8132 51.574 49.718 63 34.9968 63C19.556 63 7 50.4377 7 34.9968C7 19.5496 19.556 7 35.0031 7C45.2171 7 54.1811 12.5047 59.0608 20.7049L55.9613 23.8044C51.9654 16.3239 44.0745 11.2169 35.0031 11.2169C21.8853 11.2169 11.2169 21.8854 11.2169 34.9905C11.2169 48.0957 21.879 58.7831 34.9968 58.7831C47.3887 58.7831 57.5963 49.2383 58.6632 37.1116H36.9159L48.6638 48.8595L45.6779 51.8454L28.8293 34.9905L31.8152 32.0046L45.6779 18.1356L48.6638 21.1215L36.9159 32.8947H62.9116C62.9621 33.5891 63 34.2898 63 34.9968Z" fill="black"/>
</svg>
