<svg width="189" height="37" viewBox="0 0 189 37" fill="none" xmlns="http://www.w3.org/2000/svg">
<path d="M16.7 36.6C13.4 36.6 10.5167 35.85 8.05 34.35C5.58333 32.85 3.66667 30.7667 2.3 28.1C0.933333 25.4 0.25 22.2667 0.25 18.7C0.25 15.1 0.95 11.9333 2.35 9.2C3.78333 6.43333 5.8 4.28333 8.4 2.75C11.0333 1.18333 14.15 0.399999 17.75 0.399999C21.85 0.399999 25.25 1.38333 27.95 3.35C30.65 5.31666 32.4 8.03333 33.2 11.5H26.05C25.5167 9.86667 24.55 8.6 23.15 7.7C21.75 6.76666 19.95 6.3 17.75 6.3C14.25 6.3 11.55 7.41667 9.65 9.65C7.75 11.85 6.8 14.8833 6.8 18.75C6.8 22.6167 7.73333 25.6167 9.6 27.75C11.5 29.85 14.0667 30.9 17.3 30.9C20.4667 30.9 22.85 30.05 24.45 28.35C26.0833 26.6167 27.0667 24.35 27.4 21.55H18.55V16.75H33.85V36H27.95L27.45 31.4C26.3167 33.0667 24.9 34.35 23.2 35.25C21.5 36.15 19.3333 36.6 16.7 36.6ZM43.3719 7.35C42.2052 7.35 41.2385 7 40.4719 6.3C39.7385 5.6 39.3719 4.71667 39.3719 3.65C39.3719 2.58333 39.7385 1.71666 40.4719 1.05C41.2385 0.349998 42.2052 -1.43051e-06 43.3719 -1.43051e-06C44.5385 -1.43051e-06 45.4885 0.349998 46.2219 1.05C46.9885 1.71666 47.3719 2.58333 47.3719 3.65C47.3719 4.71667 46.9885 5.6 46.2219 6.3C45.4885 7 44.5385 7.35 43.3719 7.35ZM40.1719 36V11.2H46.5719V36H40.1719ZM53.252 36V11.2H58.952L59.552 15.85C60.452 14.25 61.6686 12.9833 63.202 12.05C64.7686 11.0833 66.602 10.6 68.702 10.6V17.35H66.902C65.502 17.35 64.252 17.5667 63.152 18C62.052 18.4333 61.1853 19.1833 60.552 20.25C59.952 21.3167 59.652 22.8 59.652 24.7V36H53.252ZM84.5367 36.6C82.1367 36.6 79.9701 36.05 78.0367 34.95C76.1367 33.85 74.6201 32.3333 73.4867 30.4C72.3867 28.4333 71.8367 26.1667 71.8367 23.6C71.8367 21.0333 72.4034 18.7833 73.5367 16.85C74.6701 14.8833 76.1867 13.35 78.0867 12.25C80.0201 11.15 82.1867 10.6 84.5867 10.6C86.9534 10.6 89.0867 11.15 90.9867 12.25C92.9201 13.35 94.4367 14.8833 95.5367 16.85C96.6701 18.7833 97.2367 21.0333 97.2367 23.6C97.2367 26.1667 96.6701 28.4333 95.5367 30.4C94.4367 32.3333 92.9201 33.85 90.9867 34.95C89.0534 36.05 86.9034 36.6 84.5367 36.6ZM84.5367 31.05C86.2034 31.05 87.6534 30.4333 88.8867 29.2C90.1201 27.9333 90.7367 26.0667 90.7367 23.6C90.7367 21.1333 90.1201 19.2833 88.8867 18.05C87.6534 16.7833 86.2201 16.15 84.5867 16.15C82.8867 16.15 81.4201 16.7833 80.1867 18.05C78.9867 19.2833 78.3867 21.1333 78.3867 23.6C78.3867 26.0667 78.9867 27.9333 80.1867 29.2C81.4201 30.4333 82.8701 31.05 84.5367 31.05Z" fill="white"/>
<path d="M103.109 36V0.999998H109.509V15.15L122.459 0.999998H130.359L117.459 14.9L130.709 36H122.859L112.859 19.8L109.509 23.45V36H103.109ZM141.782 36.6C139.649 36.6 137.899 36.2667 136.532 35.6C135.166 34.9 134.149 33.9833 133.482 32.85C132.816 31.7167 132.482 30.4667 132.482 29.1C132.482 26.8 133.382 24.9333 135.182 23.5C136.982 22.0667 139.682 21.35 143.282 21.35H149.582V20.75C149.582 19.05 149.099 17.8 148.132 17C147.166 16.2 145.966 15.8 144.532 15.8C143.232 15.8 142.099 16.1167 141.132 16.75C140.166 17.35 139.566 18.25 139.332 19.45H133.082C133.249 17.65 133.849 16.0833 134.882 14.75C135.949 13.4167 137.316 12.4 138.982 11.7C140.649 10.9667 142.516 10.6 144.582 10.6C148.116 10.6 150.899 11.4833 152.932 13.25C154.966 15.0167 155.982 17.5167 155.982 20.75V36H150.532L149.932 32C149.199 33.3333 148.166 34.4333 146.832 35.3C145.532 36.1667 143.849 36.6 141.782 36.6ZM143.232 31.6C145.066 31.6 146.482 31 147.482 29.8C148.516 28.6 149.166 27.1167 149.432 25.35H143.982C142.282 25.35 141.066 25.6667 140.332 26.3C139.599 26.9 139.232 27.65 139.232 28.55C139.232 29.5167 139.599 30.2667 140.332 30.8C141.066 31.3333 142.032 31.6 143.232 31.6ZM176.79 36.6C174.923 36.6 173.29 36.25 171.89 35.55C170.49 34.85 169.357 33.8667 168.49 32.6L167.79 36H162.09V-1.43051e-06H168.49V14.75C169.29 13.65 170.34 12.6833 171.64 11.85C172.973 11.0167 174.69 10.6 176.79 10.6C179.123 10.6 181.207 11.1667 183.04 12.3C184.873 13.4333 186.323 14.9833 187.39 16.95C188.457 18.9167 188.99 21.15 188.99 23.65C188.99 26.15 188.457 28.3833 187.39 30.35C186.323 32.2833 184.873 33.8167 183.04 34.95C181.207 36.05 179.123 36.6 176.79 36.6ZM175.44 31C177.473 31 179.157 30.3167 180.49 28.95C181.823 27.5833 182.49 25.8167 182.49 23.65C182.49 21.4833 181.823 19.7 180.49 18.3C179.157 16.9 177.473 16.2 175.44 16.2C173.373 16.2 171.673 16.9 170.34 18.3C169.04 19.6667 168.39 21.4333 168.39 23.6C168.39 25.7667 169.04 27.55 170.34 28.95C171.673 30.3167 173.373 31 175.44 31Z" fill="#F7B518"/>
</svg>
