<svg width="70" height="70" viewBox="0 0 70 70" fill="none" xmlns="http://www.w3.org/2000/svg">
<path fill-rule="evenodd" clip-rule="evenodd" d="M55.5793 14.4207C57.4736 16.315 57.4736 19.3862 55.5793 21.2805L41.8598 35L55.5793 48.7195C57.4736 50.6138 57.4736 53.685 55.5793 55.5793C53.685 57.4736 50.6138 57.4736 48.7195 55.5793L35 41.8598L21.2805 55.5793C19.3862 57.4736 16.315 57.4736 14.4207 55.5793C12.5264 53.685 12.5264 50.6138 14.4207 48.7195L28.1402 35L14.4207 21.2805C12.5264 19.3862 12.5264 16.315 14.4207 14.4207C16.315 12.5264 19.3862 12.5264 21.2805 14.4207L35 28.1402L48.7195 14.4207C50.6138 12.5264 53.685 12.5264 55.5793 14.4207Z" fill="#FAB60B"/>
</svg>
